<svg xmlns="http://www.w3.org/2000/svg" xmlns:xlink="http://www.w3.org/1999/xlink" width="170" zoomAndPan="magnify" viewBox="0 0 127.5 178.499993" height="238" preserveAspectRatio="xMidYMid meet" version="1.0"><defs><g/><clipPath id="id1"><path d="M 0 0.0976562 L 127 0.0976562 L 127 177.902344 L 0 177.902344 Z M 0 0.0976562 " clip-rule="nonzero"/></clipPath><clipPath id="id2"><path d="M 55 70.460938 L 72 70.460938 L 72 86 L 55 86 Z M 55 70.460938 " clip-rule="nonzero"/></clipPath><clipPath id="id3"><path d="M 45.308594 85 L 62 85 L 62 101 L 45.308594 101 Z M 45.308594 85 " clip-rule="nonzero"/></clipPath><clipPath id="id4"><path d="M 54 95 L 73 95 L 73 107.960938 L 54 107.960938 Z M 54 95 " clip-rule="nonzero"/></clipPath><clipPath id="id5"><path d="M 9 21.675781 L 17 21.675781 L 17 29 L 9 29 Z M 9 21.675781 " clip-rule="nonzero"/></clipPath><clipPath id="id6"><path d="M 13 27 L 20.71875 27 L 20.71875 35 L 13 35 Z M 13 27 " clip-rule="nonzero"/></clipPath><clipPath id="id7"><path d="M 8 32 L 17 32 L 17 37.425781 L 8 37.425781 Z M 8 32 " clip-rule="nonzero"/></clipPath><clipPath id="id8"><path d="M 111 150 L 119 150 L 119 157.011719 L 111 157.011719 Z M 111 150 " clip-rule="nonzero"/></clipPath><clipPath id="id9"><path d="M 106.769531 144 L 114 144 L 114 151 L 106.769531 151 Z M 106.769531 144 " clip-rule="nonzero"/></clipPath><clipPath id="id10"><path d="M 115 144 L 122.519531 144 L 122.519531 151 L 115 151 Z M 115 144 " clip-rule="nonzero"/></clipPath><clipPath id="id11"><path d="M 110 141.261719 L 119 141.261719 L 119 147 L 110 147 Z M 110 141.261719 " clip-rule="nonzero"/></clipPath></defs><g clip-path="url(#id1)"><path fill="#ffffff" d="M 0 0.0976562 L 127.5 0.0976562 L 127.5 186.097656 L 0 186.097656 Z M 0 0.0976562 " fill-opacity="1" fill-rule="nonzero"/><path fill="#ffffff" d="M 0 0.0976562 L 127.5 0.0976562 L 127.5 178.597656 L 0 178.597656 Z M 0 0.0976562 " fill-opacity="1" fill-rule="nonzero"/><path fill="#ffffff" d="M 0 0.0976562 L 127.5 0.0976562 L 127.5 178.597656 L 0 178.597656 Z M 0 0.0976562 " fill-opacity="1" fill-rule="nonzero"/><path fill="#ffffff" d="M 0 0.0976562 L 127.5 0.0976562 L 127.5 178.597656 L 0 178.597656 Z M 0 0.0976562 " fill-opacity="1" fill-rule="nonzero"/></g><g fill="#000000" fill-opacity="1"><g transform="translate(121.078249, 160.852378)"><g><path d="M -7.890625 0.34375 L -6.5625 4.296875 L -2.9375 4.296875 L -1.53125 0.34375 L -2.90625 0.34375 L -2.90625 0 L -0.109375 0 L -0.109375 0.34375 L -0.96875 0.34375 L -5.625 12.890625 L -7.125 12.890625 L -11.734375 0.34375 L -12.5625 0.34375 L -12.5625 0 L -6.59375 0 L -6.59375 0.34375 Z M -4.828125 9.484375 L -3.109375 4.6875 L -6.40625 4.6875 Z M -4.828125 9.484375 "/></g></g></g><g clip-path="url(#id2)"><path fill="#000000" d="M 71.585938 78.175781 C 71.585938 82.449219 68.003906 85.914062 63.578125 85.914062 C 59.15625 85.914062 55.574219 82.449219 55.574219 78.175781 C 55.574219 73.902344 59.15625 70.4375 63.578125 70.4375 C 68 70.4375 71.585938 73.902344 71.585938 78.175781 Z M 71.585938 78.175781 " fill-opacity="1" fill-rule="nonzero"/></g><path fill="#000000" d="M 81.898438 92.8125 C 81.898438 97.089844 78.316406 100.550781 73.890625 100.550781 C 69.46875 100.550781 65.886719 97.089844 65.886719 92.8125 C 65.886719 88.542969 69.46875 85.078125 73.890625 85.078125 C 78.316406 85.078125 81.898438 88.542969 81.898438 92.8125 Z M 81.898438 92.8125 " fill-opacity="1" fill-rule="nonzero"/><g clip-path="url(#id3)"><path fill="#000000" d="M 61.394531 92.882812 C 61.394531 94.445312 60.914062 95.902344 60.085938 97.121094 C 58.65625 99.226562 56.1875 100.617188 53.386719 100.617188 C 48.960938 100.617188 45.378906 97.15625 45.378906 92.882812 C 45.378906 88.609375 48.960938 85.144531 53.386719 85.144531 C 57.808594 85.144531 61.394531 88.609375 61.394531 92.882812 Z M 61.394531 92.882812 " fill-opacity="1" fill-rule="nonzero"/></g><g clip-path="url(#id4)"><path fill="#000000" d="M 72.972656 107.894531 C 69.015625 107.898438 66.9375 104.695312 65.84375 101.492188 C 64.753906 98.289062 64.652344 95.082031 64.652344 95.082031 L 62.632812 95.0625 C 62.632812 95.0625 62.253906 107.886719 54.347656 107.894531 Z M 72.972656 107.894531 " fill-opacity="1" fill-rule="nonzero"/></g><path fill="#000000" d="M 58.136719 83.859375 C 62.632812 88.339844 62.632812 95.066406 62.632812 95.066406 L 64.652344 95.082031 C 64.652344 95.082031 64.652344 88.214844 69.023438 83.859375 " fill-opacity="1" fill-rule="nonzero"/><path fill="#000000" d="M 59.039062 98.25 C 63.535156 93.769531 70.285156 93.769531 70.285156 93.769531 L 70.300781 91.757812 C 70.300781 91.757812 63.40625 91.757812 59.039062 87.402344 " fill-opacity="1" fill-rule="nonzero"/><path fill="#000000" d="M 68.054688 98.28125 C 63.558594 93.804688 56.804688 93.804688 56.804688 93.804688 L 56.789062 91.792969 C 56.789062 91.792969 63.6875 91.792969 68.054688 87.4375 " fill-opacity="1" fill-rule="nonzero"/><g fill="#000000" fill-opacity="1"><g transform="translate(6.410287, 17.846451)"><g><path d="M 7.890625 -0.34375 L 6.5625 -4.296875 L 2.9375 -4.296875 L 1.53125 -0.34375 L 2.90625 -0.34375 L 2.90625 0 L 0.109375 0 L 0.109375 -0.34375 L 0.96875 -0.34375 L 5.625 -12.890625 L 7.125 -12.890625 L 11.734375 -0.34375 L 12.5625 -0.34375 L 12.5625 0 L 6.59375 0 L 6.59375 -0.34375 Z M 4.828125 -9.484375 L 3.109375 -4.6875 L 6.40625 -4.6875 Z M 4.828125 -9.484375 "/></g></g></g><g clip-path="url(#id5)"><path fill="#000000" d="M 16.230469 24.914062 C 16.230469 26.707031 14.695312 28.164062 12.800781 28.164062 C 10.90625 28.164062 9.367188 26.707031 9.367188 24.914062 C 9.367188 23.121094 10.90625 21.664062 12.800781 21.664062 C 14.695312 21.664062 16.230469 23.121094 16.230469 24.914062 Z M 16.230469 24.914062 " fill-opacity="1" fill-rule="nonzero"/></g><g clip-path="url(#id6)"><path fill="#000000" d="M 20.652344 31.0625 C 20.652344 32.859375 19.113281 34.3125 17.21875 34.3125 C 15.324219 34.3125 13.789062 32.859375 13.789062 31.0625 C 13.789062 29.269531 15.324219 27.8125 17.21875 27.8125 C 19.113281 27.8125 20.652344 29.269531 20.652344 31.0625 Z M 20.652344 31.0625 " fill-opacity="1" fill-rule="nonzero"/></g><path fill="#000000" d="M 11.863281 31.089844 C 11.863281 31.746094 11.65625 32.359375 11.304688 32.871094 C 10.691406 33.757812 9.632812 34.339844 8.429688 34.339844 C 6.535156 34.339844 5 32.886719 5 31.089844 C 5 29.296875 6.535156 27.839844 8.429688 27.839844 C 10.328125 27.839844 11.863281 29.296875 11.863281 31.089844 Z M 11.863281 31.089844 " fill-opacity="1" fill-rule="nonzero"/><g clip-path="url(#id7)"><path fill="#000000" d="M 16.824219 37.398438 C 15.128906 37.398438 14.238281 36.050781 13.769531 34.707031 C 13.304688 33.359375 13.257812 32.015625 13.257812 32.015625 L 12.394531 32.007812 C 12.394531 32.007812 12.234375 37.390625 8.84375 37.394531 Z M 16.824219 37.398438 " fill-opacity="1" fill-rule="nonzero"/></g><path fill="#000000" d="M 10.46875 27.300781 C 12.394531 29.183594 12.394531 32.007812 12.394531 32.007812 L 13.257812 32.015625 C 13.257812 32.015625 13.257812 29.128906 15.132812 27.300781 " fill-opacity="1" fill-rule="nonzero"/><path fill="#000000" d="M 10.855469 33.34375 C 12.78125 31.464844 15.675781 31.464844 15.675781 31.464844 L 15.679688 30.617188 C 15.679688 30.617188 12.726562 30.617188 10.855469 28.789062 " fill-opacity="1" fill-rule="nonzero"/><path fill="#000000" d="M 14.71875 33.359375 C 12.792969 31.476562 9.898438 31.476562 9.898438 31.476562 L 9.890625 30.632812 C 9.890625 30.632812 12.847656 30.632812 14.71875 28.804688 " fill-opacity="1" fill-rule="nonzero"/><g clip-path="url(#id8)"><path fill="#000000" d="M 111.257812 153.773438 C 111.257812 151.980469 112.792969 150.523438 114.691406 150.523438 C 116.585938 150.523438 118.121094 151.980469 118.121094 153.773438 C 118.121094 155.570312 116.585938 157.023438 114.691406 157.023438 C 112.796875 157.023438 111.257812 155.570312 111.257812 153.773438 Z M 111.257812 153.773438 " fill-opacity="1" fill-rule="nonzero"/></g><g clip-path="url(#id9)"><path fill="#000000" d="M 106.839844 147.625 C 106.839844 145.828125 108.375 144.375 110.269531 144.375 C 112.164062 144.375 113.703125 145.828125 113.703125 147.625 C 113.703125 149.417969 112.164062 150.875 110.269531 150.875 C 108.375 150.875 106.839844 149.417969 106.839844 147.625 Z M 106.839844 147.625 " fill-opacity="1" fill-rule="nonzero"/></g><g clip-path="url(#id10)"><path fill="#000000" d="M 115.628906 147.597656 C 115.628906 146.941406 115.832031 146.328125 116.1875 145.816406 C 116.800781 144.933594 117.859375 144.347656 119.058594 144.347656 C 120.953125 144.347656 122.488281 145.800781 122.488281 147.597656 C 122.488281 149.390625 120.953125 150.847656 119.058594 150.847656 C 117.164062 150.847656 115.628906 149.390625 115.628906 147.597656 Z M 115.628906 147.597656 " fill-opacity="1" fill-rule="nonzero"/></g><g clip-path="url(#id11)"><path fill="#000000" d="M 110.664062 141.292969 C 112.359375 141.289062 113.25 142.636719 113.71875 143.980469 C 114.1875 145.328125 114.230469 146.671875 114.230469 146.671875 L 115.09375 146.679688 C 115.09375 146.679688 115.257812 141.296875 118.644531 141.292969 Z M 110.664062 141.292969 " fill-opacity="1" fill-rule="nonzero"/></g><path fill="#000000" d="M 117.023438 151.386719 C 115.09375 149.503906 115.09375 146.679688 115.09375 146.679688 L 114.230469 146.671875 C 114.230469 146.671875 114.230469 149.558594 112.355469 151.386719 " fill-opacity="1" fill-rule="nonzero"/><path fill="#000000" d="M 116.636719 145.34375 C 114.710938 147.222656 111.816406 147.222656 111.816406 147.222656 L 111.808594 148.070312 C 111.808594 148.070312 114.765625 148.070312 116.636719 149.898438 " fill-opacity="1" fill-rule="nonzero"/><path fill="#000000" d="M 112.773438 145.328125 C 114.699219 147.210938 117.59375 147.210938 117.59375 147.210938 L 117.601562 148.054688 C 117.601562 148.054688 114.644531 148.054688 112.773438 149.882812 " fill-opacity="1" fill-rule="nonzero"/></svg>