<svg xmlns="http://www.w3.org/2000/svg" xmlns:xlink="http://www.w3.org/1999/xlink" width="170" zoomAndPan="magnify" viewBox="0 0 127.5 178.499993" height="238" preserveAspectRatio="xMidYMid meet" version="1.0"><defs><g/><clipPath id="id1"><path d="M 0 0.0976562 L 127 0.0976562 L 127 177.902344 L 0 177.902344 Z M 0 0.0976562 " clip-rule="nonzero"/></clipPath><clipPath id="id2"><path d="M 9 21.945312 L 17 21.945312 L 17 29 L 9 29 Z M 9 21.945312 " clip-rule="nonzero"/></clipPath><clipPath id="id3"><path d="M 13 28 L 21.085938 28 L 21.085938 36 L 13 36 Z M 13 28 " clip-rule="nonzero"/></clipPath><clipPath id="id4"><path d="M 4.585938 28 L 12 28 L 12 36 L 4.585938 36 Z M 4.585938 28 " clip-rule="nonzero"/></clipPath><clipPath id="id5"><path d="M 8 32 L 18 32 L 18 38.445312 L 8 38.445312 Z M 8 32 " clip-rule="nonzero"/></clipPath><clipPath id="id6"><path d="M 111 149 L 119 149 L 119 156.75 L 111 156.75 Z M 111 149 " clip-rule="nonzero"/></clipPath><clipPath id="id7"><path d="M 106.410156 143 L 114 143 L 114 151 L 106.410156 151 Z M 106.410156 143 " clip-rule="nonzero"/></clipPath><clipPath id="id8"><path d="M 115 143 L 122.910156 143 L 122.910156 151 L 115 151 Z M 115 143 " clip-rule="nonzero"/></clipPath><clipPath id="id9"><path d="M 110 140.25 L 119 140.25 L 119 146 L 110 146 Z M 110 140.25 " clip-rule="nonzero"/></clipPath><clipPath id="id10"><path d="M 32 11.023438 L 46 11.023438 L 46 24 L 32 24 Z M 32 11.023438 " clip-rule="nonzero"/></clipPath><clipPath id="id11"><path d="M 24.058594 23 L 38 23 L 38 36 L 24.058594 36 Z M 24.058594 23 " clip-rule="nonzero"/></clipPath><clipPath id="id12"><path d="M 31 31 L 47 31 L 47 41.773438 L 31 41.773438 Z M 31 31 " clip-rule="nonzero"/></clipPath><clipPath id="id13"><path d="M 32 155 L 47 155 L 47 167.675781 L 32 167.675781 Z M 32 155 " clip-rule="nonzero"/></clipPath><clipPath id="id14"><path d="M 24.410156 143 L 38 143 L 38 156 L 24.410156 156 Z M 24.410156 143 " clip-rule="nonzero"/></clipPath><clipPath id="id15"><path d="M 41 142 L 54.410156 142 L 54.410156 156 L 41 156 Z M 41 142 " clip-rule="nonzero"/></clipPath><clipPath id="id16"><path d="M 31 136.925781 L 48 136.925781 L 48 148 L 31 148 Z M 31 136.925781 " clip-rule="nonzero"/></clipPath><clipPath id="id17"><path d="M 81 11.023438 L 95 11.023438 L 95 24 L 81 24 Z M 81 11.023438 " clip-rule="nonzero"/></clipPath><clipPath id="id18"><path d="M 73.089844 23 L 87 23 L 87 36 L 73.089844 36 Z M 73.089844 23 " clip-rule="nonzero"/></clipPath><clipPath id="id19"><path d="M 80 31 L 96 31 L 96 41.773438 L 80 41.773438 Z M 80 31 " clip-rule="nonzero"/></clipPath><clipPath id="id20"><path d="M 81 155 L 96 155 L 96 167.675781 L 81 167.675781 Z M 81 155 " clip-rule="nonzero"/></clipPath><clipPath id="id21"><path d="M 73.441406 143 L 87 143 L 87 156 L 73.441406 156 Z M 73.441406 143 " clip-rule="nonzero"/></clipPath><clipPath id="id22"><path d="M 90 142 L 103.441406 142 L 103.441406 156 L 90 156 Z M 90 142 " clip-rule="nonzero"/></clipPath><clipPath id="id23"><path d="M 80 136.925781 L 97 136.925781 L 97 148 L 80 148 Z M 80 136.925781 " clip-rule="nonzero"/></clipPath></defs><g clip-path="url(#id1)"><path fill="#ffffff" d="M 0 0.0976562 L 127.5 0.0976562 L 127.5 186.097656 L 0 186.097656 Z M 0 0.0976562 " fill-opacity="1" fill-rule="nonzero"/><path fill="#ffffff" d="M 0 0.0976562 L 127.5 0.0976562 L 127.5 178.597656 L 0 178.597656 Z M 0 0.0976562 " fill-opacity="1" fill-rule="nonzero"/><path fill="#ffffff" d="M 0 0.0976562 L 127.5 0.0976562 L 127.5 178.597656 L 0 178.597656 Z M 0 0.0976562 " fill-opacity="1" fill-rule="nonzero"/><path fill="#ffffff" d="M 0 0.0976562 L 127.5 0.0976562 L 127.5 178.597656 L 0 178.597656 Z M 0 0.0976562 " fill-opacity="1" fill-rule="nonzero"/></g><g clip-path="url(#id2)"><path fill="#000000" d="M 16.382812 25.339844 C 16.382812 27.21875 14.773438 28.742188 12.789062 28.742188 C 10.800781 28.742188 9.191406 27.21875 9.191406 25.339844 C 9.191406 23.460938 10.800781 21.933594 12.789062 21.933594 C 14.773438 21.933594 16.382812 23.460938 16.382812 25.339844 Z M 16.382812 25.339844 " fill-opacity="1" fill-rule="nonzero"/></g><g clip-path="url(#id3)"><path fill="#000000" d="M 21.015625 31.78125 C 21.015625 33.660156 19.40625 35.1875 17.417969 35.1875 C 15.433594 35.1875 13.824219 33.660156 13.824219 31.78125 C 13.824219 29.902344 15.433594 28.378906 17.417969 28.378906 C 19.40625 28.378906 21.015625 29.902344 21.015625 31.78125 Z M 21.015625 31.78125 " fill-opacity="1" fill-rule="nonzero"/></g><g clip-path="url(#id4)"><path fill="#000000" d="M 11.804688 31.8125 C 11.804688 32.5 11.589844 33.140625 11.21875 33.675781 C 10.574219 34.601562 9.46875 35.214844 8.210938 35.214844 C 6.222656 35.214844 4.613281 33.691406 4.613281 31.8125 C 4.613281 29.929688 6.222656 28.40625 8.210938 28.40625 C 10.195312 28.40625 11.804688 29.929688 11.804688 31.8125 Z M 11.804688 31.8125 " fill-opacity="1" fill-rule="nonzero"/></g><g clip-path="url(#id5)"><path fill="#000000" d="M 17.003906 38.417969 C 15.230469 38.417969 14.296875 37.007812 13.804688 35.597656 C 13.3125 34.1875 13.269531 32.777344 13.269531 32.777344 L 12.363281 32.769531 C 12.363281 32.769531 12.191406 38.414062 8.640625 38.414062 Z M 17.003906 38.417969 " fill-opacity="1" fill-rule="nonzero"/></g><path fill="#000000" d="M 10.34375 27.839844 C 12.363281 29.8125 12.363281 32.773438 12.363281 32.773438 L 13.269531 32.777344 C 13.269531 32.777344 13.269531 29.757812 15.230469 27.839844 " fill-opacity="1" fill-rule="nonzero"/><path fill="#000000" d="M 10.746094 34.171875 C 12.765625 32.199219 15.800781 32.199219 15.800781 32.199219 L 15.804688 31.316406 C 15.804688 31.316406 12.710938 31.316406 10.746094 29.402344 " fill-opacity="1" fill-rule="nonzero"/><path fill="#000000" d="M 14.796875 34.1875 C 12.777344 32.214844 9.746094 32.214844 9.746094 32.214844 L 9.738281 31.332031 C 9.738281 31.332031 12.835938 31.332031 14.796875 29.414062 " fill-opacity="1" fill-rule="nonzero"/><g fill="#000000" fill-opacity="1"><g transform="translate(7.242188, 17.772726)"><g><path d="M 3.328125 0 L 3.328125 -0.34375 L 5.046875 -0.34375 L 5.046875 -3.265625 L 0.09375 -3.265625 L 0.09375 -3.609375 L 5.25 -12.78125 L 8.40625 -12.78125 L 8.40625 -3.703125 L 10.203125 -3.703125 L 10.203125 -5.296875 L 10.5625 -5.296875 L 10.5625 -1.921875 L 10.203125 -1.921875 L 10.203125 -3.265625 L 8.40625 -3.265625 L 8.40625 -0.34375 L 9.65625 -0.34375 L 9.65625 0 Z M 0.671875 -3.703125 L 5.046875 -3.703125 L 5.046875 -11.390625 Z M 0.671875 -3.703125 "/></g></g></g><g fill="#000000" fill-opacity="1"><g transform="translate(121.609719, 160.923988)"><g><path d="M -3.328125 0 L -3.328125 0.34375 L -5.046875 0.34375 L -5.046875 3.265625 L -0.09375 3.265625 L -0.09375 3.609375 L -5.25 12.78125 L -8.40625 12.78125 L -8.40625 3.703125 L -10.203125 3.703125 L -10.203125 5.296875 L -10.5625 5.296875 L -10.5625 1.921875 L -10.203125 1.921875 L -10.203125 3.265625 L -8.40625 3.265625 L -8.40625 0.34375 L -9.65625 0.34375 L -9.65625 0 Z M -0.671875 3.703125 L -5.046875 3.703125 L -5.046875 11.390625 Z M -0.671875 3.703125 "/></g></g></g><g clip-path="url(#id6)"><path fill="#000000" d="M 111.109375 153.355469 C 111.109375 151.472656 112.71875 149.949219 114.703125 149.949219 C 116.691406 149.949219 118.300781 151.472656 118.300781 153.355469 C 118.300781 155.234375 116.691406 156.757812 114.703125 156.757812 C 112.71875 156.757812 111.109375 155.234375 111.109375 153.355469 Z M 111.109375 153.355469 " fill-opacity="1" fill-rule="nonzero"/></g><g clip-path="url(#id7)"><path fill="#000000" d="M 106.476562 146.914062 C 106.476562 145.03125 108.085938 143.507812 110.074219 143.507812 C 112.058594 143.507812 113.667969 145.03125 113.667969 146.914062 C 113.667969 148.792969 112.058594 150.316406 110.074219 150.316406 C 108.085938 150.316406 106.476562 148.792969 106.476562 146.914062 Z M 106.476562 146.914062 " fill-opacity="1" fill-rule="nonzero"/></g><g clip-path="url(#id8)"><path fill="#000000" d="M 115.6875 146.882812 C 115.6875 146.195312 115.902344 145.554688 116.273438 145.019531 C 116.917969 144.089844 118.023438 143.480469 119.28125 143.480469 C 121.269531 143.480469 122.878906 145.003906 122.878906 146.882812 C 122.878906 148.765625 121.269531 150.289062 119.28125 150.289062 C 117.296875 150.289062 115.6875 148.765625 115.6875 146.882812 Z M 115.6875 146.882812 " fill-opacity="1" fill-rule="nonzero"/></g><g clip-path="url(#id9)"><path fill="#000000" d="M 110.488281 140.277344 C 112.261719 140.277344 113.195312 141.6875 113.6875 143.097656 C 114.179688 144.503906 114.222656 145.917969 114.222656 145.917969 L 115.128906 145.921875 C 115.128906 145.921875 115.300781 140.28125 118.851562 140.277344 Z M 110.488281 140.277344 " fill-opacity="1" fill-rule="nonzero"/></g><path fill="#000000" d="M 117.148438 150.855469 C 115.128906 148.882812 115.128906 145.921875 115.128906 145.921875 L 114.222656 145.914062 C 114.222656 145.914062 114.222656 148.9375 112.261719 150.855469 " fill-opacity="1" fill-rule="nonzero"/><path fill="#000000" d="M 116.746094 144.523438 C 114.726562 146.492188 111.691406 146.492188 111.691406 146.492188 L 111.6875 147.378906 C 111.6875 147.378906 114.78125 147.378906 116.746094 149.292969 " fill-opacity="1" fill-rule="nonzero"/><path fill="#000000" d="M 112.695312 144.507812 C 114.714844 146.480469 117.746094 146.480469 117.746094 146.480469 L 117.753906 147.363281 C 117.753906 147.363281 114.65625 147.363281 112.695312 149.277344 " fill-opacity="1" fill-rule="nonzero"/><g clip-path="url(#id10)"><path fill="#000000" d="M 45.507812 17.347656 C 45.507812 20.851562 42.582031 23.691406 38.972656 23.691406 C 35.359375 23.691406 32.433594 20.851562 32.433594 17.347656 C 32.433594 13.84375 35.363281 11.003906 38.972656 11.003906 C 42.582031 11.003906 45.507812 13.84375 45.507812 17.347656 Z M 45.507812 17.347656 " fill-opacity="1" fill-rule="nonzero"/></g><path fill="#000000" d="M 53.929688 29.351562 C 53.929688 32.855469 51.003906 35.695312 47.390625 35.695312 C 43.78125 35.695312 40.855469 32.855469 40.855469 29.351562 C 40.855469 25.847656 43.78125 23.007812 47.390625 23.007812 C 51.003906 23.007812 53.929688 25.847656 53.929688 29.351562 Z M 53.929688 29.351562 " fill-opacity="1" fill-rule="nonzero"/><g clip-path="url(#id11)"><path fill="#000000" d="M 37.1875 29.40625 C 37.1875 30.691406 36.792969 31.886719 36.121094 32.882812 C 34.953125 34.609375 32.9375 35.75 30.648438 35.75 C 27.039062 35.75 24.113281 32.910156 24.113281 29.40625 C 24.113281 25.902344 27.039062 23.0625 30.648438 23.0625 C 34.257812 23.0625 37.1875 25.902344 37.1875 29.40625 Z M 37.1875 29.40625 " fill-opacity="1" fill-rule="nonzero"/></g><g clip-path="url(#id12)"><path fill="#000000" d="M 46.640625 41.71875 C 43.410156 41.71875 41.714844 39.09375 40.820312 36.464844 C 39.929688 33.839844 39.847656 31.210938 39.847656 31.210938 L 38.199219 31.195312 C 38.199219 31.195312 37.890625 41.710938 31.4375 41.714844 Z M 46.640625 41.71875 " fill-opacity="1" fill-rule="nonzero"/></g><path fill="#000000" d="M 34.527344 22.007812 C 38.199219 25.683594 38.199219 31.199219 38.199219 31.199219 L 39.847656 31.210938 C 39.847656 31.210938 39.847656 25.578125 43.417969 22.007812 " fill-opacity="1" fill-rule="nonzero"/><path fill="#000000" d="M 35.261719 33.808594 C 38.933594 30.132812 44.449219 30.132812 44.449219 30.132812 L 44.460938 28.488281 C 44.460938 28.488281 38.832031 28.488281 35.261719 24.914062 " fill-opacity="1" fill-rule="nonzero"/><path fill="#000000" d="M 42.625 33.835938 C 38.957031 30.164062 33.441406 30.164062 33.441406 30.164062 L 33.429688 28.515625 C 33.429688 28.515625 39.058594 28.515625 42.625 24.941406 " fill-opacity="1" fill-rule="nonzero"/><g clip-path="url(#id13)"><path fill="#000000" d="M 32.957031 161.351562 C 32.957031 157.847656 35.882812 155.007812 39.492188 155.007812 C 43.105469 155.007812 46.03125 157.847656 46.03125 161.351562 C 46.03125 164.855469 43.101562 167.695312 39.492188 167.695312 C 35.882812 167.695312 32.957031 164.855469 32.957031 161.351562 Z M 32.957031 161.351562 " fill-opacity="1" fill-rule="nonzero"/></g><g clip-path="url(#id14)"><path fill="#000000" d="M 24.535156 149.347656 C 24.535156 145.839844 27.460938 143.003906 31.074219 143.003906 C 34.683594 143.003906 37.609375 145.839844 37.609375 149.347656 C 37.609375 152.851562 34.683594 155.691406 31.074219 155.691406 C 27.460938 155.691406 24.535156 152.851562 24.535156 149.347656 Z M 24.535156 149.347656 " fill-opacity="1" fill-rule="nonzero"/></g><g clip-path="url(#id15)"><path fill="#000000" d="M 41.277344 149.292969 C 41.277344 148.007812 41.671875 146.8125 42.347656 145.816406 C 43.515625 144.085938 45.527344 142.945312 47.816406 142.945312 C 51.425781 142.945312 54.351562 145.785156 54.351562 149.292969 C 54.351562 152.796875 51.425781 155.636719 47.816406 155.636719 C 44.207031 155.636719 41.277344 152.796875 41.277344 149.292969 Z M 41.277344 149.292969 " fill-opacity="1" fill-rule="nonzero"/></g><g clip-path="url(#id16)"><path fill="#000000" d="M 31.824219 136.980469 C 35.054688 136.976562 36.753906 139.605469 37.644531 142.234375 C 38.535156 144.859375 38.617188 147.488281 38.617188 147.488281 L 40.265625 147.503906 C 40.265625 147.503906 40.574219 136.988281 47.03125 136.984375 Z M 31.824219 136.980469 " fill-opacity="1" fill-rule="nonzero"/></g><path fill="#000000" d="M 43.9375 156.691406 C 40.265625 153.015625 40.265625 147.5 40.265625 147.5 L 38.617188 147.488281 C 38.617188 147.488281 38.617188 153.121094 35.046875 156.691406 " fill-opacity="1" fill-rule="nonzero"/><path fill="#000000" d="M 43.203125 144.890625 C 39.53125 148.5625 34.015625 148.5625 34.015625 148.5625 L 34.003906 150.210938 C 34.003906 150.210938 39.632812 150.210938 43.203125 153.785156 " fill-opacity="1" fill-rule="nonzero"/><path fill="#000000" d="M 35.839844 144.863281 C 39.511719 148.535156 45.023438 148.535156 45.023438 148.535156 L 45.035156 150.183594 C 45.035156 150.183594 39.40625 150.183594 35.839844 153.753906 " fill-opacity="1" fill-rule="nonzero"/><g clip-path="url(#id17)"><path fill="#000000" d="M 94.539062 17.347656 C 94.539062 20.851562 91.613281 23.691406 88.003906 23.691406 C 84.390625 23.691406 81.464844 20.851562 81.464844 17.347656 C 81.464844 13.84375 84.394531 11.003906 88.003906 11.003906 C 91.613281 11.003906 94.539062 13.84375 94.539062 17.347656 Z M 94.539062 17.347656 " fill-opacity="1" fill-rule="nonzero"/></g><path fill="#000000" d="M 102.960938 29.351562 C 102.960938 32.855469 100.035156 35.695312 96.421875 35.695312 C 92.8125 35.695312 89.886719 32.855469 89.886719 29.351562 C 89.886719 25.847656 92.8125 23.007812 96.421875 23.007812 C 100.035156 23.007812 102.960938 25.847656 102.960938 29.351562 Z M 102.960938 29.351562 " fill-opacity="1" fill-rule="nonzero"/><g clip-path="url(#id18)"><path fill="#000000" d="M 86.21875 29.40625 C 86.21875 30.691406 85.824219 31.886719 85.152344 32.882812 C 83.984375 34.609375 81.96875 35.75 79.679688 35.75 C 76.070312 35.75 73.144531 32.910156 73.144531 29.40625 C 73.144531 25.902344 76.070312 23.0625 79.679688 23.0625 C 83.289062 23.0625 86.21875 25.902344 86.21875 29.40625 Z M 86.21875 29.40625 " fill-opacity="1" fill-rule="nonzero"/></g><g clip-path="url(#id19)"><path fill="#000000" d="M 95.671875 41.71875 C 92.441406 41.71875 90.746094 39.09375 89.851562 36.464844 C 88.960938 33.839844 88.878906 31.210938 88.878906 31.210938 L 87.230469 31.195312 C 87.230469 31.195312 86.921875 41.710938 80.464844 41.714844 Z M 95.671875 41.71875 " fill-opacity="1" fill-rule="nonzero"/></g><path fill="#000000" d="M 83.558594 22.007812 C 87.230469 25.683594 87.230469 31.199219 87.230469 31.199219 L 88.878906 31.210938 C 88.878906 31.210938 88.878906 25.578125 92.449219 22.007812 " fill-opacity="1" fill-rule="nonzero"/><path fill="#000000" d="M 84.292969 33.808594 C 87.964844 30.132812 93.480469 30.132812 93.480469 30.132812 L 93.492188 28.488281 C 93.492188 28.488281 87.863281 28.488281 84.292969 24.914062 " fill-opacity="1" fill-rule="nonzero"/><path fill="#000000" d="M 91.65625 33.835938 C 87.988281 30.164062 82.472656 30.164062 82.472656 30.164062 L 82.460938 28.515625 C 82.460938 28.515625 88.089844 28.515625 91.65625 24.941406 " fill-opacity="1" fill-rule="nonzero"/><g clip-path="url(#id20)"><path fill="#000000" d="M 81.988281 161.351562 C 81.988281 157.847656 84.914062 155.007812 88.523438 155.007812 C 92.136719 155.007812 95.0625 157.847656 95.0625 161.351562 C 95.0625 164.855469 92.132812 167.695312 88.523438 167.695312 C 84.914062 167.695312 81.988281 164.855469 81.988281 161.351562 Z M 81.988281 161.351562 " fill-opacity="1" fill-rule="nonzero"/></g><g clip-path="url(#id21)"><path fill="#000000" d="M 73.566406 149.347656 C 73.566406 145.839844 76.492188 143.003906 80.105469 143.003906 C 83.714844 143.003906 86.640625 145.839844 86.640625 149.347656 C 86.640625 152.851562 83.714844 155.691406 80.105469 155.691406 C 76.492188 155.691406 73.566406 152.851562 73.566406 149.347656 Z M 73.566406 149.347656 " fill-opacity="1" fill-rule="nonzero"/></g><g clip-path="url(#id22)"><path fill="#000000" d="M 90.308594 149.292969 C 90.308594 148.007812 90.703125 146.8125 91.375 145.816406 C 92.542969 144.085938 94.558594 142.945312 96.847656 142.945312 C 100.457031 142.945312 103.382812 145.785156 103.382812 149.292969 C 103.382812 152.796875 100.457031 155.636719 96.847656 155.636719 C 93.238281 155.636719 90.308594 152.796875 90.308594 149.292969 Z M 90.308594 149.292969 " fill-opacity="1" fill-rule="nonzero"/></g><g clip-path="url(#id23)"><path fill="#000000" d="M 80.855469 136.980469 C 84.085938 136.976562 85.78125 139.605469 86.675781 142.234375 C 87.566406 144.859375 87.648438 147.488281 87.648438 147.488281 L 89.296875 147.503906 C 89.296875 147.503906 89.605469 136.988281 96.0625 136.984375 Z M 80.855469 136.980469 " fill-opacity="1" fill-rule="nonzero"/></g><path fill="#000000" d="M 92.96875 156.691406 C 89.296875 153.015625 89.296875 147.5 89.296875 147.5 L 87.648438 147.488281 C 87.648438 147.488281 87.648438 153.121094 84.078125 156.691406 " fill-opacity="1" fill-rule="nonzero"/><path fill="#000000" d="M 92.234375 144.890625 C 88.5625 148.5625 83.046875 148.5625 83.046875 148.5625 L 83.035156 150.210938 C 83.035156 150.210938 88.664062 150.210938 92.234375 153.785156 " fill-opacity="1" fill-rule="nonzero"/><path fill="#000000" d="M 84.871094 144.863281 C 88.539062 148.535156 94.054688 148.535156 94.054688 148.535156 L 94.066406 150.183594 C 94.066406 150.183594 88.4375 150.183594 84.871094 153.753906 " fill-opacity="1" fill-rule="nonzero"/></svg>