<svg xmlns="http://www.w3.org/2000/svg" xmlns:xlink="http://www.w3.org/1999/xlink" width="170" zoomAndPan="magnify" viewBox="0 0 127.5 178.499993" height="238" preserveAspectRatio="xMidYMid meet" version="1.0"><defs><g/><clipPath id="id1"><path d="M 0 0.0976562 L 127 0.0976562 L 127 177.902344 L 0 177.902344 Z M 0 0.0976562 " clip-rule="nonzero"/></clipPath><clipPath id="id2"><path d="M 9 21.945312 L 17 21.945312 L 17 29 L 9 29 Z M 9 21.945312 " clip-rule="nonzero"/></clipPath><clipPath id="id3"><path d="M 13 28 L 21.085938 28 L 21.085938 36 L 13 36 Z M 13 28 " clip-rule="nonzero"/></clipPath><clipPath id="id4"><path d="M 4.585938 28 L 12 28 L 12 36 L 4.585938 36 Z M 4.585938 28 " clip-rule="nonzero"/></clipPath><clipPath id="id5"><path d="M 8 32 L 18 32 L 18 38.445312 L 8 38.445312 Z M 8 32 " clip-rule="nonzero"/></clipPath><clipPath id="id6"><path d="M 111 149 L 119 149 L 119 156.75 L 111 156.75 Z M 111 149 " clip-rule="nonzero"/></clipPath><clipPath id="id7"><path d="M 106.410156 143 L 114 143 L 114 151 L 106.410156 151 Z M 106.410156 143 " clip-rule="nonzero"/></clipPath><clipPath id="id8"><path d="M 115 143 L 122.910156 143 L 122.910156 151 L 115 151 Z M 115 143 " clip-rule="nonzero"/></clipPath><clipPath id="id9"><path d="M 110 140.25 L 119 140.25 L 119 146 L 110 146 Z M 110 140.25 " clip-rule="nonzero"/></clipPath><clipPath id="id10"><path d="M 32 11.023438 L 46 11.023438 L 46 24 L 32 24 Z M 32 11.023438 " clip-rule="nonzero"/></clipPath><clipPath id="id11"><path d="M 24.058594 23 L 38 23 L 38 36 L 24.058594 36 Z M 24.058594 23 " clip-rule="nonzero"/></clipPath><clipPath id="id12"><path d="M 31 31 L 47 31 L 47 41.773438 L 31 41.773438 Z M 31 31 " clip-rule="nonzero"/></clipPath><clipPath id="id13"><path d="M 32 155 L 47 155 L 47 167.675781 L 32 167.675781 Z M 32 155 " clip-rule="nonzero"/></clipPath><clipPath id="id14"><path d="M 24.410156 143 L 38 143 L 38 156 L 24.410156 156 Z M 24.410156 143 " clip-rule="nonzero"/></clipPath><clipPath id="id15"><path d="M 41 142 L 54.410156 142 L 54.410156 156 L 41 156 Z M 41 142 " clip-rule="nonzero"/></clipPath><clipPath id="id16"><path d="M 31 136.925781 L 48 136.925781 L 48 148 L 31 148 Z M 31 136.925781 " clip-rule="nonzero"/></clipPath><clipPath id="id17"><path d="M 81 11.023438 L 95 11.023438 L 95 24 L 81 24 Z M 81 11.023438 " clip-rule="nonzero"/></clipPath><clipPath id="id18"><path d="M 73.089844 23 L 87 23 L 87 36 L 73.089844 36 Z M 73.089844 23 " clip-rule="nonzero"/></clipPath><clipPath id="id19"><path d="M 80 31 L 96 31 L 96 41.773438 L 80 41.773438 Z M 80 31 " clip-rule="nonzero"/></clipPath><clipPath id="id20"><path d="M 81 155 L 96 155 L 96 167.675781 L 81 167.675781 Z M 81 155 " clip-rule="nonzero"/></clipPath><clipPath id="id21"><path d="M 73.441406 143 L 87 143 L 87 156 L 73.441406 156 Z M 73.441406 143 " clip-rule="nonzero"/></clipPath><clipPath id="id22"><path d="M 90 142 L 103.441406 142 L 103.441406 156 L 90 156 Z M 90 142 " clip-rule="nonzero"/></clipPath><clipPath id="id23"><path d="M 80 136.925781 L 97 136.925781 L 97 148 L 80 148 Z M 80 136.925781 " clip-rule="nonzero"/></clipPath><clipPath id="id24"><path d="M 32 49.199219 L 46 49.199219 L 46 62 L 32 62 Z M 32 49.199219 " clip-rule="nonzero"/></clipPath><clipPath id="id25"><path d="M 24.058594 61 L 38 61 L 38 74 L 24.058594 74 Z M 24.058594 61 " clip-rule="nonzero"/></clipPath><clipPath id="id26"><path d="M 31 69 L 47 69 L 47 79.949219 L 31 79.949219 Z M 31 69 " clip-rule="nonzero"/></clipPath><clipPath id="id27"><path d="M 81 49.199219 L 95 49.199219 L 95 62 L 81 62 Z M 81 49.199219 " clip-rule="nonzero"/></clipPath><clipPath id="id28"><path d="M 73.089844 61 L 87 61 L 87 74 L 73.089844 74 Z M 73.089844 61 " clip-rule="nonzero"/></clipPath><clipPath id="id29"><path d="M 80 69 L 96 69 L 96 79.949219 L 80 79.949219 Z M 80 69 " clip-rule="nonzero"/></clipPath><clipPath id="id30"><path d="M 57 75.472656 L 70 75.472656 L 70 87 L 57 87 Z M 57 75.472656 " clip-rule="nonzero"/></clipPath><clipPath id="id31"><path d="M 65 86 L 77.203125 86 L 77.203125 98 L 65 98 Z M 65 86 " clip-rule="nonzero"/></clipPath><clipPath id="id32"><path d="M 50.203125 86 L 63 86 L 63 98 L 50.203125 98 Z M 50.203125 86 " clip-rule="nonzero"/></clipPath><clipPath id="id33"><path d="M 56 93 L 71 93 L 71 103.222656 L 56 103.222656 Z M 56 93 " clip-rule="nonzero"/></clipPath><clipPath id="id34"><path d="M 32 117 L 47 117 L 47 129.804688 L 32 129.804688 Z M 32 117 " clip-rule="nonzero"/></clipPath><clipPath id="id35"><path d="M 24.410156 105 L 38 105 L 38 118 L 24.410156 118 Z M 24.410156 105 " clip-rule="nonzero"/></clipPath><clipPath id="id36"><path d="M 41 105 L 54.410156 105 L 54.410156 118 L 41 118 Z M 41 105 " clip-rule="nonzero"/></clipPath><clipPath id="id37"><path d="M 31 99.054688 L 48 99.054688 L 48 110 L 31 110 Z M 31 99.054688 " clip-rule="nonzero"/></clipPath><clipPath id="id38"><path d="M 81 117 L 96 117 L 96 129.804688 L 81 129.804688 Z M 81 117 " clip-rule="nonzero"/></clipPath><clipPath id="id39"><path d="M 73.441406 105 L 87 105 L 87 118 L 73.441406 118 Z M 73.441406 105 " clip-rule="nonzero"/></clipPath><clipPath id="id40"><path d="M 90 105 L 103.441406 105 L 103.441406 118 L 90 118 Z M 90 105 " clip-rule="nonzero"/></clipPath><clipPath id="id41"><path d="M 80 99.054688 L 97 99.054688 L 97 110 L 80 110 Z M 80 99.054688 " clip-rule="nonzero"/></clipPath></defs><g clip-path="url(#id1)"><path fill="#ffffff" d="M 0 0.0976562 L 127.5 0.0976562 L 127.5 186.097656 L 0 186.097656 Z M 0 0.0976562 " fill-opacity="1" fill-rule="nonzero"/><path fill="#ffffff" d="M 0 0.0976562 L 127.5 0.0976562 L 127.5 178.597656 L 0 178.597656 Z M 0 0.0976562 " fill-opacity="1" fill-rule="nonzero"/><path fill="#ffffff" d="M 0 0.0976562 L 127.5 0.0976562 L 127.5 178.597656 L 0 178.597656 Z M 0 0.0976562 " fill-opacity="1" fill-rule="nonzero"/><path fill="#ffffff" d="M 0 0.0976562 L 127.5 0.0976562 L 127.5 178.597656 L 0 178.597656 Z M 0 0.0976562 " fill-opacity="1" fill-rule="nonzero"/></g><g clip-path="url(#id2)"><path fill="#000000" d="M 16.382812 25.339844 C 16.382812 27.21875 14.773438 28.742188 12.789062 28.742188 C 10.800781 28.742188 9.191406 27.21875 9.191406 25.339844 C 9.191406 23.460938 10.800781 21.933594 12.789062 21.933594 C 14.773438 21.933594 16.382812 23.460938 16.382812 25.339844 Z M 16.382812 25.339844 " fill-opacity="1" fill-rule="nonzero"/></g><g clip-path="url(#id3)"><path fill="#000000" d="M 21.015625 31.78125 C 21.015625 33.660156 19.40625 35.1875 17.417969 35.1875 C 15.433594 35.1875 13.824219 33.660156 13.824219 31.78125 C 13.824219 29.902344 15.433594 28.378906 17.417969 28.378906 C 19.40625 28.378906 21.015625 29.902344 21.015625 31.78125 Z M 21.015625 31.78125 " fill-opacity="1" fill-rule="nonzero"/></g><g clip-path="url(#id4)"><path fill="#000000" d="M 11.804688 31.8125 C 11.804688 32.5 11.589844 33.140625 11.21875 33.675781 C 10.574219 34.601562 9.46875 35.214844 8.210938 35.214844 C 6.222656 35.214844 4.613281 33.691406 4.613281 31.8125 C 4.613281 29.929688 6.222656 28.40625 8.210938 28.40625 C 10.195312 28.40625 11.804688 29.929688 11.804688 31.8125 Z M 11.804688 31.8125 " fill-opacity="1" fill-rule="nonzero"/></g><g clip-path="url(#id5)"><path fill="#000000" d="M 17.003906 38.417969 C 15.230469 38.417969 14.296875 37.007812 13.804688 35.597656 C 13.3125 34.1875 13.269531 32.777344 13.269531 32.777344 L 12.363281 32.769531 C 12.363281 32.769531 12.191406 38.414062 8.640625 38.414062 Z M 17.003906 38.417969 " fill-opacity="1" fill-rule="nonzero"/></g><path fill="#000000" d="M 10.34375 27.839844 C 12.363281 29.8125 12.363281 32.773438 12.363281 32.773438 L 13.269531 32.777344 C 13.269531 32.777344 13.269531 29.757812 15.230469 27.839844 " fill-opacity="1" fill-rule="nonzero"/><path fill="#000000" d="M 10.746094 34.171875 C 12.765625 32.199219 15.800781 32.199219 15.800781 32.199219 L 15.804688 31.316406 C 15.804688 31.316406 12.710938 31.316406 10.746094 29.402344 " fill-opacity="1" fill-rule="nonzero"/><path fill="#000000" d="M 14.796875 34.1875 C 12.777344 32.214844 9.746094 32.214844 9.746094 32.214844 L 9.738281 31.332031 C 9.738281 31.332031 12.835938 31.332031 14.796875 29.414062 " fill-opacity="1" fill-rule="nonzero"/><path fill="#000000" d="M 7.121094 19.273438 L 18.359375 19.273438 L 18.359375 20.773438 L 7.121094 20.773438 Z M 7.121094 19.273438 " fill-opacity="1" fill-rule="nonzero"/><g fill="#000000" fill-opacity="1"><g transform="translate(7.120312, 17.772726)"><g><path d="M 10.671875 -7.171875 C 10.671875 -4.816406 10.15625 -3 9.125 -1.71875 C 8.09375 -0.445312 6.664062 0.1875 4.84375 0.1875 C 3.5625 0.1875 2.554688 -0.0546875 1.828125 -0.546875 C 1.109375 -1.035156 0.75 -1.671875 0.75 -2.453125 C 0.75 -2.929688 0.894531 -3.347656 1.1875 -3.703125 C 1.488281 -4.066406 1.882812 -4.25 2.375 -4.25 C 2.875 -4.25 3.265625 -4.117188 3.546875 -3.859375 C 3.835938 -3.597656 3.984375 -3.285156 3.984375 -2.921875 C 3.984375 -2.566406 3.929688 -2.253906 3.828125 -1.984375 L 3.28125 -1.984375 C 3.195312 -1.804688 3.15625 -1.570312 3.15625 -1.28125 C 3.15625 -1 3.285156 -0.742188 3.546875 -0.515625 C 3.816406 -0.296875 4.207031 -0.1875 4.71875 -0.1875 C 5.53125 -0.1875 6.117188 -0.628906 6.484375 -1.515625 C 6.859375 -2.398438 7.050781 -3.945312 7.0625 -6.15625 C 6.4375 -5.164062 5.476562 -4.671875 4.1875 -4.671875 C 3.082031 -4.671875 2.175781 -5.023438 1.46875 -5.734375 C 0.769531 -6.441406 0.421875 -7.410156 0.421875 -8.640625 C 0.421875 -10.097656 0.90625 -11.1875 1.875 -11.90625 C 2.84375 -12.625 4.082031 -12.984375 5.59375 -12.984375 C 8.976562 -12.984375 10.671875 -11.046875 10.671875 -7.171875 Z M 5.234375 -5.28125 C 5.648438 -5.28125 6 -5.429688 6.28125 -5.734375 C 6.570312 -6.046875 6.769531 -6.410156 6.875 -6.828125 C 6.976562 -7.253906 7.03125 -7.804688 7.03125 -8.484375 C 7.03125 -9.160156 7.023438 -9.628906 7.015625 -9.890625 C 7.015625 -10.148438 7 -10.457031 6.96875 -10.8125 C 6.945312 -11.175781 6.90625 -11.441406 6.84375 -11.609375 C 6.789062 -11.773438 6.710938 -11.945312 6.609375 -12.125 C 6.429688 -12.445312 6.097656 -12.609375 5.609375 -12.609375 C 5.054688 -12.609375 4.648438 -12.390625 4.390625 -11.953125 C 4.179688 -11.597656 4.054688 -10.988281 4.015625 -10.125 C 4.003906 -9.8125 4 -9.394531 4 -8.875 C 4 -8.363281 4 -7.96875 4 -7.6875 C 4.007812 -7.40625 4.023438 -7.109375 4.046875 -6.796875 C 4.078125 -6.492188 4.117188 -6.257812 4.171875 -6.09375 C 4.222656 -5.9375 4.296875 -5.785156 4.390625 -5.640625 C 4.546875 -5.398438 4.828125 -5.28125 5.234375 -5.28125 Z M 5.234375 -5.28125 "/></g></g></g><path fill="#000000" d="M 121.609375 159.425781 L 110.371094 159.425781 L 110.371094 157.925781 L 121.609375 157.925781 Z M 121.609375 159.425781 " fill-opacity="1" fill-rule="nonzero"/><g fill="#000000" fill-opacity="1"><g transform="translate(121.609719, 160.923988)"><g><path d="M -10.671875 7.171875 C -10.671875 4.816406 -10.15625 3 -9.125 1.71875 C -8.09375 0.445312 -6.664062 -0.1875 -4.84375 -0.1875 C -3.5625 -0.1875 -2.554688 0.0546875 -1.828125 0.546875 C -1.109375 1.035156 -0.75 1.671875 -0.75 2.453125 C -0.75 2.929688 -0.894531 3.347656 -1.1875 3.703125 C -1.488281 4.066406 -1.882812 4.25 -2.375 4.25 C -2.875 4.25 -3.265625 4.117188 -3.546875 3.859375 C -3.835938 3.597656 -3.984375 3.285156 -3.984375 2.921875 C -3.984375 2.566406 -3.929688 2.253906 -3.828125 1.984375 L -3.28125 1.984375 C -3.195312 1.804688 -3.15625 1.570312 -3.15625 1.28125 C -3.15625 1 -3.285156 0.742188 -3.546875 0.515625 C -3.816406 0.296875 -4.207031 0.1875 -4.71875 0.1875 C -5.53125 0.1875 -6.117188 0.628906 -6.484375 1.515625 C -6.859375 2.398438 -7.050781 3.945312 -7.0625 6.15625 C -6.4375 5.164062 -5.476562 4.671875 -4.1875 4.671875 C -3.082031 4.671875 -2.175781 5.023438 -1.46875 5.734375 C -0.769531 6.441406 -0.421875 7.410156 -0.421875 8.640625 C -0.421875 10.097656 -0.90625 11.1875 -1.875 11.90625 C -2.84375 12.625 -4.082031 12.984375 -5.59375 12.984375 C -8.976562 12.984375 -10.671875 11.046875 -10.671875 7.171875 Z M -5.234375 5.28125 C -5.648438 5.28125 -6 5.429688 -6.28125 5.734375 C -6.570312 6.046875 -6.769531 6.410156 -6.875 6.828125 C -6.976562 7.253906 -7.03125 7.804688 -7.03125 8.484375 C -7.03125 9.160156 -7.023438 9.628906 -7.015625 9.890625 C -7.015625 10.148438 -7 10.457031 -6.96875 10.8125 C -6.945312 11.175781 -6.90625 11.441406 -6.84375 11.609375 C -6.789062 11.773438 -6.710938 11.945312 -6.609375 12.125 C -6.429688 12.445312 -6.097656 12.609375 -5.609375 12.609375 C -5.054688 12.609375 -4.648438 12.390625 -4.390625 11.953125 C -4.179688 11.597656 -4.054688 10.988281 -4.015625 10.125 C -4.003906 9.8125 -4 9.394531 -4 8.875 C -4 8.363281 -4 7.96875 -4 7.6875 C -4.007812 7.40625 -4.023438 7.109375 -4.046875 6.796875 C -4.078125 6.492188 -4.117188 6.257812 -4.171875 6.09375 C -4.222656 5.9375 -4.296875 5.785156 -4.390625 5.640625 C -4.546875 5.398438 -4.828125 5.28125 -5.234375 5.28125 Z M -5.234375 5.28125 "/></g></g></g><g clip-path="url(#id6)"><path fill="#000000" d="M 111.109375 153.355469 C 111.109375 151.472656 112.71875 149.949219 114.703125 149.949219 C 116.691406 149.949219 118.300781 151.472656 118.300781 153.355469 C 118.300781 155.234375 116.691406 156.757812 114.703125 156.757812 C 112.71875 156.757812 111.109375 155.234375 111.109375 153.355469 Z M 111.109375 153.355469 " fill-opacity="1" fill-rule="nonzero"/></g><g clip-path="url(#id7)"><path fill="#000000" d="M 106.476562 146.914062 C 106.476562 145.03125 108.085938 143.507812 110.074219 143.507812 C 112.058594 143.507812 113.667969 145.03125 113.667969 146.914062 C 113.667969 148.792969 112.058594 150.316406 110.074219 150.316406 C 108.085938 150.316406 106.476562 148.792969 106.476562 146.914062 Z M 106.476562 146.914062 " fill-opacity="1" fill-rule="nonzero"/></g><g clip-path="url(#id8)"><path fill="#000000" d="M 115.6875 146.882812 C 115.6875 146.195312 115.902344 145.554688 116.273438 145.019531 C 116.917969 144.089844 118.023438 143.480469 119.28125 143.480469 C 121.269531 143.480469 122.878906 145.003906 122.878906 146.882812 C 122.878906 148.765625 121.269531 150.289062 119.28125 150.289062 C 117.296875 150.289062 115.6875 148.765625 115.6875 146.882812 Z M 115.6875 146.882812 " fill-opacity="1" fill-rule="nonzero"/></g><g clip-path="url(#id9)"><path fill="#000000" d="M 110.488281 140.277344 C 112.261719 140.277344 113.195312 141.6875 113.6875 143.097656 C 114.179688 144.503906 114.222656 145.917969 114.222656 145.917969 L 115.128906 145.921875 C 115.128906 145.921875 115.300781 140.28125 118.851562 140.277344 Z M 110.488281 140.277344 " fill-opacity="1" fill-rule="nonzero"/></g><path fill="#000000" d="M 117.148438 150.855469 C 115.128906 148.882812 115.128906 145.921875 115.128906 145.921875 L 114.222656 145.914062 C 114.222656 145.914062 114.222656 148.9375 112.261719 150.855469 " fill-opacity="1" fill-rule="nonzero"/><path fill="#000000" d="M 116.746094 144.523438 C 114.726562 146.492188 111.691406 146.492188 111.691406 146.492188 L 111.6875 147.378906 C 111.6875 147.378906 114.78125 147.378906 116.746094 149.292969 " fill-opacity="1" fill-rule="nonzero"/><path fill="#000000" d="M 112.695312 144.507812 C 114.714844 146.480469 117.746094 146.480469 117.746094 146.480469 L 117.753906 147.363281 C 117.753906 147.363281 114.65625 147.363281 112.695312 149.277344 " fill-opacity="1" fill-rule="nonzero"/><g clip-path="url(#id10)"><path fill="#000000" d="M 45.507812 17.347656 C 45.507812 20.851562 42.582031 23.691406 38.972656 23.691406 C 35.359375 23.691406 32.433594 20.851562 32.433594 17.347656 C 32.433594 13.84375 35.363281 11.003906 38.972656 11.003906 C 42.582031 11.003906 45.507812 13.84375 45.507812 17.347656 Z M 45.507812 17.347656 " fill-opacity="1" fill-rule="nonzero"/></g><path fill="#000000" d="M 53.929688 29.351562 C 53.929688 32.855469 51.003906 35.695312 47.390625 35.695312 C 43.78125 35.695312 40.855469 32.855469 40.855469 29.351562 C 40.855469 25.847656 43.78125 23.007812 47.390625 23.007812 C 51.003906 23.007812 53.929688 25.847656 53.929688 29.351562 Z M 53.929688 29.351562 " fill-opacity="1" fill-rule="nonzero"/><g clip-path="url(#id11)"><path fill="#000000" d="M 37.1875 29.40625 C 37.1875 30.691406 36.792969 31.886719 36.121094 32.882812 C 34.953125 34.609375 32.9375 35.75 30.648438 35.75 C 27.039062 35.75 24.113281 32.910156 24.113281 29.40625 C 24.113281 25.902344 27.039062 23.0625 30.648438 23.0625 C 34.257812 23.0625 37.1875 25.902344 37.1875 29.40625 Z M 37.1875 29.40625 " fill-opacity="1" fill-rule="nonzero"/></g><g clip-path="url(#id12)"><path fill="#000000" d="M 46.640625 41.71875 C 43.410156 41.71875 41.714844 39.09375 40.820312 36.464844 C 39.929688 33.839844 39.847656 31.210938 39.847656 31.210938 L 38.199219 31.195312 C 38.199219 31.195312 37.890625 41.710938 31.4375 41.714844 Z M 46.640625 41.71875 " fill-opacity="1" fill-rule="nonzero"/></g><path fill="#000000" d="M 34.527344 22.007812 C 38.199219 25.683594 38.199219 31.199219 38.199219 31.199219 L 39.847656 31.210938 C 39.847656 31.210938 39.847656 25.578125 43.417969 22.007812 " fill-opacity="1" fill-rule="nonzero"/><path fill="#000000" d="M 35.261719 33.808594 C 38.933594 30.132812 44.449219 30.132812 44.449219 30.132812 L 44.460938 28.488281 C 44.460938 28.488281 38.832031 28.488281 35.261719 24.914062 " fill-opacity="1" fill-rule="nonzero"/><path fill="#000000" d="M 42.625 33.835938 C 38.957031 30.164062 33.441406 30.164062 33.441406 30.164062 L 33.429688 28.515625 C 33.429688 28.515625 39.058594 28.515625 42.625 24.941406 " fill-opacity="1" fill-rule="nonzero"/><g clip-path="url(#id13)"><path fill="#000000" d="M 32.957031 161.351562 C 32.957031 157.847656 35.882812 155.007812 39.492188 155.007812 C 43.105469 155.007812 46.03125 157.847656 46.03125 161.351562 C 46.03125 164.855469 43.101562 167.695312 39.492188 167.695312 C 35.882812 167.695312 32.957031 164.855469 32.957031 161.351562 Z M 32.957031 161.351562 " fill-opacity="1" fill-rule="nonzero"/></g><g clip-path="url(#id14)"><path fill="#000000" d="M 24.535156 149.347656 C 24.535156 145.839844 27.460938 143.003906 31.074219 143.003906 C 34.683594 143.003906 37.609375 145.839844 37.609375 149.347656 C 37.609375 152.851562 34.683594 155.691406 31.074219 155.691406 C 27.460938 155.691406 24.535156 152.851562 24.535156 149.347656 Z M 24.535156 149.347656 " fill-opacity="1" fill-rule="nonzero"/></g><g clip-path="url(#id15)"><path fill="#000000" d="M 41.277344 149.292969 C 41.277344 148.007812 41.671875 146.8125 42.347656 145.816406 C 43.515625 144.085938 45.527344 142.945312 47.816406 142.945312 C 51.425781 142.945312 54.351562 145.785156 54.351562 149.292969 C 54.351562 152.796875 51.425781 155.636719 47.816406 155.636719 C 44.207031 155.636719 41.277344 152.796875 41.277344 149.292969 Z M 41.277344 149.292969 " fill-opacity="1" fill-rule="nonzero"/></g><g clip-path="url(#id16)"><path fill="#000000" d="M 31.824219 136.980469 C 35.054688 136.976562 36.753906 139.605469 37.644531 142.234375 C 38.535156 144.859375 38.617188 147.488281 38.617188 147.488281 L 40.265625 147.503906 C 40.265625 147.503906 40.574219 136.988281 47.03125 136.984375 Z M 31.824219 136.980469 " fill-opacity="1" fill-rule="nonzero"/></g><path fill="#000000" d="M 43.9375 156.691406 C 40.265625 153.015625 40.265625 147.5 40.265625 147.5 L 38.617188 147.488281 C 38.617188 147.488281 38.617188 153.121094 35.046875 156.691406 " fill-opacity="1" fill-rule="nonzero"/><path fill="#000000" d="M 43.203125 144.890625 C 39.53125 148.5625 34.015625 148.5625 34.015625 148.5625 L 34.003906 150.210938 C 34.003906 150.210938 39.632812 150.210938 43.203125 153.785156 " fill-opacity="1" fill-rule="nonzero"/><path fill="#000000" d="M 35.839844 144.863281 C 39.511719 148.535156 45.023438 148.535156 45.023438 148.535156 L 45.035156 150.183594 C 45.035156 150.183594 39.40625 150.183594 35.839844 153.753906 " fill-opacity="1" fill-rule="nonzero"/><g clip-path="url(#id17)"><path fill="#000000" d="M 94.539062 17.347656 C 94.539062 20.851562 91.613281 23.691406 88.003906 23.691406 C 84.390625 23.691406 81.464844 20.851562 81.464844 17.347656 C 81.464844 13.84375 84.394531 11.003906 88.003906 11.003906 C 91.613281 11.003906 94.539062 13.84375 94.539062 17.347656 Z M 94.539062 17.347656 " fill-opacity="1" fill-rule="nonzero"/></g><path fill="#000000" d="M 102.960938 29.351562 C 102.960938 32.855469 100.035156 35.695312 96.421875 35.695312 C 92.8125 35.695312 89.886719 32.855469 89.886719 29.351562 C 89.886719 25.847656 92.8125 23.007812 96.421875 23.007812 C 100.035156 23.007812 102.960938 25.847656 102.960938 29.351562 Z M 102.960938 29.351562 " fill-opacity="1" fill-rule="nonzero"/><g clip-path="url(#id18)"><path fill="#000000" d="M 86.21875 29.40625 C 86.21875 30.691406 85.824219 31.886719 85.152344 32.882812 C 83.984375 34.609375 81.96875 35.75 79.679688 35.75 C 76.070312 35.75 73.144531 32.910156 73.144531 29.40625 C 73.144531 25.902344 76.070312 23.0625 79.679688 23.0625 C 83.289062 23.0625 86.21875 25.902344 86.21875 29.40625 Z M 86.21875 29.40625 " fill-opacity="1" fill-rule="nonzero"/></g><g clip-path="url(#id19)"><path fill="#000000" d="M 95.671875 41.71875 C 92.441406 41.71875 90.746094 39.09375 89.851562 36.464844 C 88.960938 33.839844 88.878906 31.210938 88.878906 31.210938 L 87.230469 31.195312 C 87.230469 31.195312 86.921875 41.710938 80.464844 41.714844 Z M 95.671875 41.71875 " fill-opacity="1" fill-rule="nonzero"/></g><path fill="#000000" d="M 83.558594 22.007812 C 87.230469 25.683594 87.230469 31.199219 87.230469 31.199219 L 88.878906 31.210938 C 88.878906 31.210938 88.878906 25.578125 92.449219 22.007812 " fill-opacity="1" fill-rule="nonzero"/><path fill="#000000" d="M 84.292969 33.808594 C 87.964844 30.132812 93.480469 30.132812 93.480469 30.132812 L 93.492188 28.488281 C 93.492188 28.488281 87.863281 28.488281 84.292969 24.914062 " fill-opacity="1" fill-rule="nonzero"/><path fill="#000000" d="M 91.65625 33.835938 C 87.988281 30.164062 82.472656 30.164062 82.472656 30.164062 L 82.460938 28.515625 C 82.460938 28.515625 88.089844 28.515625 91.65625 24.941406 " fill-opacity="1" fill-rule="nonzero"/><g clip-path="url(#id20)"><path fill="#000000" d="M 81.988281 161.351562 C 81.988281 157.847656 84.914062 155.007812 88.523438 155.007812 C 92.136719 155.007812 95.0625 157.847656 95.0625 161.351562 C 95.0625 164.855469 92.132812 167.695312 88.523438 167.695312 C 84.914062 167.695312 81.988281 164.855469 81.988281 161.351562 Z M 81.988281 161.351562 " fill-opacity="1" fill-rule="nonzero"/></g><g clip-path="url(#id21)"><path fill="#000000" d="M 73.566406 149.347656 C 73.566406 145.839844 76.492188 143.003906 80.105469 143.003906 C 83.714844 143.003906 86.640625 145.839844 86.640625 149.347656 C 86.640625 152.851562 83.714844 155.691406 80.105469 155.691406 C 76.492188 155.691406 73.566406 152.851562 73.566406 149.347656 Z M 73.566406 149.347656 " fill-opacity="1" fill-rule="nonzero"/></g><g clip-path="url(#id22)"><path fill="#000000" d="M 90.308594 149.292969 C 90.308594 148.007812 90.703125 146.8125 91.375 145.816406 C 92.542969 144.085938 94.558594 142.945312 96.847656 142.945312 C 100.457031 142.945312 103.382812 145.785156 103.382812 149.292969 C 103.382812 152.796875 100.457031 155.636719 96.847656 155.636719 C 93.238281 155.636719 90.308594 152.796875 90.308594 149.292969 Z M 90.308594 149.292969 " fill-opacity="1" fill-rule="nonzero"/></g><g clip-path="url(#id23)"><path fill="#000000" d="M 80.855469 136.980469 C 84.085938 136.976562 85.78125 139.605469 86.675781 142.234375 C 87.566406 144.859375 87.648438 147.488281 87.648438 147.488281 L 89.296875 147.503906 C 89.296875 147.503906 89.605469 136.988281 96.0625 136.984375 Z M 80.855469 136.980469 " fill-opacity="1" fill-rule="nonzero"/></g><path fill="#000000" d="M 92.96875 156.691406 C 89.296875 153.015625 89.296875 147.5 89.296875 147.5 L 87.648438 147.488281 C 87.648438 147.488281 87.648438 153.121094 84.078125 156.691406 " fill-opacity="1" fill-rule="nonzero"/><path fill="#000000" d="M 92.234375 144.890625 C 88.5625 148.5625 83.046875 148.5625 83.046875 148.5625 L 83.035156 150.210938 C 83.035156 150.210938 88.664062 150.210938 92.234375 153.785156 " fill-opacity="1" fill-rule="nonzero"/><path fill="#000000" d="M 84.871094 144.863281 C 88.539062 148.535156 94.054688 148.535156 94.054688 148.535156 L 94.066406 150.183594 C 94.066406 150.183594 88.4375 150.183594 84.871094 153.753906 " fill-opacity="1" fill-rule="nonzero"/><g clip-path="url(#id24)"><path fill="#000000" d="M 45.507812 55.527344 C 45.507812 59.03125 42.582031 61.871094 38.972656 61.871094 C 35.359375 61.871094 32.433594 59.03125 32.433594 55.527344 C 32.433594 52.023438 35.363281 49.179688 38.972656 49.179688 C 42.582031 49.179688 45.507812 52.023438 45.507812 55.527344 Z M 45.507812 55.527344 " fill-opacity="1" fill-rule="nonzero"/></g><path fill="#000000" d="M 53.929688 67.53125 C 53.929688 71.035156 51.003906 73.875 47.390625 73.875 C 43.78125 73.875 40.855469 71.035156 40.855469 67.53125 C 40.855469 64.027344 43.78125 61.1875 47.390625 61.1875 C 51.003906 61.1875 53.929688 64.027344 53.929688 67.53125 Z M 53.929688 67.53125 " fill-opacity="1" fill-rule="nonzero"/><g clip-path="url(#id25)"><path fill="#000000" d="M 37.1875 67.585938 C 37.1875 68.867188 36.792969 70.0625 36.121094 71.0625 C 34.953125 72.789062 32.9375 73.929688 30.648438 73.929688 C 27.039062 73.929688 24.113281 71.089844 24.113281 67.585938 C 24.113281 64.082031 27.039062 61.242188 30.648438 61.242188 C 34.257812 61.242188 37.1875 64.082031 37.1875 67.585938 Z M 37.1875 67.585938 " fill-opacity="1" fill-rule="nonzero"/></g><g clip-path="url(#id26)"><path fill="#000000" d="M 46.640625 79.898438 C 43.410156 79.898438 41.714844 77.269531 40.820312 74.644531 C 39.929688 72.019531 39.847656 69.390625 39.847656 69.390625 L 38.199219 69.375 C 38.199219 69.375 37.890625 79.890625 31.4375 79.894531 Z M 46.640625 79.898438 " fill-opacity="1" fill-rule="nonzero"/></g><path fill="#000000" d="M 34.527344 60.1875 C 38.199219 63.859375 38.199219 69.375 38.199219 69.375 L 39.847656 69.390625 C 39.847656 69.390625 39.847656 63.757812 43.417969 60.1875 " fill-opacity="1" fill-rule="nonzero"/><path fill="#000000" d="M 35.261719 71.988281 C 38.933594 68.3125 44.449219 68.3125 44.449219 68.3125 L 44.460938 66.664062 C 44.460938 66.664062 38.832031 66.664062 35.261719 63.09375 " fill-opacity="1" fill-rule="nonzero"/><path fill="#000000" d="M 42.625 72.015625 C 38.957031 68.339844 33.441406 68.339844 33.441406 68.339844 L 33.429688 66.691406 C 33.429688 66.691406 39.058594 66.691406 42.625 63.121094 " fill-opacity="1" fill-rule="nonzero"/><g clip-path="url(#id27)"><path fill="#000000" d="M 94.539062 55.527344 C 94.539062 59.03125 91.613281 61.871094 88.003906 61.871094 C 84.390625 61.871094 81.464844 59.03125 81.464844 55.527344 C 81.464844 52.023438 84.394531 49.179688 88.003906 49.179688 C 91.613281 49.179688 94.539062 52.023438 94.539062 55.527344 Z M 94.539062 55.527344 " fill-opacity="1" fill-rule="nonzero"/></g><path fill="#000000" d="M 102.960938 67.53125 C 102.960938 71.035156 100.035156 73.875 96.421875 73.875 C 92.8125 73.875 89.886719 71.035156 89.886719 67.53125 C 89.886719 64.027344 92.8125 61.1875 96.421875 61.1875 C 100.035156 61.1875 102.960938 64.027344 102.960938 67.53125 Z M 102.960938 67.53125 " fill-opacity="1" fill-rule="nonzero"/><g clip-path="url(#id28)"><path fill="#000000" d="M 86.21875 67.585938 C 86.21875 68.867188 85.824219 70.0625 85.152344 71.0625 C 83.984375 72.789062 81.96875 73.929688 79.679688 73.929688 C 76.070312 73.929688 73.144531 71.089844 73.144531 67.585938 C 73.144531 64.082031 76.070312 61.242188 79.679688 61.242188 C 83.289062 61.242188 86.21875 64.082031 86.21875 67.585938 Z M 86.21875 67.585938 " fill-opacity="1" fill-rule="nonzero"/></g><g clip-path="url(#id29)"><path fill="#000000" d="M 95.671875 79.898438 C 92.441406 79.898438 90.746094 77.269531 89.851562 74.644531 C 88.960938 72.019531 88.878906 69.390625 88.878906 69.390625 L 87.230469 69.375 C 87.230469 69.375 86.921875 79.890625 80.464844 79.894531 Z M 95.671875 79.898438 " fill-opacity="1" fill-rule="nonzero"/></g><path fill="#000000" d="M 83.558594 60.1875 C 87.230469 63.859375 87.230469 69.375 87.230469 69.375 L 88.878906 69.390625 C 88.878906 69.390625 88.878906 63.757812 92.449219 60.1875 " fill-opacity="1" fill-rule="nonzero"/><path fill="#000000" d="M 84.292969 71.988281 C 87.964844 68.3125 93.480469 68.3125 93.480469 68.3125 L 93.492188 66.664062 C 93.492188 66.664062 87.863281 66.664062 84.292969 63.09375 " fill-opacity="1" fill-rule="nonzero"/><path fill="#000000" d="M 91.65625 72.015625 C 87.988281 68.339844 82.472656 68.339844 82.472656 68.339844 L 82.460938 66.691406 C 82.460938 66.691406 88.089844 66.691406 91.65625 63.121094 " fill-opacity="1" fill-rule="nonzero"/><g clip-path="url(#id30)"><path fill="#000000" d="M 69.507812 81.179688 C 69.507812 84.34375 66.875 86.90625 63.625 86.90625 C 60.375 86.90625 57.742188 84.34375 57.742188 81.179688 C 57.742188 78.019531 60.378906 75.457031 63.625 75.457031 C 66.875 75.457031 69.507812 78.019531 69.507812 81.179688 Z M 69.507812 81.179688 " fill-opacity="1" fill-rule="nonzero"/></g><g clip-path="url(#id31)"><path fill="#000000" d="M 77.085938 92.015625 C 77.085938 95.179688 74.453125 97.742188 71.203125 97.742188 C 67.953125 97.742188 65.320312 95.179688 65.320312 92.015625 C 65.320312 88.855469 67.953125 86.289062 71.203125 86.289062 C 74.453125 86.289062 77.085938 88.855469 77.085938 92.015625 Z M 77.085938 92.015625 " fill-opacity="1" fill-rule="nonzero"/></g><g clip-path="url(#id32)"><path fill="#000000" d="M 62.019531 92.066406 C 62.019531 93.222656 61.667969 94.300781 61.058594 95.203125 C 60.007812 96.761719 58.195312 97.789062 56.136719 97.789062 C 52.886719 97.789062 50.253906 95.226562 50.253906 92.066406 C 50.253906 88.902344 52.886719 86.339844 56.136719 86.339844 C 59.386719 86.339844 62.019531 88.902344 62.019531 92.066406 Z M 62.019531 92.066406 " fill-opacity="1" fill-rule="nonzero"/></g><g clip-path="url(#id33)"><path fill="#000000" d="M 70.527344 103.175781 C 67.621094 103.175781 66.09375 100.804688 65.289062 98.4375 C 64.488281 96.066406 64.414062 93.691406 64.414062 93.691406 L 62.929688 93.679688 C 62.929688 93.679688 62.652344 103.167969 56.84375 103.171875 Z M 70.527344 103.175781 " fill-opacity="1" fill-rule="nonzero"/></g><path fill="#000000" d="M 59.628906 85.386719 C 62.929688 88.703125 62.929688 93.679688 62.929688 93.679688 L 64.414062 93.695312 C 64.414062 93.695312 64.414062 88.609375 67.625 85.386719 " fill-opacity="1" fill-rule="nonzero"/><path fill="#000000" d="M 60.289062 96.035156 C 63.59375 92.722656 68.554688 92.722656 68.554688 92.722656 L 68.566406 91.234375 C 68.566406 91.234375 63.5 91.234375 60.289062 88.011719 " fill-opacity="1" fill-rule="nonzero"/><path fill="#000000" d="M 66.914062 96.0625 C 63.609375 92.746094 58.648438 92.746094 58.648438 92.746094 L 58.636719 91.257812 C 58.636719 91.257812 63.703125 91.257812 66.914062 88.035156 " fill-opacity="1" fill-rule="nonzero"/><g clip-path="url(#id34)"><path fill="#000000" d="M 32.957031 123.480469 C 32.957031 119.976562 35.882812 117.136719 39.492188 117.136719 C 43.105469 117.136719 46.03125 119.976562 46.03125 123.480469 C 46.03125 126.984375 43.101562 129.824219 39.492188 129.824219 C 35.882812 129.824219 32.957031 126.984375 32.957031 123.480469 Z M 32.957031 123.480469 " fill-opacity="1" fill-rule="nonzero"/></g><g clip-path="url(#id35)"><path fill="#000000" d="M 24.535156 111.476562 C 24.535156 107.96875 27.460938 105.128906 31.074219 105.128906 C 34.683594 105.128906 37.609375 107.96875 37.609375 111.476562 C 37.609375 114.980469 34.683594 117.820312 31.074219 117.820312 C 27.460938 117.820312 24.535156 114.980469 24.535156 111.476562 Z M 24.535156 111.476562 " fill-opacity="1" fill-rule="nonzero"/></g><g clip-path="url(#id36)"><path fill="#000000" d="M 41.277344 111.417969 C 41.277344 110.136719 41.671875 108.941406 42.347656 107.945312 C 43.515625 106.214844 45.527344 105.074219 47.816406 105.074219 C 51.425781 105.074219 54.351562 107.914062 54.351562 111.417969 C 54.351562 114.925781 51.425781 117.765625 47.816406 117.765625 C 44.207031 117.765625 41.277344 114.921875 41.277344 111.417969 Z M 41.277344 111.417969 " fill-opacity="1" fill-rule="nonzero"/></g><g clip-path="url(#id37)"><path fill="#000000" d="M 31.824219 99.109375 C 35.054688 99.105469 36.753906 101.734375 37.644531 104.359375 C 38.535156 106.988281 38.617188 109.617188 38.617188 109.617188 L 40.265625 109.628906 C 40.265625 109.628906 40.574219 99.117188 47.03125 99.113281 Z M 31.824219 99.109375 " fill-opacity="1" fill-rule="nonzero"/></g><path fill="#000000" d="M 43.9375 118.820312 C 40.265625 115.144531 40.265625 109.628906 40.265625 109.628906 L 38.617188 109.617188 C 38.617188 109.617188 38.617188 115.25 35.046875 118.820312 " fill-opacity="1" fill-rule="nonzero"/><path fill="#000000" d="M 43.203125 107.019531 C 39.53125 110.691406 34.015625 110.691406 34.015625 110.691406 L 34.003906 112.339844 C 34.003906 112.339844 39.632812 112.339844 43.203125 115.914062 " fill-opacity="1" fill-rule="nonzero"/><path fill="#000000" d="M 35.839844 106.992188 C 39.511719 110.664062 45.023438 110.664062 45.023438 110.664062 L 45.035156 112.3125 C 45.035156 112.3125 39.40625 112.3125 35.839844 115.882812 " fill-opacity="1" fill-rule="nonzero"/><g clip-path="url(#id38)"><path fill="#000000" d="M 81.988281 123.480469 C 81.988281 119.976562 84.914062 117.136719 88.523438 117.136719 C 92.136719 117.136719 95.0625 119.976562 95.0625 123.480469 C 95.0625 126.984375 92.132812 129.824219 88.523438 129.824219 C 84.914062 129.824219 81.988281 126.984375 81.988281 123.480469 Z M 81.988281 123.480469 " fill-opacity="1" fill-rule="nonzero"/></g><g clip-path="url(#id39)"><path fill="#000000" d="M 73.566406 111.476562 C 73.566406 107.96875 76.492188 105.128906 80.105469 105.128906 C 83.714844 105.128906 86.640625 107.96875 86.640625 111.476562 C 86.640625 114.980469 83.714844 117.820312 80.105469 117.820312 C 76.492188 117.820312 73.566406 114.980469 73.566406 111.476562 Z M 73.566406 111.476562 " fill-opacity="1" fill-rule="nonzero"/></g><g clip-path="url(#id40)"><path fill="#000000" d="M 90.308594 111.417969 C 90.308594 110.136719 90.703125 108.941406 91.375 107.945312 C 92.542969 106.214844 94.558594 105.074219 96.847656 105.074219 C 100.457031 105.074219 103.382812 107.914062 103.382812 111.417969 C 103.382812 114.925781 100.457031 117.765625 96.847656 117.765625 C 93.238281 117.765625 90.308594 114.921875 90.308594 111.417969 Z M 90.308594 111.417969 " fill-opacity="1" fill-rule="nonzero"/></g><g clip-path="url(#id41)"><path fill="#000000" d="M 80.855469 99.109375 C 84.085938 99.105469 85.78125 101.734375 86.675781 104.359375 C 87.566406 106.988281 87.648438 109.617188 87.648438 109.617188 L 89.296875 109.628906 C 89.296875 109.628906 89.605469 99.117188 96.0625 99.113281 Z M 80.855469 99.109375 " fill-opacity="1" fill-rule="nonzero"/></g><path fill="#000000" d="M 92.96875 118.820312 C 89.296875 115.144531 89.296875 109.628906 89.296875 109.628906 L 87.648438 109.617188 C 87.648438 109.617188 87.648438 115.25 84.078125 118.820312 " fill-opacity="1" fill-rule="nonzero"/><path fill="#000000" d="M 92.234375 107.019531 C 88.5625 110.691406 83.046875 110.691406 83.046875 110.691406 L 83.035156 112.339844 C 83.035156 112.339844 88.664062 112.339844 92.234375 115.914062 " fill-opacity="1" fill-rule="nonzero"/><path fill="#000000" d="M 84.871094 106.992188 C 88.539062 110.664062 94.054688 110.664062 94.054688 110.664062 L 94.066406 112.3125 C 94.066406 112.3125 88.4375 112.3125 84.871094 115.882812 " fill-opacity="1" fill-rule="nonzero"/></svg>