<svg xmlns="http://www.w3.org/2000/svg" xmlns:xlink="http://www.w3.org/1999/xlink" width="170" zoomAndPan="magnify" viewBox="0 0 127.5 178.499993" height="238" preserveAspectRatio="xMidYMid meet" version="1.0"><defs><g/><clipPath id="id1"><path d="M 0 0.0976562 L 127 0.0976562 L 127 177.902344 L 0 177.902344 Z M 0 0.0976562 " clip-rule="nonzero"/></clipPath><clipPath id="id2"><path d="M 9 21.945312 L 17 21.945312 L 17 29 L 9 29 Z M 9 21.945312 " clip-rule="nonzero"/></clipPath><clipPath id="id3"><path d="M 13 28 L 21.085938 28 L 21.085938 36 L 13 36 Z M 13 28 " clip-rule="nonzero"/></clipPath><clipPath id="id4"><path d="M 4.585938 28 L 12 28 L 12 36 L 4.585938 36 Z M 4.585938 28 " clip-rule="nonzero"/></clipPath><clipPath id="id5"><path d="M 8 32 L 18 32 L 18 38.445312 L 8 38.445312 Z M 8 32 " clip-rule="nonzero"/></clipPath><clipPath id="id6"><path d="M 111 149 L 119 149 L 119 156.75 L 111 156.75 Z M 111 149 " clip-rule="nonzero"/></clipPath><clipPath id="id7"><path d="M 106.410156 143 L 114 143 L 114 151 L 106.410156 151 Z M 106.410156 143 " clip-rule="nonzero"/></clipPath><clipPath id="id8"><path d="M 115 143 L 122.910156 143 L 122.910156 151 L 115 151 Z M 115 143 " clip-rule="nonzero"/></clipPath><clipPath id="id9"><path d="M 110 140.25 L 119 140.25 L 119 146 L 110 146 Z M 110 140.25 " clip-rule="nonzero"/></clipPath><clipPath id="id10"><path d="M 32 11.023438 L 46 11.023438 L 46 24 L 32 24 Z M 32 11.023438 " clip-rule="nonzero"/></clipPath><clipPath id="id11"><path d="M 24.058594 23 L 38 23 L 38 36 L 24.058594 36 Z M 24.058594 23 " clip-rule="nonzero"/></clipPath><clipPath id="id12"><path d="M 31 31 L 47 31 L 47 41.773438 L 31 41.773438 Z M 31 31 " clip-rule="nonzero"/></clipPath><clipPath id="id13"><path d="M 32 155 L 47 155 L 47 167.675781 L 32 167.675781 Z M 32 155 " clip-rule="nonzero"/></clipPath><clipPath id="id14"><path d="M 24.410156 143 L 38 143 L 38 156 L 24.410156 156 Z M 24.410156 143 " clip-rule="nonzero"/></clipPath><clipPath id="id15"><path d="M 41 142 L 54.410156 142 L 54.410156 156 L 41 156 Z M 41 142 " clip-rule="nonzero"/></clipPath><clipPath id="id16"><path d="M 31 136.925781 L 48 136.925781 L 48 148 L 31 148 Z M 31 136.925781 " clip-rule="nonzero"/></clipPath><clipPath id="id17"><path d="M 81 11.023438 L 95 11.023438 L 95 24 L 81 24 Z M 81 11.023438 " clip-rule="nonzero"/></clipPath><clipPath id="id18"><path d="M 73.089844 23 L 87 23 L 87 36 L 73.089844 36 Z M 73.089844 23 " clip-rule="nonzero"/></clipPath><clipPath id="id19"><path d="M 80 31 L 96 31 L 96 41.773438 L 80 41.773438 Z M 80 31 " clip-rule="nonzero"/></clipPath><clipPath id="id20"><path d="M 81 155 L 96 155 L 96 167.675781 L 81 167.675781 Z M 81 155 " clip-rule="nonzero"/></clipPath><clipPath id="id21"><path d="M 73.441406 143 L 87 143 L 87 156 L 73.441406 156 Z M 73.441406 143 " clip-rule="nonzero"/></clipPath><clipPath id="id22"><path d="M 90 142 L 103.441406 142 L 103.441406 156 L 90 156 Z M 90 142 " clip-rule="nonzero"/></clipPath><clipPath id="id23"><path d="M 80 136.925781 L 97 136.925781 L 97 148 L 80 148 Z M 80 136.925781 " clip-rule="nonzero"/></clipPath><clipPath id="id24"><path d="M 32 73.804688 L 46 73.804688 L 46 87 L 32 87 Z M 32 73.804688 " clip-rule="nonzero"/></clipPath><clipPath id="id25"><path d="M 24.058594 85 L 38 85 L 38 99 L 24.058594 99 Z M 24.058594 85 " clip-rule="nonzero"/></clipPath><clipPath id="id26"><path d="M 31 93 L 47 93 L 47 104.554688 L 31 104.554688 Z M 31 93 " clip-rule="nonzero"/></clipPath><clipPath id="id27"><path d="M 81 73.804688 L 95 73.804688 L 95 87 L 81 87 Z M 81 73.804688 " clip-rule="nonzero"/></clipPath><clipPath id="id28"><path d="M 73.089844 85 L 87 85 L 87 99 L 73.089844 99 Z M 73.089844 85 " clip-rule="nonzero"/></clipPath><clipPath id="id29"><path d="M 80 93 L 96 93 L 96 104.554688 L 80 104.554688 Z M 80 93 " clip-rule="nonzero"/></clipPath><clipPath id="id30"><path d="M 57 46.054688 L 70 46.054688 L 70 58 L 57 58 Z M 57 46.054688 " clip-rule="nonzero"/></clipPath><clipPath id="id31"><path d="M 65 56 L 77.203125 56 L 77.203125 69 L 65 69 Z M 65 56 " clip-rule="nonzero"/></clipPath><clipPath id="id32"><path d="M 50.203125 56 L 63 56 L 63 69 L 50.203125 69 Z M 50.203125 56 " clip-rule="nonzero"/></clipPath><clipPath id="id33"><path d="M 56 64 L 71 64 L 71 73.804688 L 56 73.804688 Z M 56 64 " clip-rule="nonzero"/></clipPath><clipPath id="id34"><path d="M 57 125 L 70 125 L 70 136.585938 L 57 136.585938 Z M 57 125 " clip-rule="nonzero"/></clipPath><clipPath id="id35"><path d="M 50.296875 114 L 63 114 L 63 126 L 50.296875 126 Z M 50.296875 114 " clip-rule="nonzero"/></clipPath><clipPath id="id36"><path d="M 65 114 L 77.296875 114 L 77.296875 126 L 65 126 Z M 65 114 " clip-rule="nonzero"/></clipPath><clipPath id="id37"><path d="M 56 108.835938 L 71 108.835938 L 71 119 L 56 119 Z M 56 108.835938 " clip-rule="nonzero"/></clipPath></defs><g clip-path="url(#id1)"><path fill="#ffffff" d="M 0 0.0976562 L 127.5 0.0976562 L 127.5 186.097656 L 0 186.097656 Z M 0 0.0976562 " fill-opacity="1" fill-rule="nonzero"/><path fill="#ffffff" d="M 0 0.0976562 L 127.5 0.0976562 L 127.5 178.597656 L 0 178.597656 Z M 0 0.0976562 " fill-opacity="1" fill-rule="nonzero"/><path fill="#ffffff" d="M 0 0.0976562 L 127.5 0.0976562 L 127.5 178.597656 L 0 178.597656 Z M 0 0.0976562 " fill-opacity="1" fill-rule="nonzero"/><path fill="#ffffff" d="M 0 0.0976562 L 127.5 0.0976562 L 127.5 178.597656 L 0 178.597656 Z M 0 0.0976562 " fill-opacity="1" fill-rule="nonzero"/></g><g clip-path="url(#id2)"><path fill="#000000" d="M 16.382812 25.339844 C 16.382812 27.21875 14.773438 28.742188 12.789062 28.742188 C 10.800781 28.742188 9.191406 27.21875 9.191406 25.339844 C 9.191406 23.460938 10.800781 21.933594 12.789062 21.933594 C 14.773438 21.933594 16.382812 23.460938 16.382812 25.339844 Z M 16.382812 25.339844 " fill-opacity="1" fill-rule="nonzero"/></g><g clip-path="url(#id3)"><path fill="#000000" d="M 21.015625 31.78125 C 21.015625 33.660156 19.40625 35.1875 17.417969 35.1875 C 15.433594 35.1875 13.824219 33.660156 13.824219 31.78125 C 13.824219 29.902344 15.433594 28.378906 17.417969 28.378906 C 19.40625 28.378906 21.015625 29.902344 21.015625 31.78125 Z M 21.015625 31.78125 " fill-opacity="1" fill-rule="nonzero"/></g><g clip-path="url(#id4)"><path fill="#000000" d="M 11.804688 31.8125 C 11.804688 32.5 11.589844 33.140625 11.21875 33.675781 C 10.574219 34.601562 9.46875 35.214844 8.210938 35.214844 C 6.222656 35.214844 4.613281 33.691406 4.613281 31.8125 C 4.613281 29.929688 6.222656 28.40625 8.210938 28.40625 C 10.195312 28.40625 11.804688 29.929688 11.804688 31.8125 Z M 11.804688 31.8125 " fill-opacity="1" fill-rule="nonzero"/></g><g clip-path="url(#id5)"><path fill="#000000" d="M 17.003906 38.417969 C 15.230469 38.417969 14.296875 37.007812 13.804688 35.597656 C 13.3125 34.1875 13.269531 32.777344 13.269531 32.777344 L 12.363281 32.769531 C 12.363281 32.769531 12.191406 38.414062 8.640625 38.414062 Z M 17.003906 38.417969 " fill-opacity="1" fill-rule="nonzero"/></g><path fill="#000000" d="M 10.34375 27.839844 C 12.363281 29.8125 12.363281 32.773438 12.363281 32.773438 L 13.269531 32.777344 C 13.269531 32.777344 13.269531 29.757812 15.230469 27.839844 " fill-opacity="1" fill-rule="nonzero"/><path fill="#000000" d="M 10.746094 34.171875 C 12.765625 32.199219 15.800781 32.199219 15.800781 32.199219 L 15.804688 31.316406 C 15.804688 31.316406 12.710938 31.316406 10.746094 29.402344 " fill-opacity="1" fill-rule="nonzero"/><path fill="#000000" d="M 14.796875 34.1875 C 12.777344 32.214844 9.746094 32.214844 9.746094 32.214844 L 9.738281 31.332031 C 9.738281 31.332031 12.835938 31.332031 14.796875 29.414062 " fill-opacity="1" fill-rule="nonzero"/><g fill="#000000" fill-opacity="1"><g transform="translate(7.167187, 17.772726)"><g><path d="M 4.546875 -6.71875 C 3.367188 -6.78125 2.445312 -7.078125 1.78125 -7.609375 C 1.125 -8.140625 0.796875 -8.820312 0.796875 -9.65625 C 0.796875 -10.6875 1.203125 -11.5 2.015625 -12.09375 C 2.835938 -12.6875 4.035156 -12.984375 5.609375 -12.984375 C 7.179688 -12.984375 8.367188 -12.703125 9.171875 -12.140625 C 9.972656 -11.585938 10.375 -10.835938 10.375 -9.890625 C 10.375 -8.941406 10.0625 -8.195312 9.4375 -7.65625 C 8.820312 -7.113281 7.929688 -6.800781 6.765625 -6.71875 L 6.765625 -6.671875 C 9.390625 -6.453125 10.703125 -5.335938 10.703125 -3.328125 C 10.703125 -2.160156 10.289062 -1.28125 9.46875 -0.6875 C 8.644531 -0.101562 7.363281 0.1875 5.625 0.1875 C 2.175781 0.1875 0.453125 -0.976562 0.453125 -3.3125 C 0.453125 -5.363281 1.816406 -6.484375 4.546875 -6.671875 Z M 7.21875 -3.328125 C 7.21875 -4.453125 7.109375 -5.257812 6.890625 -5.75 C 6.671875 -6.238281 6.242188 -6.484375 5.609375 -6.484375 C 4.984375 -6.484375 4.5625 -6.234375 4.34375 -5.734375 C 4.125 -5.242188 4.015625 -4.4375 4.015625 -3.3125 C 4.015625 -2.1875 4.117188 -1.382812 4.328125 -0.90625 C 4.546875 -0.4375 4.976562 -0.203125 5.625 -0.203125 C 6.269531 -0.203125 6.695312 -0.441406 6.90625 -0.921875 C 7.113281 -1.398438 7.21875 -2.203125 7.21875 -3.328125 Z M 5.625 -12.609375 C 5.09375 -12.609375 4.75 -12.390625 4.59375 -11.953125 C 4.4375 -11.523438 4.359375 -10.941406 4.359375 -10.203125 C 4.359375 -9.460938 4.363281 -8.96875 4.375 -8.71875 C 4.394531 -8.46875 4.425781 -8.207031 4.46875 -7.9375 C 4.507812 -7.675781 4.578125 -7.476562 4.671875 -7.34375 C 4.878906 -7.050781 5.21875 -6.90625 5.6875 -6.90625 C 6.09375 -6.90625 6.398438 -7.050781 6.609375 -7.34375 C 6.765625 -7.570312 6.847656 -7.914062 6.859375 -8.375 C 6.878906 -8.832031 6.890625 -9.4375 6.890625 -10.1875 C 6.890625 -10.9375 6.8125 -11.523438 6.65625 -11.953125 C 6.5 -12.390625 6.15625 -12.609375 5.625 -12.609375 Z M 5.625 -12.609375 "/></g></g></g><g fill="#000000" fill-opacity="1"><g transform="translate(121.609719, 160.923988)"><g><path d="M -4.546875 6.71875 C -3.367188 6.78125 -2.445312 7.078125 -1.78125 7.609375 C -1.125 8.140625 -0.796875 8.820312 -0.796875 9.65625 C -0.796875 10.6875 -1.203125 11.5 -2.015625 12.09375 C -2.835938 12.6875 -4.035156 12.984375 -5.609375 12.984375 C -7.179688 12.984375 -8.367188 12.703125 -9.171875 12.140625 C -9.972656 11.585938 -10.375 10.835938 -10.375 9.890625 C -10.375 8.941406 -10.0625 8.195312 -9.4375 7.65625 C -8.820312 7.113281 -7.929688 6.800781 -6.765625 6.71875 L -6.765625 6.671875 C -9.390625 6.453125 -10.703125 5.335938 -10.703125 3.328125 C -10.703125 2.160156 -10.289062 1.28125 -9.46875 0.6875 C -8.644531 0.101562 -7.363281 -0.1875 -5.625 -0.1875 C -2.175781 -0.1875 -0.453125 0.976562 -0.453125 3.3125 C -0.453125 5.363281 -1.816406 6.484375 -4.546875 6.671875 Z M -7.21875 3.328125 C -7.21875 4.453125 -7.109375 5.257812 -6.890625 5.75 C -6.671875 6.238281 -6.242188 6.484375 -5.609375 6.484375 C -4.984375 6.484375 -4.5625 6.234375 -4.34375 5.734375 C -4.125 5.242188 -4.015625 4.4375 -4.015625 3.3125 C -4.015625 2.1875 -4.117188 1.382812 -4.328125 0.90625 C -4.546875 0.4375 -4.976562 0.203125 -5.625 0.203125 C -6.269531 0.203125 -6.695312 0.441406 -6.90625 0.921875 C -7.113281 1.398438 -7.21875 2.203125 -7.21875 3.328125 Z M -5.625 12.609375 C -5.09375 12.609375 -4.75 12.390625 -4.59375 11.953125 C -4.4375 11.523438 -4.359375 10.941406 -4.359375 10.203125 C -4.359375 9.460938 -4.363281 8.96875 -4.375 8.71875 C -4.394531 8.46875 -4.425781 8.207031 -4.46875 7.9375 C -4.507812 7.675781 -4.578125 7.476562 -4.671875 7.34375 C -4.878906 7.050781 -5.21875 6.90625 -5.6875 6.90625 C -6.09375 6.90625 -6.398438 7.050781 -6.609375 7.34375 C -6.765625 7.570312 -6.847656 7.914062 -6.859375 8.375 C -6.878906 8.832031 -6.890625 9.4375 -6.890625 10.1875 C -6.890625 10.9375 -6.8125 11.523438 -6.65625 11.953125 C -6.5 12.390625 -6.15625 12.609375 -5.625 12.609375 Z M -5.625 12.609375 "/></g></g></g><g clip-path="url(#id6)"><path fill="#000000" d="M 111.109375 153.355469 C 111.109375 151.472656 112.71875 149.949219 114.703125 149.949219 C 116.691406 149.949219 118.300781 151.472656 118.300781 153.355469 C 118.300781 155.234375 116.691406 156.757812 114.703125 156.757812 C 112.71875 156.757812 111.109375 155.234375 111.109375 153.355469 Z M 111.109375 153.355469 " fill-opacity="1" fill-rule="nonzero"/></g><g clip-path="url(#id7)"><path fill="#000000" d="M 106.476562 146.914062 C 106.476562 145.03125 108.085938 143.507812 110.074219 143.507812 C 112.058594 143.507812 113.667969 145.03125 113.667969 146.914062 C 113.667969 148.792969 112.058594 150.316406 110.074219 150.316406 C 108.085938 150.316406 106.476562 148.792969 106.476562 146.914062 Z M 106.476562 146.914062 " fill-opacity="1" fill-rule="nonzero"/></g><g clip-path="url(#id8)"><path fill="#000000" d="M 115.6875 146.882812 C 115.6875 146.195312 115.902344 145.554688 116.273438 145.019531 C 116.917969 144.089844 118.023438 143.480469 119.28125 143.480469 C 121.269531 143.480469 122.878906 145.003906 122.878906 146.882812 C 122.878906 148.765625 121.269531 150.289062 119.28125 150.289062 C 117.296875 150.289062 115.6875 148.765625 115.6875 146.882812 Z M 115.6875 146.882812 " fill-opacity="1" fill-rule="nonzero"/></g><g clip-path="url(#id9)"><path fill="#000000" d="M 110.488281 140.277344 C 112.261719 140.277344 113.195312 141.6875 113.6875 143.097656 C 114.179688 144.503906 114.222656 145.917969 114.222656 145.917969 L 115.128906 145.921875 C 115.128906 145.921875 115.300781 140.28125 118.851562 140.277344 Z M 110.488281 140.277344 " fill-opacity="1" fill-rule="nonzero"/></g><path fill="#000000" d="M 117.148438 150.855469 C 115.128906 148.882812 115.128906 145.921875 115.128906 145.921875 L 114.222656 145.914062 C 114.222656 145.914062 114.222656 148.9375 112.261719 150.855469 " fill-opacity="1" fill-rule="nonzero"/><path fill="#000000" d="M 116.746094 144.523438 C 114.726562 146.492188 111.691406 146.492188 111.691406 146.492188 L 111.6875 147.378906 C 111.6875 147.378906 114.78125 147.378906 116.746094 149.292969 " fill-opacity="1" fill-rule="nonzero"/><path fill="#000000" d="M 112.695312 144.507812 C 114.714844 146.480469 117.746094 146.480469 117.746094 146.480469 L 117.753906 147.363281 C 117.753906 147.363281 114.65625 147.363281 112.695312 149.277344 " fill-opacity="1" fill-rule="nonzero"/><g clip-path="url(#id10)"><path fill="#000000" d="M 45.507812 17.347656 C 45.507812 20.851562 42.582031 23.691406 38.972656 23.691406 C 35.359375 23.691406 32.433594 20.851562 32.433594 17.347656 C 32.433594 13.84375 35.363281 11.003906 38.972656 11.003906 C 42.582031 11.003906 45.507812 13.84375 45.507812 17.347656 Z M 45.507812 17.347656 " fill-opacity="1" fill-rule="nonzero"/></g><path fill="#000000" d="M 53.929688 29.351562 C 53.929688 32.855469 51.003906 35.695312 47.390625 35.695312 C 43.78125 35.695312 40.855469 32.855469 40.855469 29.351562 C 40.855469 25.847656 43.78125 23.007812 47.390625 23.007812 C 51.003906 23.007812 53.929688 25.847656 53.929688 29.351562 Z M 53.929688 29.351562 " fill-opacity="1" fill-rule="nonzero"/><g clip-path="url(#id11)"><path fill="#000000" d="M 37.1875 29.40625 C 37.1875 30.691406 36.792969 31.886719 36.121094 32.882812 C 34.953125 34.609375 32.9375 35.75 30.648438 35.75 C 27.039062 35.75 24.113281 32.910156 24.113281 29.40625 C 24.113281 25.902344 27.039062 23.0625 30.648438 23.0625 C 34.257812 23.0625 37.1875 25.902344 37.1875 29.40625 Z M 37.1875 29.40625 " fill-opacity="1" fill-rule="nonzero"/></g><g clip-path="url(#id12)"><path fill="#000000" d="M 46.640625 41.71875 C 43.410156 41.71875 41.714844 39.09375 40.820312 36.464844 C 39.929688 33.839844 39.847656 31.210938 39.847656 31.210938 L 38.199219 31.195312 C 38.199219 31.195312 37.890625 41.710938 31.4375 41.714844 Z M 46.640625 41.71875 " fill-opacity="1" fill-rule="nonzero"/></g><path fill="#000000" d="M 34.527344 22.007812 C 38.199219 25.683594 38.199219 31.199219 38.199219 31.199219 L 39.847656 31.210938 C 39.847656 31.210938 39.847656 25.578125 43.417969 22.007812 " fill-opacity="1" fill-rule="nonzero"/><path fill="#000000" d="M 35.261719 33.808594 C 38.933594 30.132812 44.449219 30.132812 44.449219 30.132812 L 44.460938 28.488281 C 44.460938 28.488281 38.832031 28.488281 35.261719 24.914062 " fill-opacity="1" fill-rule="nonzero"/><path fill="#000000" d="M 42.625 33.835938 C 38.957031 30.164062 33.441406 30.164062 33.441406 30.164062 L 33.429688 28.515625 C 33.429688 28.515625 39.058594 28.515625 42.625 24.941406 " fill-opacity="1" fill-rule="nonzero"/><g clip-path="url(#id13)"><path fill="#000000" d="M 32.957031 161.351562 C 32.957031 157.847656 35.882812 155.007812 39.492188 155.007812 C 43.105469 155.007812 46.03125 157.847656 46.03125 161.351562 C 46.03125 164.855469 43.101562 167.695312 39.492188 167.695312 C 35.882812 167.695312 32.957031 164.855469 32.957031 161.351562 Z M 32.957031 161.351562 " fill-opacity="1" fill-rule="nonzero"/></g><g clip-path="url(#id14)"><path fill="#000000" d="M 24.535156 149.347656 C 24.535156 145.839844 27.460938 143.003906 31.074219 143.003906 C 34.683594 143.003906 37.609375 145.839844 37.609375 149.347656 C 37.609375 152.851562 34.683594 155.691406 31.074219 155.691406 C 27.460938 155.691406 24.535156 152.851562 24.535156 149.347656 Z M 24.535156 149.347656 " fill-opacity="1" fill-rule="nonzero"/></g><g clip-path="url(#id15)"><path fill="#000000" d="M 41.277344 149.292969 C 41.277344 148.007812 41.671875 146.8125 42.347656 145.816406 C 43.515625 144.085938 45.527344 142.945312 47.816406 142.945312 C 51.425781 142.945312 54.351562 145.785156 54.351562 149.292969 C 54.351562 152.796875 51.425781 155.636719 47.816406 155.636719 C 44.207031 155.636719 41.277344 152.796875 41.277344 149.292969 Z M 41.277344 149.292969 " fill-opacity="1" fill-rule="nonzero"/></g><g clip-path="url(#id16)"><path fill="#000000" d="M 31.824219 136.980469 C 35.054688 136.976562 36.753906 139.605469 37.644531 142.234375 C 38.535156 144.859375 38.617188 147.488281 38.617188 147.488281 L 40.265625 147.503906 C 40.265625 147.503906 40.574219 136.988281 47.03125 136.984375 Z M 31.824219 136.980469 " fill-opacity="1" fill-rule="nonzero"/></g><path fill="#000000" d="M 43.9375 156.691406 C 40.265625 153.015625 40.265625 147.5 40.265625 147.5 L 38.617188 147.488281 C 38.617188 147.488281 38.617188 153.121094 35.046875 156.691406 " fill-opacity="1" fill-rule="nonzero"/><path fill="#000000" d="M 43.203125 144.890625 C 39.53125 148.5625 34.015625 148.5625 34.015625 148.5625 L 34.003906 150.210938 C 34.003906 150.210938 39.632812 150.210938 43.203125 153.785156 " fill-opacity="1" fill-rule="nonzero"/><path fill="#000000" d="M 35.839844 144.863281 C 39.511719 148.535156 45.023438 148.535156 45.023438 148.535156 L 45.035156 150.183594 C 45.035156 150.183594 39.40625 150.183594 35.839844 153.753906 " fill-opacity="1" fill-rule="nonzero"/><g clip-path="url(#id17)"><path fill="#000000" d="M 94.539062 17.347656 C 94.539062 20.851562 91.613281 23.691406 88.003906 23.691406 C 84.390625 23.691406 81.464844 20.851562 81.464844 17.347656 C 81.464844 13.84375 84.394531 11.003906 88.003906 11.003906 C 91.613281 11.003906 94.539062 13.84375 94.539062 17.347656 Z M 94.539062 17.347656 " fill-opacity="1" fill-rule="nonzero"/></g><path fill="#000000" d="M 102.960938 29.351562 C 102.960938 32.855469 100.035156 35.695312 96.421875 35.695312 C 92.8125 35.695312 89.886719 32.855469 89.886719 29.351562 C 89.886719 25.847656 92.8125 23.007812 96.421875 23.007812 C 100.035156 23.007812 102.960938 25.847656 102.960938 29.351562 Z M 102.960938 29.351562 " fill-opacity="1" fill-rule="nonzero"/><g clip-path="url(#id18)"><path fill="#000000" d="M 86.21875 29.40625 C 86.21875 30.691406 85.824219 31.886719 85.152344 32.882812 C 83.984375 34.609375 81.96875 35.75 79.679688 35.75 C 76.070312 35.75 73.144531 32.910156 73.144531 29.40625 C 73.144531 25.902344 76.070312 23.0625 79.679688 23.0625 C 83.289062 23.0625 86.21875 25.902344 86.21875 29.40625 Z M 86.21875 29.40625 " fill-opacity="1" fill-rule="nonzero"/></g><g clip-path="url(#id19)"><path fill="#000000" d="M 95.671875 41.71875 C 92.441406 41.71875 90.746094 39.09375 89.851562 36.464844 C 88.960938 33.839844 88.878906 31.210938 88.878906 31.210938 L 87.230469 31.195312 C 87.230469 31.195312 86.921875 41.710938 80.464844 41.714844 Z M 95.671875 41.71875 " fill-opacity="1" fill-rule="nonzero"/></g><path fill="#000000" d="M 83.558594 22.007812 C 87.230469 25.683594 87.230469 31.199219 87.230469 31.199219 L 88.878906 31.210938 C 88.878906 31.210938 88.878906 25.578125 92.449219 22.007812 " fill-opacity="1" fill-rule="nonzero"/><path fill="#000000" d="M 84.292969 33.808594 C 87.964844 30.132812 93.480469 30.132812 93.480469 30.132812 L 93.492188 28.488281 C 93.492188 28.488281 87.863281 28.488281 84.292969 24.914062 " fill-opacity="1" fill-rule="nonzero"/><path fill="#000000" d="M 91.65625 33.835938 C 87.988281 30.164062 82.472656 30.164062 82.472656 30.164062 L 82.460938 28.515625 C 82.460938 28.515625 88.089844 28.515625 91.65625 24.941406 " fill-opacity="1" fill-rule="nonzero"/><g clip-path="url(#id20)"><path fill="#000000" d="M 81.988281 161.351562 C 81.988281 157.847656 84.914062 155.007812 88.523438 155.007812 C 92.136719 155.007812 95.0625 157.847656 95.0625 161.351562 C 95.0625 164.855469 92.132812 167.695312 88.523438 167.695312 C 84.914062 167.695312 81.988281 164.855469 81.988281 161.351562 Z M 81.988281 161.351562 " fill-opacity="1" fill-rule="nonzero"/></g><g clip-path="url(#id21)"><path fill="#000000" d="M 73.566406 149.347656 C 73.566406 145.839844 76.492188 143.003906 80.105469 143.003906 C 83.714844 143.003906 86.640625 145.839844 86.640625 149.347656 C 86.640625 152.851562 83.714844 155.691406 80.105469 155.691406 C 76.492188 155.691406 73.566406 152.851562 73.566406 149.347656 Z M 73.566406 149.347656 " fill-opacity="1" fill-rule="nonzero"/></g><g clip-path="url(#id22)"><path fill="#000000" d="M 90.308594 149.292969 C 90.308594 148.007812 90.703125 146.8125 91.375 145.816406 C 92.542969 144.085938 94.558594 142.945312 96.847656 142.945312 C 100.457031 142.945312 103.382812 145.785156 103.382812 149.292969 C 103.382812 152.796875 100.457031 155.636719 96.847656 155.636719 C 93.238281 155.636719 90.308594 152.796875 90.308594 149.292969 Z M 90.308594 149.292969 " fill-opacity="1" fill-rule="nonzero"/></g><g clip-path="url(#id23)"><path fill="#000000" d="M 80.855469 136.980469 C 84.085938 136.976562 85.78125 139.605469 86.675781 142.234375 C 87.566406 144.859375 87.648438 147.488281 87.648438 147.488281 L 89.296875 147.503906 C 89.296875 147.503906 89.605469 136.988281 96.0625 136.984375 Z M 80.855469 136.980469 " fill-opacity="1" fill-rule="nonzero"/></g><path fill="#000000" d="M 92.96875 156.691406 C 89.296875 153.015625 89.296875 147.5 89.296875 147.5 L 87.648438 147.488281 C 87.648438 147.488281 87.648438 153.121094 84.078125 156.691406 " fill-opacity="1" fill-rule="nonzero"/><path fill="#000000" d="M 92.234375 144.890625 C 88.5625 148.5625 83.046875 148.5625 83.046875 148.5625 L 83.035156 150.210938 C 83.035156 150.210938 88.664062 150.210938 92.234375 153.785156 " fill-opacity="1" fill-rule="nonzero"/><path fill="#000000" d="M 84.871094 144.863281 C 88.539062 148.535156 94.054688 148.535156 94.054688 148.535156 L 94.066406 150.183594 C 94.066406 150.183594 88.4375 150.183594 84.871094 153.753906 " fill-opacity="1" fill-rule="nonzero"/><g clip-path="url(#id24)"><path fill="#000000" d="M 45.507812 80.128906 C 45.507812 83.632812 42.582031 86.472656 38.972656 86.472656 C 35.359375 86.472656 32.433594 83.632812 32.433594 80.128906 C 32.433594 76.625 35.363281 73.785156 38.972656 73.785156 C 42.582031 73.785156 45.507812 76.625 45.507812 80.128906 Z M 45.507812 80.128906 " fill-opacity="1" fill-rule="nonzero"/></g><path fill="#000000" d="M 53.929688 92.132812 C 53.929688 95.640625 51.003906 98.480469 47.390625 98.480469 C 43.78125 98.480469 40.855469 95.640625 40.855469 92.132812 C 40.855469 88.628906 43.78125 85.789062 47.390625 85.789062 C 51.003906 85.789062 53.929688 88.628906 53.929688 92.132812 Z M 53.929688 92.132812 " fill-opacity="1" fill-rule="nonzero"/><g clip-path="url(#id25)"><path fill="#000000" d="M 37.1875 92.191406 C 37.1875 93.472656 36.792969 94.667969 36.121094 95.664062 C 34.953125 97.394531 32.9375 98.535156 30.648438 98.535156 C 27.039062 98.535156 24.113281 95.695312 24.113281 92.191406 C 24.113281 88.683594 27.039062 85.84375 30.648438 85.84375 C 34.257812 85.84375 37.1875 88.6875 37.1875 92.191406 Z M 37.1875 92.191406 " fill-opacity="1" fill-rule="nonzero"/></g><g clip-path="url(#id26)"><path fill="#000000" d="M 46.640625 104.5 C 43.410156 104.503906 41.714844 101.875 40.820312 99.25 C 39.929688 96.621094 39.847656 93.992188 39.847656 93.992188 L 38.199219 93.980469 C 38.199219 93.980469 37.890625 104.492188 31.4375 104.496094 Z M 46.640625 104.5 " fill-opacity="1" fill-rule="nonzero"/></g><path fill="#000000" d="M 34.527344 84.789062 C 38.199219 88.464844 38.199219 93.980469 38.199219 93.980469 L 39.847656 93.992188 C 39.847656 93.992188 39.847656 88.359375 43.417969 84.789062 " fill-opacity="1" fill-rule="nonzero"/><path fill="#000000" d="M 35.261719 96.589844 C 38.933594 92.917969 44.449219 92.917969 44.449219 92.917969 L 44.460938 91.269531 C 44.460938 91.269531 38.832031 91.269531 35.261719 87.695312 " fill-opacity="1" fill-rule="nonzero"/><path fill="#000000" d="M 42.625 96.617188 C 38.957031 92.945312 33.441406 92.945312 33.441406 92.945312 L 33.429688 91.296875 C 33.429688 91.296875 39.058594 91.296875 42.625 87.726562 " fill-opacity="1" fill-rule="nonzero"/><g clip-path="url(#id27)"><path fill="#000000" d="M 94.539062 80.128906 C 94.539062 83.632812 91.613281 86.472656 88.003906 86.472656 C 84.390625 86.472656 81.464844 83.632812 81.464844 80.128906 C 81.464844 76.625 84.394531 73.785156 88.003906 73.785156 C 91.613281 73.785156 94.539062 76.625 94.539062 80.128906 Z M 94.539062 80.128906 " fill-opacity="1" fill-rule="nonzero"/></g><path fill="#000000" d="M 102.960938 92.132812 C 102.960938 95.640625 100.035156 98.480469 96.421875 98.480469 C 92.8125 98.480469 89.886719 95.640625 89.886719 92.132812 C 89.886719 88.628906 92.8125 85.789062 96.421875 85.789062 C 100.035156 85.789062 102.960938 88.628906 102.960938 92.132812 Z M 102.960938 92.132812 " fill-opacity="1" fill-rule="nonzero"/><g clip-path="url(#id28)"><path fill="#000000" d="M 86.21875 92.191406 C 86.21875 93.472656 85.824219 94.667969 85.152344 95.664062 C 83.984375 97.394531 81.96875 98.535156 79.679688 98.535156 C 76.070312 98.535156 73.144531 95.695312 73.144531 92.191406 C 73.144531 88.683594 76.070312 85.84375 79.679688 85.84375 C 83.289062 85.84375 86.21875 88.6875 86.21875 92.191406 Z M 86.21875 92.191406 " fill-opacity="1" fill-rule="nonzero"/></g><g clip-path="url(#id29)"><path fill="#000000" d="M 95.671875 104.5 C 92.441406 104.503906 90.746094 101.875 89.851562 99.25 C 88.960938 96.621094 88.878906 93.992188 88.878906 93.992188 L 87.230469 93.980469 C 87.230469 93.980469 86.921875 104.492188 80.464844 104.496094 Z M 95.671875 104.5 " fill-opacity="1" fill-rule="nonzero"/></g><path fill="#000000" d="M 83.558594 84.789062 C 87.230469 88.464844 87.230469 93.980469 87.230469 93.980469 L 88.878906 93.992188 C 88.878906 93.992188 88.878906 88.359375 92.449219 84.789062 " fill-opacity="1" fill-rule="nonzero"/><path fill="#000000" d="M 84.292969 96.589844 C 87.964844 92.917969 93.480469 92.917969 93.480469 92.917969 L 93.492188 91.269531 C 93.492188 91.269531 87.863281 91.269531 84.292969 87.695312 " fill-opacity="1" fill-rule="nonzero"/><path fill="#000000" d="M 91.65625 96.617188 C 87.988281 92.945312 82.472656 92.945312 82.472656 92.945312 L 82.460938 91.296875 C 82.460938 91.296875 88.089844 91.296875 91.65625 87.726562 " fill-opacity="1" fill-rule="nonzero"/><g clip-path="url(#id30)"><path fill="#000000" d="M 69.507812 51.761719 C 69.507812 54.925781 66.875 57.488281 63.625 57.488281 C 60.375 57.488281 57.742188 54.925781 57.742188 51.761719 C 57.742188 48.597656 60.378906 46.035156 63.625 46.035156 C 66.875 46.035156 69.507812 48.597656 69.507812 51.761719 Z M 69.507812 51.761719 " fill-opacity="1" fill-rule="nonzero"/></g><g clip-path="url(#id31)"><path fill="#000000" d="M 77.085938 62.59375 C 77.085938 65.757812 74.453125 68.320312 71.203125 68.320312 C 67.953125 68.320312 65.320312 65.757812 65.320312 62.59375 C 65.320312 59.433594 67.953125 56.871094 71.203125 56.871094 C 74.453125 56.871094 77.085938 59.433594 77.085938 62.59375 Z M 77.085938 62.59375 " fill-opacity="1" fill-rule="nonzero"/></g><g clip-path="url(#id32)"><path fill="#000000" d="M 62.019531 62.644531 C 62.019531 63.800781 61.667969 64.878906 61.058594 65.78125 C 60.007812 67.339844 58.195312 68.371094 56.136719 68.371094 C 52.886719 68.371094 50.253906 65.808594 50.253906 62.644531 C 50.253906 59.484375 52.886719 56.917969 56.136719 56.917969 C 59.386719 56.917969 62.019531 59.484375 62.019531 62.644531 Z M 62.019531 62.644531 " fill-opacity="1" fill-rule="nonzero"/></g><g clip-path="url(#id33)"><path fill="#000000" d="M 70.527344 73.753906 C 67.621094 73.757812 66.09375 71.386719 65.289062 69.015625 C 64.488281 66.644531 64.414062 64.273438 64.414062 64.273438 L 62.929688 64.257812 C 62.929688 64.257812 62.652344 73.746094 56.84375 73.753906 Z M 70.527344 73.753906 " fill-opacity="1" fill-rule="nonzero"/></g><path fill="#000000" d="M 59.628906 55.96875 C 62.929688 59.28125 62.929688 64.261719 62.929688 64.261719 L 64.414062 64.273438 C 64.414062 64.273438 64.414062 59.191406 67.625 55.96875 " fill-opacity="1" fill-rule="nonzero"/><path fill="#000000" d="M 60.289062 66.617188 C 63.59375 63.300781 68.554688 63.300781 68.554688 63.300781 L 68.566406 61.8125 C 68.566406 61.8125 63.5 61.8125 60.289062 58.589844 " fill-opacity="1" fill-rule="nonzero"/><path fill="#000000" d="M 66.914062 66.640625 C 63.609375 63.324219 58.648438 63.324219 58.648438 63.324219 L 58.636719 61.839844 C 58.636719 61.839844 63.703125 61.839844 66.914062 58.617188 " fill-opacity="1" fill-rule="nonzero"/><g clip-path="url(#id34)"><path fill="#000000" d="M 57.988281 130.878906 C 57.988281 127.714844 60.621094 125.152344 63.871094 125.152344 C 67.121094 125.152344 69.753906 127.714844 69.753906 130.878906 C 69.753906 134.039062 67.121094 136.601562 63.871094 136.601562 C 60.625 136.601562 57.988281 134.039062 57.988281 130.878906 Z M 57.988281 130.878906 " fill-opacity="1" fill-rule="nonzero"/></g><g clip-path="url(#id35)"><path fill="#000000" d="M 50.410156 120.042969 C 50.410156 116.882812 53.046875 114.316406 56.296875 114.316406 C 59.542969 114.316406 62.179688 116.882812 62.179688 120.042969 C 62.179688 123.207031 59.542969 125.769531 56.296875 125.769531 C 53.046875 125.769531 50.410156 123.207031 50.410156 120.042969 Z M 50.410156 120.042969 " fill-opacity="1" fill-rule="nonzero"/></g><g clip-path="url(#id36)"><path fill="#000000" d="M 65.480469 119.992188 C 65.480469 118.835938 65.832031 117.757812 66.441406 116.859375 C 67.492188 115.296875 69.304688 114.269531 71.363281 114.269531 C 74.613281 114.269531 77.246094 116.832031 77.246094 119.992188 C 77.246094 123.15625 74.613281 125.71875 71.363281 125.71875 C 68.113281 125.71875 65.480469 123.15625 65.480469 119.992188 Z M 65.480469 119.992188 " fill-opacity="1" fill-rule="nonzero"/></g><g clip-path="url(#id37)"><path fill="#000000" d="M 56.972656 108.882812 C 59.878906 108.882812 61.40625 111.253906 62.207031 113.625 C 63.011719 115.996094 63.085938 118.367188 63.085938 118.367188 L 64.566406 118.378906 C 64.566406 118.378906 64.847656 108.890625 70.65625 108.886719 Z M 56.972656 108.882812 " fill-opacity="1" fill-rule="nonzero"/></g><path fill="#000000" d="M 67.871094 126.671875 C 64.566406 123.355469 64.566406 118.378906 64.566406 118.378906 L 63.085938 118.367188 C 63.085938 118.367188 63.085938 123.449219 59.871094 126.671875 " fill-opacity="1" fill-rule="nonzero"/><path fill="#000000" d="M 67.210938 116.023438 C 63.90625 119.339844 58.945312 119.339844 58.945312 119.339844 L 58.933594 120.824219 C 58.933594 120.824219 64 120.824219 67.210938 124.046875 " fill-opacity="1" fill-rule="nonzero"/><path fill="#000000" d="M 60.582031 115.996094 C 63.886719 119.3125 68.847656 119.3125 68.847656 119.3125 L 68.859375 120.800781 C 68.859375 120.800781 63.792969 120.800781 60.582031 124.023438 " fill-opacity="1" fill-rule="nonzero"/></svg>