<svg xmlns="http://www.w3.org/2000/svg" xmlns:xlink="http://www.w3.org/1999/xlink" width="170" zoomAndPan="magnify" viewBox="0 0 127.5 178.499993" height="238" preserveAspectRatio="xMidYMid meet" version="1.0"><defs><g/><clipPath id="id1"><path d="M 0 0.0976562 L 127 0.0976562 L 127 177.902344 L 0 177.902344 Z M 0 0.0976562 " clip-rule="nonzero"/></clipPath><clipPath id="id2"><path d="M 9 21.945312 L 17 21.945312 L 17 29 L 9 29 Z M 9 21.945312 " clip-rule="nonzero"/></clipPath><clipPath id="id3"><path d="M 13 28 L 21.085938 28 L 21.085938 36 L 13 36 Z M 13 28 " clip-rule="nonzero"/></clipPath><clipPath id="id4"><path d="M 4.585938 28 L 12 28 L 12 36 L 4.585938 36 Z M 4.585938 28 " clip-rule="nonzero"/></clipPath><clipPath id="id5"><path d="M 8 32 L 18 32 L 18 38.445312 L 8 38.445312 Z M 8 32 " clip-rule="nonzero"/></clipPath><clipPath id="id6"><path d="M 111 149 L 119 149 L 119 156.75 L 111 156.75 Z M 111 149 " clip-rule="nonzero"/></clipPath><clipPath id="id7"><path d="M 106.410156 143 L 114 143 L 114 151 L 106.410156 151 Z M 106.410156 143 " clip-rule="nonzero"/></clipPath><clipPath id="id8"><path d="M 115 143 L 122.910156 143 L 122.910156 151 L 115 151 Z M 115 143 " clip-rule="nonzero"/></clipPath><clipPath id="id9"><path d="M 110 140.25 L 119 140.25 L 119 146 L 110 146 Z M 110 140.25 " clip-rule="nonzero"/></clipPath><clipPath id="id10"><path d="M 56 11.023438 L 71 11.023438 L 71 24 L 56 24 Z M 56 11.023438 " clip-rule="nonzero"/></clipPath><clipPath id="id11"><path d="M 65 23 L 78.574219 23 L 78.574219 36 L 65 36 Z M 65 23 " clip-rule="nonzero"/></clipPath><clipPath id="id12"><path d="M 48.574219 23 L 62 23 L 62 36 L 48.574219 36 Z M 48.574219 23 " clip-rule="nonzero"/></clipPath><clipPath id="id13"><path d="M 55 31 L 72 31 L 72 41.773438 L 55 41.773438 Z M 55 31 " clip-rule="nonzero"/></clipPath><clipPath id="id14"><path d="M 57 155 L 71 155 L 71 167.675781 L 57 167.675781 Z M 57 155 " clip-rule="nonzero"/></clipPath><clipPath id="id15"><path d="M 65 142 L 78.925781 142 L 78.925781 156 L 65 156 Z M 65 142 " clip-rule="nonzero"/></clipPath><clipPath id="id16"><path d="M 56 136.925781 L 72 136.925781 L 72 148 L 56 148 Z M 56 136.925781 " clip-rule="nonzero"/></clipPath><clipPath id="id17"><path d="M 56 69.617188 L 71 69.617188 L 71 83 L 56 83 Z M 56 69.617188 " clip-rule="nonzero"/></clipPath><clipPath id="id18"><path d="M 65 81 L 78.574219 81 L 78.574219 95 L 65 95 Z M 65 81 " clip-rule="nonzero"/></clipPath><clipPath id="id19"><path d="M 48.574219 81 L 62 81 L 62 95 L 48.574219 95 Z M 48.574219 81 " clip-rule="nonzero"/></clipPath><clipPath id="id20"><path d="M 55 89 L 72 89 L 72 100.367188 L 55 100.367188 Z M 55 89 " clip-rule="nonzero"/></clipPath></defs><g clip-path="url(#id1)"><path fill="#ffffff" d="M 0 0.0976562 L 127.5 0.0976562 L 127.5 186.097656 L 0 186.097656 Z M 0 0.0976562 " fill-opacity="1" fill-rule="nonzero"/><path fill="#ffffff" d="M 0 0.0976562 L 127.5 0.0976562 L 127.5 178.597656 L 0 178.597656 Z M 0 0.0976562 " fill-opacity="1" fill-rule="nonzero"/><path fill="#ffffff" d="M 0 0.0976562 L 127.5 0.0976562 L 127.5 178.597656 L 0 178.597656 Z M 0 0.0976562 " fill-opacity="1" fill-rule="nonzero"/><path fill="#ffffff" d="M 0 0.0976562 L 127.5 0.0976562 L 127.5 178.597656 L 0 178.597656 Z M 0 0.0976562 " fill-opacity="1" fill-rule="nonzero"/></g><g clip-path="url(#id2)"><path fill="#000000" d="M 16.382812 25.339844 C 16.382812 27.21875 14.773438 28.742188 12.789062 28.742188 C 10.800781 28.742188 9.191406 27.21875 9.191406 25.339844 C 9.191406 23.460938 10.800781 21.933594 12.789062 21.933594 C 14.773438 21.933594 16.382812 23.460938 16.382812 25.339844 Z M 16.382812 25.339844 " fill-opacity="1" fill-rule="nonzero"/></g><g clip-path="url(#id3)"><path fill="#000000" d="M 21.015625 31.78125 C 21.015625 33.660156 19.40625 35.1875 17.417969 35.1875 C 15.433594 35.1875 13.824219 33.660156 13.824219 31.78125 C 13.824219 29.902344 15.433594 28.378906 17.417969 28.378906 C 19.40625 28.378906 21.015625 29.902344 21.015625 31.78125 Z M 21.015625 31.78125 " fill-opacity="1" fill-rule="nonzero"/></g><g clip-path="url(#id4)"><path fill="#000000" d="M 11.804688 31.8125 C 11.804688 32.5 11.589844 33.140625 11.21875 33.675781 C 10.574219 34.601562 9.46875 35.214844 8.210938 35.214844 C 6.222656 35.214844 4.613281 33.691406 4.613281 31.8125 C 4.613281 29.929688 6.222656 28.40625 8.210938 28.40625 C 10.195312 28.40625 11.804688 29.929688 11.804688 31.8125 Z M 11.804688 31.8125 " fill-opacity="1" fill-rule="nonzero"/></g><g clip-path="url(#id5)"><path fill="#000000" d="M 17.003906 38.417969 C 15.230469 38.417969 14.296875 37.007812 13.804688 35.597656 C 13.3125 34.1875 13.269531 32.777344 13.269531 32.777344 L 12.363281 32.769531 C 12.363281 32.769531 12.191406 38.414062 8.640625 38.414062 Z M 17.003906 38.417969 " fill-opacity="1" fill-rule="nonzero"/></g><path fill="#000000" d="M 10.34375 27.839844 C 12.363281 29.8125 12.363281 32.773438 12.363281 32.773438 L 13.269531 32.777344 C 13.269531 32.777344 13.269531 29.757812 15.230469 27.839844 " fill-opacity="1" fill-rule="nonzero"/><path fill="#000000" d="M 10.746094 34.171875 C 12.765625 32.199219 15.800781 32.199219 15.800781 32.199219 L 15.804688 31.316406 C 15.804688 31.316406 12.710938 31.316406 10.746094 29.402344 " fill-opacity="1" fill-rule="nonzero"/><path fill="#000000" d="M 14.796875 34.1875 C 12.777344 32.214844 9.746094 32.214844 9.746094 32.214844 L 9.738281 31.332031 C 9.738281 31.332031 12.835938 31.332031 14.796875 29.414062 " fill-opacity="1" fill-rule="nonzero"/><g fill="#000000" fill-opacity="1"><g transform="translate(7.514062, 17.772726)"><g><path d="M 0.765625 -10.1875 C 0.765625 -10.988281 1.128906 -11.65625 1.859375 -12.1875 C 2.585938 -12.71875 3.671875 -12.984375 5.109375 -12.984375 C 7.890625 -12.984375 9.28125 -12.015625 9.28125 -10.078125 C 9.28125 -9.285156 8.953125 -8.628906 8.296875 -8.109375 C 7.648438 -7.597656 6.71875 -7.238281 5.5 -7.03125 L 5.5 -7 C 7.007812 -6.882812 8.125 -6.53125 8.84375 -5.9375 C 9.5625 -5.34375 9.921875 -4.566406 9.921875 -3.609375 C 9.921875 -2.441406 9.445312 -1.515625 8.5 -0.828125 C 7.5625 -0.148438 6.25 0.1875 4.5625 0.1875 C 3.90625 0.1875 3.289062 0.113281 2.71875 -0.03125 C 2.15625 -0.175781 1.648438 -0.460938 1.203125 -0.890625 C 0.765625 -1.328125 0.546875 -1.84375 0.546875 -2.4375 C 0.546875 -3.039062 0.6875 -3.503906 0.96875 -3.828125 C 1.257812 -4.160156 1.65625 -4.328125 2.15625 -4.328125 C 2.65625 -4.328125 3.050781 -4.195312 3.34375 -3.9375 C 3.632812 -3.675781 3.78125 -3.363281 3.78125 -3 C 3.78125 -2.644531 3.734375 -2.335938 3.640625 -2.078125 L 3.0625 -2.078125 C 2.988281 -1.890625 2.953125 -1.691406 2.953125 -1.484375 C 2.953125 -0.617188 3.46875 -0.1875 4.5 -0.1875 C 5.21875 -0.1875 5.707031 -0.457031 5.96875 -1 C 6.226562 -1.550781 6.359375 -2.34375 6.359375 -3.375 C 6.359375 -4.414062 6.234375 -5.171875 5.984375 -5.640625 C 5.734375 -6.109375 5.363281 -6.460938 4.875 -6.703125 C 4.4375 -6.609375 3.90625 -6.53125 3.28125 -6.46875 L 3.234375 -6.875 C 4.304688 -6.976562 5.007812 -7.226562 5.34375 -7.625 C 5.675781 -8.03125 5.84375 -8.75 5.84375 -9.78125 C 5.84375 -10.8125 5.742188 -11.546875 5.546875 -11.984375 C 5.347656 -12.429688 5.007812 -12.65625 4.53125 -12.65625 C 4.050781 -12.65625 3.710938 -12.507812 3.515625 -12.21875 C 3.316406 -11.9375 3.21875 -11.664062 3.21875 -11.40625 C 3.21875 -11.15625 3.253906 -10.929688 3.328125 -10.734375 L 3.859375 -10.734375 C 3.953125 -10.484375 4 -10.175781 4 -9.8125 C 4 -9.457031 3.847656 -9.148438 3.546875 -8.890625 C 3.242188 -8.628906 2.84375 -8.5 2.34375 -8.5 C 1.84375 -8.5 1.453125 -8.660156 1.171875 -8.984375 C 0.898438 -9.304688 0.765625 -9.707031 0.765625 -10.1875 Z M 0.765625 -10.1875 "/></g></g></g><g fill="#000000" fill-opacity="1"><g transform="translate(121.609719, 160.923988)"><g><path d="M -0.765625 10.1875 C -0.765625 10.988281 -1.128906 11.65625 -1.859375 12.1875 C -2.585938 12.71875 -3.671875 12.984375 -5.109375 12.984375 C -7.890625 12.984375 -9.28125 12.015625 -9.28125 10.078125 C -9.28125 9.285156 -8.953125 8.628906 -8.296875 8.109375 C -7.648438 7.597656 -6.71875 7.238281 -5.5 7.03125 L -5.5 7 C -7.007812 6.882812 -8.125 6.53125 -8.84375 5.9375 C -9.5625 5.34375 -9.921875 4.566406 -9.921875 3.609375 C -9.921875 2.441406 -9.445312 1.515625 -8.5 0.828125 C -7.5625 0.148438 -6.25 -0.1875 -4.5625 -0.1875 C -3.90625 -0.1875 -3.289062 -0.113281 -2.71875 0.03125 C -2.15625 0.175781 -1.648438 0.460938 -1.203125 0.890625 C -0.765625 1.328125 -0.546875 1.84375 -0.546875 2.4375 C -0.546875 3.039062 -0.6875 3.503906 -0.96875 3.828125 C -1.257812 4.160156 -1.65625 4.328125 -2.15625 4.328125 C -2.65625 4.328125 -3.050781 4.195312 -3.34375 3.9375 C -3.632812 3.675781 -3.78125 3.363281 -3.78125 3 C -3.78125 2.644531 -3.734375 2.335938 -3.640625 2.078125 L -3.0625 2.078125 C -2.988281 1.890625 -2.953125 1.691406 -2.953125 1.484375 C -2.953125 0.617188 -3.46875 0.1875 -4.5 0.1875 C -5.21875 0.1875 -5.707031 0.457031 -5.96875 1 C -6.226562 1.550781 -6.359375 2.34375 -6.359375 3.375 C -6.359375 4.414062 -6.234375 5.171875 -5.984375 5.640625 C -5.734375 6.109375 -5.363281 6.460938 -4.875 6.703125 C -4.4375 6.609375 -3.90625 6.53125 -3.28125 6.46875 L -3.234375 6.875 C -4.304688 6.976562 -5.007812 7.226562 -5.34375 7.625 C -5.675781 8.03125 -5.84375 8.75 -5.84375 9.78125 C -5.84375 10.8125 -5.742188 11.546875 -5.546875 11.984375 C -5.347656 12.429688 -5.007812 12.65625 -4.53125 12.65625 C -4.050781 12.65625 -3.710938 12.507812 -3.515625 12.21875 C -3.316406 11.9375 -3.21875 11.664062 -3.21875 11.40625 C -3.21875 11.15625 -3.253906 10.929688 -3.328125 10.734375 L -3.859375 10.734375 C -3.953125 10.484375 -4 10.175781 -4 9.8125 C -4 9.457031 -3.847656 9.148438 -3.546875 8.890625 C -3.242188 8.628906 -2.84375 8.5 -2.34375 8.5 C -1.84375 8.5 -1.453125 8.660156 -1.171875 8.984375 C -0.898438 9.304688 -0.765625 9.707031 -0.765625 10.1875 Z M -0.765625 10.1875 "/></g></g></g><g clip-path="url(#id6)"><path fill="#000000" d="M 111.109375 153.355469 C 111.109375 151.472656 112.71875 149.949219 114.703125 149.949219 C 116.691406 149.949219 118.300781 151.472656 118.300781 153.355469 C 118.300781 155.234375 116.691406 156.757812 114.703125 156.757812 C 112.71875 156.757812 111.109375 155.234375 111.109375 153.355469 Z M 111.109375 153.355469 " fill-opacity="1" fill-rule="nonzero"/></g><g clip-path="url(#id7)"><path fill="#000000" d="M 106.476562 146.914062 C 106.476562 145.03125 108.085938 143.507812 110.074219 143.507812 C 112.058594 143.507812 113.667969 145.03125 113.667969 146.914062 C 113.667969 148.792969 112.058594 150.316406 110.074219 150.316406 C 108.085938 150.316406 106.476562 148.792969 106.476562 146.914062 Z M 106.476562 146.914062 " fill-opacity="1" fill-rule="nonzero"/></g><g clip-path="url(#id8)"><path fill="#000000" d="M 115.6875 146.882812 C 115.6875 146.195312 115.902344 145.554688 116.273438 145.019531 C 116.917969 144.089844 118.023438 143.480469 119.28125 143.480469 C 121.269531 143.480469 122.878906 145.003906 122.878906 146.882812 C 122.878906 148.765625 121.269531 150.289062 119.28125 150.289062 C 117.296875 150.289062 115.6875 148.765625 115.6875 146.882812 Z M 115.6875 146.882812 " fill-opacity="1" fill-rule="nonzero"/></g><g clip-path="url(#id9)"><path fill="#000000" d="M 110.488281 140.277344 C 112.261719 140.277344 113.195312 141.6875 113.6875 143.097656 C 114.179688 144.503906 114.222656 145.917969 114.222656 145.917969 L 115.128906 145.921875 C 115.128906 145.921875 115.300781 140.28125 118.851562 140.277344 Z M 110.488281 140.277344 " fill-opacity="1" fill-rule="nonzero"/></g><path fill="#000000" d="M 117.148438 150.855469 C 115.128906 148.882812 115.128906 145.921875 115.128906 145.921875 L 114.222656 145.914062 C 114.222656 145.914062 114.222656 148.9375 112.261719 150.855469 " fill-opacity="1" fill-rule="nonzero"/><path fill="#000000" d="M 116.746094 144.523438 C 114.726562 146.492188 111.691406 146.492188 111.691406 146.492188 L 111.6875 147.378906 C 111.6875 147.378906 114.78125 147.378906 116.746094 149.292969 " fill-opacity="1" fill-rule="nonzero"/><path fill="#000000" d="M 112.695312 144.507812 C 114.714844 146.480469 117.746094 146.480469 117.746094 146.480469 L 117.753906 147.363281 C 117.753906 147.363281 114.65625 147.363281 112.695312 149.277344 " fill-opacity="1" fill-rule="nonzero"/><g clip-path="url(#id10)"><path fill="#000000" d="M 70.023438 17.347656 C 70.023438 20.851562 67.097656 23.691406 63.488281 23.691406 C 59.875 23.691406 56.949219 20.851562 56.949219 17.347656 C 56.949219 13.84375 59.878906 11.003906 63.488281 11.003906 C 67.097656 11.003906 70.023438 13.84375 70.023438 17.347656 Z M 70.023438 17.347656 " fill-opacity="1" fill-rule="nonzero"/></g><g clip-path="url(#id11)"><path fill="#000000" d="M 78.445312 29.351562 C 78.445312 32.855469 75.519531 35.695312 71.90625 35.695312 C 68.296875 35.695312 65.371094 32.855469 65.371094 29.351562 C 65.371094 25.847656 68.296875 23.007812 71.90625 23.007812 C 75.519531 23.007812 78.445312 25.847656 78.445312 29.351562 Z M 78.445312 29.351562 " fill-opacity="1" fill-rule="nonzero"/></g><g clip-path="url(#id12)"><path fill="#000000" d="M 61.703125 29.40625 C 61.703125 30.691406 61.308594 31.886719 60.636719 32.882812 C 59.46875 34.609375 57.453125 35.75 55.164062 35.75 C 51.554688 35.75 48.628906 32.910156 48.628906 29.40625 C 48.628906 25.902344 51.554688 23.0625 55.164062 23.0625 C 58.773438 23.0625 61.703125 25.902344 61.703125 29.40625 Z M 61.703125 29.40625 " fill-opacity="1" fill-rule="nonzero"/></g><g clip-path="url(#id13)"><path fill="#000000" d="M 71.15625 41.71875 C 67.925781 41.71875 66.230469 39.09375 65.335938 36.464844 C 64.445312 33.839844 64.363281 31.210938 64.363281 31.210938 L 62.714844 31.195312 C 62.714844 31.195312 62.40625 41.710938 55.949219 41.714844 Z M 71.15625 41.71875 " fill-opacity="1" fill-rule="nonzero"/></g><path fill="#000000" d="M 59.042969 22.007812 C 62.714844 25.683594 62.714844 31.199219 62.714844 31.199219 L 64.363281 31.210938 C 64.363281 31.210938 64.363281 25.578125 67.933594 22.007812 " fill-opacity="1" fill-rule="nonzero"/><path fill="#000000" d="M 59.777344 33.808594 C 63.449219 30.132812 68.964844 30.132812 68.964844 30.132812 L 68.976562 28.488281 C 68.976562 28.488281 63.347656 28.488281 59.777344 24.914062 " fill-opacity="1" fill-rule="nonzero"/><path fill="#000000" d="M 67.140625 33.835938 C 63.472656 30.164062 57.957031 30.164062 57.957031 30.164062 L 57.945312 28.515625 C 57.945312 28.515625 63.574219 28.515625 67.140625 24.941406 " fill-opacity="1" fill-rule="nonzero"/><g clip-path="url(#id14)"><path fill="#000000" d="M 57.472656 161.351562 C 57.472656 157.847656 60.398438 155.007812 64.007812 155.007812 C 67.621094 155.007812 70.546875 157.847656 70.546875 161.351562 C 70.546875 164.855469 67.617188 167.695312 64.007812 167.695312 C 60.398438 167.695312 57.472656 164.855469 57.472656 161.351562 Z M 57.472656 161.351562 " fill-opacity="1" fill-rule="nonzero"/></g><path fill="#000000" d="M 49.050781 149.347656 C 49.050781 145.839844 51.976562 143.003906 55.589844 143.003906 C 59.199219 143.003906 62.125 145.839844 62.125 149.347656 C 62.125 152.851562 59.199219 155.691406 55.589844 155.691406 C 51.976562 155.691406 49.050781 152.851562 49.050781 149.347656 Z M 49.050781 149.347656 " fill-opacity="1" fill-rule="nonzero"/><g clip-path="url(#id15)"><path fill="#000000" d="M 65.792969 149.292969 C 65.792969 148.007812 66.1875 146.8125 66.859375 145.816406 C 68.027344 144.085938 70.042969 142.945312 72.332031 142.945312 C 75.941406 142.945312 78.867188 145.785156 78.867188 149.292969 C 78.867188 152.796875 75.941406 155.636719 72.332031 155.636719 C 68.722656 155.636719 65.792969 152.796875 65.792969 149.292969 Z M 65.792969 149.292969 " fill-opacity="1" fill-rule="nonzero"/></g><g clip-path="url(#id16)"><path fill="#000000" d="M 56.339844 136.980469 C 59.570312 136.976562 61.265625 139.605469 62.160156 142.234375 C 63.050781 144.859375 63.132812 147.488281 63.132812 147.488281 L 64.78125 147.503906 C 64.78125 147.503906 65.089844 136.988281 71.546875 136.984375 Z M 56.339844 136.980469 " fill-opacity="1" fill-rule="nonzero"/></g><path fill="#000000" d="M 68.453125 156.691406 C 64.78125 153.015625 64.78125 147.5 64.78125 147.5 L 63.132812 147.488281 C 63.132812 147.488281 63.132812 153.121094 59.5625 156.691406 " fill-opacity="1" fill-rule="nonzero"/><path fill="#000000" d="M 67.71875 144.890625 C 64.046875 148.5625 58.53125 148.5625 58.53125 148.5625 L 58.519531 150.210938 C 58.519531 150.210938 64.148438 150.210938 67.71875 153.785156 " fill-opacity="1" fill-rule="nonzero"/><path fill="#000000" d="M 60.355469 144.863281 C 64.027344 148.535156 69.539062 148.535156 69.539062 148.535156 L 69.550781 150.183594 C 69.550781 150.183594 63.921875 150.183594 60.355469 153.753906 " fill-opacity="1" fill-rule="nonzero"/><g clip-path="url(#id17)"><path fill="#000000" d="M 70.023438 75.941406 C 70.023438 79.445312 67.097656 82.285156 63.488281 82.285156 C 59.875 82.285156 56.949219 79.445312 56.949219 75.941406 C 56.949219 72.4375 59.878906 69.597656 63.488281 69.597656 C 67.097656 69.597656 70.023438 72.4375 70.023438 75.941406 Z M 70.023438 75.941406 " fill-opacity="1" fill-rule="nonzero"/></g><g clip-path="url(#id18)"><path fill="#000000" d="M 78.445312 87.945312 C 78.445312 91.453125 75.519531 94.289062 71.90625 94.289062 C 68.296875 94.289062 65.371094 91.453125 65.371094 87.945312 C 65.371094 84.441406 68.296875 81.601562 71.90625 81.601562 C 75.519531 81.601562 78.445312 84.441406 78.445312 87.945312 Z M 78.445312 87.945312 " fill-opacity="1" fill-rule="nonzero"/></g><g clip-path="url(#id19)"><path fill="#000000" d="M 61.703125 88 C 61.703125 89.285156 61.308594 90.480469 60.636719 91.476562 C 59.46875 93.207031 57.453125 94.347656 55.164062 94.347656 C 51.554688 94.347656 48.628906 91.507812 48.628906 88 C 48.628906 84.496094 51.554688 81.65625 55.164062 81.65625 C 58.773438 81.65625 61.703125 84.496094 61.703125 88 Z M 61.703125 88 " fill-opacity="1" fill-rule="nonzero"/></g><g clip-path="url(#id20)"><path fill="#000000" d="M 71.15625 100.3125 C 67.925781 100.316406 66.230469 97.6875 65.335938 95.058594 C 64.445312 92.433594 64.363281 89.804688 64.363281 89.804688 L 62.714844 89.789062 C 62.714844 89.789062 62.40625 100.304688 55.949219 100.308594 Z M 71.15625 100.3125 " fill-opacity="1" fill-rule="nonzero"/></g><path fill="#000000" d="M 59.042969 80.601562 C 62.714844 84.277344 62.714844 89.792969 62.714844 89.792969 L 64.363281 89.804688 C 64.363281 89.804688 64.363281 84.171875 67.933594 80.601562 " fill-opacity="1" fill-rule="nonzero"/><path fill="#000000" d="M 59.777344 92.402344 C 63.449219 88.730469 68.964844 88.730469 68.964844 88.730469 L 68.976562 87.082031 C 68.976562 87.082031 63.347656 87.082031 59.777344 83.507812 " fill-opacity="1" fill-rule="nonzero"/><path fill="#000000" d="M 67.140625 92.429688 C 63.472656 88.757812 57.957031 88.757812 57.957031 88.757812 L 57.945312 87.109375 C 57.945312 87.109375 63.574219 87.109375 67.140625 83.539062 " fill-opacity="1" fill-rule="nonzero"/></svg>