<svg xmlns="http://www.w3.org/2000/svg" xmlns:xlink="http://www.w3.org/1999/xlink" width="170" zoomAndPan="magnify" viewBox="0 0 127.5 178.499993" height="238" preserveAspectRatio="xMidYMid meet" version="1.0"><defs><g/><clipPath id="id1"><path d="M 0 0.0976562 L 127 0.0976562 L 127 177.902344 L 0 177.902344 Z M 0 0.0976562 " clip-rule="nonzero"/></clipPath><clipPath id="id2"><path d="M 44.390625 71.417969 L 83.390625 71.417969 L 83.390625 107.417969 L 44.390625 107.417969 Z M 44.390625 71.417969 " clip-rule="nonzero"/></clipPath><clipPath id="id3"><path d="M 4.582031 22 L 21.082031 22 L 21.082031 36.945312 L 4.582031 36.945312 Z M 4.582031 22 " clip-rule="nonzero"/></clipPath><clipPath id="id4"><path d="M 106.417969 141.746094 L 122.917969 141.746094 L 122.917969 156.746094 L 106.417969 156.746094 Z M 106.417969 141.746094 " clip-rule="nonzero"/></clipPath></defs><g clip-path="url(#id1)"><path fill="#ffffff" d="M 0 0.0976562 L 127.5 0.0976562 L 127.5 186.097656 L 0 186.097656 Z M 0 0.0976562 " fill-opacity="1" fill-rule="nonzero"/><path fill="#ffffff" d="M 0 0.0976562 L 127.5 0.0976562 L 127.5 178.597656 L 0 178.597656 Z M 0 0.0976562 " fill-opacity="1" fill-rule="nonzero"/><path fill="#ffffff" d="M 0 0.0976562 L 127.5 0.0976562 L 127.5 178.597656 L 0 178.597656 Z M 0 0.0976562 " fill-opacity="1" fill-rule="nonzero"/><path fill="#ffffff" d="M 0 0.0976562 L 127.5 0.0976562 L 127.5 178.597656 L 0 178.597656 Z M 0 0.0976562 " fill-opacity="1" fill-rule="nonzero"/></g><g fill="#d41e1e" fill-opacity="1"><g transform="translate(6.407812, 17.772726)"><g><path d="M 7.890625 -0.34375 L 6.5625 -4.296875 L 2.9375 -4.296875 L 1.53125 -0.34375 L 2.90625 -0.34375 L 2.90625 0 L 0.109375 0 L 0.109375 -0.34375 L 0.96875 -0.34375 L 5.625 -12.890625 L 7.125 -12.890625 L 11.734375 -0.34375 L 12.5625 -0.34375 L 12.5625 0 L 6.59375 0 L 6.59375 -0.34375 Z M 4.828125 -9.484375 L 3.109375 -4.6875 L 6.40625 -4.6875 Z M 4.828125 -9.484375 "/></g></g></g><g clip-path="url(#id2)"><path fill="#ff0000" d="M 82.527344 75.804688 C 81.757812 74.527344 80.5625 73.5625 79.292969 72.8125 C 78.984375 72.644531 78.6875 72.453125 78.367188 72.328125 C 76.417969 71.6875 74.296875 71.417969 72.285156 71.890625 C 70.550781 72.285156 68.96875 73.242188 67.738281 74.507812 C 66.105469 76.171875 65.007812 78.28125 64.253906 80.460938 C 64.121094 80.136719 64.019531 79.800781 63.886719 79.476562 C 63.199219 77.75 62.253906 76.109375 60.988281 74.746094 C 59.828125 73.492188 58.351562 72.507812 56.703125 72.03125 C 54.789062 71.46875 52.734375 71.59375 50.828125 72.128906 C 50.5 72.230469 50.15625 72.292969 49.863281 72.472656 C 48.71875 73.136719 47.621094 73.90625 46.695312 74.851562 C 45.984375 75.582031 45.375 76.421875 44.972656 77.363281 C 44.644531 78.082031 44.476562 78.859375 44.398438 79.644531 L 44.398438 80.507812 C 44.433594 81.042969 44.5 81.578125 44.625 82.101562 C 45.039062 83.882812 45.878906 85.535156 46.84375 87.078125 C 48.449219 89.609375 50.402344 91.894531 52.402344 94.125 C 53.660156 95.523438 54.949219 96.890625 56.238281 98.265625 C 58.824219 101.039062 61.445312 103.792969 63.730469 106.824219 C 63.828125 106.945312 63.90625 107.074219 63.964844 107.214844 C 64.027344 107.414062 64.308594 107.417969 64.457031 107.332031 C 64.648438 107.207031 64.519531 106.9375 64.648438 106.773438 C 66.484375 103.71875 68.726562 100.9375 71.003906 98.203125 C 73.410156 95.324219 75.90625 92.515625 78.214844 89.554688 C 79.46875 87.9375 80.667969 86.277344 81.65625 84.484375 C 82.53125 82.894531 83.253906 81.164062 83.386719 79.339844 L 83.386719 78.566406 C 83.324219 77.597656 83.039062 76.632812 82.527344 75.804688 Z M 82.527344 75.804688 " fill-opacity="1" fill-rule="nonzero"/></g><g fill="#d41e1e" fill-opacity="1"><g transform="translate(121.078249, 160.923988)"><g><path d="M -7.890625 0.34375 L -6.5625 4.296875 L -2.9375 4.296875 L -1.53125 0.34375 L -2.90625 0.34375 L -2.90625 0 L -0.109375 0 L -0.109375 0.34375 L -0.96875 0.34375 L -5.625 12.890625 L -7.125 12.890625 L -11.734375 0.34375 L -12.5625 0.34375 L -12.5625 0 L -6.59375 0 L -6.59375 0.34375 Z M -4.828125 9.484375 L -3.109375 4.6875 L -6.40625 4.6875 Z M -4.828125 9.484375 "/></g></g></g><g clip-path="url(#id3)"><path fill="#ff0000" d="M 20.710938 23.773438 C 20.386719 23.242188 19.882812 22.839844 19.34375 22.527344 C 19.214844 22.457031 19.085938 22.375 18.953125 22.324219 C 18.128906 22.058594 17.230469 21.945312 16.378906 22.140625 C 15.644531 22.304688 14.976562 22.703125 14.457031 23.234375 C 13.765625 23.925781 13.300781 24.804688 12.984375 25.714844 C 12.925781 25.578125 12.882812 25.4375 12.828125 25.300781 C 12.539062 24.585938 12.136719 23.898438 11.601562 23.332031 C 11.109375 22.808594 10.488281 22.398438 9.789062 22.199219 C 8.980469 21.964844 8.109375 22.019531 7.304688 22.242188 C 7.167969 22.285156 7.019531 22.308594 6.894531 22.386719 C 6.410156 22.660156 5.949219 22.980469 5.554688 23.375 C 5.253906 23.679688 4.996094 24.03125 4.828125 24.421875 C 4.6875 24.722656 4.617188 25.046875 4.585938 25.375 L 4.585938 25.734375 C 4.601562 25.957031 4.628906 26.179688 4.679688 26.398438 C 4.855469 27.140625 5.210938 27.828125 5.621094 28.46875 C 6.296875 29.523438 7.125 30.476562 7.96875 31.40625 C 8.5 31.988281 9.046875 32.558594 9.59375 33.132812 C 10.6875 34.289062 11.796875 35.433594 12.761719 36.695312 C 12.804688 36.746094 12.835938 36.800781 12.859375 36.859375 C 12.886719 36.945312 13.003906 36.945312 13.070312 36.910156 C 13.148438 36.855469 13.097656 36.746094 13.148438 36.675781 C 13.925781 35.402344 14.875 34.246094 15.835938 33.105469 C 16.855469 31.90625 17.910156 30.738281 18.886719 29.503906 C 19.417969 28.828125 19.925781 28.136719 20.34375 27.390625 C 20.714844 26.726562 21.019531 26.007812 21.074219 25.246094 L 21.074219 24.925781 C 21.046875 24.519531 20.929688 24.117188 20.710938 23.773438 Z M 20.710938 23.773438 " fill-opacity="1" fill-rule="nonzero"/></g><g clip-path="url(#id4)"><path fill="#ff0000" d="M 106.785156 154.921875 C 107.109375 155.453125 107.613281 155.855469 108.152344 156.167969 C 108.28125 156.238281 108.410156 156.316406 108.542969 156.371094 C 109.367188 156.636719 110.265625 156.746094 111.117188 156.550781 C 111.851562 156.386719 112.519531 155.988281 113.039062 155.460938 C 113.730469 154.765625 114.195312 153.890625 114.511719 152.980469 C 114.570312 153.117188 114.613281 153.253906 114.667969 153.390625 C 114.957031 154.109375 115.359375 154.792969 115.894531 155.363281 C 116.386719 155.882812 117.007812 156.292969 117.707031 156.492188 C 118.515625 156.726562 119.386719 156.675781 120.191406 156.453125 C 120.328125 156.410156 120.476562 156.382812 120.601562 156.308594 C 121.085938 156.03125 121.546875 155.710938 121.941406 155.316406 C 122.242188 155.015625 122.5 154.664062 122.667969 154.269531 C 122.808594 153.972656 122.878906 153.648438 122.910156 153.320312 L 122.910156 152.960938 C 122.894531 152.738281 122.867188 152.515625 122.816406 152.296875 C 122.640625 151.554688 122.285156 150.867188 121.875 150.222656 C 121.199219 149.167969 120.371094 148.214844 119.527344 147.285156 C 118.996094 146.703125 118.449219 146.132812 117.902344 145.5625 C 116.808594 144.40625 115.699219 143.257812 114.734375 141.996094 C 114.691406 141.945312 114.660156 141.890625 114.636719 141.832031 C 114.609375 141.75 114.492188 141.746094 114.425781 141.785156 C 114.347656 141.835938 114.398438 141.949219 114.347656 142.015625 C 113.570312 143.289062 112.621094 144.449219 111.660156 145.585938 C 110.640625 146.789062 109.585938 147.957031 108.609375 149.191406 C 108.078125 149.863281 107.570312 150.554688 107.152344 151.304688 C 106.78125 151.964844 106.476562 152.6875 106.421875 153.449219 L 106.421875 153.769531 C 106.449219 154.175781 106.566406 154.574219 106.785156 154.921875 Z M 106.785156 154.921875 " fill-opacity="1" fill-rule="nonzero"/></g></svg>