<svg xmlns="http://www.w3.org/2000/svg" xmlns:xlink="http://www.w3.org/1999/xlink" width="170" zoomAndPan="magnify" viewBox="0 0 127.5 178.499993" height="238" preserveAspectRatio="xMidYMid meet" version="1.0"><defs><g/><clipPath id="id1"><path d="M 0 0.0976562 L 127 0.0976562 L 127 177.902344 L 0 177.902344 Z M 0 0.0976562 " clip-rule="nonzero"/></clipPath><clipPath id="id2"><path d="M 4.582031 22 L 21.082031 22 L 21.082031 36.945312 L 4.582031 36.945312 Z M 4.582031 22 " clip-rule="nonzero"/></clipPath><clipPath id="id3"><path d="M 106.417969 141.746094 L 122.917969 141.746094 L 122.917969 156.746094 L 106.417969 156.746094 Z M 106.417969 141.746094 " clip-rule="nonzero"/></clipPath><clipPath id="id4"><path d="M 70.261719 134.664062 L 105.511719 134.664062 L 105.511719 167.664062 L 70.261719 167.664062 Z M 70.261719 134.664062 " clip-rule="nonzero"/></clipPath><clipPath id="id5"><path d="M 69.441406 11.023438 L 105.441406 11.023438 L 105.441406 44.773438 L 69.441406 44.773438 Z M 69.441406 11.023438 " clip-rule="nonzero"/></clipPath><clipPath id="id6"><path d="M 24.214844 11.023438 L 60.214844 11.023438 L 60.214844 44.773438 L 24.214844 44.773438 Z M 24.214844 11.023438 " clip-rule="nonzero"/></clipPath><clipPath id="id7"><path d="M 25.039062 134.664062 L 60.289062 134.664062 L 60.289062 167.664062 L 25.039062 167.664062 Z M 25.039062 134.664062 " clip-rule="nonzero"/></clipPath><clipPath id="id8"><path d="M 26.363281 59.058594 L 58.613281 59.058594 L 58.613281 89.058594 L 26.363281 89.058594 Z M 26.363281 59.058594 " clip-rule="nonzero"/></clipPath><clipPath id="id9"><path d="M 71.589844 59.058594 L 103.839844 59.058594 L 103.839844 89.058594 L 71.589844 89.058594 Z M 71.589844 59.058594 " clip-rule="nonzero"/></clipPath><clipPath id="id10"><path d="M 49.898438 33.394531 L 77.648438 33.394531 L 77.648438 58.894531 L 49.898438 58.894531 Z M 49.898438 33.394531 " clip-rule="nonzero"/></clipPath><clipPath id="id11"><path d="M 25.039062 94.597656 L 60.289062 94.597656 L 60.289062 127.597656 L 25.039062 127.597656 Z M 25.039062 94.597656 " clip-rule="nonzero"/></clipPath><clipPath id="id12"><path d="M 69.734375 94.597656 L 104.984375 94.597656 L 104.984375 127.597656 L 69.734375 127.597656 Z M 69.734375 94.597656 " clip-rule="nonzero"/></clipPath><clipPath id="id13"><path d="M 49.898438 82 L 77.648438 82 L 77.648438 107.347656 L 49.898438 107.347656 Z M 49.898438 82 " clip-rule="nonzero"/></clipPath></defs><g clip-path="url(#id1)"><path fill="#ffffff" d="M 0 0.0976562 L 127.5 0.0976562 L 127.5 186.097656 L 0 186.097656 Z M 0 0.0976562 " fill-opacity="1" fill-rule="nonzero"/><path fill="#ffffff" d="M 0 0.0976562 L 127.5 0.0976562 L 127.5 178.597656 L 0 178.597656 Z M 0 0.0976562 " fill-opacity="1" fill-rule="nonzero"/><path fill="#ffffff" d="M 0 0.0976562 L 127.5 0.0976562 L 127.5 178.597656 L 0 178.597656 Z M 0 0.0976562 " fill-opacity="1" fill-rule="nonzero"/><path fill="#ffffff" d="M 0 0.0976562 L 127.5 0.0976562 L 127.5 178.597656 L 0 178.597656 Z M 0 0.0976562 " fill-opacity="1" fill-rule="nonzero"/></g><g fill="#d41e1e" fill-opacity="1"><g transform="translate(2.803125, 17.772726)"><g><path d="M 2.3125 -12.3125 L 0.3125 -12.0625 L 0.28125 -12.421875 L 4.40625 -12.984375 L 5.875 -12.984375 L 5.875 -0.34375 L 7.3125 -0.34375 L 7.3125 0 L 0.40625 0 L 0.40625 -0.34375 L 2.3125 -0.34375 Z M 2.3125 -12.3125 "/></g></g></g><g fill="#d41e1e" fill-opacity="1"><g transform="translate(10.562688, 17.772726)"><g><path d="M 5.96875 0.1875 C 4.195312 0.1875 2.847656 -0.40625 1.921875 -1.59375 C 1.003906 -2.789062 0.546875 -4.460938 0.546875 -6.609375 C 0.546875 -8.753906 1.035156 -10.351562 2.015625 -11.40625 C 3.003906 -12.457031 4.351562 -12.984375 6.0625 -12.984375 C 7.78125 -12.984375 9.128906 -12.457031 10.109375 -11.40625 C 11.085938 -10.363281 11.578125 -8.695312 11.578125 -6.40625 C 11.578125 -4.125 11.082031 -2.453125 10.09375 -1.390625 C 9.113281 -0.335938 7.738281 0.1875 5.96875 0.1875 Z M 4.296875 -7.09375 L 4.296875 -5.46875 C 4.296875 -4.28125 4.300781 -3.441406 4.3125 -2.953125 C 4.332031 -2.472656 4.394531 -1.96875 4.5 -1.4375 C 4.613281 -0.914062 4.789062 -0.578125 5.03125 -0.421875 C 5.28125 -0.273438 5.566406 -0.203125 5.890625 -0.203125 C 6.222656 -0.203125 6.472656 -0.21875 6.640625 -0.25 C 6.804688 -0.289062 6.953125 -0.367188 7.078125 -0.484375 C 7.203125 -0.597656 7.304688 -0.710938 7.390625 -0.828125 C 7.484375 -0.941406 7.554688 -1.117188 7.609375 -1.359375 C 7.660156 -1.609375 7.703125 -1.835938 7.734375 -2.046875 C 7.773438 -2.253906 7.800781 -2.554688 7.8125 -2.953125 C 7.84375 -3.734375 7.859375 -4.519531 7.859375 -5.3125 L 7.859375 -6.921875 C 7.859375 -9.304688 7.769531 -10.847656 7.59375 -11.546875 C 7.414062 -12.253906 6.910156 -12.609375 6.078125 -12.609375 C 5.253906 -12.609375 4.75 -12.25 4.5625 -11.53125 C 4.382812 -10.8125 4.296875 -9.332031 4.296875 -7.09375 Z M 4.296875 -7.09375 "/></g></g></g><g fill="#d41e1e" fill-opacity="1"><g transform="translate(126.025693, 160.923988)"><g><path d="M -2.3125 12.3125 L -0.3125 12.0625 L -0.28125 12.421875 L -4.40625 12.984375 L -5.875 12.984375 L -5.875 0.34375 L -7.3125 0.34375 L -7.3125 0 L -0.40625 0 L -0.40625 0.34375 L -2.3125 0.34375 Z M -2.3125 12.3125 "/></g></g></g><g fill="#d41e1e" fill-opacity="1"><g transform="translate(118.26613, 160.923988)"><g><path d="M -5.96875 -0.1875 C -4.195312 -0.1875 -2.847656 0.40625 -1.921875 1.59375 C -1.003906 2.789062 -0.546875 4.460938 -0.546875 6.609375 C -0.546875 8.753906 -1.035156 10.351562 -2.015625 11.40625 C -3.003906 12.457031 -4.351562 12.984375 -6.0625 12.984375 C -7.78125 12.984375 -9.128906 12.457031 -10.109375 11.40625 C -11.085938 10.363281 -11.578125 8.695312 -11.578125 6.40625 C -11.578125 4.125 -11.082031 2.453125 -10.09375 1.390625 C -9.113281 0.335938 -7.738281 -0.1875 -5.96875 -0.1875 Z M -4.296875 7.09375 L -4.296875 5.46875 C -4.296875 4.28125 -4.300781 3.441406 -4.3125 2.953125 C -4.332031 2.472656 -4.394531 1.96875 -4.5 1.4375 C -4.613281 0.914062 -4.789062 0.578125 -5.03125 0.421875 C -5.28125 0.273438 -5.566406 0.203125 -5.890625 0.203125 C -6.222656 0.203125 -6.472656 0.21875 -6.640625 0.25 C -6.804688 0.289062 -6.953125 0.367188 -7.078125 0.484375 C -7.203125 0.597656 -7.304688 0.710938 -7.390625 0.828125 C -7.484375 0.941406 -7.554688 1.117188 -7.609375 1.359375 C -7.660156 1.609375 -7.703125 1.835938 -7.734375 2.046875 C -7.773438 2.253906 -7.800781 2.554688 -7.8125 2.953125 C -7.84375 3.734375 -7.859375 4.519531 -7.859375 5.3125 L -7.859375 6.921875 C -7.859375 9.304688 -7.769531 10.847656 -7.59375 11.546875 C -7.414062 12.253906 -6.910156 12.609375 -6.078125 12.609375 C -5.253906 12.609375 -4.75 12.25 -4.5625 11.53125 C -4.382812 10.8125 -4.296875 9.332031 -4.296875 7.09375 Z M -4.296875 7.09375 "/></g></g></g><g clip-path="url(#id2)"><path fill="#ff0000" d="M 20.710938 23.773438 C 20.386719 23.242188 19.882812 22.839844 19.34375 22.527344 C 19.214844 22.457031 19.085938 22.375 18.953125 22.324219 C 18.128906 22.058594 17.230469 21.945312 16.378906 22.140625 C 15.644531 22.304688 14.976562 22.703125 14.457031 23.234375 C 13.765625 23.925781 13.300781 24.804688 12.984375 25.714844 C 12.925781 25.578125 12.882812 25.4375 12.828125 25.300781 C 12.539062 24.585938 12.136719 23.898438 11.601562 23.332031 C 11.109375 22.808594 10.488281 22.398438 9.789062 22.199219 C 8.980469 21.964844 8.109375 22.019531 7.304688 22.242188 C 7.167969 22.285156 7.019531 22.308594 6.894531 22.386719 C 6.410156 22.660156 5.949219 22.980469 5.554688 23.375 C 5.253906 23.679688 4.996094 24.03125 4.828125 24.421875 C 4.6875 24.722656 4.617188 25.046875 4.585938 25.375 L 4.585938 25.734375 C 4.601562 25.957031 4.628906 26.179688 4.679688 26.398438 C 4.855469 27.140625 5.210938 27.828125 5.621094 28.46875 C 6.296875 29.523438 7.125 30.476562 7.96875 31.40625 C 8.5 31.988281 9.046875 32.558594 9.59375 33.132812 C 10.6875 34.289062 11.796875 35.433594 12.761719 36.695312 C 12.804688 36.746094 12.835938 36.800781 12.859375 36.859375 C 12.886719 36.945312 13.003906 36.945312 13.070312 36.910156 C 13.148438 36.855469 13.097656 36.746094 13.148438 36.675781 C 13.925781 35.402344 14.875 34.246094 15.835938 33.105469 C 16.855469 31.90625 17.910156 30.738281 18.886719 29.503906 C 19.417969 28.828125 19.925781 28.136719 20.34375 27.390625 C 20.714844 26.726562 21.019531 26.007812 21.074219 25.246094 L 21.074219 24.925781 C 21.046875 24.519531 20.929688 24.117188 20.710938 23.773438 Z M 20.710938 23.773438 " fill-opacity="1" fill-rule="nonzero"/></g><g clip-path="url(#id3)"><path fill="#ff0000" d="M 106.785156 154.921875 C 107.109375 155.453125 107.613281 155.855469 108.152344 156.167969 C 108.28125 156.238281 108.410156 156.316406 108.542969 156.371094 C 109.367188 156.636719 110.265625 156.746094 111.117188 156.550781 C 111.851562 156.386719 112.519531 155.988281 113.039062 155.460938 C 113.730469 154.765625 114.195312 153.890625 114.511719 152.980469 C 114.570312 153.117188 114.613281 153.253906 114.667969 153.390625 C 114.957031 154.109375 115.359375 154.792969 115.894531 155.363281 C 116.386719 155.882812 117.007812 156.292969 117.707031 156.492188 C 118.515625 156.726562 119.386719 156.675781 120.191406 156.453125 C 120.328125 156.410156 120.476562 156.382812 120.601562 156.308594 C 121.085938 156.03125 121.546875 155.710938 121.941406 155.316406 C 122.242188 155.015625 122.5 154.664062 122.667969 154.269531 C 122.808594 153.972656 122.878906 153.648438 122.910156 153.320312 L 122.910156 152.960938 C 122.894531 152.738281 122.867188 152.515625 122.816406 152.296875 C 122.640625 151.554688 122.285156 150.867188 121.875 150.222656 C 121.199219 149.167969 120.371094 148.214844 119.527344 147.285156 C 118.996094 146.703125 118.449219 146.132812 117.902344 145.5625 C 116.808594 144.40625 115.699219 143.257812 114.734375 141.996094 C 114.691406 141.945312 114.660156 141.890625 114.636719 141.832031 C 114.609375 141.75 114.492188 141.746094 114.425781 141.785156 C 114.347656 141.835938 114.398438 141.949219 114.347656 142.015625 C 113.570312 143.289062 112.621094 144.449219 111.660156 145.585938 C 110.640625 146.789062 109.585938 147.957031 108.609375 149.191406 C 108.078125 149.863281 107.570312 150.554688 107.152344 151.304688 C 106.78125 151.964844 106.476562 152.6875 106.421875 153.449219 L 106.421875 153.769531 C 106.449219 154.175781 106.566406 154.574219 106.785156 154.921875 Z M 106.785156 154.921875 " fill-opacity="1" fill-rule="nonzero"/></g><g clip-path="url(#id4)"><path fill="#ff0000" d="M 71.050781 163.644531 C 71.746094 164.816406 72.824219 165.703125 73.972656 166.386719 C 74.25 166.542969 74.519531 166.71875 74.808594 166.832031 C 76.570312 167.421875 78.488281 167.664062 80.304688 167.234375 C 81.875 166.875 83.300781 165.996094 84.414062 164.835938 C 85.890625 163.308594 86.878906 161.375 87.5625 159.378906 C 87.679688 159.675781 87.773438 159.984375 87.894531 160.28125 C 88.515625 161.863281 89.367188 163.367188 90.511719 164.617188 C 91.5625 165.765625 92.894531 166.667969 94.382812 167.105469 C 96.113281 167.621094 97.972656 167.503906 99.695312 167.015625 C 99.988281 166.921875 100.300781 166.863281 100.566406 166.699219 C 101.601562 166.089844 102.589844 165.386719 103.429688 164.519531 C 104.070312 163.851562 104.621094 163.082031 104.980469 162.21875 C 105.28125 161.558594 105.429688 160.847656 105.5 160.125 L 105.5 159.332031 C 105.472656 158.84375 105.410156 158.355469 105.300781 157.875 C 104.925781 156.238281 104.164062 154.726562 103.292969 153.3125 C 101.84375 150.992188 100.078125 148.894531 98.273438 146.851562 C 97.136719 145.570312 95.96875 144.316406 94.804688 143.054688 C 92.46875 140.515625 90.097656 137.992188 88.035156 135.214844 C 87.945312 135.101562 87.875 134.980469 87.824219 134.851562 C 87.765625 134.671875 87.515625 134.664062 87.378906 134.746094 C 87.207031 134.863281 87.320312 135.105469 87.207031 135.257812 C 85.546875 138.058594 83.519531 140.609375 81.464844 143.113281 C 79.289062 145.753906 77.035156 148.324219 74.945312 151.042969 C 73.816406 152.523438 72.730469 154.046875 71.839844 155.6875 C 71.046875 157.148438 70.394531 158.734375 70.273438 160.40625 L 70.273438 161.113281 C 70.332031 162.003906 70.585938 162.886719 71.050781 163.644531 Z M 71.050781 163.644531 " fill-opacity="1" fill-rule="nonzero"/></g><g clip-path="url(#id5)"><path fill="#ff0000" d="M 104.640625 15.132812 C 103.929688 13.9375 102.828125 13.03125 101.652344 12.328125 C 101.371094 12.167969 101.09375 11.992188 100.796875 11.875 C 99 11.273438 97.042969 11.023438 95.1875 11.464844 C 93.585938 11.832031 92.128906 12.730469 90.988281 13.917969 C 89.484375 15.480469 88.472656 17.453125 87.773438 19.5 C 87.652344 19.195312 87.558594 18.878906 87.4375 18.574219 C 86.800781 16.957031 85.929688 15.421875 84.761719 14.140625 C 83.691406 12.964844 82.328125 12.042969 80.808594 11.597656 C 79.039062 11.066406 77.140625 11.1875 75.382812 11.6875 C 75.082031 11.78125 74.761719 11.84375 74.492188 12.011719 C 73.433594 12.632812 72.421875 13.351562 71.570312 14.242188 C 70.914062 14.925781 70.351562 15.710938 69.980469 16.59375 C 69.675781 17.269531 69.523438 17.996094 69.449219 18.734375 L 69.449219 19.542969 C 69.480469 20.046875 69.546875 20.546875 69.65625 21.039062 C 70.039062 22.707031 70.816406 24.257812 71.707031 25.703125 C 73.1875 28.074219 74.992188 30.21875 76.835938 32.308594 C 77.996094 33.621094 79.1875 34.902344 80.375 36.191406 C 82.761719 38.792969 85.183594 41.371094 87.292969 44.210938 C 87.382812 44.328125 87.453125 44.449219 87.507812 44.582031 C 87.566406 44.769531 87.824219 44.773438 87.960938 44.691406 C 88.136719 44.574219 88.019531 44.320312 88.136719 44.167969 C 89.832031 41.304688 91.902344 38.695312 94.003906 36.132812 C 96.226562 33.433594 98.527344 30.800781 100.660156 28.023438 C 101.816406 26.507812 102.921875 24.953125 103.835938 23.273438 C 104.644531 21.78125 105.308594 20.160156 105.429688 18.449219 L 105.429688 17.722656 C 105.371094 16.8125 105.113281 15.910156 104.640625 15.132812 Z M 104.640625 15.132812 " fill-opacity="1" fill-rule="nonzero"/></g><g clip-path="url(#id6)"><path fill="#ff0000" d="M 59.414062 15.132812 C 58.703125 13.9375 57.601562 13.03125 56.425781 12.328125 C 56.144531 12.167969 55.871094 11.992188 55.574219 11.875 C 53.773438 11.273438 51.816406 11.023438 49.960938 11.464844 C 48.359375 11.832031 46.902344 12.730469 45.765625 13.917969 C 44.257812 15.480469 43.246094 17.453125 42.546875 19.5 C 42.425781 19.195312 42.332031 18.878906 42.210938 18.574219 C 41.578125 16.957031 40.703125 15.421875 39.535156 14.140625 C 38.464844 12.964844 37.101562 12.042969 35.582031 11.597656 C 33.8125 11.066406 31.914062 11.1875 30.15625 11.6875 C 29.855469 11.78125 29.535156 11.84375 29.265625 12.011719 C 28.210938 12.632812 27.199219 13.351562 26.34375 14.242188 C 25.6875 14.925781 25.125 15.710938 24.753906 16.59375 C 24.449219 17.269531 24.296875 17.996094 24.226562 18.734375 L 24.226562 19.542969 C 24.257812 20.046875 24.320312 20.546875 24.433594 21.039062 C 24.8125 22.707031 25.59375 24.257812 26.484375 25.703125 C 27.960938 28.074219 29.765625 30.21875 31.609375 32.308594 C 32.769531 33.621094 33.960938 34.902344 35.148438 36.191406 C 37.539062 38.792969 39.957031 41.371094 42.066406 44.210938 C 42.15625 44.328125 42.230469 44.449219 42.28125 44.582031 C 42.339844 44.769531 42.597656 44.773438 42.738281 44.691406 C 42.914062 44.574219 42.796875 44.320312 42.914062 44.167969 C 44.609375 41.304688 46.675781 38.695312 48.777344 36.132812 C 51 33.433594 53.300781 30.800781 55.433594 28.023438 C 56.589844 26.507812 57.695312 24.953125 58.609375 23.273438 C 59.417969 21.78125 60.085938 20.160156 60.207031 18.449219 L 60.207031 17.722656 C 60.148438 16.8125 59.886719 15.910156 59.414062 15.132812 Z M 59.414062 15.132812 " fill-opacity="1" fill-rule="nonzero"/></g><g clip-path="url(#id7)"><path fill="#ff0000" d="M 25.824219 163.644531 C 26.519531 164.816406 27.597656 165.703125 28.75 166.386719 C 29.027344 166.542969 29.292969 166.71875 29.585938 166.832031 C 31.347656 167.421875 33.261719 167.664062 35.082031 167.234375 C 36.648438 166.875 38.074219 165.996094 39.1875 164.835938 C 40.664062 163.308594 41.65625 161.375 42.335938 159.378906 C 42.457031 159.675781 42.546875 159.984375 42.667969 160.28125 C 43.289062 161.863281 44.140625 163.367188 45.289062 164.617188 C 46.335938 165.765625 47.667969 166.667969 49.15625 167.105469 C 50.886719 167.621094 52.746094 167.503906 54.46875 167.015625 C 54.761719 166.921875 55.074219 166.863281 55.339844 166.699219 C 56.375 166.089844 57.367188 165.386719 58.203125 164.519531 C 58.84375 163.851562 59.394531 163.082031 59.757812 162.21875 C 60.054688 161.558594 60.207031 160.847656 60.277344 160.125 L 60.277344 159.332031 C 60.246094 158.84375 60.183594 158.355469 60.074219 157.875 C 59.699219 156.238281 58.9375 154.726562 58.066406 153.3125 C 56.617188 150.992188 54.851562 148.894531 53.046875 146.851562 C 51.910156 145.570312 50.742188 144.316406 49.582031 143.054688 C 47.242188 140.515625 44.875 137.992188 42.808594 135.214844 C 42.71875 135.101562 42.648438 134.980469 42.597656 134.851562 C 42.539062 134.671875 42.289062 134.664062 42.152344 134.746094 C 41.980469 134.863281 42.09375 135.105469 41.980469 135.257812 C 40.320312 138.058594 38.292969 140.609375 36.238281 143.113281 C 34.0625 145.753906 31.808594 148.324219 29.722656 151.042969 C 28.589844 152.523438 27.507812 154.046875 26.613281 155.6875 C 25.820312 157.148438 25.167969 158.734375 25.050781 160.40625 L 25.050781 161.113281 C 25.105469 162.003906 25.363281 162.886719 25.824219 163.644531 Z M 25.824219 163.644531 " fill-opacity="1" fill-rule="nonzero"/></g><g clip-path="url(#id8)"><path fill="#ff0000" d="M 57.890625 62.710938 C 57.257812 61.648438 56.269531 60.84375 55.21875 60.21875 C 54.964844 60.078125 54.71875 59.921875 54.453125 59.816406 C 52.839844 59.28125 51.089844 59.058594 49.425781 59.453125 C 47.992188 59.777344 46.6875 60.578125 45.667969 61.632812 C 44.316406 63.019531 43.410156 64.777344 42.789062 66.59375 C 42.679688 66.320312 42.59375 66.042969 42.484375 65.773438 C 41.917969 64.335938 41.136719 62.96875 40.089844 61.832031 C 39.128906 60.785156 37.910156 59.964844 36.546875 59.570312 C 34.964844 59.097656 33.265625 59.203125 31.691406 59.648438 C 31.421875 59.734375 31.132812 59.789062 30.894531 59.9375 C 29.945312 60.492188 29.039062 61.128906 28.273438 61.917969 C 27.6875 62.527344 27.183594 63.226562 26.851562 64.011719 C 26.578125 64.609375 26.441406 65.257812 26.378906 65.914062 L 26.378906 66.632812 C 26.40625 67.078125 26.460938 67.523438 26.5625 67.960938 C 26.90625 69.445312 27.601562 70.820312 28.398438 72.109375 C 29.722656 74.214844 31.339844 76.121094 32.992188 77.980469 C 34.03125 79.144531 35.097656 80.285156 36.160156 81.429688 C 38.300781 83.742188 40.46875 86.035156 42.355469 88.5625 C 42.4375 88.664062 42.5 88.773438 42.550781 88.890625 C 42.601562 89.054688 42.832031 89.058594 42.957031 88.984375 C 43.113281 88.878906 43.007812 88.65625 43.113281 88.519531 C 44.632812 85.976562 46.484375 83.65625 48.367188 81.378906 C 50.355469 78.980469 52.417969 76.640625 54.328125 74.171875 C 55.363281 72.824219 56.355469 71.441406 57.171875 69.949219 C 57.894531 68.621094 58.492188 67.179688 58.601562 65.660156 L 58.601562 65.015625 C 58.550781 64.207031 58.316406 63.40625 57.890625 62.710938 Z M 57.890625 62.710938 " fill-opacity="1" fill-rule="nonzero"/></g><g clip-path="url(#id9)"><path fill="#ff0000" d="M 103.117188 62.710938 C 102.480469 61.648438 101.496094 60.84375 100.445312 60.21875 C 100.191406 60.078125 99.945312 59.921875 99.679688 59.816406 C 98.066406 59.28125 96.316406 59.058594 94.652344 59.453125 C 93.21875 59.777344 91.910156 60.578125 90.894531 61.632812 C 89.542969 63.019531 88.636719 64.777344 88.011719 66.59375 C 87.902344 66.320312 87.820312 66.042969 87.710938 65.773438 C 87.144531 64.335938 86.363281 62.96875 85.3125 61.832031 C 84.355469 60.785156 83.136719 59.964844 81.773438 59.570312 C 80.191406 59.097656 78.492188 59.203125 76.914062 59.648438 C 76.644531 59.734375 76.359375 59.789062 76.117188 59.9375 C 75.171875 60.492188 74.265625 61.128906 73.5 61.917969 C 72.910156 62.527344 72.410156 63.226562 72.078125 64.011719 C 71.804688 64.609375 71.667969 65.257812 71.601562 65.914062 L 71.601562 66.632812 C 71.632812 67.078125 71.6875 67.523438 71.789062 67.960938 C 72.128906 69.445312 72.828125 70.820312 73.625 72.109375 C 74.949219 74.214844 76.566406 76.121094 78.214844 77.980469 C 79.257812 79.144531 80.324219 80.285156 81.386719 81.429688 C 83.527344 83.742188 85.691406 86.035156 87.582031 88.5625 C 87.664062 88.664062 87.726562 88.773438 87.773438 88.890625 C 87.828125 89.054688 88.058594 89.058594 88.183594 88.984375 C 88.339844 88.878906 88.234375 88.65625 88.339844 88.519531 C 89.859375 85.976562 91.710938 83.65625 93.589844 81.378906 C 95.582031 78.980469 97.644531 76.640625 99.554688 74.171875 C 100.589844 72.824219 101.578125 71.441406 102.398438 69.949219 C 103.121094 68.621094 103.71875 67.179688 103.828125 65.660156 L 103.828125 65.015625 C 103.773438 64.207031 103.539062 63.40625 103.117188 62.710938 Z M 103.117188 62.710938 " fill-opacity="1" fill-rule="nonzero"/></g><g clip-path="url(#id10)"><path fill="#ff0000" d="M 77.023438 36.5 C 76.476562 35.597656 75.628906 34.914062 74.722656 34.382812 C 74.503906 34.261719 74.292969 34.128906 74.066406 34.039062 C 72.679688 33.585938 71.171875 33.394531 69.738281 33.730469 C 68.507812 34.007812 67.382812 34.683594 66.507812 35.582031 C 65.34375 36.761719 64.566406 38.253906 64.027344 39.800781 C 63.933594 39.570312 63.863281 39.332031 63.769531 39.101562 C 63.28125 37.878906 62.605469 36.71875 61.707031 35.75 C 60.882812 34.863281 59.832031 34.167969 58.660156 33.828125 C 57.296875 33.429688 55.835938 33.519531 54.480469 33.898438 C 54.246094 33.96875 54 34.015625 53.792969 34.140625 C 52.980469 34.613281 52.199219 35.15625 51.539062 35.828125 C 51.035156 36.34375 50.601562 36.9375 50.316406 37.605469 C 50.082031 38.113281 49.964844 38.664062 49.910156 39.222656 L 49.910156 39.835938 C 49.933594 40.210938 49.980469 40.589844 50.066406 40.960938 C 50.363281 42.226562 50.960938 43.394531 51.648438 44.488281 C 52.789062 46.28125 54.179688 47.898438 55.597656 49.480469 C 56.492188 50.46875 57.410156 51.4375 58.328125 52.414062 C 60.167969 54.375 62.03125 56.328125 63.65625 58.472656 C 63.726562 58.558594 63.78125 58.652344 63.824219 58.75 C 63.867188 58.890625 64.066406 58.894531 64.171875 58.832031 C 64.308594 58.746094 64.21875 58.554688 64.308594 58.4375 C 65.617188 56.273438 67.210938 54.304688 68.828125 52.367188 C 70.539062 50.328125 72.316406 48.339844 73.957031 46.242188 C 74.847656 45.097656 75.703125 43.921875 76.40625 42.652344 C 77.027344 41.523438 77.542969 40.296875 77.636719 39.003906 L 77.636719 38.457031 C 77.589844 37.769531 77.390625 37.089844 77.023438 36.5 Z M 77.023438 36.5 " fill-opacity="1" fill-rule="nonzero"/></g><g clip-path="url(#id11)"><path fill="#ff0000" d="M 25.824219 123.578125 C 26.519531 124.75 27.597656 125.632812 28.75 126.320312 C 29.027344 126.476562 29.292969 126.648438 29.585938 126.765625 C 31.347656 127.351562 33.261719 127.597656 35.082031 127.164062 C 36.648438 126.804688 38.074219 125.925781 39.1875 124.765625 C 40.664062 123.238281 41.65625 121.308594 42.335938 119.308594 C 42.457031 119.605469 42.546875 119.914062 42.667969 120.210938 C 43.289062 121.792969 44.140625 123.296875 45.289062 124.546875 C 46.335938 125.695312 47.667969 126.601562 49.15625 127.035156 C 50.886719 127.550781 52.746094 127.4375 54.46875 126.945312 C 54.761719 126.855469 55.074219 126.796875 55.339844 126.632812 C 56.375 126.019531 57.367188 125.316406 58.203125 124.449219 C 58.84375 123.78125 59.394531 123.011719 59.757812 122.148438 C 60.054688 121.488281 60.207031 120.777344 60.277344 120.058594 L 60.277344 119.265625 C 60.246094 118.773438 60.183594 118.285156 60.074219 117.804688 C 59.699219 116.171875 58.9375 114.65625 58.066406 113.242188 C 56.617188 110.921875 54.851562 108.828125 53.046875 106.785156 C 51.910156 105.5 50.742188 104.246094 49.582031 102.988281 C 47.242188 100.445312 44.875 97.921875 42.808594 95.144531 C 42.71875 95.03125 42.648438 94.914062 42.597656 94.785156 C 42.539062 94.601562 42.289062 94.597656 42.152344 94.675781 C 41.980469 94.792969 42.09375 95.039062 41.980469 95.1875 C 40.320312 97.988281 38.292969 100.539062 36.238281 103.046875 C 34.0625 105.683594 31.808594 108.257812 29.722656 110.972656 C 28.589844 112.453125 27.507812 113.976562 26.613281 115.617188 C 25.820312 117.078125 25.167969 118.664062 25.050781 120.335938 L 25.050781 121.046875 C 25.105469 121.933594 25.363281 122.816406 25.824219 123.578125 Z M 25.824219 123.578125 " fill-opacity="1" fill-rule="nonzero"/></g><g clip-path="url(#id12)"><path fill="#ff0000" d="M 70.519531 123.578125 C 71.214844 124.75 72.292969 125.632812 73.445312 126.320312 C 73.722656 126.476562 73.988281 126.648438 74.28125 126.765625 C 76.042969 127.351562 77.957031 127.597656 79.777344 127.164062 C 81.34375 126.804688 82.769531 125.925781 83.882812 124.765625 C 85.359375 123.238281 86.351562 121.308594 87.03125 119.308594 C 87.152344 119.605469 87.246094 119.914062 87.363281 120.210938 C 87.984375 121.792969 88.839844 123.296875 89.984375 124.546875 C 91.03125 125.695312 92.367188 126.601562 93.855469 127.035156 C 95.585938 127.550781 97.441406 127.4375 99.164062 126.945312 C 99.460938 126.855469 99.773438 126.796875 100.035156 126.632812 C 101.070312 126.019531 102.0625 125.316406 102.898438 124.449219 C 103.542969 123.78125 104.089844 123.011719 104.453125 122.148438 C 104.753906 121.488281 104.902344 120.777344 104.972656 120.058594 L 104.972656 119.265625 C 104.941406 118.773438 104.878906 118.285156 104.769531 117.804688 C 104.394531 116.171875 103.632812 114.65625 102.761719 113.242188 C 101.3125 110.921875 99.546875 108.828125 97.742188 106.785156 C 96.605469 105.5 95.4375 104.246094 94.277344 102.988281 C 91.9375 100.445312 89.570312 97.921875 87.503906 95.144531 C 87.417969 95.03125 87.34375 94.914062 87.292969 94.785156 C 87.234375 94.601562 86.984375 94.597656 86.847656 94.675781 C 86.675781 94.792969 86.789062 95.039062 86.675781 95.1875 C 85.015625 97.988281 82.992188 100.539062 80.933594 103.046875 C 78.757812 105.683594 76.503906 108.257812 74.417969 110.972656 C 73.285156 112.453125 72.203125 113.976562 71.308594 115.617188 C 70.515625 117.078125 69.863281 118.664062 69.746094 120.335938 L 69.746094 121.046875 C 69.800781 121.933594 70.058594 122.816406 70.519531 123.578125 Z M 70.519531 123.578125 " fill-opacity="1" fill-rule="nonzero"/></g><g clip-path="url(#id13)"><path fill="#ff0000" d="M 77.023438 84.953125 C 76.476562 84.046875 75.628906 83.363281 74.722656 82.835938 C 74.503906 82.714844 74.292969 82.578125 74.066406 82.492188 C 72.679688 82.035156 71.171875 81.847656 69.738281 82.179688 C 68.507812 82.460938 67.382812 83.136719 66.507812 84.035156 C 65.34375 85.214844 64.566406 86.707031 64.027344 88.25 C 63.933594 88.019531 63.863281 87.785156 63.769531 87.554688 C 63.28125 86.332031 62.605469 85.167969 61.707031 84.203125 C 60.882812 83.316406 59.832031 82.617188 58.660156 82.28125 C 57.296875 81.882812 55.835938 81.972656 54.480469 82.347656 C 54.246094 82.421875 54 82.464844 53.792969 82.59375 C 52.980469 83.066406 52.199219 83.609375 51.539062 84.277344 C 51.035156 84.796875 50.601562 85.390625 50.316406 86.058594 C 50.082031 86.566406 49.964844 87.117188 49.910156 87.671875 L 49.910156 88.285156 C 49.933594 88.664062 49.980469 89.042969 50.066406 89.414062 C 50.363281 90.675781 50.960938 91.847656 51.648438 92.941406 C 52.789062 94.730469 54.179688 96.351562 55.597656 97.929688 C 56.492188 98.921875 57.410156 99.890625 58.328125 100.863281 C 60.167969 102.828125 62.03125 104.777344 63.65625 106.925781 C 63.726562 107.011719 63.78125 107.101562 63.824219 107.203125 C 63.867188 107.34375 64.066406 107.347656 64.171875 107.285156 C 64.308594 107.195312 64.21875 107.007812 64.308594 106.890625 C 65.617188 104.726562 67.210938 102.753906 68.828125 100.820312 C 70.539062 98.78125 72.316406 96.792969 73.957031 94.695312 C 74.847656 93.546875 75.703125 92.371094 76.40625 91.101562 C 77.027344 89.976562 77.542969 88.75 77.636719 87.457031 L 77.636719 86.910156 C 77.589844 86.222656 77.390625 85.542969 77.023438 84.953125 Z M 77.023438 84.953125 " fill-opacity="1" fill-rule="nonzero"/></g></svg>