<svg xmlns="http://www.w3.org/2000/svg" xmlns:xlink="http://www.w3.org/1999/xlink" width="170" zoomAndPan="magnify" viewBox="0 0 127.5 178.499993" height="238" preserveAspectRatio="xMidYMid meet" version="1.0"><defs><g/><clipPath id="id1"><path d="M 0 0.0976562 L 127 0.0976562 L 127 177.902344 L 0 177.902344 Z M 0 0.0976562 " clip-rule="nonzero"/></clipPath><clipPath id="id2"><path d="M 44.390625 11.023438 L 83.390625 11.023438 L 83.390625 47 L 44.390625 47 Z M 44.390625 11.023438 " clip-rule="nonzero"/></clipPath><clipPath id="id3"><path d="M 4.582031 22 L 21.082031 22 L 21.082031 36.945312 L 4.582031 36.945312 Z M 4.582031 22 " clip-rule="nonzero"/></clipPath><clipPath id="id4"><path d="M 106.417969 141.746094 L 122.917969 141.746094 L 122.917969 156.746094 L 106.417969 156.746094 Z M 106.417969 141.746094 " clip-rule="nonzero"/></clipPath><clipPath id="id5"><path d="M 44.097656 131.675781 L 83.097656 131.675781 L 83.097656 167.675781 L 44.097656 167.675781 Z M 44.097656 131.675781 " clip-rule="nonzero"/></clipPath></defs><g clip-path="url(#id1)"><path fill="#ffffff" d="M 0 0.0976562 L 127.5 0.0976562 L 127.5 186.097656 L 0 186.097656 Z M 0 0.0976562 " fill-opacity="1" fill-rule="nonzero"/><path fill="#ffffff" d="M 0 0.0976562 L 127.5 0.0976562 L 127.5 178.597656 L 0 178.597656 Z M 0 0.0976562 " fill-opacity="1" fill-rule="nonzero"/><path fill="#ffffff" d="M 0 0.0976562 L 127.5 0.0976562 L 127.5 178.597656 L 0 178.597656 Z M 0 0.0976562 " fill-opacity="1" fill-rule="nonzero"/><path fill="#ffffff" d="M 0 0.0976562 L 127.5 0.0976562 L 127.5 178.597656 L 0 178.597656 Z M 0 0.0976562 " fill-opacity="1" fill-rule="nonzero"/></g><g fill="#d41e1e" fill-opacity="1"><g transform="translate(7.70625, 17.772726)"><g><path d="M 0.640625 -10.1875 C 0.640625 -11.007812 0.992188 -11.679688 1.703125 -12.203125 C 2.410156 -12.722656 3.46875 -12.984375 4.875 -12.984375 C 6.289062 -12.984375 7.378906 -12.722656 8.140625 -12.203125 C 8.898438 -11.679688 9.28125 -10.894531 9.28125 -9.84375 C 9.28125 -9.5 9.25 -9.191406 9.1875 -8.921875 C 9.125 -8.648438 8.984375 -8.363281 8.765625 -8.0625 C 8.554688 -7.757812 8.351562 -7.492188 8.15625 -7.265625 C 7.957031 -7.035156 7.613281 -6.734375 7.125 -6.359375 C 6.394531 -5.773438 5.625 -5.191406 4.8125 -4.609375 C 4.007812 -4.035156 3.546875 -3.695312 3.421875 -3.59375 L 2.296875 -2.796875 L 6.6875 -2.796875 C 7.53125 -2.796875 8.125 -2.976562 8.46875 -3.34375 C 8.820312 -3.707031 9.070312 -4.28125 9.21875 -5.0625 L 9.53125 -5.0625 L 9.359375 0 L 0.765625 0 L 0.765625 -2.125 L 2.609375 -3.8125 C 3.867188 -4.957031 4.757812 -5.976562 5.28125 -6.875 C 5.800781 -7.769531 6.0625 -8.753906 6.0625 -9.828125 C 6.0625 -10.910156 5.945312 -11.648438 5.71875 -12.046875 C 5.488281 -12.441406 5.097656 -12.640625 4.546875 -12.640625 C 3.992188 -12.640625 3.609375 -12.5 3.390625 -12.21875 C 3.171875 -11.9375 3.0625 -11.664062 3.0625 -11.40625 C 3.0625 -11.15625 3.097656 -10.929688 3.171875 -10.734375 L 3.71875 -10.734375 C 3.820312 -10.484375 3.875 -10.175781 3.875 -9.8125 C 3.875 -9.457031 3.71875 -9.148438 3.40625 -8.890625 C 3.101562 -8.628906 2.703125 -8.5 2.203125 -8.5 C 1.710938 -8.5 1.328125 -8.660156 1.046875 -8.984375 C 0.773438 -9.304688 0.640625 -9.707031 0.640625 -10.1875 Z M 0.640625 -10.1875 "/></g></g></g><g clip-path="url(#id2)"><path fill="#ff0000" d="M 82.527344 15.40625 C 81.757812 14.128906 80.5625 13.164062 79.292969 12.417969 C 78.984375 12.246094 78.6875 12.058594 78.367188 11.929688 C 76.417969 11.289062 74.296875 11.023438 72.285156 11.492188 C 70.550781 11.886719 68.96875 12.84375 67.738281 14.109375 C 66.105469 15.777344 65.007812 17.882812 64.253906 20.0625 C 64.121094 19.738281 64.019531 19.402344 63.886719 19.078125 C 63.199219 17.355469 62.253906 15.714844 60.988281 14.347656 C 59.828125 13.097656 58.351562 12.109375 56.703125 11.632812 C 54.789062 11.070312 52.734375 11.199219 50.828125 11.730469 C 50.5 11.832031 50.15625 11.898438 49.863281 12.078125 C 48.71875 12.742188 47.621094 13.507812 46.695312 14.457031 C 45.984375 15.183594 45.375 16.023438 44.972656 16.964844 C 44.644531 17.683594 44.476562 18.460938 44.398438 19.25 L 44.398438 20.113281 C 44.433594 20.648438 44.5 21.179688 44.625 21.707031 C 45.039062 23.488281 45.878906 25.136719 46.84375 26.683594 C 48.449219 29.210938 50.402344 31.5 52.402344 33.726562 C 53.660156 35.125 54.949219 36.496094 56.238281 37.871094 C 58.824219 40.640625 61.445312 43.394531 63.730469 46.425781 C 63.828125 46.546875 63.90625 46.679688 63.964844 46.820312 C 64.027344 47.019531 64.308594 47.023438 64.457031 46.933594 C 64.648438 46.808594 64.519531 46.542969 64.648438 46.375 C 66.484375 43.324219 68.726562 40.539062 71.003906 37.808594 C 73.410156 34.925781 75.90625 32.121094 78.214844 29.160156 C 79.46875 27.542969 80.667969 25.882812 81.65625 24.089844 C 82.53125 22.496094 83.253906 20.769531 83.386719 18.941406 L 83.386719 18.171875 C 83.324219 17.199219 83.039062 16.238281 82.527344 15.40625 Z M 82.527344 15.40625 " fill-opacity="1" fill-rule="nonzero"/></g><g fill="#d41e1e" fill-opacity="1"><g transform="translate(119.789187, 160.923988)"><g><path d="M -0.640625 10.1875 C -0.640625 11.007812 -0.992188 11.679688 -1.703125 12.203125 C -2.410156 12.722656 -3.46875 12.984375 -4.875 12.984375 C -6.289062 12.984375 -7.378906 12.722656 -8.140625 12.203125 C -8.898438 11.679688 -9.28125 10.894531 -9.28125 9.84375 C -9.28125 9.5 -9.25 9.191406 -9.1875 8.921875 C -9.125 8.648438 -8.984375 8.363281 -8.765625 8.0625 C -8.554688 7.757812 -8.351562 7.492188 -8.15625 7.265625 C -7.957031 7.035156 -7.613281 6.734375 -7.125 6.359375 C -6.394531 5.773438 -5.625 5.191406 -4.8125 4.609375 C -4.007812 4.035156 -3.546875 3.695312 -3.421875 3.59375 L -2.296875 2.796875 L -6.6875 2.796875 C -7.53125 2.796875 -8.125 2.976562 -8.46875 3.34375 C -8.820312 3.707031 -9.070312 4.28125 -9.21875 5.0625 L -9.53125 5.0625 L -9.359375 0 L -0.765625 0 L -0.765625 2.125 L -2.609375 3.8125 C -3.867188 4.957031 -4.757812 5.976562 -5.28125 6.875 C -5.800781 7.769531 -6.0625 8.753906 -6.0625 9.828125 C -6.0625 10.910156 -5.945312 11.648438 -5.71875 12.046875 C -5.488281 12.441406 -5.097656 12.640625 -4.546875 12.640625 C -3.992188 12.640625 -3.609375 12.5 -3.390625 12.21875 C -3.171875 11.9375 -3.0625 11.664062 -3.0625 11.40625 C -3.0625 11.15625 -3.097656 10.929688 -3.171875 10.734375 L -3.71875 10.734375 C -3.820312 10.484375 -3.875 10.175781 -3.875 9.8125 C -3.875 9.457031 -3.71875 9.148438 -3.40625 8.890625 C -3.101562 8.628906 -2.703125 8.5 -2.203125 8.5 C -1.710938 8.5 -1.328125 8.660156 -1.046875 8.984375 C -0.773438 9.304688 -0.640625 9.707031 -0.640625 10.1875 Z M -0.640625 10.1875 "/></g></g></g><g clip-path="url(#id3)"><path fill="#ff0000" d="M 20.710938 23.773438 C 20.386719 23.242188 19.882812 22.839844 19.34375 22.527344 C 19.214844 22.457031 19.085938 22.375 18.953125 22.324219 C 18.128906 22.058594 17.230469 21.945312 16.378906 22.140625 C 15.644531 22.304688 14.976562 22.703125 14.457031 23.234375 C 13.765625 23.925781 13.300781 24.804688 12.984375 25.714844 C 12.925781 25.578125 12.882812 25.4375 12.828125 25.300781 C 12.539062 24.585938 12.136719 23.898438 11.601562 23.332031 C 11.109375 22.808594 10.488281 22.398438 9.789062 22.199219 C 8.980469 21.964844 8.109375 22.019531 7.304688 22.242188 C 7.167969 22.285156 7.019531 22.308594 6.894531 22.386719 C 6.410156 22.660156 5.949219 22.980469 5.554688 23.375 C 5.253906 23.679688 4.996094 24.03125 4.828125 24.421875 C 4.6875 24.722656 4.617188 25.046875 4.585938 25.375 L 4.585938 25.734375 C 4.601562 25.957031 4.628906 26.179688 4.679688 26.398438 C 4.855469 27.140625 5.210938 27.828125 5.621094 28.46875 C 6.296875 29.523438 7.125 30.476562 7.96875 31.40625 C 8.5 31.988281 9.046875 32.558594 9.59375 33.132812 C 10.6875 34.289062 11.796875 35.433594 12.761719 36.695312 C 12.804688 36.746094 12.835938 36.800781 12.859375 36.859375 C 12.886719 36.945312 13.003906 36.945312 13.070312 36.910156 C 13.148438 36.855469 13.097656 36.746094 13.148438 36.675781 C 13.925781 35.402344 14.875 34.246094 15.835938 33.105469 C 16.855469 31.90625 17.910156 30.738281 18.886719 29.503906 C 19.417969 28.828125 19.925781 28.136719 20.34375 27.390625 C 20.714844 26.726562 21.019531 26.007812 21.074219 25.246094 L 21.074219 24.925781 C 21.046875 24.519531 20.929688 24.117188 20.710938 23.773438 Z M 20.710938 23.773438 " fill-opacity="1" fill-rule="nonzero"/></g><g clip-path="url(#id4)"><path fill="#ff0000" d="M 106.785156 154.921875 C 107.109375 155.453125 107.613281 155.855469 108.152344 156.167969 C 108.28125 156.238281 108.410156 156.316406 108.542969 156.371094 C 109.367188 156.636719 110.265625 156.746094 111.117188 156.550781 C 111.851562 156.386719 112.519531 155.988281 113.039062 155.460938 C 113.730469 154.765625 114.195312 153.890625 114.511719 152.980469 C 114.570312 153.117188 114.613281 153.253906 114.667969 153.390625 C 114.957031 154.109375 115.359375 154.792969 115.894531 155.363281 C 116.386719 155.882812 117.007812 156.292969 117.707031 156.492188 C 118.515625 156.726562 119.386719 156.675781 120.191406 156.453125 C 120.328125 156.410156 120.476562 156.382812 120.601562 156.308594 C 121.085938 156.03125 121.546875 155.710938 121.941406 155.316406 C 122.242188 155.015625 122.5 154.664062 122.667969 154.269531 C 122.808594 153.972656 122.878906 153.648438 122.910156 153.320312 L 122.910156 152.960938 C 122.894531 152.738281 122.867188 152.515625 122.816406 152.296875 C 122.640625 151.554688 122.285156 150.867188 121.875 150.222656 C 121.199219 149.167969 120.371094 148.214844 119.527344 147.285156 C 118.996094 146.703125 118.449219 146.132812 117.902344 145.5625 C 116.808594 144.40625 115.699219 143.257812 114.734375 141.996094 C 114.691406 141.945312 114.660156 141.890625 114.636719 141.832031 C 114.609375 141.75 114.492188 141.746094 114.425781 141.785156 C 114.347656 141.835938 114.398438 141.949219 114.347656 142.015625 C 113.570312 143.289062 112.621094 144.449219 111.660156 145.585938 C 110.640625 146.789062 109.585938 147.957031 108.609375 149.191406 C 108.078125 149.863281 107.570312 150.554688 107.152344 151.304688 C 106.78125 151.964844 106.476562 152.6875 106.421875 153.449219 L 106.421875 153.769531 C 106.449219 154.175781 106.566406 154.574219 106.785156 154.921875 Z M 106.785156 154.921875 " fill-opacity="1" fill-rule="nonzero"/></g><g clip-path="url(#id5)"><path fill="#ff0000" d="M 44.964844 163.292969 C 45.734375 164.566406 46.929688 165.535156 48.199219 166.28125 C 48.507812 166.453125 48.804688 166.640625 49.125 166.769531 C 51.074219 167.410156 53.195312 167.675781 55.207031 167.203125 C 56.941406 166.8125 58.519531 165.855469 59.753906 164.585938 C 61.386719 162.921875 62.484375 160.816406 63.238281 158.632812 C 63.371094 158.960938 63.472656 159.296875 63.605469 159.621094 C 64.292969 161.34375 65.238281 162.984375 66.503906 164.351562 C 67.664062 165.601562 69.140625 166.589844 70.789062 167.0625 C 72.703125 167.628906 74.757812 167.5 76.664062 166.96875 C 76.992188 166.863281 77.335938 166.800781 77.628906 166.621094 C 78.773438 165.957031 79.871094 165.191406 80.796875 164.242188 C 81.507812 163.515625 82.117188 162.675781 82.519531 161.734375 C 82.847656 161.015625 83.015625 160.238281 83.09375 159.449219 L 83.09375 158.585938 C 83.058594 158.050781 82.992188 157.519531 82.867188 156.992188 C 82.453125 155.210938 81.609375 153.558594 80.644531 152.015625 C 79.042969 149.488281 77.089844 147.199219 75.089844 144.972656 C 73.832031 143.574219 72.542969 142.203125 71.253906 140.828125 C 68.667969 138.054688 66.046875 135.304688 63.761719 132.273438 C 63.664062 132.152344 63.585938 132.019531 63.527344 131.878906 C 63.464844 131.679688 63.183594 131.675781 63.035156 131.761719 C 62.84375 131.890625 62.972656 132.15625 62.84375 132.320312 C 61.007812 135.375 58.765625 138.160156 56.488281 140.890625 C 54.082031 143.769531 51.585938 146.578125 49.277344 149.539062 C 48.023438 151.15625 46.824219 152.816406 45.835938 154.609375 C 44.960938 156.203125 44.238281 157.929688 44.105469 159.757812 L 44.105469 160.527344 C 44.167969 161.5 44.453125 162.460938 44.964844 163.292969 Z M 44.964844 163.292969 " fill-opacity="1" fill-rule="nonzero"/></g></svg>