<svg xmlns="http://www.w3.org/2000/svg" xmlns:xlink="http://www.w3.org/1999/xlink" width="170" zoomAndPan="magnify" viewBox="0 0 127.5 178.499993" height="238" preserveAspectRatio="xMidYMid meet" version="1.0"><defs><g/><clipPath id="id1"><path d="M 0 0.0976562 L 127 0.0976562 L 127 177.902344 L 0 177.902344 Z M 0 0.0976562 " clip-rule="nonzero"/></clipPath><clipPath id="id2"><path d="M 4.582031 22 L 21.082031 22 L 21.082031 36.945312 L 4.582031 36.945312 Z M 4.582031 22 " clip-rule="nonzero"/></clipPath><clipPath id="id3"><path d="M 106.417969 141.746094 L 122.917969 141.746094 L 122.917969 156.746094 L 106.417969 156.746094 Z M 106.417969 141.746094 " clip-rule="nonzero"/></clipPath><clipPath id="id4"><path d="M 70.261719 134.664062 L 105.511719 134.664062 L 105.511719 167.664062 L 70.261719 167.664062 Z M 70.261719 134.664062 " clip-rule="nonzero"/></clipPath><clipPath id="id5"><path d="M 69.441406 11.023438 L 105.441406 11.023438 L 105.441406 44.773438 L 69.441406 44.773438 Z M 69.441406 11.023438 " clip-rule="nonzero"/></clipPath><clipPath id="id6"><path d="M 24.214844 11.023438 L 60.214844 11.023438 L 60.214844 44.773438 L 24.214844 44.773438 Z M 24.214844 11.023438 " clip-rule="nonzero"/></clipPath><clipPath id="id7"><path d="M 25.039062 134.664062 L 60.289062 134.664062 L 60.289062 167.664062 L 25.039062 167.664062 Z M 25.039062 134.664062 " clip-rule="nonzero"/></clipPath><clipPath id="id8"><path d="M 25.835938 46.589844 L 58.085938 46.589844 L 58.085938 76.589844 L 25.835938 76.589844 Z M 25.835938 46.589844 " clip-rule="nonzero"/></clipPath><clipPath id="id9"><path d="M 71.589844 46.589844 L 103.839844 46.589844 L 103.839844 76.589844 L 71.589844 76.589844 Z M 71.589844 46.589844 " clip-rule="nonzero"/></clipPath><clipPath id="id10"><path d="M 49.898438 76.15625 L 77.648438 76.15625 L 77.648438 101.65625 L 49.898438 101.65625 Z M 49.898438 76.15625 " clip-rule="nonzero"/></clipPath><clipPath id="id11"><path d="M 24.507812 101.738281 L 59.757812 101.738281 L 59.757812 134.738281 L 24.507812 134.738281 Z M 24.507812 101.738281 " clip-rule="nonzero"/></clipPath><clipPath id="id12"><path d="M 69.734375 101.738281 L 104.984375 101.738281 L 104.984375 134.738281 L 69.734375 134.738281 Z M 69.734375 101.738281 " clip-rule="nonzero"/></clipPath></defs><g clip-path="url(#id1)"><path fill="#ffffff" d="M 0 0.0976562 L 127.5 0.0976562 L 127.5 186.097656 L 0 186.097656 Z M 0 0.0976562 " fill-opacity="1" fill-rule="nonzero"/><path fill="#ffffff" d="M 0 0.0976562 L 127.5 0.0976562 L 127.5 178.597656 L 0 178.597656 Z M 0 0.0976562 " fill-opacity="1" fill-rule="nonzero"/><path fill="#ffffff" d="M 0 0.0976562 L 127.5 0.0976562 L 127.5 178.597656 L 0 178.597656 Z M 0 0.0976562 " fill-opacity="1" fill-rule="nonzero"/><path fill="#ffffff" d="M 0 0.0976562 L 127.5 0.0976562 L 127.5 178.597656 L 0 178.597656 Z M 0 0.0976562 " fill-opacity="1" fill-rule="nonzero"/></g><path fill="#d41e1e" d="M 7.121094 19.273438 L 18.359375 19.273438 L 18.359375 20.773438 L 7.121094 20.773438 Z M 7.121094 19.273438 " fill-opacity="1" fill-rule="nonzero"/><g fill="#d41e1e" fill-opacity="1"><g transform="translate(7.120312, 17.772726)"><g><path d="M 10.671875 -7.171875 C 10.671875 -4.816406 10.15625 -3 9.125 -1.71875 C 8.09375 -0.445312 6.664062 0.1875 4.84375 0.1875 C 3.5625 0.1875 2.554688 -0.0546875 1.828125 -0.546875 C 1.109375 -1.035156 0.75 -1.671875 0.75 -2.453125 C 0.75 -2.929688 0.894531 -3.347656 1.1875 -3.703125 C 1.488281 -4.066406 1.882812 -4.25 2.375 -4.25 C 2.875 -4.25 3.265625 -4.117188 3.546875 -3.859375 C 3.835938 -3.597656 3.984375 -3.285156 3.984375 -2.921875 C 3.984375 -2.566406 3.929688 -2.253906 3.828125 -1.984375 L 3.28125 -1.984375 C 3.195312 -1.804688 3.15625 -1.570312 3.15625 -1.28125 C 3.15625 -1 3.285156 -0.742188 3.546875 -0.515625 C 3.816406 -0.296875 4.207031 -0.1875 4.71875 -0.1875 C 5.53125 -0.1875 6.117188 -0.628906 6.484375 -1.515625 C 6.859375 -2.398438 7.050781 -3.945312 7.0625 -6.15625 C 6.4375 -5.164062 5.476562 -4.671875 4.1875 -4.671875 C 3.082031 -4.671875 2.175781 -5.023438 1.46875 -5.734375 C 0.769531 -6.441406 0.421875 -7.410156 0.421875 -8.640625 C 0.421875 -10.097656 0.90625 -11.1875 1.875 -11.90625 C 2.84375 -12.625 4.082031 -12.984375 5.59375 -12.984375 C 8.976562 -12.984375 10.671875 -11.046875 10.671875 -7.171875 Z M 5.234375 -5.28125 C 5.648438 -5.28125 6 -5.429688 6.28125 -5.734375 C 6.570312 -6.046875 6.769531 -6.410156 6.875 -6.828125 C 6.976562 -7.253906 7.03125 -7.804688 7.03125 -8.484375 C 7.03125 -9.160156 7.023438 -9.628906 7.015625 -9.890625 C 7.015625 -10.148438 7 -10.457031 6.96875 -10.8125 C 6.945312 -11.175781 6.90625 -11.441406 6.84375 -11.609375 C 6.789062 -11.773438 6.710938 -11.945312 6.609375 -12.125 C 6.429688 -12.445312 6.097656 -12.609375 5.609375 -12.609375 C 5.054688 -12.609375 4.648438 -12.390625 4.390625 -11.953125 C 4.179688 -11.597656 4.054688 -10.988281 4.015625 -10.125 C 4.003906 -9.8125 4 -9.394531 4 -8.875 C 4 -8.363281 4 -7.96875 4 -7.6875 C 4.007812 -7.40625 4.023438 -7.109375 4.046875 -6.796875 C 4.078125 -6.492188 4.117188 -6.257812 4.171875 -6.09375 C 4.222656 -5.9375 4.296875 -5.785156 4.390625 -5.640625 C 4.546875 -5.398438 4.828125 -5.28125 5.234375 -5.28125 Z M 5.234375 -5.28125 "/></g></g></g><path fill="#d41e1e" d="M 121.078125 159.425781 L 109.839844 159.425781 L 109.839844 157.925781 L 121.078125 157.925781 Z M 121.078125 159.425781 " fill-opacity="1" fill-rule="nonzero"/><g fill="#d41e1e" fill-opacity="1"><g transform="translate(121.078249, 160.923988)"><g><path d="M -10.671875 7.171875 C -10.671875 4.816406 -10.15625 3 -9.125 1.71875 C -8.09375 0.445312 -6.664062 -0.1875 -4.84375 -0.1875 C -3.5625 -0.1875 -2.554688 0.0546875 -1.828125 0.546875 C -1.109375 1.035156 -0.75 1.671875 -0.75 2.453125 C -0.75 2.929688 -0.894531 3.347656 -1.1875 3.703125 C -1.488281 4.066406 -1.882812 4.25 -2.375 4.25 C -2.875 4.25 -3.265625 4.117188 -3.546875 3.859375 C -3.835938 3.597656 -3.984375 3.285156 -3.984375 2.921875 C -3.984375 2.566406 -3.929688 2.253906 -3.828125 1.984375 L -3.28125 1.984375 C -3.195312 1.804688 -3.15625 1.570312 -3.15625 1.28125 C -3.15625 1 -3.285156 0.742188 -3.546875 0.515625 C -3.816406 0.296875 -4.207031 0.1875 -4.71875 0.1875 C -5.53125 0.1875 -6.117188 0.628906 -6.484375 1.515625 C -6.859375 2.398438 -7.050781 3.945312 -7.0625 6.15625 C -6.4375 5.164062 -5.476562 4.671875 -4.1875 4.671875 C -3.082031 4.671875 -2.175781 5.023438 -1.46875 5.734375 C -0.769531 6.441406 -0.421875 7.410156 -0.421875 8.640625 C -0.421875 10.097656 -0.90625 11.1875 -1.875 11.90625 C -2.84375 12.625 -4.082031 12.984375 -5.59375 12.984375 C -8.976562 12.984375 -10.671875 11.046875 -10.671875 7.171875 Z M -5.234375 5.28125 C -5.648438 5.28125 -6 5.429688 -6.28125 5.734375 C -6.570312 6.046875 -6.769531 6.410156 -6.875 6.828125 C -6.976562 7.253906 -7.03125 7.804688 -7.03125 8.484375 C -7.03125 9.160156 -7.023438 9.628906 -7.015625 9.890625 C -7.015625 10.148438 -7 10.457031 -6.96875 10.8125 C -6.945312 11.175781 -6.90625 11.441406 -6.84375 11.609375 C -6.789062 11.773438 -6.710938 11.945312 -6.609375 12.125 C -6.429688 12.445312 -6.097656 12.609375 -5.609375 12.609375 C -5.054688 12.609375 -4.648438 12.390625 -4.390625 11.953125 C -4.179688 11.597656 -4.054688 10.988281 -4.015625 10.125 C -4.003906 9.8125 -4 9.394531 -4 8.875 C -4 8.363281 -4 7.96875 -4 7.6875 C -4.007812 7.40625 -4.023438 7.109375 -4.046875 6.796875 C -4.078125 6.492188 -4.117188 6.257812 -4.171875 6.09375 C -4.222656 5.9375 -4.296875 5.785156 -4.390625 5.640625 C -4.546875 5.398438 -4.828125 5.28125 -5.234375 5.28125 Z M -5.234375 5.28125 "/></g></g></g><g clip-path="url(#id2)"><path fill="#ff0000" d="M 20.710938 23.773438 C 20.386719 23.242188 19.882812 22.839844 19.34375 22.527344 C 19.214844 22.457031 19.085938 22.375 18.953125 22.324219 C 18.128906 22.058594 17.230469 21.945312 16.378906 22.140625 C 15.644531 22.304688 14.976562 22.703125 14.457031 23.234375 C 13.765625 23.925781 13.300781 24.804688 12.984375 25.714844 C 12.925781 25.578125 12.882812 25.4375 12.828125 25.300781 C 12.539062 24.585938 12.136719 23.898438 11.601562 23.332031 C 11.109375 22.808594 10.488281 22.398438 9.789062 22.199219 C 8.980469 21.964844 8.109375 22.019531 7.304688 22.242188 C 7.167969 22.285156 7.019531 22.308594 6.894531 22.386719 C 6.410156 22.660156 5.949219 22.980469 5.554688 23.375 C 5.253906 23.679688 4.996094 24.03125 4.828125 24.421875 C 4.6875 24.722656 4.617188 25.046875 4.585938 25.375 L 4.585938 25.734375 C 4.601562 25.957031 4.628906 26.179688 4.679688 26.398438 C 4.855469 27.140625 5.210938 27.828125 5.621094 28.46875 C 6.296875 29.523438 7.125 30.476562 7.96875 31.40625 C 8.5 31.988281 9.046875 32.558594 9.59375 33.132812 C 10.6875 34.289062 11.796875 35.433594 12.761719 36.695312 C 12.804688 36.746094 12.835938 36.800781 12.859375 36.859375 C 12.886719 36.945312 13.003906 36.945312 13.070312 36.910156 C 13.148438 36.855469 13.097656 36.746094 13.148438 36.675781 C 13.925781 35.402344 14.875 34.246094 15.835938 33.105469 C 16.855469 31.90625 17.910156 30.738281 18.886719 29.503906 C 19.417969 28.828125 19.925781 28.136719 20.34375 27.390625 C 20.714844 26.726562 21.019531 26.007812 21.074219 25.246094 L 21.074219 24.925781 C 21.046875 24.519531 20.929688 24.117188 20.710938 23.773438 Z M 20.710938 23.773438 " fill-opacity="1" fill-rule="nonzero"/></g><g clip-path="url(#id3)"><path fill="#ff0000" d="M 106.785156 154.921875 C 107.109375 155.453125 107.613281 155.855469 108.152344 156.167969 C 108.28125 156.238281 108.410156 156.316406 108.542969 156.371094 C 109.367188 156.636719 110.265625 156.746094 111.117188 156.550781 C 111.851562 156.386719 112.519531 155.988281 113.039062 155.460938 C 113.730469 154.765625 114.195312 153.890625 114.511719 152.980469 C 114.570312 153.117188 114.613281 153.253906 114.667969 153.390625 C 114.957031 154.109375 115.359375 154.792969 115.894531 155.363281 C 116.386719 155.882812 117.007812 156.292969 117.707031 156.492188 C 118.515625 156.726562 119.386719 156.675781 120.191406 156.453125 C 120.328125 156.410156 120.476562 156.382812 120.601562 156.308594 C 121.085938 156.03125 121.546875 155.710938 121.941406 155.316406 C 122.242188 155.015625 122.5 154.664062 122.667969 154.269531 C 122.808594 153.972656 122.878906 153.648438 122.910156 153.320312 L 122.910156 152.960938 C 122.894531 152.738281 122.867188 152.515625 122.816406 152.296875 C 122.640625 151.554688 122.285156 150.867188 121.875 150.222656 C 121.199219 149.167969 120.371094 148.214844 119.527344 147.285156 C 118.996094 146.703125 118.449219 146.132812 117.902344 145.5625 C 116.808594 144.40625 115.699219 143.257812 114.734375 141.996094 C 114.691406 141.945312 114.660156 141.890625 114.636719 141.832031 C 114.609375 141.75 114.492188 141.746094 114.425781 141.785156 C 114.347656 141.835938 114.398438 141.949219 114.347656 142.015625 C 113.570312 143.289062 112.621094 144.449219 111.660156 145.585938 C 110.640625 146.789062 109.585938 147.957031 108.609375 149.191406 C 108.078125 149.863281 107.570312 150.554688 107.152344 151.304688 C 106.78125 151.964844 106.476562 152.6875 106.421875 153.449219 L 106.421875 153.769531 C 106.449219 154.175781 106.566406 154.574219 106.785156 154.921875 Z M 106.785156 154.921875 " fill-opacity="1" fill-rule="nonzero"/></g><g clip-path="url(#id4)"><path fill="#ff0000" d="M 71.050781 163.644531 C 71.746094 164.816406 72.824219 165.703125 73.972656 166.386719 C 74.25 166.542969 74.519531 166.71875 74.808594 166.832031 C 76.570312 167.421875 78.488281 167.664062 80.304688 167.234375 C 81.875 166.875 83.300781 165.996094 84.414062 164.835938 C 85.890625 163.308594 86.878906 161.375 87.5625 159.378906 C 87.679688 159.675781 87.773438 159.984375 87.894531 160.28125 C 88.515625 161.863281 89.367188 163.367188 90.511719 164.617188 C 91.5625 165.765625 92.894531 166.667969 94.382812 167.105469 C 96.113281 167.621094 97.972656 167.503906 99.695312 167.015625 C 99.988281 166.921875 100.300781 166.863281 100.566406 166.699219 C 101.601562 166.089844 102.589844 165.386719 103.429688 164.519531 C 104.070312 163.851562 104.621094 163.082031 104.980469 162.21875 C 105.28125 161.558594 105.429688 160.847656 105.5 160.125 L 105.5 159.332031 C 105.472656 158.84375 105.410156 158.355469 105.300781 157.875 C 104.925781 156.238281 104.164062 154.726562 103.292969 153.3125 C 101.84375 150.992188 100.078125 148.894531 98.273438 146.851562 C 97.136719 145.570312 95.96875 144.316406 94.804688 143.054688 C 92.46875 140.515625 90.097656 137.992188 88.035156 135.214844 C 87.945312 135.101562 87.875 134.980469 87.824219 134.851562 C 87.765625 134.671875 87.515625 134.664062 87.378906 134.746094 C 87.207031 134.863281 87.320312 135.105469 87.207031 135.257812 C 85.546875 138.058594 83.519531 140.609375 81.464844 143.113281 C 79.289062 145.753906 77.035156 148.324219 74.945312 151.042969 C 73.816406 152.523438 72.730469 154.046875 71.839844 155.6875 C 71.046875 157.148438 70.394531 158.734375 70.273438 160.40625 L 70.273438 161.113281 C 70.332031 162.003906 70.585938 162.886719 71.050781 163.644531 Z M 71.050781 163.644531 " fill-opacity="1" fill-rule="nonzero"/></g><g clip-path="url(#id5)"><path fill="#ff0000" d="M 104.640625 15.132812 C 103.929688 13.9375 102.828125 13.03125 101.652344 12.328125 C 101.371094 12.167969 101.09375 11.992188 100.796875 11.875 C 99 11.273438 97.042969 11.023438 95.1875 11.464844 C 93.585938 11.832031 92.128906 12.730469 90.988281 13.917969 C 89.484375 15.480469 88.472656 17.453125 87.773438 19.5 C 87.652344 19.195312 87.558594 18.878906 87.4375 18.574219 C 86.800781 16.957031 85.929688 15.421875 84.761719 14.140625 C 83.691406 12.964844 82.328125 12.042969 80.808594 11.597656 C 79.039062 11.066406 77.140625 11.1875 75.382812 11.6875 C 75.082031 11.78125 74.761719 11.84375 74.492188 12.011719 C 73.433594 12.632812 72.421875 13.351562 71.570312 14.242188 C 70.914062 14.925781 70.351562 15.710938 69.980469 16.59375 C 69.675781 17.269531 69.523438 17.996094 69.449219 18.734375 L 69.449219 19.542969 C 69.480469 20.046875 69.546875 20.546875 69.65625 21.039062 C 70.039062 22.707031 70.816406 24.257812 71.707031 25.703125 C 73.1875 28.074219 74.992188 30.21875 76.835938 32.308594 C 77.996094 33.621094 79.1875 34.902344 80.375 36.191406 C 82.761719 38.792969 85.183594 41.371094 87.292969 44.210938 C 87.382812 44.328125 87.453125 44.449219 87.507812 44.582031 C 87.566406 44.769531 87.824219 44.773438 87.960938 44.691406 C 88.136719 44.574219 88.019531 44.320312 88.136719 44.167969 C 89.832031 41.304688 91.902344 38.695312 94.003906 36.132812 C 96.226562 33.433594 98.527344 30.800781 100.660156 28.023438 C 101.816406 26.507812 102.921875 24.953125 103.835938 23.273438 C 104.644531 21.78125 105.308594 20.160156 105.429688 18.449219 L 105.429688 17.722656 C 105.371094 16.8125 105.113281 15.910156 104.640625 15.132812 Z M 104.640625 15.132812 " fill-opacity="1" fill-rule="nonzero"/></g><g clip-path="url(#id6)"><path fill="#ff0000" d="M 59.414062 15.132812 C 58.703125 13.9375 57.601562 13.03125 56.425781 12.328125 C 56.144531 12.167969 55.871094 11.992188 55.574219 11.875 C 53.773438 11.273438 51.816406 11.023438 49.960938 11.464844 C 48.359375 11.832031 46.902344 12.730469 45.765625 13.917969 C 44.257812 15.480469 43.246094 17.453125 42.546875 19.5 C 42.425781 19.195312 42.332031 18.878906 42.210938 18.574219 C 41.578125 16.957031 40.703125 15.421875 39.535156 14.140625 C 38.464844 12.964844 37.101562 12.042969 35.582031 11.597656 C 33.8125 11.066406 31.914062 11.1875 30.15625 11.6875 C 29.855469 11.78125 29.535156 11.84375 29.265625 12.011719 C 28.210938 12.632812 27.199219 13.351562 26.34375 14.242188 C 25.6875 14.925781 25.125 15.710938 24.753906 16.59375 C 24.449219 17.269531 24.296875 17.996094 24.226562 18.734375 L 24.226562 19.542969 C 24.257812 20.046875 24.320312 20.546875 24.433594 21.039062 C 24.8125 22.707031 25.59375 24.257812 26.484375 25.703125 C 27.960938 28.074219 29.765625 30.21875 31.609375 32.308594 C 32.769531 33.621094 33.960938 34.902344 35.148438 36.191406 C 37.539062 38.792969 39.957031 41.371094 42.066406 44.210938 C 42.15625 44.328125 42.230469 44.449219 42.28125 44.582031 C 42.339844 44.769531 42.597656 44.773438 42.738281 44.691406 C 42.914062 44.574219 42.796875 44.320312 42.914062 44.167969 C 44.609375 41.304688 46.675781 38.695312 48.777344 36.132812 C 51 33.433594 53.300781 30.800781 55.433594 28.023438 C 56.589844 26.507812 57.695312 24.953125 58.609375 23.273438 C 59.417969 21.78125 60.085938 20.160156 60.207031 18.449219 L 60.207031 17.722656 C 60.148438 16.8125 59.886719 15.910156 59.414062 15.132812 Z M 59.414062 15.132812 " fill-opacity="1" fill-rule="nonzero"/></g><g clip-path="url(#id7)"><path fill="#ff0000" d="M 25.824219 163.644531 C 26.519531 164.816406 27.597656 165.703125 28.75 166.386719 C 29.027344 166.542969 29.292969 166.71875 29.585938 166.832031 C 31.347656 167.421875 33.261719 167.664062 35.082031 167.234375 C 36.648438 166.875 38.074219 165.996094 39.1875 164.835938 C 40.664062 163.308594 41.65625 161.375 42.335938 159.378906 C 42.457031 159.675781 42.546875 159.984375 42.667969 160.28125 C 43.289062 161.863281 44.140625 163.367188 45.289062 164.617188 C 46.335938 165.765625 47.667969 166.667969 49.15625 167.105469 C 50.886719 167.621094 52.746094 167.503906 54.46875 167.015625 C 54.761719 166.921875 55.074219 166.863281 55.339844 166.699219 C 56.375 166.089844 57.367188 165.386719 58.203125 164.519531 C 58.84375 163.851562 59.394531 163.082031 59.757812 162.21875 C 60.054688 161.558594 60.207031 160.847656 60.277344 160.125 L 60.277344 159.332031 C 60.246094 158.84375 60.183594 158.355469 60.074219 157.875 C 59.699219 156.238281 58.9375 154.726562 58.066406 153.3125 C 56.617188 150.992188 54.851562 148.894531 53.046875 146.851562 C 51.910156 145.570312 50.742188 144.316406 49.582031 143.054688 C 47.242188 140.515625 44.875 137.992188 42.808594 135.214844 C 42.71875 135.101562 42.648438 134.980469 42.597656 134.851562 C 42.539062 134.671875 42.289062 134.664062 42.152344 134.746094 C 41.980469 134.863281 42.09375 135.105469 41.980469 135.257812 C 40.320312 138.058594 38.292969 140.609375 36.238281 143.113281 C 34.0625 145.753906 31.808594 148.324219 29.722656 151.042969 C 28.589844 152.523438 27.507812 154.046875 26.613281 155.6875 C 25.820312 157.148438 25.167969 158.734375 25.050781 160.40625 L 25.050781 161.113281 C 25.105469 162.003906 25.363281 162.886719 25.824219 163.644531 Z M 25.824219 163.644531 " fill-opacity="1" fill-rule="nonzero"/></g><g clip-path="url(#id8)"><path fill="#ff0000" d="M 57.363281 50.242188 C 56.726562 49.179688 55.738281 48.375 54.6875 47.75 C 54.433594 47.609375 54.1875 47.453125 53.921875 47.347656 C 52.3125 46.8125 50.558594 46.589844 48.894531 46.980469 C 47.460938 47.308594 46.15625 48.105469 45.136719 49.164062 C 43.789062 50.550781 42.882812 52.308594 42.257812 54.125 C 42.148438 53.851562 42.066406 53.574219 41.957031 53.300781 C 41.386719 51.867188 40.605469 50.5 39.558594 49.359375 C 38.601562 48.316406 37.378906 47.496094 36.019531 47.097656 C 34.433594 46.628906 32.734375 46.734375 31.160156 47.179688 C 30.890625 47.265625 30.605469 47.316406 30.363281 47.46875 C 29.417969 48.023438 28.511719 48.660156 27.746094 49.449219 C 27.15625 50.058594 26.652344 50.757812 26.324219 51.542969 C 26.050781 52.140625 25.914062 52.789062 25.847656 53.445312 L 25.847656 54.164062 C 25.875 54.609375 25.933594 55.054688 26.03125 55.492188 C 26.375 56.976562 27.070312 58.351562 27.871094 59.640625 C 29.195312 61.746094 30.808594 63.652344 32.460938 65.511719 C 33.5 66.675781 34.566406 67.816406 35.632812 68.960938 C 37.769531 71.273438 39.9375 73.566406 41.828125 76.089844 C 41.90625 76.191406 41.972656 76.300781 42.019531 76.417969 C 42.074219 76.585938 42.300781 76.589844 42.425781 76.515625 C 42.585938 76.410156 42.480469 76.1875 42.585938 76.050781 C 44.101562 73.507812 45.957031 71.1875 47.835938 68.910156 C 49.828125 66.507812 51.890625 64.171875 53.796875 61.703125 C 54.832031 60.355469 55.824219 58.972656 56.640625 57.476562 C 57.367188 56.152344 57.964844 54.710938 58.070312 53.1875 L 58.070312 52.546875 C 58.019531 51.738281 57.785156 50.933594 57.363281 50.242188 Z M 57.363281 50.242188 " fill-opacity="1" fill-rule="nonzero"/></g><g clip-path="url(#id9)"><path fill="#ff0000" d="M 103.117188 50.242188 C 102.480469 49.179688 101.496094 48.375 100.445312 47.75 C 100.191406 47.609375 99.945312 47.453125 99.679688 47.347656 C 98.066406 46.8125 96.316406 46.589844 94.652344 46.980469 C 93.21875 47.308594 91.910156 48.105469 90.894531 49.164062 C 89.542969 50.550781 88.636719 52.308594 88.011719 54.125 C 87.902344 53.851562 87.820312 53.574219 87.710938 53.300781 C 87.144531 51.867188 86.363281 50.5 85.3125 49.359375 C 84.355469 48.316406 83.136719 47.496094 81.773438 47.097656 C 80.191406 46.628906 78.492188 46.734375 76.914062 47.179688 C 76.644531 47.265625 76.359375 47.316406 76.117188 47.46875 C 75.171875 48.023438 74.265625 48.660156 73.5 49.449219 C 72.910156 50.058594 72.410156 50.757812 72.078125 51.542969 C 71.804688 52.140625 71.667969 52.789062 71.601562 53.445312 L 71.601562 54.164062 C 71.632812 54.609375 71.6875 55.054688 71.789062 55.492188 C 72.128906 56.976562 72.828125 58.351562 73.625 59.640625 C 74.949219 61.746094 76.566406 63.652344 78.214844 65.511719 C 79.257812 66.675781 80.324219 67.816406 81.386719 68.960938 C 83.527344 71.273438 85.691406 73.566406 87.582031 76.089844 C 87.664062 76.191406 87.726562 76.300781 87.773438 76.417969 C 87.828125 76.585938 88.058594 76.589844 88.183594 76.515625 C 88.339844 76.410156 88.234375 76.1875 88.339844 76.050781 C 89.859375 73.507812 91.710938 71.1875 93.589844 68.910156 C 95.582031 66.507812 97.644531 64.171875 99.554688 61.703125 C 100.589844 60.355469 101.578125 58.972656 102.398438 57.476562 C 103.121094 56.152344 103.71875 54.710938 103.828125 53.1875 L 103.828125 52.546875 C 103.773438 51.738281 103.539062 50.933594 103.117188 50.242188 Z M 103.117188 50.242188 " fill-opacity="1" fill-rule="nonzero"/></g><g clip-path="url(#id10)"><path fill="#ff0000" d="M 77.023438 79.261719 C 76.476562 78.355469 75.628906 77.671875 74.722656 77.144531 C 74.503906 77.023438 74.292969 76.886719 74.066406 76.800781 C 72.679688 76.34375 71.171875 76.15625 69.738281 76.488281 C 68.507812 76.769531 67.382812 77.445312 66.507812 78.34375 C 65.34375 79.523438 64.566406 81.015625 64.027344 82.558594 C 63.933594 82.328125 63.863281 82.09375 63.769531 81.863281 C 63.28125 80.640625 62.605469 79.476562 61.707031 78.511719 C 60.882812 77.625 59.832031 76.925781 58.660156 76.589844 C 57.296875 76.191406 55.835938 76.28125 54.480469 76.65625 C 54.246094 76.730469 54 76.773438 53.792969 76.902344 C 52.980469 77.375 52.199219 77.917969 51.539062 78.585938 C 51.035156 79.105469 50.601562 79.699219 50.316406 80.367188 C 50.082031 80.875 49.964844 81.425781 49.910156 81.980469 L 49.910156 82.59375 C 49.933594 82.972656 49.980469 83.351562 50.066406 83.722656 C 50.363281 84.984375 50.960938 86.15625 51.648438 87.25 C 52.789062 89.039062 54.179688 90.660156 55.597656 92.238281 C 56.492188 93.230469 57.410156 94.199219 58.328125 95.171875 C 60.167969 97.136719 62.03125 99.085938 63.65625 101.234375 C 63.726562 101.320312 63.78125 101.410156 63.824219 101.511719 C 63.867188 101.652344 64.066406 101.65625 64.171875 101.59375 C 64.308594 101.503906 64.21875 101.316406 64.308594 101.199219 C 65.617188 99.035156 67.210938 97.0625 68.828125 95.128906 C 70.539062 93.089844 72.316406 91.101562 73.957031 89.003906 C 74.847656 87.855469 75.703125 86.679688 76.40625 85.410156 C 77.027344 84.285156 77.542969 83.058594 77.636719 81.765625 L 77.636719 81.21875 C 77.589844 80.53125 77.390625 79.851562 77.023438 79.261719 Z M 77.023438 79.261719 " fill-opacity="1" fill-rule="nonzero"/></g><g clip-path="url(#id11)"><path fill="#ff0000" d="M 25.292969 130.71875 C 25.992188 131.886719 27.070312 132.773438 28.21875 133.460938 C 28.496094 133.617188 28.765625 133.789062 29.054688 133.90625 C 30.816406 134.492188 32.730469 134.738281 34.550781 134.304688 C 36.117188 133.945312 37.546875 133.066406 38.660156 131.90625 C 40.132812 130.378906 41.125 128.449219 41.808594 126.449219 C 41.925781 126.746094 42.019531 127.054688 42.136719 127.351562 C 42.757812 128.933594 43.613281 130.4375 44.757812 131.6875 C 45.804688 132.835938 47.140625 133.738281 48.628906 134.175781 C 50.359375 134.691406 52.21875 134.578125 53.9375 134.085938 C 54.234375 133.992188 54.546875 133.9375 54.8125 133.769531 C 55.84375 133.160156 56.835938 132.457031 57.671875 131.589844 C 58.316406 130.921875 58.867188 130.152344 59.226562 129.289062 C 59.527344 128.628906 59.675781 127.917969 59.746094 127.195312 L 59.746094 126.40625 C 59.714844 125.914062 59.65625 125.425781 59.542969 124.945312 C 59.171875 123.3125 58.40625 121.796875 57.535156 120.382812 C 56.085938 118.0625 54.320312 115.96875 52.515625 113.925781 C 51.378906 112.640625 50.214844 111.386719 49.050781 110.128906 C 46.710938 107.585938 44.34375 105.0625 42.277344 102.285156 C 42.191406 102.171875 42.121094 102.054688 42.066406 101.925781 C 42.011719 101.742188 41.757812 101.738281 41.621094 101.816406 C 41.449219 101.933594 41.566406 102.175781 41.449219 102.328125 C 39.789062 105.128906 37.765625 107.679688 35.707031 110.183594 C 33.535156 112.824219 31.277344 115.398438 29.191406 118.113281 C 28.058594 119.59375 26.976562 121.117188 26.082031 122.757812 C 25.289062 124.21875 24.640625 125.804688 24.519531 127.476562 L 24.519531 128.183594 C 24.578125 129.074219 24.832031 129.957031 25.292969 130.71875 Z M 25.292969 130.71875 " fill-opacity="1" fill-rule="nonzero"/></g><g clip-path="url(#id12)"><path fill="#ff0000" d="M 70.519531 130.71875 C 71.214844 131.886719 72.292969 132.773438 73.445312 133.460938 C 73.722656 133.617188 73.988281 133.789062 74.28125 133.90625 C 76.042969 134.492188 77.957031 134.738281 79.777344 134.304688 C 81.34375 133.945312 82.769531 133.066406 83.882812 131.90625 C 85.359375 130.378906 86.351562 128.449219 87.03125 126.449219 C 87.152344 126.746094 87.246094 127.054688 87.363281 127.351562 C 87.984375 128.933594 88.839844 130.4375 89.984375 131.6875 C 91.03125 132.835938 92.367188 133.738281 93.855469 134.175781 C 95.585938 134.691406 97.441406 134.578125 99.164062 134.085938 C 99.460938 133.992188 99.773438 133.9375 100.035156 133.769531 C 101.070312 133.160156 102.0625 132.457031 102.898438 131.589844 C 103.542969 130.921875 104.089844 130.152344 104.453125 129.289062 C 104.753906 128.628906 104.902344 127.917969 104.972656 127.195312 L 104.972656 126.40625 C 104.941406 125.914062 104.878906 125.425781 104.769531 124.945312 C 104.394531 123.3125 103.632812 121.796875 102.761719 120.382812 C 101.3125 118.0625 99.546875 115.96875 97.742188 113.925781 C 96.605469 112.640625 95.4375 111.386719 94.277344 110.128906 C 91.9375 107.585938 89.570312 105.0625 87.503906 102.285156 C 87.417969 102.171875 87.34375 102.054688 87.292969 101.925781 C 87.234375 101.742188 86.984375 101.738281 86.847656 101.816406 C 86.675781 101.933594 86.789062 102.175781 86.675781 102.328125 C 85.015625 105.128906 82.992188 107.679688 80.933594 110.183594 C 78.757812 112.824219 76.503906 115.398438 74.417969 118.113281 C 73.285156 119.59375 72.203125 121.117188 71.308594 122.757812 C 70.515625 124.21875 69.863281 125.804688 69.746094 127.476562 L 69.746094 128.183594 C 69.800781 129.074219 70.058594 129.957031 70.519531 130.71875 Z M 70.519531 130.71875 " fill-opacity="1" fill-rule="nonzero"/></g></svg>