<svg xmlns="http://www.w3.org/2000/svg" xmlns:xlink="http://www.w3.org/1999/xlink" width="170" zoomAndPan="magnify" viewBox="0 0 127.5 178.499993" height="238" preserveAspectRatio="xMidYMid meet" version="1.0"><defs><g/><clipPath id="id1"><path d="M 0 0.0976562 L 127 0.0976562 L 127 177.902344 L 0 177.902344 Z M 0 0.0976562 " clip-rule="nonzero"/></clipPath><clipPath id="id2"><path d="M 4.582031 22 L 21.082031 22 L 21.082031 36.945312 L 4.582031 36.945312 Z M 4.582031 22 " clip-rule="nonzero"/></clipPath><clipPath id="id3"><path d="M 106.417969 141.746094 L 122.917969 141.746094 L 122.917969 156.746094 L 106.417969 156.746094 Z M 106.417969 141.746094 " clip-rule="nonzero"/></clipPath><clipPath id="id4"><path d="M 70.261719 134.664062 L 105.511719 134.664062 L 105.511719 167.664062 L 70.261719 167.664062 Z M 70.261719 134.664062 " clip-rule="nonzero"/></clipPath><clipPath id="id5"><path d="M 69.441406 11.023438 L 105.441406 11.023438 L 105.441406 44.773438 L 69.441406 44.773438 Z M 69.441406 11.023438 " clip-rule="nonzero"/></clipPath><clipPath id="id6"><path d="M 24.214844 11.023438 L 60.214844 11.023438 L 60.214844 44.773438 L 24.214844 44.773438 Z M 24.214844 11.023438 " clip-rule="nonzero"/></clipPath><clipPath id="id7"><path d="M 25.039062 134.664062 L 60.289062 134.664062 L 60.289062 167.664062 L 25.039062 167.664062 Z M 25.039062 134.664062 " clip-rule="nonzero"/></clipPath><clipPath id="id8"><path d="M 26.363281 74.386719 L 58.613281 74.386719 L 58.613281 104.386719 L 26.363281 104.386719 Z M 26.363281 74.386719 " clip-rule="nonzero"/></clipPath><clipPath id="id9"><path d="M 73.210938 74.386719 L 105.460938 74.386719 L 105.460938 104.386719 L 73.210938 104.386719 Z M 73.210938 74.386719 " clip-rule="nonzero"/></clipPath><clipPath id="id10"><path d="M 49.898438 44.441406 L 77.648438 44.441406 L 77.648438 69.941406 L 49.898438 69.941406 Z M 49.898438 44.441406 " clip-rule="nonzero"/></clipPath><clipPath id="id11"><path d="M 49.851562 108.496094 L 77.601562 108.496094 L 77.601562 134.746094 L 49.851562 134.746094 Z M 49.851562 108.496094 " clip-rule="nonzero"/></clipPath></defs><g clip-path="url(#id1)"><path fill="#ffffff" d="M 0 0.0976562 L 127.5 0.0976562 L 127.5 186.097656 L 0 186.097656 Z M 0 0.0976562 " fill-opacity="1" fill-rule="nonzero"/><path fill="#ffffff" d="M 0 0.0976562 L 127.5 0.0976562 L 127.5 178.597656 L 0 178.597656 Z M 0 0.0976562 " fill-opacity="1" fill-rule="nonzero"/><path fill="#ffffff" d="M 0 0.0976562 L 127.5 0.0976562 L 127.5 178.597656 L 0 178.597656 Z M 0 0.0976562 " fill-opacity="1" fill-rule="nonzero"/><path fill="#ffffff" d="M 0 0.0976562 L 127.5 0.0976562 L 127.5 178.597656 L 0 178.597656 Z M 0 0.0976562 " fill-opacity="1" fill-rule="nonzero"/></g><g fill="#d41e1e" fill-opacity="1"><g transform="translate(7.167187, 17.772726)"><g><path d="M 4.546875 -6.71875 C 3.367188 -6.78125 2.445312 -7.078125 1.78125 -7.609375 C 1.125 -8.140625 0.796875 -8.820312 0.796875 -9.65625 C 0.796875 -10.6875 1.203125 -11.5 2.015625 -12.09375 C 2.835938 -12.6875 4.035156 -12.984375 5.609375 -12.984375 C 7.179688 -12.984375 8.367188 -12.703125 9.171875 -12.140625 C 9.972656 -11.585938 10.375 -10.835938 10.375 -9.890625 C 10.375 -8.941406 10.0625 -8.195312 9.4375 -7.65625 C 8.820312 -7.113281 7.929688 -6.800781 6.765625 -6.71875 L 6.765625 -6.671875 C 9.390625 -6.453125 10.703125 -5.335938 10.703125 -3.328125 C 10.703125 -2.160156 10.289062 -1.28125 9.46875 -0.6875 C 8.644531 -0.101562 7.363281 0.1875 5.625 0.1875 C 2.175781 0.1875 0.453125 -0.976562 0.453125 -3.3125 C 0.453125 -5.363281 1.816406 -6.484375 4.546875 -6.671875 Z M 7.21875 -3.328125 C 7.21875 -4.453125 7.109375 -5.257812 6.890625 -5.75 C 6.671875 -6.238281 6.242188 -6.484375 5.609375 -6.484375 C 4.984375 -6.484375 4.5625 -6.234375 4.34375 -5.734375 C 4.125 -5.242188 4.015625 -4.4375 4.015625 -3.3125 C 4.015625 -2.1875 4.117188 -1.382812 4.328125 -0.90625 C 4.546875 -0.4375 4.976562 -0.203125 5.625 -0.203125 C 6.269531 -0.203125 6.695312 -0.441406 6.90625 -0.921875 C 7.113281 -1.398438 7.21875 -2.203125 7.21875 -3.328125 Z M 5.625 -12.609375 C 5.09375 -12.609375 4.75 -12.390625 4.59375 -11.953125 C 4.4375 -11.523438 4.359375 -10.941406 4.359375 -10.203125 C 4.359375 -9.460938 4.363281 -8.96875 4.375 -8.71875 C 4.394531 -8.46875 4.425781 -8.207031 4.46875 -7.9375 C 4.507812 -7.675781 4.578125 -7.476562 4.671875 -7.34375 C 4.878906 -7.050781 5.21875 -6.90625 5.6875 -6.90625 C 6.09375 -6.90625 6.398438 -7.050781 6.609375 -7.34375 C 6.765625 -7.570312 6.847656 -7.914062 6.859375 -8.375 C 6.878906 -8.832031 6.890625 -9.4375 6.890625 -10.1875 C 6.890625 -10.9375 6.8125 -11.523438 6.65625 -11.953125 C 6.5 -12.390625 6.15625 -12.609375 5.625 -12.609375 Z M 5.625 -12.609375 "/></g></g></g><g fill="#d41e1e" fill-opacity="1"><g transform="translate(121.078249, 160.923988)"><g><path d="M -4.546875 6.71875 C -3.367188 6.78125 -2.445312 7.078125 -1.78125 7.609375 C -1.125 8.140625 -0.796875 8.820312 -0.796875 9.65625 C -0.796875 10.6875 -1.203125 11.5 -2.015625 12.09375 C -2.835938 12.6875 -4.035156 12.984375 -5.609375 12.984375 C -7.179688 12.984375 -8.367188 12.703125 -9.171875 12.140625 C -9.972656 11.585938 -10.375 10.835938 -10.375 9.890625 C -10.375 8.941406 -10.0625 8.195312 -9.4375 7.65625 C -8.820312 7.113281 -7.929688 6.800781 -6.765625 6.71875 L -6.765625 6.671875 C -9.390625 6.453125 -10.703125 5.335938 -10.703125 3.328125 C -10.703125 2.160156 -10.289062 1.28125 -9.46875 0.6875 C -8.644531 0.101562 -7.363281 -0.1875 -5.625 -0.1875 C -2.175781 -0.1875 -0.453125 0.976562 -0.453125 3.3125 C -0.453125 5.363281 -1.816406 6.484375 -4.546875 6.671875 Z M -7.21875 3.328125 C -7.21875 4.453125 -7.109375 5.257812 -6.890625 5.75 C -6.671875 6.238281 -6.242188 6.484375 -5.609375 6.484375 C -4.984375 6.484375 -4.5625 6.234375 -4.34375 5.734375 C -4.125 5.242188 -4.015625 4.4375 -4.015625 3.3125 C -4.015625 2.1875 -4.117188 1.382812 -4.328125 0.90625 C -4.546875 0.4375 -4.976562 0.203125 -5.625 0.203125 C -6.269531 0.203125 -6.695312 0.441406 -6.90625 0.921875 C -7.113281 1.398438 -7.21875 2.203125 -7.21875 3.328125 Z M -5.625 12.609375 C -5.09375 12.609375 -4.75 12.390625 -4.59375 11.953125 C -4.4375 11.523438 -4.359375 10.941406 -4.359375 10.203125 C -4.359375 9.460938 -4.363281 8.96875 -4.375 8.71875 C -4.394531 8.46875 -4.425781 8.207031 -4.46875 7.9375 C -4.507812 7.675781 -4.578125 7.476562 -4.671875 7.34375 C -4.878906 7.050781 -5.21875 6.90625 -5.6875 6.90625 C -6.09375 6.90625 -6.398438 7.050781 -6.609375 7.34375 C -6.765625 7.570312 -6.847656 7.914062 -6.859375 8.375 C -6.878906 8.832031 -6.890625 9.4375 -6.890625 10.1875 C -6.890625 10.9375 -6.8125 11.523438 -6.65625 11.953125 C -6.5 12.390625 -6.15625 12.609375 -5.625 12.609375 Z M -5.625 12.609375 "/></g></g></g><g clip-path="url(#id2)"><path fill="#ff0000" d="M 20.710938 23.773438 C 20.386719 23.242188 19.882812 22.839844 19.34375 22.527344 C 19.214844 22.457031 19.085938 22.375 18.953125 22.324219 C 18.128906 22.058594 17.230469 21.945312 16.378906 22.140625 C 15.644531 22.304688 14.976562 22.703125 14.457031 23.234375 C 13.765625 23.925781 13.300781 24.804688 12.984375 25.714844 C 12.925781 25.578125 12.882812 25.4375 12.828125 25.300781 C 12.539062 24.585938 12.136719 23.898438 11.601562 23.332031 C 11.109375 22.808594 10.488281 22.398438 9.789062 22.199219 C 8.980469 21.964844 8.109375 22.019531 7.304688 22.242188 C 7.167969 22.285156 7.019531 22.308594 6.894531 22.386719 C 6.410156 22.660156 5.949219 22.980469 5.554688 23.375 C 5.253906 23.679688 4.996094 24.03125 4.828125 24.421875 C 4.6875 24.722656 4.617188 25.046875 4.585938 25.375 L 4.585938 25.734375 C 4.601562 25.957031 4.628906 26.179688 4.679688 26.398438 C 4.855469 27.140625 5.210938 27.828125 5.621094 28.46875 C 6.296875 29.523438 7.125 30.476562 7.96875 31.40625 C 8.5 31.988281 9.046875 32.558594 9.59375 33.132812 C 10.6875 34.289062 11.796875 35.433594 12.761719 36.695312 C 12.804688 36.746094 12.835938 36.800781 12.859375 36.859375 C 12.886719 36.945312 13.003906 36.945312 13.070312 36.910156 C 13.148438 36.855469 13.097656 36.746094 13.148438 36.675781 C 13.925781 35.402344 14.875 34.246094 15.835938 33.105469 C 16.855469 31.90625 17.910156 30.738281 18.886719 29.503906 C 19.417969 28.828125 19.925781 28.136719 20.34375 27.390625 C 20.714844 26.726562 21.019531 26.007812 21.074219 25.246094 L 21.074219 24.925781 C 21.046875 24.519531 20.929688 24.117188 20.710938 23.773438 Z M 20.710938 23.773438 " fill-opacity="1" fill-rule="nonzero"/></g><g clip-path="url(#id3)"><path fill="#ff0000" d="M 106.785156 154.921875 C 107.109375 155.453125 107.613281 155.855469 108.152344 156.167969 C 108.28125 156.238281 108.410156 156.316406 108.542969 156.371094 C 109.367188 156.636719 110.265625 156.746094 111.117188 156.550781 C 111.851562 156.386719 112.519531 155.988281 113.039062 155.460938 C 113.730469 154.765625 114.195312 153.890625 114.511719 152.980469 C 114.570312 153.117188 114.613281 153.253906 114.667969 153.390625 C 114.957031 154.109375 115.359375 154.792969 115.894531 155.363281 C 116.386719 155.882812 117.007812 156.292969 117.707031 156.492188 C 118.515625 156.726562 119.386719 156.675781 120.191406 156.453125 C 120.328125 156.410156 120.476562 156.382812 120.601562 156.308594 C 121.085938 156.03125 121.546875 155.710938 121.941406 155.316406 C 122.242188 155.015625 122.5 154.664062 122.667969 154.269531 C 122.808594 153.972656 122.878906 153.648438 122.910156 153.320312 L 122.910156 152.960938 C 122.894531 152.738281 122.867188 152.515625 122.816406 152.296875 C 122.640625 151.554688 122.285156 150.867188 121.875 150.222656 C 121.199219 149.167969 120.371094 148.214844 119.527344 147.285156 C 118.996094 146.703125 118.449219 146.132812 117.902344 145.5625 C 116.808594 144.40625 115.699219 143.257812 114.734375 141.996094 C 114.691406 141.945312 114.660156 141.890625 114.636719 141.832031 C 114.609375 141.75 114.492188 141.746094 114.425781 141.785156 C 114.347656 141.835938 114.398438 141.949219 114.347656 142.015625 C 113.570312 143.289062 112.621094 144.449219 111.660156 145.585938 C 110.640625 146.789062 109.585938 147.957031 108.609375 149.191406 C 108.078125 149.863281 107.570312 150.554688 107.152344 151.304688 C 106.78125 151.964844 106.476562 152.6875 106.421875 153.449219 L 106.421875 153.769531 C 106.449219 154.175781 106.566406 154.574219 106.785156 154.921875 Z M 106.785156 154.921875 " fill-opacity="1" fill-rule="nonzero"/></g><g clip-path="url(#id4)"><path fill="#ff0000" d="M 71.050781 163.644531 C 71.746094 164.816406 72.824219 165.703125 73.972656 166.386719 C 74.25 166.542969 74.519531 166.71875 74.808594 166.832031 C 76.570312 167.421875 78.488281 167.664062 80.304688 167.234375 C 81.875 166.875 83.300781 165.996094 84.414062 164.835938 C 85.890625 163.308594 86.878906 161.375 87.5625 159.378906 C 87.679688 159.675781 87.773438 159.984375 87.894531 160.28125 C 88.515625 161.863281 89.367188 163.367188 90.511719 164.617188 C 91.5625 165.765625 92.894531 166.667969 94.382812 167.105469 C 96.113281 167.621094 97.972656 167.503906 99.695312 167.015625 C 99.988281 166.921875 100.300781 166.863281 100.566406 166.699219 C 101.601562 166.089844 102.589844 165.386719 103.429688 164.519531 C 104.070312 163.851562 104.621094 163.082031 104.980469 162.21875 C 105.28125 161.558594 105.429688 160.847656 105.5 160.125 L 105.5 159.332031 C 105.472656 158.84375 105.410156 158.355469 105.300781 157.875 C 104.925781 156.238281 104.164062 154.726562 103.292969 153.3125 C 101.84375 150.992188 100.078125 148.894531 98.273438 146.851562 C 97.136719 145.570312 95.96875 144.316406 94.804688 143.054688 C 92.46875 140.515625 90.097656 137.992188 88.035156 135.214844 C 87.945312 135.101562 87.875 134.980469 87.824219 134.851562 C 87.765625 134.671875 87.515625 134.664062 87.378906 134.746094 C 87.207031 134.863281 87.320312 135.105469 87.207031 135.257812 C 85.546875 138.058594 83.519531 140.609375 81.464844 143.113281 C 79.289062 145.753906 77.035156 148.324219 74.945312 151.042969 C 73.816406 152.523438 72.730469 154.046875 71.839844 155.6875 C 71.046875 157.148438 70.394531 158.734375 70.273438 160.40625 L 70.273438 161.113281 C 70.332031 162.003906 70.585938 162.886719 71.050781 163.644531 Z M 71.050781 163.644531 " fill-opacity="1" fill-rule="nonzero"/></g><g clip-path="url(#id5)"><path fill="#ff0000" d="M 104.640625 15.132812 C 103.929688 13.9375 102.828125 13.03125 101.652344 12.328125 C 101.371094 12.167969 101.09375 11.992188 100.796875 11.875 C 99 11.273438 97.042969 11.023438 95.1875 11.464844 C 93.585938 11.832031 92.128906 12.730469 90.988281 13.917969 C 89.484375 15.480469 88.472656 17.453125 87.773438 19.5 C 87.652344 19.195312 87.558594 18.878906 87.4375 18.574219 C 86.800781 16.957031 85.929688 15.421875 84.761719 14.140625 C 83.691406 12.964844 82.328125 12.042969 80.808594 11.597656 C 79.039062 11.066406 77.140625 11.1875 75.382812 11.6875 C 75.082031 11.78125 74.761719 11.84375 74.492188 12.011719 C 73.433594 12.632812 72.421875 13.351562 71.570312 14.242188 C 70.914062 14.925781 70.351562 15.710938 69.980469 16.59375 C 69.675781 17.269531 69.523438 17.996094 69.449219 18.734375 L 69.449219 19.542969 C 69.480469 20.046875 69.546875 20.546875 69.65625 21.039062 C 70.039062 22.707031 70.816406 24.257812 71.707031 25.703125 C 73.1875 28.074219 74.992188 30.21875 76.835938 32.308594 C 77.996094 33.621094 79.1875 34.902344 80.375 36.191406 C 82.761719 38.792969 85.183594 41.371094 87.292969 44.210938 C 87.382812 44.328125 87.453125 44.449219 87.507812 44.582031 C 87.566406 44.769531 87.824219 44.773438 87.960938 44.691406 C 88.136719 44.574219 88.019531 44.320312 88.136719 44.167969 C 89.832031 41.304688 91.902344 38.695312 94.003906 36.132812 C 96.226562 33.433594 98.527344 30.800781 100.660156 28.023438 C 101.816406 26.507812 102.921875 24.953125 103.835938 23.273438 C 104.644531 21.78125 105.308594 20.160156 105.429688 18.449219 L 105.429688 17.722656 C 105.371094 16.8125 105.113281 15.910156 104.640625 15.132812 Z M 104.640625 15.132812 " fill-opacity="1" fill-rule="nonzero"/></g><g clip-path="url(#id6)"><path fill="#ff0000" d="M 59.414062 15.132812 C 58.703125 13.9375 57.601562 13.03125 56.425781 12.328125 C 56.144531 12.167969 55.871094 11.992188 55.574219 11.875 C 53.773438 11.273438 51.816406 11.023438 49.960938 11.464844 C 48.359375 11.832031 46.902344 12.730469 45.765625 13.917969 C 44.257812 15.480469 43.246094 17.453125 42.546875 19.5 C 42.425781 19.195312 42.332031 18.878906 42.210938 18.574219 C 41.578125 16.957031 40.703125 15.421875 39.535156 14.140625 C 38.464844 12.964844 37.101562 12.042969 35.582031 11.597656 C 33.8125 11.066406 31.914062 11.1875 30.15625 11.6875 C 29.855469 11.78125 29.535156 11.84375 29.265625 12.011719 C 28.210938 12.632812 27.199219 13.351562 26.34375 14.242188 C 25.6875 14.925781 25.125 15.710938 24.753906 16.59375 C 24.449219 17.269531 24.296875 17.996094 24.226562 18.734375 L 24.226562 19.542969 C 24.257812 20.046875 24.320312 20.546875 24.433594 21.039062 C 24.8125 22.707031 25.59375 24.257812 26.484375 25.703125 C 27.960938 28.074219 29.765625 30.21875 31.609375 32.308594 C 32.769531 33.621094 33.960938 34.902344 35.148438 36.191406 C 37.539062 38.792969 39.957031 41.371094 42.066406 44.210938 C 42.15625 44.328125 42.230469 44.449219 42.28125 44.582031 C 42.339844 44.769531 42.597656 44.773438 42.738281 44.691406 C 42.914062 44.574219 42.796875 44.320312 42.914062 44.167969 C 44.609375 41.304688 46.675781 38.695312 48.777344 36.132812 C 51 33.433594 53.300781 30.800781 55.433594 28.023438 C 56.589844 26.507812 57.695312 24.953125 58.609375 23.273438 C 59.417969 21.78125 60.085938 20.160156 60.207031 18.449219 L 60.207031 17.722656 C 60.148438 16.8125 59.886719 15.910156 59.414062 15.132812 Z M 59.414062 15.132812 " fill-opacity="1" fill-rule="nonzero"/></g><g clip-path="url(#id7)"><path fill="#ff0000" d="M 25.824219 163.644531 C 26.519531 164.816406 27.597656 165.703125 28.75 166.386719 C 29.027344 166.542969 29.292969 166.71875 29.585938 166.832031 C 31.347656 167.421875 33.261719 167.664062 35.082031 167.234375 C 36.648438 166.875 38.074219 165.996094 39.1875 164.835938 C 40.664062 163.308594 41.65625 161.375 42.335938 159.378906 C 42.457031 159.675781 42.546875 159.984375 42.667969 160.28125 C 43.289062 161.863281 44.140625 163.367188 45.289062 164.617188 C 46.335938 165.765625 47.667969 166.667969 49.15625 167.105469 C 50.886719 167.621094 52.746094 167.503906 54.46875 167.015625 C 54.761719 166.921875 55.074219 166.863281 55.339844 166.699219 C 56.375 166.089844 57.367188 165.386719 58.203125 164.519531 C 58.84375 163.851562 59.394531 163.082031 59.757812 162.21875 C 60.054688 161.558594 60.207031 160.847656 60.277344 160.125 L 60.277344 159.332031 C 60.246094 158.84375 60.183594 158.355469 60.074219 157.875 C 59.699219 156.238281 58.9375 154.726562 58.066406 153.3125 C 56.617188 150.992188 54.851562 148.894531 53.046875 146.851562 C 51.910156 145.570312 50.742188 144.316406 49.582031 143.054688 C 47.242188 140.515625 44.875 137.992188 42.808594 135.214844 C 42.71875 135.101562 42.648438 134.980469 42.597656 134.851562 C 42.539062 134.671875 42.289062 134.664062 42.152344 134.746094 C 41.980469 134.863281 42.09375 135.105469 41.980469 135.257812 C 40.320312 138.058594 38.292969 140.609375 36.238281 143.113281 C 34.0625 145.753906 31.808594 148.324219 29.722656 151.042969 C 28.589844 152.523438 27.507812 154.046875 26.613281 155.6875 C 25.820312 157.148438 25.167969 158.734375 25.050781 160.40625 L 25.050781 161.113281 C 25.105469 162.003906 25.363281 162.886719 25.824219 163.644531 Z M 25.824219 163.644531 " fill-opacity="1" fill-rule="nonzero"/></g><g clip-path="url(#id8)"><path fill="#ff0000" d="M 57.890625 78.039062 C 57.257812 76.976562 56.269531 76.167969 55.21875 75.546875 C 54.964844 75.40625 54.71875 75.246094 54.453125 75.140625 C 52.839844 74.609375 51.089844 74.386719 49.425781 74.777344 C 47.992188 75.105469 46.6875 75.902344 45.667969 76.957031 C 44.316406 78.347656 43.410156 80.101562 42.789062 81.917969 C 42.679688 81.648438 42.59375 81.371094 42.484375 81.097656 C 41.917969 79.660156 41.136719 78.292969 40.089844 77.15625 C 39.128906 76.113281 37.910156 75.292969 36.546875 74.894531 C 34.964844 74.425781 33.265625 74.53125 31.691406 74.976562 C 31.421875 75.0625 31.132812 75.113281 30.894531 75.261719 C 29.945312 75.816406 29.039062 76.457031 28.273438 77.246094 C 27.6875 77.851562 27.183594 78.554688 26.851562 79.339844 C 26.578125 79.9375 26.441406 80.585938 26.378906 81.238281 L 26.378906 81.960938 C 26.40625 82.40625 26.460938 82.851562 26.5625 83.289062 C 26.90625 84.773438 27.601562 86.148438 28.398438 87.433594 C 29.722656 89.542969 31.339844 91.449219 32.992188 93.304688 C 34.03125 94.472656 35.097656 95.613281 36.160156 96.757812 C 38.300781 99.066406 40.46875 101.363281 42.355469 103.886719 C 42.4375 103.988281 42.5 104.097656 42.550781 104.214844 C 42.601562 104.382812 42.832031 104.386719 42.957031 104.3125 C 43.113281 104.207031 43.007812 103.984375 43.113281 103.847656 C 44.632812 101.300781 46.484375 98.984375 48.367188 96.707031 C 50.355469 94.304688 52.417969 91.96875 54.328125 89.5 C 55.363281 88.152344 56.355469 86.765625 57.171875 85.273438 C 57.894531 83.945312 58.492188 82.507812 58.601562 80.984375 L 58.601562 80.339844 C 58.550781 79.53125 58.316406 78.730469 57.890625 78.039062 Z M 57.890625 78.039062 " fill-opacity="1" fill-rule="nonzero"/></g><g clip-path="url(#id9)"><path fill="#ff0000" d="M 104.738281 78.039062 C 104.101562 76.976562 103.113281 76.167969 102.0625 75.546875 C 101.808594 75.40625 101.5625 75.246094 101.296875 75.140625 C 99.6875 74.609375 97.933594 74.386719 96.269531 74.777344 C 94.835938 75.105469 93.53125 75.902344 92.511719 76.957031 C 91.164062 78.347656 90.257812 80.101562 89.632812 81.917969 C 89.523438 81.648438 89.4375 81.371094 89.332031 81.097656 C 88.761719 79.660156 87.980469 78.292969 86.933594 77.15625 C 85.976562 76.113281 84.753906 75.292969 83.394531 74.894531 C 81.808594 74.425781 80.109375 74.53125 78.535156 74.976562 C 78.265625 75.0625 77.980469 75.113281 77.738281 75.261719 C 76.792969 75.816406 75.882812 76.457031 75.121094 77.246094 C 74.53125 77.851562 74.027344 78.554688 73.699219 79.339844 C 73.421875 79.9375 73.285156 80.585938 73.222656 81.238281 L 73.222656 81.960938 C 73.25 82.40625 73.308594 82.851562 73.40625 83.289062 C 73.75 84.773438 74.445312 86.148438 75.246094 87.433594 C 76.570312 89.542969 78.183594 91.449219 79.835938 93.304688 C 80.875 94.472656 81.941406 95.613281 83.007812 96.757812 C 85.144531 99.066406 87.3125 101.363281 89.203125 103.886719 C 89.28125 103.988281 89.347656 104.097656 89.394531 104.214844 C 89.445312 104.382812 89.675781 104.386719 89.800781 104.3125 C 89.957031 104.207031 89.855469 103.984375 89.957031 103.847656 C 91.476562 101.300781 93.328125 98.984375 95.210938 96.707031 C 97.199219 94.304688 99.261719 91.96875 101.171875 89.5 C 102.207031 88.152344 103.199219 86.765625 104.015625 85.273438 C 104.742188 83.945312 105.335938 82.507812 105.445312 80.984375 L 105.445312 80.339844 C 105.394531 79.53125 105.160156 78.730469 104.738281 78.039062 Z M 104.738281 78.039062 " fill-opacity="1" fill-rule="nonzero"/></g><g clip-path="url(#id10)"><path fill="#ff0000" d="M 77.023438 47.546875 C 76.476562 46.644531 75.628906 45.957031 74.722656 45.429688 C 74.503906 45.308594 74.292969 45.175781 74.066406 45.085938 C 72.679688 44.632812 71.171875 44.441406 69.738281 44.777344 C 68.507812 45.054688 67.382812 45.730469 66.507812 46.628906 C 65.34375 47.808594 64.566406 49.300781 64.027344 50.847656 C 63.933594 50.617188 63.863281 50.378906 63.769531 50.148438 C 63.28125 48.925781 62.605469 47.765625 61.707031 46.796875 C 60.882812 45.910156 59.832031 45.210938 58.660156 44.875 C 57.296875 44.476562 55.835938 44.566406 54.480469 44.945312 C 54.246094 45.015625 54 45.0625 53.792969 45.1875 C 52.980469 45.660156 52.199219 46.203125 51.539062 46.875 C 51.035156 47.390625 50.601562 47.984375 50.316406 48.652344 C 50.082031 49.160156 49.964844 49.710938 49.910156 50.269531 L 49.910156 50.878906 C 49.933594 51.257812 49.980469 51.636719 50.066406 52.007812 C 50.363281 53.269531 50.960938 54.441406 51.648438 55.535156 C 52.789062 57.324219 54.179688 58.945312 55.597656 60.523438 C 56.492188 61.515625 57.410156 62.484375 58.328125 63.457031 C 60.167969 65.421875 62.03125 67.371094 63.65625 69.519531 C 63.726562 69.605469 63.78125 69.699219 63.824219 69.796875 C 63.867188 69.9375 64.066406 69.941406 64.171875 69.878906 C 64.308594 69.789062 64.21875 69.601562 64.308594 69.484375 C 65.617188 67.320312 67.210938 65.351562 68.828125 63.414062 C 70.539062 61.375 72.316406 59.386719 73.957031 57.289062 C 74.847656 56.144531 75.703125 54.964844 76.40625 53.699219 C 77.027344 52.570312 77.542969 51.34375 77.636719 50.050781 L 77.636719 49.503906 C 77.589844 48.816406 77.390625 48.136719 77.023438 47.546875 Z M 77.023438 47.546875 " fill-opacity="1" fill-rule="nonzero"/></g><g clip-path="url(#id11)"><path fill="#ff0000" d="M 50.46875 131.550781 C 51.015625 132.480469 51.863281 133.1875 52.769531 133.730469 C 52.988281 133.855469 53.199219 133.992188 53.429688 134.085938 C 54.816406 134.554688 56.324219 134.746094 57.753906 134.402344 C 58.988281 134.117188 60.113281 133.417969 60.988281 132.496094 C 62.152344 131.28125 62.929688 129.746094 63.46875 128.15625 C 63.5625 128.390625 63.636719 128.636719 63.730469 128.875 C 64.21875 130.128906 64.890625 131.328125 65.792969 132.320312 C 66.617188 133.234375 67.667969 133.953125 68.839844 134.300781 C 70.203125 134.710938 71.664062 134.621094 73.019531 134.230469 C 73.253906 134.15625 73.5 134.109375 73.707031 133.980469 C 74.523438 133.496094 75.300781 132.933594 75.960938 132.246094 C 76.46875 131.714844 76.902344 131.101562 77.183594 130.414062 C 77.421875 129.890625 77.539062 129.324219 77.59375 128.75 L 77.59375 128.121094 C 77.570312 127.730469 77.519531 127.339844 77.433594 126.957031 C 77.140625 125.660156 76.539062 124.453125 75.855469 123.328125 C 74.714844 121.484375 73.324219 119.816406 71.902344 118.191406 C 71.007812 117.171875 70.085938 116.171875 69.171875 115.171875 C 67.332031 113.148438 65.464844 111.140625 63.839844 108.933594 C 63.769531 108.84375 63.714844 108.75 63.671875 108.644531 C 63.628906 108.5 63.429688 108.496094 63.324219 108.5625 C 63.1875 108.652344 63.277344 108.847656 63.1875 108.96875 C 61.882812 111.195312 60.285156 113.222656 58.667969 115.21875 C 56.953125 117.316406 55.179688 119.363281 53.535156 121.523438 C 52.644531 122.703125 51.792969 123.914062 51.085938 125.21875 C 50.464844 126.382812 49.949219 127.640625 49.855469 128.972656 L 49.855469 129.535156 C 49.902344 130.242188 50.101562 130.945312 50.46875 131.550781 Z M 50.46875 131.550781 " fill-opacity="1" fill-rule="nonzero"/></g></svg>