<svg xmlns="http://www.w3.org/2000/svg" xmlns:xlink="http://www.w3.org/1999/xlink" width="170" zoomAndPan="magnify" viewBox="0 0 127.5 178.499993" height="238" preserveAspectRatio="xMidYMid meet" version="1.0"><defs><g/><clipPath id="id1"><path d="M 0 0.0976562 L 127 0.0976562 L 127 177.902344 L 0 177.902344 Z M 0 0.0976562 " clip-rule="nonzero"/></clipPath><clipPath id="id2"><path d="M 4.582031 22 L 21.082031 22 L 21.082031 36.945312 L 4.582031 36.945312 Z M 4.582031 22 " clip-rule="nonzero"/></clipPath><clipPath id="id3"><path d="M 106.417969 141.746094 L 122.917969 141.746094 L 122.917969 156.746094 L 106.417969 156.746094 Z M 106.417969 141.746094 " clip-rule="nonzero"/></clipPath><clipPath id="id4"><path d="M 70.261719 134.664062 L 105.511719 134.664062 L 105.511719 167.664062 L 70.261719 167.664062 Z M 70.261719 134.664062 " clip-rule="nonzero"/></clipPath><clipPath id="id5"><path d="M 69.441406 11.023438 L 105.441406 11.023438 L 105.441406 44.773438 L 69.441406 44.773438 Z M 69.441406 11.023438 " clip-rule="nonzero"/></clipPath><clipPath id="id6"><path d="M 24.214844 11.023438 L 60.214844 11.023438 L 60.214844 44.773438 L 24.214844 44.773438 Z M 24.214844 11.023438 " clip-rule="nonzero"/></clipPath><clipPath id="id7"><path d="M 25.039062 134.664062 L 60.289062 134.664062 L 60.289062 167.664062 L 25.039062 167.664062 Z M 25.039062 134.664062 " clip-rule="nonzero"/></clipPath><clipPath id="id8"><path d="M 26.097656 74.386719 L 58.347656 74.386719 L 58.347656 104.386719 L 26.097656 104.386719 Z M 26.097656 74.386719 " clip-rule="nonzero"/></clipPath><clipPath id="id9"><path d="M 71.324219 74.386719 L 103.574219 74.386719 L 103.574219 104.386719 L 71.324219 104.386719 Z M 71.324219 74.386719 " clip-rule="nonzero"/></clipPath></defs><g clip-path="url(#id1)"><path fill="#ffffff" d="M 0 0.0976562 L 127.5 0.0976562 L 127.5 186.097656 L 0 186.097656 Z M 0 0.0976562 " fill-opacity="1" fill-rule="nonzero"/><path fill="#ffffff" d="M 0 0.0976562 L 127.5 0.0976562 L 127.5 178.597656 L 0 178.597656 Z M 0 0.0976562 " fill-opacity="1" fill-rule="nonzero"/><path fill="#ffffff" d="M 0 0.0976562 L 127.5 0.0976562 L 127.5 178.597656 L 0 178.597656 Z M 0 0.0976562 " fill-opacity="1" fill-rule="nonzero"/><path fill="#ffffff" d="M 0 0.0976562 L 127.5 0.0976562 L 127.5 178.597656 L 0 178.597656 Z M 0 0.0976562 " fill-opacity="1" fill-rule="nonzero"/></g><path fill="#d41e1e" d="M 7.121094 19.273438 L 18.359375 19.273438 L 18.359375 20.773438 L 7.121094 20.773438 Z M 7.121094 19.273438 " fill-opacity="1" fill-rule="nonzero"/><g fill="#d41e1e" fill-opacity="1"><g transform="translate(7.120312, 17.772726)"><g><path d="M 0.625 -5.625 C 0.625 -7.976562 1.148438 -9.789062 2.203125 -11.0625 C 3.253906 -12.34375 4.703125 -12.984375 6.546875 -12.984375 C 7.796875 -12.984375 8.753906 -12.726562 9.421875 -12.21875 C 10.097656 -11.71875 10.4375 -11.0625 10.4375 -10.25 C 10.4375 -9.78125 10.285156 -9.378906 9.984375 -9.046875 C 9.679688 -8.710938 9.285156 -8.546875 8.796875 -8.546875 C 8.316406 -8.546875 7.929688 -8.675781 7.640625 -8.9375 C 7.347656 -9.195312 7.203125 -9.503906 7.203125 -9.859375 C 7.203125 -10.222656 7.25 -10.539062 7.34375 -10.8125 L 7.921875 -10.8125 C 7.992188 -11.007812 8.03125 -11.226562 8.03125 -11.46875 C 8.03125 -12.238281 7.597656 -12.625 6.734375 -12.625 C 5.867188 -12.625 5.234375 -12.175781 4.828125 -11.28125 C 4.429688 -10.382812 4.226562 -8.84375 4.21875 -6.65625 C 4.851562 -7.632812 5.769531 -8.125 6.96875 -8.125 C 8.175781 -8.125 9.128906 -7.796875 9.828125 -7.140625 C 10.523438 -6.492188 10.875 -5.519531 10.875 -4.21875 C 10.875 -2.914062 10.414062 -1.851562 9.5 -1.03125 C 8.582031 -0.21875 7.359375 0.1875 5.828125 0.1875 C 2.359375 0.1875 0.625 -1.75 0.625 -5.625 Z M 6.046875 -7.53125 C 5.628906 -7.53125 5.273438 -7.375 4.984375 -7.0625 C 4.703125 -6.75 4.507812 -6.378906 4.40625 -5.953125 C 4.300781 -5.535156 4.25 -4.988281 4.25 -4.3125 C 4.25 -3.644531 4.253906 -3.175781 4.265625 -2.90625 C 4.273438 -2.644531 4.289062 -2.332031 4.3125 -1.96875 C 4.34375 -1.613281 4.390625 -1.351562 4.453125 -1.1875 C 4.515625 -1.03125 4.601562 -0.859375 4.71875 -0.671875 C 4.90625 -0.359375 5.210938 -0.203125 5.640625 -0.203125 C 6.066406 -0.203125 6.382812 -0.28125 6.59375 -0.4375 C 6.8125 -0.601562 6.96875 -0.882812 7.0625 -1.28125 C 7.207031 -1.851562 7.28125 -2.5625 7.28125 -3.40625 C 7.28125 -4.257812 7.273438 -4.828125 7.265625 -5.109375 C 7.265625 -5.390625 7.253906 -5.6875 7.234375 -6 C 7.210938 -6.3125 7.171875 -6.546875 7.109375 -6.703125 C 7.054688 -6.859375 6.988281 -7.007812 6.90625 -7.15625 C 6.75 -7.40625 6.460938 -7.53125 6.046875 -7.53125 Z M 6.046875 -7.53125 "/></g></g></g><path fill="#d41e1e" d="M 121.078125 159.425781 L 109.839844 159.425781 L 109.839844 157.925781 L 121.078125 157.925781 Z M 121.078125 159.425781 " fill-opacity="1" fill-rule="nonzero"/><g fill="#d41e1e" fill-opacity="1"><g transform="translate(121.078249, 160.923988)"><g><path d="M -0.625 5.625 C -0.625 7.976562 -1.148438 9.789062 -2.203125 11.0625 C -3.253906 12.34375 -4.703125 12.984375 -6.546875 12.984375 C -7.796875 12.984375 -8.753906 12.726562 -9.421875 12.21875 C -10.097656 11.71875 -10.4375 11.0625 -10.4375 10.25 C -10.4375 9.78125 -10.285156 9.378906 -9.984375 9.046875 C -9.679688 8.710938 -9.285156 8.546875 -8.796875 8.546875 C -8.316406 8.546875 -7.929688 8.675781 -7.640625 8.9375 C -7.347656 9.195312 -7.203125 9.503906 -7.203125 9.859375 C -7.203125 10.222656 -7.25 10.539062 -7.34375 10.8125 L -7.921875 10.8125 C -7.992188 11.007812 -8.03125 11.226562 -8.03125 11.46875 C -8.03125 12.238281 -7.597656 12.625 -6.734375 12.625 C -5.867188 12.625 -5.234375 12.175781 -4.828125 11.28125 C -4.429688 10.382812 -4.226562 8.84375 -4.21875 6.65625 C -4.851562 7.632812 -5.769531 8.125 -6.96875 8.125 C -8.175781 8.125 -9.128906 7.796875 -9.828125 7.140625 C -10.523438 6.492188 -10.875 5.519531 -10.875 4.21875 C -10.875 2.914062 -10.414062 1.851562 -9.5 1.03125 C -8.582031 0.21875 -7.359375 -0.1875 -5.828125 -0.1875 C -2.359375 -0.1875 -0.625 1.75 -0.625 5.625 Z M -6.046875 7.53125 C -5.628906 7.53125 -5.273438 7.375 -4.984375 7.0625 C -4.703125 6.75 -4.507812 6.378906 -4.40625 5.953125 C -4.300781 5.535156 -4.25 4.988281 -4.25 4.3125 C -4.25 3.644531 -4.253906 3.175781 -4.265625 2.90625 C -4.273438 2.644531 -4.289062 2.332031 -4.3125 1.96875 C -4.34375 1.613281 -4.390625 1.351562 -4.453125 1.1875 C -4.515625 1.03125 -4.601562 0.859375 -4.71875 0.671875 C -4.90625 0.359375 -5.210938 0.203125 -5.640625 0.203125 C -6.066406 0.203125 -6.382812 0.28125 -6.59375 0.4375 C -6.8125 0.601562 -6.96875 0.882812 -7.0625 1.28125 C -7.207031 1.851562 -7.28125 2.5625 -7.28125 3.40625 C -7.28125 4.257812 -7.273438 4.828125 -7.265625 5.109375 C -7.265625 5.390625 -7.253906 5.6875 -7.234375 6 C -7.210938 6.3125 -7.171875 6.546875 -7.109375 6.703125 C -7.054688 6.859375 -6.988281 7.007812 -6.90625 7.15625 C -6.75 7.40625 -6.460938 7.53125 -6.046875 7.53125 Z M -6.046875 7.53125 "/></g></g></g><g clip-path="url(#id2)"><path fill="#ff0000" d="M 20.710938 23.773438 C 20.386719 23.242188 19.882812 22.839844 19.34375 22.527344 C 19.214844 22.457031 19.085938 22.375 18.953125 22.324219 C 18.128906 22.058594 17.230469 21.945312 16.378906 22.140625 C 15.644531 22.304688 14.976562 22.703125 14.457031 23.234375 C 13.765625 23.925781 13.300781 24.804688 12.984375 25.714844 C 12.925781 25.578125 12.882812 25.4375 12.828125 25.300781 C 12.539062 24.585938 12.136719 23.898438 11.601562 23.332031 C 11.109375 22.808594 10.488281 22.398438 9.789062 22.199219 C 8.980469 21.964844 8.109375 22.019531 7.304688 22.242188 C 7.167969 22.285156 7.019531 22.308594 6.894531 22.386719 C 6.410156 22.660156 5.949219 22.980469 5.554688 23.375 C 5.253906 23.679688 4.996094 24.03125 4.828125 24.421875 C 4.6875 24.722656 4.617188 25.046875 4.585938 25.375 L 4.585938 25.734375 C 4.601562 25.957031 4.628906 26.179688 4.679688 26.398438 C 4.855469 27.140625 5.210938 27.828125 5.621094 28.46875 C 6.296875 29.523438 7.125 30.476562 7.96875 31.40625 C 8.5 31.988281 9.046875 32.558594 9.59375 33.132812 C 10.6875 34.289062 11.796875 35.433594 12.761719 36.695312 C 12.804688 36.746094 12.835938 36.800781 12.859375 36.859375 C 12.886719 36.945312 13.003906 36.945312 13.070312 36.910156 C 13.148438 36.855469 13.097656 36.746094 13.148438 36.675781 C 13.925781 35.402344 14.875 34.246094 15.835938 33.105469 C 16.855469 31.90625 17.910156 30.738281 18.886719 29.503906 C 19.417969 28.828125 19.925781 28.136719 20.34375 27.390625 C 20.714844 26.726562 21.019531 26.007812 21.074219 25.246094 L 21.074219 24.925781 C 21.046875 24.519531 20.929688 24.117188 20.710938 23.773438 Z M 20.710938 23.773438 " fill-opacity="1" fill-rule="nonzero"/></g><g clip-path="url(#id3)"><path fill="#ff0000" d="M 106.785156 154.921875 C 107.109375 155.453125 107.613281 155.855469 108.152344 156.167969 C 108.28125 156.238281 108.410156 156.316406 108.542969 156.371094 C 109.367188 156.636719 110.265625 156.746094 111.117188 156.550781 C 111.851562 156.386719 112.519531 155.988281 113.039062 155.460938 C 113.730469 154.765625 114.195312 153.890625 114.511719 152.980469 C 114.570312 153.117188 114.613281 153.253906 114.667969 153.390625 C 114.957031 154.109375 115.359375 154.792969 115.894531 155.363281 C 116.386719 155.882812 117.007812 156.292969 117.707031 156.492188 C 118.515625 156.726562 119.386719 156.675781 120.191406 156.453125 C 120.328125 156.410156 120.476562 156.382812 120.601562 156.308594 C 121.085938 156.03125 121.546875 155.710938 121.941406 155.316406 C 122.242188 155.015625 122.5 154.664062 122.667969 154.269531 C 122.808594 153.972656 122.878906 153.648438 122.910156 153.320312 L 122.910156 152.960938 C 122.894531 152.738281 122.867188 152.515625 122.816406 152.296875 C 122.640625 151.554688 122.285156 150.867188 121.875 150.222656 C 121.199219 149.167969 120.371094 148.214844 119.527344 147.285156 C 118.996094 146.703125 118.449219 146.132812 117.902344 145.5625 C 116.808594 144.40625 115.699219 143.257812 114.734375 141.996094 C 114.691406 141.945312 114.660156 141.890625 114.636719 141.832031 C 114.609375 141.75 114.492188 141.746094 114.425781 141.785156 C 114.347656 141.835938 114.398438 141.949219 114.347656 142.015625 C 113.570312 143.289062 112.621094 144.449219 111.660156 145.585938 C 110.640625 146.789062 109.585938 147.957031 108.609375 149.191406 C 108.078125 149.863281 107.570312 150.554688 107.152344 151.304688 C 106.78125 151.964844 106.476562 152.6875 106.421875 153.449219 L 106.421875 153.769531 C 106.449219 154.175781 106.566406 154.574219 106.785156 154.921875 Z M 106.785156 154.921875 " fill-opacity="1" fill-rule="nonzero"/></g><g clip-path="url(#id4)"><path fill="#ff0000" d="M 71.050781 163.644531 C 71.746094 164.816406 72.824219 165.703125 73.972656 166.386719 C 74.25 166.542969 74.519531 166.71875 74.808594 166.832031 C 76.570312 167.421875 78.488281 167.664062 80.304688 167.234375 C 81.875 166.875 83.300781 165.996094 84.414062 164.835938 C 85.890625 163.308594 86.878906 161.375 87.5625 159.378906 C 87.679688 159.675781 87.773438 159.984375 87.894531 160.28125 C 88.515625 161.863281 89.367188 163.367188 90.511719 164.617188 C 91.5625 165.765625 92.894531 166.667969 94.382812 167.105469 C 96.113281 167.621094 97.972656 167.503906 99.695312 167.015625 C 99.988281 166.921875 100.300781 166.863281 100.566406 166.699219 C 101.601562 166.089844 102.589844 165.386719 103.429688 164.519531 C 104.070312 163.851562 104.621094 163.082031 104.980469 162.21875 C 105.28125 161.558594 105.429688 160.847656 105.5 160.125 L 105.5 159.332031 C 105.472656 158.84375 105.410156 158.355469 105.300781 157.875 C 104.925781 156.238281 104.164062 154.726562 103.292969 153.3125 C 101.84375 150.992188 100.078125 148.894531 98.273438 146.851562 C 97.136719 145.570312 95.96875 144.316406 94.804688 143.054688 C 92.46875 140.515625 90.097656 137.992188 88.035156 135.214844 C 87.945312 135.101562 87.875 134.980469 87.824219 134.851562 C 87.765625 134.671875 87.515625 134.664062 87.378906 134.746094 C 87.207031 134.863281 87.320312 135.105469 87.207031 135.257812 C 85.546875 138.058594 83.519531 140.609375 81.464844 143.113281 C 79.289062 145.753906 77.035156 148.324219 74.945312 151.042969 C 73.816406 152.523438 72.730469 154.046875 71.839844 155.6875 C 71.046875 157.148438 70.394531 158.734375 70.273438 160.40625 L 70.273438 161.113281 C 70.332031 162.003906 70.585938 162.886719 71.050781 163.644531 Z M 71.050781 163.644531 " fill-opacity="1" fill-rule="nonzero"/></g><g clip-path="url(#id5)"><path fill="#ff0000" d="M 104.640625 15.132812 C 103.929688 13.9375 102.828125 13.03125 101.652344 12.328125 C 101.371094 12.167969 101.09375 11.992188 100.796875 11.875 C 99 11.273438 97.042969 11.023438 95.1875 11.464844 C 93.585938 11.832031 92.128906 12.730469 90.988281 13.917969 C 89.484375 15.480469 88.472656 17.453125 87.773438 19.5 C 87.652344 19.195312 87.558594 18.878906 87.4375 18.574219 C 86.800781 16.957031 85.929688 15.421875 84.761719 14.140625 C 83.691406 12.964844 82.328125 12.042969 80.808594 11.597656 C 79.039062 11.066406 77.140625 11.1875 75.382812 11.6875 C 75.082031 11.78125 74.761719 11.84375 74.492188 12.011719 C 73.433594 12.632812 72.421875 13.351562 71.570312 14.242188 C 70.914062 14.925781 70.351562 15.710938 69.980469 16.59375 C 69.675781 17.269531 69.523438 17.996094 69.449219 18.734375 L 69.449219 19.542969 C 69.480469 20.046875 69.546875 20.546875 69.65625 21.039062 C 70.039062 22.707031 70.816406 24.257812 71.707031 25.703125 C 73.1875 28.074219 74.992188 30.21875 76.835938 32.308594 C 77.996094 33.621094 79.1875 34.902344 80.375 36.191406 C 82.761719 38.792969 85.183594 41.371094 87.292969 44.210938 C 87.382812 44.328125 87.453125 44.449219 87.507812 44.582031 C 87.566406 44.769531 87.824219 44.773438 87.960938 44.691406 C 88.136719 44.574219 88.019531 44.320312 88.136719 44.167969 C 89.832031 41.304688 91.902344 38.695312 94.003906 36.132812 C 96.226562 33.433594 98.527344 30.800781 100.660156 28.023438 C 101.816406 26.507812 102.921875 24.953125 103.835938 23.273438 C 104.644531 21.78125 105.308594 20.160156 105.429688 18.449219 L 105.429688 17.722656 C 105.371094 16.8125 105.113281 15.910156 104.640625 15.132812 Z M 104.640625 15.132812 " fill-opacity="1" fill-rule="nonzero"/></g><g clip-path="url(#id6)"><path fill="#ff0000" d="M 59.414062 15.132812 C 58.703125 13.9375 57.601562 13.03125 56.425781 12.328125 C 56.144531 12.167969 55.871094 11.992188 55.574219 11.875 C 53.773438 11.273438 51.816406 11.023438 49.960938 11.464844 C 48.359375 11.832031 46.902344 12.730469 45.765625 13.917969 C 44.257812 15.480469 43.246094 17.453125 42.546875 19.5 C 42.425781 19.195312 42.332031 18.878906 42.210938 18.574219 C 41.578125 16.957031 40.703125 15.421875 39.535156 14.140625 C 38.464844 12.964844 37.101562 12.042969 35.582031 11.597656 C 33.8125 11.066406 31.914062 11.1875 30.15625 11.6875 C 29.855469 11.78125 29.535156 11.84375 29.265625 12.011719 C 28.210938 12.632812 27.199219 13.351562 26.34375 14.242188 C 25.6875 14.925781 25.125 15.710938 24.753906 16.59375 C 24.449219 17.269531 24.296875 17.996094 24.226562 18.734375 L 24.226562 19.542969 C 24.257812 20.046875 24.320312 20.546875 24.433594 21.039062 C 24.8125 22.707031 25.59375 24.257812 26.484375 25.703125 C 27.960938 28.074219 29.765625 30.21875 31.609375 32.308594 C 32.769531 33.621094 33.960938 34.902344 35.148438 36.191406 C 37.539062 38.792969 39.957031 41.371094 42.066406 44.210938 C 42.15625 44.328125 42.230469 44.449219 42.28125 44.582031 C 42.339844 44.769531 42.597656 44.773438 42.738281 44.691406 C 42.914062 44.574219 42.796875 44.320312 42.914062 44.167969 C 44.609375 41.304688 46.675781 38.695312 48.777344 36.132812 C 51 33.433594 53.300781 30.800781 55.433594 28.023438 C 56.589844 26.507812 57.695312 24.953125 58.609375 23.273438 C 59.417969 21.78125 60.085938 20.160156 60.207031 18.449219 L 60.207031 17.722656 C 60.148438 16.8125 59.886719 15.910156 59.414062 15.132812 Z M 59.414062 15.132812 " fill-opacity="1" fill-rule="nonzero"/></g><g clip-path="url(#id7)"><path fill="#ff0000" d="M 25.824219 163.644531 C 26.519531 164.816406 27.597656 165.703125 28.75 166.386719 C 29.027344 166.542969 29.292969 166.71875 29.585938 166.832031 C 31.347656 167.421875 33.261719 167.664062 35.082031 167.234375 C 36.648438 166.875 38.074219 165.996094 39.1875 164.835938 C 40.664062 163.308594 41.65625 161.375 42.335938 159.378906 C 42.457031 159.675781 42.546875 159.984375 42.667969 160.28125 C 43.289062 161.863281 44.140625 163.367188 45.289062 164.617188 C 46.335938 165.765625 47.667969 166.667969 49.15625 167.105469 C 50.886719 167.621094 52.746094 167.503906 54.46875 167.015625 C 54.761719 166.921875 55.074219 166.863281 55.339844 166.699219 C 56.375 166.089844 57.367188 165.386719 58.203125 164.519531 C 58.84375 163.851562 59.394531 163.082031 59.757812 162.21875 C 60.054688 161.558594 60.207031 160.847656 60.277344 160.125 L 60.277344 159.332031 C 60.246094 158.84375 60.183594 158.355469 60.074219 157.875 C 59.699219 156.238281 58.9375 154.726562 58.066406 153.3125 C 56.617188 150.992188 54.851562 148.894531 53.046875 146.851562 C 51.910156 145.570312 50.742188 144.316406 49.582031 143.054688 C 47.242188 140.515625 44.875 137.992188 42.808594 135.214844 C 42.71875 135.101562 42.648438 134.980469 42.597656 134.851562 C 42.539062 134.671875 42.289062 134.664062 42.152344 134.746094 C 41.980469 134.863281 42.09375 135.105469 41.980469 135.257812 C 40.320312 138.058594 38.292969 140.609375 36.238281 143.113281 C 34.0625 145.753906 31.808594 148.324219 29.722656 151.042969 C 28.589844 152.523438 27.507812 154.046875 26.613281 155.6875 C 25.820312 157.148438 25.167969 158.734375 25.050781 160.40625 L 25.050781 161.113281 C 25.105469 162.003906 25.363281 162.886719 25.824219 163.644531 Z M 25.824219 163.644531 " fill-opacity="1" fill-rule="nonzero"/></g><g clip-path="url(#id8)"><path fill="#ff0000" d="M 57.628906 78.039062 C 56.992188 76.976562 56.003906 76.167969 54.953125 75.546875 C 54.699219 75.40625 54.453125 75.246094 54.1875 75.140625 C 52.578125 74.609375 50.824219 74.386719 49.160156 74.777344 C 47.726562 75.105469 46.421875 75.902344 45.402344 76.957031 C 44.054688 78.347656 43.148438 80.101562 42.523438 81.917969 C 42.414062 81.648438 42.328125 81.371094 42.21875 81.097656 C 41.652344 79.660156 40.871094 78.292969 39.824219 77.15625 C 38.863281 76.113281 37.644531 75.292969 36.285156 74.894531 C 34.699219 74.425781 33 74.53125 31.425781 74.976562 C 31.15625 75.0625 30.871094 75.113281 30.628906 75.261719 C 29.679688 75.816406 28.773438 76.457031 28.007812 77.246094 C 27.421875 77.851562 26.917969 78.554688 26.585938 79.339844 C 26.3125 79.9375 26.175781 80.585938 26.113281 81.238281 L 26.113281 81.960938 C 26.140625 82.40625 26.195312 82.851562 26.296875 83.289062 C 26.640625 84.773438 27.335938 86.148438 28.132812 87.433594 C 29.460938 89.542969 31.074219 91.449219 32.726562 93.304688 C 33.765625 94.472656 34.832031 95.613281 35.898438 96.757812 C 38.035156 99.066406 40.203125 101.363281 42.089844 103.886719 C 42.171875 103.988281 42.238281 104.097656 42.285156 104.214844 C 42.335938 104.382812 42.566406 104.386719 42.691406 104.3125 C 42.847656 104.207031 42.746094 103.984375 42.847656 103.847656 C 44.367188 101.300781 46.21875 98.984375 48.101562 96.707031 C 50.089844 94.304688 52.152344 91.96875 54.0625 89.5 C 55.097656 88.152344 56.089844 86.765625 56.90625 85.273438 C 57.632812 83.945312 58.226562 82.507812 58.335938 80.984375 L 58.335938 80.339844 C 58.285156 79.53125 58.050781 78.730469 57.628906 78.039062 Z M 57.628906 78.039062 " fill-opacity="1" fill-rule="nonzero"/></g><g clip-path="url(#id9)"><path fill="#ff0000" d="M 102.851562 78.039062 C 102.214844 76.976562 101.230469 76.167969 100.179688 75.546875 C 99.925781 75.40625 99.679688 75.246094 99.414062 75.140625 C 97.800781 74.609375 96.050781 74.386719 94.386719 74.777344 C 92.953125 75.105469 91.648438 75.902344 90.628906 76.957031 C 89.277344 78.347656 88.371094 80.101562 87.75 81.917969 C 87.640625 81.648438 87.554688 81.371094 87.445312 81.097656 C 86.878906 79.660156 86.097656 78.292969 85.050781 77.15625 C 84.089844 76.113281 82.871094 75.292969 81.507812 74.894531 C 79.925781 74.425781 78.226562 74.53125 76.652344 74.976562 C 76.382812 75.0625 76.09375 75.113281 75.851562 75.261719 C 74.90625 75.816406 74 76.457031 73.234375 77.246094 C 72.648438 77.851562 72.144531 78.554688 71.8125 79.339844 C 71.539062 79.9375 71.402344 80.585938 71.339844 81.238281 L 71.339844 81.960938 C 71.367188 82.40625 71.421875 82.851562 71.523438 83.289062 C 71.867188 84.773438 72.5625 86.148438 73.359375 87.433594 C 74.683594 89.542969 76.300781 91.449219 77.953125 93.304688 C 78.992188 94.472656 80.058594 95.613281 81.121094 96.757812 C 83.261719 99.066406 85.429688 101.363281 87.316406 103.886719 C 87.398438 103.988281 87.460938 104.097656 87.511719 104.214844 C 87.5625 104.382812 87.792969 104.386719 87.917969 104.3125 C 88.074219 104.207031 87.96875 103.984375 88.074219 103.847656 C 89.59375 101.300781 91.445312 98.984375 93.328125 96.707031 C 95.316406 94.304688 97.378906 91.96875 99.289062 89.5 C 100.324219 88.152344 101.316406 86.765625 102.132812 85.273438 C 102.855469 83.945312 103.453125 82.507812 103.5625 80.984375 L 103.5625 80.339844 C 103.511719 79.53125 103.277344 78.730469 102.851562 78.039062 Z M 102.851562 78.039062 " fill-opacity="1" fill-rule="nonzero"/></g></svg>