<svg xmlns="http://www.w3.org/2000/svg" xmlns:xlink="http://www.w3.org/1999/xlink" width="170" zoomAndPan="magnify" viewBox="0 0 127.5 178.499993" height="238" preserveAspectRatio="xMidYMid meet" version="1.0"><defs><g/><clipPath id="id1"><path d="M 0 0.0976562 L 127 0.0976562 L 127 177.902344 L 0 177.902344 Z M 0 0.0976562 " clip-rule="nonzero"/></clipPath><clipPath id="id2"><path d="M 45.351562 67.914062 L 81.917969 67.914062 L 81.917969 110.664062 L 45.351562 110.664062 Z M 45.351562 67.914062 " clip-rule="nonzero"/></clipPath><clipPath id="id3"><path d="M 4.996094 21.945312 L 20.671875 21.945312 L 20.671875 39.945312 L 4.996094 39.945312 Z M 4.996094 21.945312 " clip-rule="nonzero"/></clipPath><clipPath id="id4"><path d="M 106.996094 138.6875 L 122.671875 138.6875 L 122.671875 156.6875 L 106.996094 156.6875 Z M 106.996094 138.6875 " clip-rule="nonzero"/></clipPath></defs><g clip-path="url(#id1)"><path fill="#ffffff" d="M 0 0.0976562 L 127.5 0.0976562 L 127.5 186.097656 L 0 186.097656 Z M 0 0.0976562 " fill-opacity="1" fill-rule="nonzero"/><path fill="#ffffff" d="M 0 0.0976562 L 127.5 0.0976562 L 127.5 178.597656 L 0 178.597656 Z M 0 0.0976562 " fill-opacity="1" fill-rule="nonzero"/><path fill="#ffffff" d="M 0 0.0976562 L 127.5 0.0976562 L 127.5 178.597656 L 0 178.597656 Z M 0 0.0976562 " fill-opacity="1" fill-rule="nonzero"/><path fill="#ffffff" d="M 0 0.0976562 L 127.5 0.0976562 L 127.5 178.597656 L 0 178.597656 Z M 0 0.0976562 " fill-opacity="1" fill-rule="nonzero"/></g><g fill="#d41e1e" fill-opacity="1"><g transform="translate(121.078249, 160.923988)"><g><path d="M -7.890625 0.34375 L -6.5625 4.296875 L -2.9375 4.296875 L -1.53125 0.34375 L -2.90625 0.34375 L -2.90625 0 L -0.109375 0 L -0.109375 0.34375 L -0.96875 0.34375 L -5.625 12.890625 L -7.125 12.890625 L -11.734375 0.34375 L -12.5625 0.34375 L -12.5625 0 L -6.59375 0 L -6.59375 0.34375 Z M -4.828125 9.484375 L -3.109375 4.6875 L -6.40625 4.6875 Z M -4.828125 9.484375 "/></g></g></g><g fill="#d41e1e" fill-opacity="1"><g transform="translate(6.407812, 17.772726)"><g><path d="M 7.890625 -0.34375 L 6.5625 -4.296875 L 2.9375 -4.296875 L 1.53125 -0.34375 L 2.90625 -0.34375 L 2.90625 0 L 0.109375 0 L 0.109375 -0.34375 L 0.96875 -0.34375 L 5.625 -12.890625 L 7.125 -12.890625 L 11.734375 -0.34375 L 12.5625 -0.34375 L 12.5625 0 L 6.59375 0 L 6.59375 -0.34375 Z M 4.828125 -9.484375 L 3.109375 -4.6875 L 6.40625 -4.6875 Z M 4.828125 -9.484375 "/></g></g></g><g clip-path="url(#id2)"><path fill="#f70400" d="M 63.636719 67.914062 C 66.265625 77.40625 72.964844 85.238281 81.917969 89.292969 C 72.964844 93.34375 66.265625 101.175781 63.636719 110.671875 C 61.003906 101.175781 54.304688 93.34375 45.351562 89.292969 C 54.304688 85.238281 61.003906 77.40625 63.636719 67.914062 " fill-opacity="1" fill-rule="nonzero"/></g><g clip-path="url(#id3)"><path fill="#f70400" d="M 12.832031 21.945312 C 13.960938 25.941406 16.832031 29.242188 20.671875 30.945312 C 16.832031 32.652344 13.960938 35.953125 12.832031 39.949219 C 11.707031 35.953125 8.835938 32.652344 4.996094 30.945312 C 8.835938 29.242188 11.707031 25.941406 12.832031 21.945312 " fill-opacity="1" fill-rule="nonzero"/></g><g clip-path="url(#id4)"><path fill="#f70400" d="M 114.832031 138.6875 C 115.960938 142.6875 118.832031 145.984375 122.671875 147.691406 C 118.832031 149.398438 115.960938 152.695312 114.832031 156.691406 C 113.707031 152.695312 110.835938 149.398438 106.996094 147.691406 C 110.835938 145.984375 113.707031 142.6875 114.832031 138.6875 " fill-opacity="1" fill-rule="nonzero"/></g></svg>