<svg xmlns="http://www.w3.org/2000/svg" xmlns:xlink="http://www.w3.org/1999/xlink" width="170" zoomAndPan="magnify" viewBox="0 0 127.5 178.499993" height="238" preserveAspectRatio="xMidYMid meet" version="1.0"><defs><g/><clipPath id="id1"><path d="M 0 0.0976562 L 127 0.0976562 L 127 177.902344 L 0 177.902344 Z M 0 0.0976562 " clip-rule="nonzero"/></clipPath><clipPath id="id2"><path d="M 4.488281 21.945312 L 20.910156 21.945312 L 20.910156 41.445312 L 4.488281 41.445312 Z M 4.488281 21.945312 " clip-rule="nonzero"/></clipPath><clipPath id="id3"><path d="M 106.488281 137.503906 L 122.910156 137.503906 L 122.910156 157.003906 L 106.488281 157.003906 Z M 106.488281 137.503906 " clip-rule="nonzero"/></clipPath><clipPath id="id4"><path d="M 24.4375 12.847656 L 59.519531 12.847656 L 59.519531 54.097656 L 24.4375 54.097656 Z M 24.4375 12.847656 " clip-rule="nonzero"/></clipPath><clipPath id="id5"><path d="M 67.480469 124.632812 L 102.558594 124.632812 L 102.558594 165.882812 L 67.480469 165.882812 Z M 67.480469 124.632812 " clip-rule="nonzero"/></clipPath><clipPath id="id6"><path d="M 70.984375 12.847656 L 106.0625 12.847656 L 106.0625 54.097656 L 70.984375 54.097656 Z M 70.984375 12.847656 " clip-rule="nonzero"/></clipPath><clipPath id="id7"><path d="M 25.929688 124.632812 L 61.007812 124.632812 L 61.007812 165.882812 L 25.929688 165.882812 Z M 25.929688 124.632812 " clip-rule="nonzero"/></clipPath><clipPath id="id8"><path d="M 49.003906 72.167969 L 78.855469 72.167969 L 78.855469 106.667969 L 49.003906 106.667969 Z M 49.003906 72.167969 " clip-rule="nonzero"/></clipPath></defs><g clip-path="url(#id1)"><path fill="#ffffff" d="M 0 0.0976562 L 127.5 0.0976562 L 127.5 186.097656 L 0 186.097656 Z M 0 0.0976562 " fill-opacity="1" fill-rule="nonzero"/><path fill="#ffffff" d="M 0 0.0976562 L 127.5 0.0976562 L 127.5 178.597656 L 0 178.597656 Z M 0 0.0976562 " fill-opacity="1" fill-rule="nonzero"/><path fill="#ffffff" d="M 0 0.0976562 L 127.5 0.0976562 L 127.5 178.597656 L 0 178.597656 Z M 0 0.0976562 " fill-opacity="1" fill-rule="nonzero"/><path fill="#ffffff" d="M 0 0.0976562 L 127.5 0.0976562 L 127.5 178.597656 L 0 178.597656 Z M 0 0.0976562 " fill-opacity="1" fill-rule="nonzero"/></g><g clip-path="url(#id2)"><path fill="#f70400" d="M 12.699219 21.945312 C 13.878906 26.277344 16.886719 29.847656 20.910156 31.699219 C 16.886719 33.546875 13.878906 37.117188 12.699219 41.449219 C 11.515625 37.117188 8.507812 33.546875 4.488281 31.699219 C 8.507812 29.847656 11.515625 26.277344 12.699219 21.945312 " fill-opacity="1" fill-rule="nonzero"/></g><g clip-path="url(#id3)"><path fill="#f70400" d="M 114.699219 137.503906 C 115.878906 141.835938 118.886719 145.410156 122.910156 147.257812 C 118.886719 149.105469 115.878906 152.679688 114.699219 157.007812 C 113.515625 152.679688 110.507812 149.105469 106.488281 147.257812 C 110.507812 145.410156 113.515625 141.835938 114.699219 137.503906 " fill-opacity="1" fill-rule="nonzero"/></g><g clip-path="url(#id4)"><path fill="#f70400" d="M 41.976562 12.847656 C 44.503906 22.011719 50.925781 29.566406 59.515625 33.476562 C 50.925781 37.386719 44.503906 44.945312 41.976562 54.105469 C 39.453125 44.945312 33.027344 37.386719 24.4375 33.476562 C 33.027344 29.566406 39.453125 22.011719 41.976562 12.847656 " fill-opacity="1" fill-rule="nonzero"/></g><g fill="#d41e1e" fill-opacity="1"><g transform="translate(7.814062, 17.772726)"><g><path d="M 5.625 -4.265625 C 5.625 -5.429688 5.519531 -6.242188 5.3125 -6.703125 C 5.113281 -7.160156 4.660156 -7.390625 3.953125 -7.390625 C 3.253906 -7.390625 2.484375 -7.128906 1.640625 -6.609375 L 1.328125 -6.765625 L 1.328125 -12.578125 L 1.625 -12.796875 C 2.363281 -12.691406 3.488281 -12.5625 5 -12.40625 C 6.507812 -12.257812 7.382812 -12.1875 7.625 -12.1875 C 7.863281 -12.1875 8.035156 -12.242188 8.140625 -12.359375 C 8.242188 -12.472656 8.332031 -12.671875 8.40625 -12.953125 L 8.671875 -12.90625 C 8.492188 -11.050781 8.257812 -9.945312 7.96875 -9.59375 C 7.800781 -9.40625 7.597656 -9.3125 7.359375 -9.3125 C 7.117188 -9.3125 6.609375 -9.414062 5.828125 -9.625 L 1.84375 -10.671875 L 1.75 -7.125 C 2.644531 -7.601562 3.566406 -7.84375 4.515625 -7.84375 C 5.460938 -7.84375 6.253906 -7.734375 6.890625 -7.515625 C 7.523438 -7.304688 8.007812 -7.007812 8.34375 -6.625 C 8.988281 -5.90625 9.3125 -5.035156 9.3125 -4.015625 C 9.3125 -2.710938 8.84375 -1.6875 7.90625 -0.9375 C 6.976562 -0.1875 5.703125 0.1875 4.078125 0.1875 C 3.203125 0.1875 2.390625 0.00390625 1.640625 -0.359375 C 1.242188 -0.566406 0.921875 -0.863281 0.671875 -1.25 C 0.421875 -1.632812 0.296875 -2.078125 0.296875 -2.578125 C 0.296875 -3.085938 0.4375 -3.503906 0.71875 -3.828125 C 1.007812 -4.160156 1.40625 -4.328125 1.90625 -4.328125 C 2.414062 -4.328125 2.8125 -4.203125 3.09375 -3.953125 C 3.382812 -3.703125 3.53125 -3.378906 3.53125 -2.984375 C 3.53125 -2.585938 3.472656 -2.25 3.359375 -1.96875 L 2.765625 -1.96875 C 2.691406 -1.78125 2.65625 -1.550781 2.65625 -1.28125 C 2.65625 -1.019531 2.753906 -0.769531 2.953125 -0.53125 C 3.160156 -0.300781 3.460938 -0.1875 3.859375 -0.1875 C 4.265625 -0.1875 4.570312 -0.25 4.78125 -0.375 C 4.988281 -0.5 5.144531 -0.648438 5.25 -0.828125 C 5.363281 -1.015625 5.453125 -1.304688 5.515625 -1.703125 C 5.585938 -2.253906 5.625 -3.109375 5.625 -4.265625 Z M 5.625 -4.265625 "/></g></g></g><g fill="#d41e1e" fill-opacity="1"><g transform="translate(120.381978, 160.923988)"><g><path d="M -5.625 4.265625 C -5.625 5.429688 -5.519531 6.242188 -5.3125 6.703125 C -5.113281 7.160156 -4.660156 7.390625 -3.953125 7.390625 C -3.253906 7.390625 -2.484375 7.128906 -1.640625 6.609375 L -1.328125 6.765625 L -1.328125 12.578125 L -1.625 12.796875 C -2.363281 12.691406 -3.488281 12.5625 -5 12.40625 C -6.507812 12.257812 -7.382812 12.1875 -7.625 12.1875 C -7.863281 12.1875 -8.035156 12.242188 -8.140625 12.359375 C -8.242188 12.472656 -8.332031 12.671875 -8.40625 12.953125 L -8.671875 12.90625 C -8.492188 11.050781 -8.257812 9.945312 -7.96875 9.59375 C -7.800781 9.40625 -7.597656 9.3125 -7.359375 9.3125 C -7.117188 9.3125 -6.609375 9.414062 -5.828125 9.625 L -1.84375 10.671875 L -1.75 7.125 C -2.644531 7.601562 -3.566406 7.84375 -4.515625 7.84375 C -5.460938 7.84375 -6.253906 7.734375 -6.890625 7.515625 C -7.523438 7.304688 -8.007812 7.007812 -8.34375 6.625 C -8.988281 5.90625 -9.3125 5.035156 -9.3125 4.015625 C -9.3125 2.710938 -8.84375 1.6875 -7.90625 0.9375 C -6.976562 0.1875 -5.703125 -0.1875 -4.078125 -0.1875 C -3.203125 -0.1875 -2.390625 -0.00390625 -1.640625 0.359375 C -1.242188 0.566406 -0.921875 0.863281 -0.671875 1.25 C -0.421875 1.632812 -0.296875 2.078125 -0.296875 2.578125 C -0.296875 3.085938 -0.4375 3.503906 -0.71875 3.828125 C -1.007812 4.160156 -1.40625 4.328125 -1.90625 4.328125 C -2.414062 4.328125 -2.8125 4.203125 -3.09375 3.953125 C -3.382812 3.703125 -3.53125 3.378906 -3.53125 2.984375 C -3.53125 2.585938 -3.472656 2.25 -3.359375 1.96875 L -2.765625 1.96875 C -2.691406 1.78125 -2.65625 1.550781 -2.65625 1.28125 C -2.65625 1.019531 -2.753906 0.769531 -2.953125 0.53125 C -3.160156 0.300781 -3.460938 0.1875 -3.859375 0.1875 C -4.265625 0.1875 -4.570312 0.25 -4.78125 0.375 C -4.988281 0.5 -5.144531 0.648438 -5.25 0.828125 C -5.363281 1.015625 -5.453125 1.304688 -5.515625 1.703125 C -5.585938 2.253906 -5.625 3.109375 -5.625 4.265625 Z M -5.625 4.265625 "/></g></g></g><g clip-path="url(#id5)"><path fill="#f70400" d="M 85.019531 124.628906 C 87.542969 133.792969 93.96875 141.347656 102.558594 145.257812 C 93.96875 149.171875 87.542969 156.726562 85.019531 165.886719 L 85.019531 165.890625 L 85.019531 165.886719 C 82.492188 156.726562 76.070312 149.171875 67.480469 145.257812 C 76.070312 141.347656 82.492188 133.792969 85.019531 124.628906 " fill-opacity="1" fill-rule="nonzero"/></g><g clip-path="url(#id6)"><path fill="#f70400" d="M 88.523438 12.847656 C 91.046875 22.011719 97.472656 29.566406 106.0625 33.476562 C 97.472656 37.386719 91.046875 44.945312 88.523438 54.105469 C 85.996094 44.945312 79.574219 37.386719 70.984375 33.476562 C 79.574219 29.566406 85.996094 22.011719 88.523438 12.847656 " fill-opacity="1" fill-rule="nonzero"/></g><g clip-path="url(#id7)"><path fill="#f70400" d="M 43.46875 124.628906 C 45.992188 133.792969 52.417969 141.347656 61.007812 145.257812 C 52.417969 149.171875 45.992188 156.726562 43.46875 165.886719 L 43.46875 165.890625 L 43.46875 165.886719 C 40.941406 156.726562 34.519531 149.171875 25.929688 145.257812 C 34.519531 141.347656 40.941406 133.792969 43.46875 124.628906 " fill-opacity="1" fill-rule="nonzero"/></g><g clip-path="url(#id8)"><path fill="#f70400" d="M 63.929688 72.167969 C 66.078125 79.828125 71.542969 86.148438 78.851562 89.421875 C 71.542969 92.691406 66.078125 99.011719 63.929688 106.671875 C 61.78125 99.011719 56.3125 92.691406 49.003906 89.421875 C 56.3125 86.148438 61.78125 79.828125 63.929688 72.167969 " fill-opacity="1" fill-rule="nonzero"/></g></svg>