<svg xmlns="http://www.w3.org/2000/svg" xmlns:xlink="http://www.w3.org/1999/xlink" width="170" zoomAndPan="magnify" viewBox="0 0 127.5 178.499993" height="238" preserveAspectRatio="xMidYMid meet" version="1.0"><defs><g/><clipPath id="id1"><path d="M 0 0.0976562 L 127 0.0976562 L 127 177.902344 L 0 177.902344 Z M 0 0.0976562 " clip-rule="nonzero"/></clipPath><clipPath id="id2"><path d="M 4.488281 21.945312 L 20.910156 21.945312 L 20.910156 41.445312 L 4.488281 41.445312 Z M 4.488281 21.945312 " clip-rule="nonzero"/></clipPath><clipPath id="id3"><path d="M 106.488281 137.503906 L 122.910156 137.503906 L 122.910156 157.003906 L 106.488281 157.003906 Z M 106.488281 137.503906 " clip-rule="nonzero"/></clipPath><clipPath id="id4"><path d="M 24.4375 12.847656 L 59.519531 12.847656 L 59.519531 54.097656 L 24.4375 54.097656 Z M 24.4375 12.847656 " clip-rule="nonzero"/></clipPath><clipPath id="id5"><path d="M 67.480469 124.632812 L 102.558594 124.632812 L 102.558594 165.882812 L 67.480469 165.882812 Z M 67.480469 124.632812 " clip-rule="nonzero"/></clipPath><clipPath id="id6"><path d="M 70.984375 12.847656 L 106.0625 12.847656 L 106.0625 54.097656 L 70.984375 54.097656 Z M 70.984375 12.847656 " clip-rule="nonzero"/></clipPath><clipPath id="id7"><path d="M 25.929688 124.632812 L 61.007812 124.632812 L 61.007812 165.882812 L 25.929688 165.882812 Z M 25.929688 124.632812 " clip-rule="nonzero"/></clipPath></defs><g clip-path="url(#id1)"><path fill="#ffffff" d="M 0 0.0976562 L 127.5 0.0976562 L 127.5 186.097656 L 0 186.097656 Z M 0 0.0976562 " fill-opacity="1" fill-rule="nonzero"/><path fill="#ffffff" d="M 0 0.0976562 L 127.5 0.0976562 L 127.5 178.597656 L 0 178.597656 Z M 0 0.0976562 " fill-opacity="1" fill-rule="nonzero"/><path fill="#ffffff" d="M 0 0.0976562 L 127.5 0.0976562 L 127.5 178.597656 L 0 178.597656 Z M 0 0.0976562 " fill-opacity="1" fill-rule="nonzero"/><path fill="#ffffff" d="M 0 0.0976562 L 127.5 0.0976562 L 127.5 178.597656 L 0 178.597656 Z M 0 0.0976562 " fill-opacity="1" fill-rule="nonzero"/></g><g clip-path="url(#id2)"><path fill="#f70400" d="M 12.699219 21.945312 C 13.878906 26.277344 16.886719 29.847656 20.910156 31.699219 C 16.886719 33.546875 13.878906 37.117188 12.699219 41.449219 C 11.515625 37.117188 8.507812 33.546875 4.488281 31.699219 C 8.507812 29.847656 11.515625 26.277344 12.699219 21.945312 " fill-opacity="1" fill-rule="nonzero"/></g><g clip-path="url(#id3)"><path fill="#f70400" d="M 114.699219 137.503906 C 115.878906 141.835938 118.886719 145.410156 122.910156 147.257812 C 118.886719 149.105469 115.878906 152.679688 114.699219 157.007812 C 113.515625 152.679688 110.507812 149.105469 106.488281 147.257812 C 110.507812 145.410156 113.515625 141.835938 114.699219 137.503906 " fill-opacity="1" fill-rule="nonzero"/></g><g clip-path="url(#id4)"><path fill="#f70400" d="M 41.976562 12.847656 C 44.503906 22.011719 50.925781 29.566406 59.515625 33.476562 C 50.925781 37.386719 44.503906 44.945312 41.976562 54.105469 C 39.453125 44.945312 33.027344 37.386719 24.4375 33.476562 C 33.027344 29.566406 39.453125 22.011719 41.976562 12.847656 " fill-opacity="1" fill-rule="nonzero"/></g><g fill="#d41e1e" fill-opacity="1"><g transform="translate(7.242188, 17.772726)"><g><path d="M 3.328125 0 L 3.328125 -0.34375 L 5.046875 -0.34375 L 5.046875 -3.265625 L 0.09375 -3.265625 L 0.09375 -3.609375 L 5.25 -12.78125 L 8.40625 -12.78125 L 8.40625 -3.703125 L 10.203125 -3.703125 L 10.203125 -5.296875 L 10.5625 -5.296875 L 10.5625 -1.921875 L 10.203125 -1.921875 L 10.203125 -3.265625 L 8.40625 -3.265625 L 8.40625 -0.34375 L 9.65625 -0.34375 L 9.65625 0 Z M 0.671875 -3.703125 L 5.046875 -3.703125 L 5.046875 -11.390625 Z M 0.671875 -3.703125 "/></g></g></g><g fill="#d41e1e" fill-opacity="1"><g transform="translate(120.381978, 160.923988)"><g><path d="M -3.328125 0 L -3.328125 0.34375 L -5.046875 0.34375 L -5.046875 3.265625 L -0.09375 3.265625 L -0.09375 3.609375 L -5.25 12.78125 L -8.40625 12.78125 L -8.40625 3.703125 L -10.203125 3.703125 L -10.203125 5.296875 L -10.5625 5.296875 L -10.5625 1.921875 L -10.203125 1.921875 L -10.203125 3.265625 L -8.40625 3.265625 L -8.40625 0.34375 L -9.65625 0.34375 L -9.65625 0 Z M -0.671875 3.703125 L -5.046875 3.703125 L -5.046875 11.390625 Z M -0.671875 3.703125 "/></g></g></g><g clip-path="url(#id5)"><path fill="#f70400" d="M 85.019531 124.628906 C 87.542969 133.792969 93.96875 141.347656 102.558594 145.257812 C 93.96875 149.171875 87.542969 156.726562 85.019531 165.886719 L 85.019531 165.890625 L 85.019531 165.886719 C 82.492188 156.726562 76.070312 149.171875 67.480469 145.257812 C 76.070312 141.347656 82.492188 133.792969 85.019531 124.628906 " fill-opacity="1" fill-rule="nonzero"/></g><g clip-path="url(#id6)"><path fill="#f70400" d="M 88.523438 12.847656 C 91.046875 22.011719 97.472656 29.566406 106.0625 33.476562 C 97.472656 37.386719 91.046875 44.945312 88.523438 54.105469 C 85.996094 44.945312 79.574219 37.386719 70.984375 33.476562 C 79.574219 29.566406 85.996094 22.011719 88.523438 12.847656 " fill-opacity="1" fill-rule="nonzero"/></g><g clip-path="url(#id7)"><path fill="#f70400" d="M 43.46875 124.628906 C 45.992188 133.792969 52.417969 141.347656 61.007812 145.257812 C 52.417969 149.171875 45.992188 156.726562 43.46875 165.886719 L 43.46875 165.890625 L 43.46875 165.886719 C 40.941406 156.726562 34.519531 149.171875 25.929688 145.257812 C 34.519531 141.347656 40.941406 133.792969 43.46875 124.628906 " fill-opacity="1" fill-rule="nonzero"/></g></svg>