<svg xmlns="http://www.w3.org/2000/svg" xmlns:xlink="http://www.w3.org/1999/xlink" width="170" zoomAndPan="magnify" viewBox="0 0 127.5 178.499993" height="238" preserveAspectRatio="xMidYMid meet" version="1.0"><defs><g/><clipPath id="id1"><path d="M 0 0.0976562 L 127 0.0976562 L 127 177.902344 L 0 177.902344 Z M 0 0.0976562 " clip-rule="nonzero"/></clipPath><clipPath id="id2"><path d="M 4.488281 21.945312 L 20.910156 21.945312 L 20.910156 41.445312 L 4.488281 41.445312 Z M 4.488281 21.945312 " clip-rule="nonzero"/></clipPath><clipPath id="id3"><path d="M 106.488281 137.503906 L 122.910156 137.503906 L 122.910156 157.003906 L 106.488281 157.003906 Z M 106.488281 137.503906 " clip-rule="nonzero"/></clipPath><clipPath id="id4"><path d="M 24.433594 6.488281 L 57.273438 6.488281 L 57.273438 44.738281 L 24.433594 44.738281 Z M 24.433594 6.488281 " clip-rule="nonzero"/></clipPath><clipPath id="id5"><path d="M 69.90625 132.402344 L 103.484375 132.402344 L 103.484375 172.152344 L 69.90625 172.152344 Z M 69.90625 132.402344 " clip-rule="nonzero"/></clipPath><clipPath id="id6"><path d="M 70.976562 6.488281 L 103.816406 6.488281 L 103.816406 44.738281 L 70.976562 44.738281 Z M 70.976562 6.488281 " clip-rule="nonzero"/></clipPath><clipPath id="id7"><path d="M 25.917969 132.402344 L 59.496094 132.402344 L 59.496094 172.152344 L 25.917969 172.152344 Z M 25.917969 132.402344 " clip-rule="nonzero"/></clipPath><clipPath id="id8"><path d="M 25.914062 46.609375 L 58.753906 46.609375 L 58.753906 84.859375 L 25.914062 84.859375 Z M 25.914062 46.609375 " clip-rule="nonzero"/></clipPath><clipPath id="id9"><path d="M 25.914062 89.347656 L 58.753906 89.347656 L 58.753906 127.601562 L 25.914062 127.601562 Z M 25.914062 89.347656 " clip-rule="nonzero"/></clipPath><clipPath id="id10"><path d="M 70.976562 46.609375 L 103.816406 46.609375 L 103.816406 84.859375 L 70.976562 84.859375 Z M 70.976562 46.609375 " clip-rule="nonzero"/></clipPath><clipPath id="id11"><path d="M 70.441406 89.347656 L 103.277344 89.347656 L 103.277344 127.601562 L 70.441406 127.601562 Z M 70.441406 89.347656 " clip-rule="nonzero"/></clipPath><clipPath id="id12"><path d="M 49.84375 30.40625 L 77.453125 30.40625 L 77.453125 62.65625 L 49.84375 62.65625 Z M 49.84375 30.40625 " clip-rule="nonzero"/></clipPath><clipPath id="id13"><path d="M 49.84375 111.390625 L 77.453125 111.390625 L 77.453125 143.640625 L 49.84375 143.640625 Z M 49.84375 111.390625 " clip-rule="nonzero"/></clipPath></defs><g clip-path="url(#id1)"><path fill="#ffffff" d="M 0 0.0976562 L 127.5 0.0976562 L 127.5 186.097656 L 0 186.097656 Z M 0 0.0976562 " fill-opacity="1" fill-rule="nonzero"/><path fill="#ffffff" d="M 0 0.0976562 L 127.5 0.0976562 L 127.5 178.597656 L 0 178.597656 Z M 0 0.0976562 " fill-opacity="1" fill-rule="nonzero"/><path fill="#ffffff" d="M 0 0.0976562 L 127.5 0.0976562 L 127.5 178.597656 L 0 178.597656 Z M 0 0.0976562 " fill-opacity="1" fill-rule="nonzero"/><path fill="#ffffff" d="M 0 0.0976562 L 127.5 0.0976562 L 127.5 178.597656 L 0 178.597656 Z M 0 0.0976562 " fill-opacity="1" fill-rule="nonzero"/></g><g clip-path="url(#id2)"><path fill="#f70400" d="M 12.699219 21.945312 C 13.878906 26.277344 16.886719 29.847656 20.910156 31.699219 C 16.886719 33.546875 13.878906 37.117188 12.699219 41.449219 C 11.515625 37.117188 8.507812 33.546875 4.488281 31.699219 C 8.507812 29.847656 11.515625 26.277344 12.699219 21.945312 " fill-opacity="1" fill-rule="nonzero"/></g><g clip-path="url(#id3)"><path fill="#f70400" d="M 114.699219 137.503906 C 115.878906 141.835938 118.886719 145.410156 122.910156 147.257812 C 118.886719 149.105469 115.878906 152.679688 114.699219 157.007812 C 113.515625 152.679688 110.507812 149.105469 106.488281 147.257812 C 110.507812 145.410156 113.515625 141.835938 114.699219 137.503906 " fill-opacity="1" fill-rule="nonzero"/></g><g clip-path="url(#id4)"><path fill="#f70400" d="M 40.851562 6.488281 C 43.21875 14.984375 49.230469 21.992188 57.273438 25.617188 C 49.230469 29.242188 43.21875 36.25 40.851562 44.746094 C 38.488281 36.25 32.476562 29.242188 24.433594 25.617188 C 32.476562 21.992188 38.488281 14.984375 40.851562 6.488281 " fill-opacity="1" fill-rule="nonzero"/></g><g fill="#d41e1e" fill-opacity="1"><g transform="translate(2.803125, 17.772726)"><g><path d="M 2.3125 -12.3125 L 0.3125 -12.0625 L 0.28125 -12.421875 L 4.40625 -12.984375 L 5.875 -12.984375 L 5.875 -0.34375 L 7.3125 -0.34375 L 7.3125 0 L 0.40625 0 L 0.40625 -0.34375 L 2.3125 -0.34375 Z M 2.3125 -12.3125 "/></g></g></g><g fill="#d41e1e" fill-opacity="1"><g transform="translate(10.562688, 17.772726)"><g><path d="M 5.96875 0.1875 C 4.195312 0.1875 2.847656 -0.40625 1.921875 -1.59375 C 1.003906 -2.789062 0.546875 -4.460938 0.546875 -6.609375 C 0.546875 -8.753906 1.035156 -10.351562 2.015625 -11.40625 C 3.003906 -12.457031 4.351562 -12.984375 6.0625 -12.984375 C 7.78125 -12.984375 9.128906 -12.457031 10.109375 -11.40625 C 11.085938 -10.363281 11.578125 -8.695312 11.578125 -6.40625 C 11.578125 -4.125 11.082031 -2.453125 10.09375 -1.390625 C 9.113281 -0.335938 7.738281 0.1875 5.96875 0.1875 Z M 4.296875 -7.09375 L 4.296875 -5.46875 C 4.296875 -4.28125 4.300781 -3.441406 4.3125 -2.953125 C 4.332031 -2.472656 4.394531 -1.96875 4.5 -1.4375 C 4.613281 -0.914062 4.789062 -0.578125 5.03125 -0.421875 C 5.28125 -0.273438 5.566406 -0.203125 5.890625 -0.203125 C 6.222656 -0.203125 6.472656 -0.21875 6.640625 -0.25 C 6.804688 -0.289062 6.953125 -0.367188 7.078125 -0.484375 C 7.203125 -0.597656 7.304688 -0.710938 7.390625 -0.828125 C 7.484375 -0.941406 7.554688 -1.117188 7.609375 -1.359375 C 7.660156 -1.609375 7.703125 -1.835938 7.734375 -2.046875 C 7.773438 -2.253906 7.800781 -2.554688 7.8125 -2.953125 C 7.84375 -3.734375 7.859375 -4.519531 7.859375 -5.3125 L 7.859375 -6.921875 C 7.859375 -9.304688 7.769531 -10.847656 7.59375 -11.546875 C 7.414062 -12.253906 6.910156 -12.609375 6.078125 -12.609375 C 5.253906 -12.609375 4.75 -12.25 4.5625 -11.53125 C 4.382812 -10.8125 4.296875 -9.332031 4.296875 -7.09375 Z M 4.296875 -7.09375 "/></g></g></g><g fill="#d41e1e" fill-opacity="1"><g transform="translate(125.053261, 160.923988)"><g><path d="M -2.3125 12.3125 L -0.3125 12.0625 L -0.28125 12.421875 L -4.40625 12.984375 L -5.875 12.984375 L -5.875 0.34375 L -7.3125 0.34375 L -7.3125 0 L -0.40625 0 L -0.40625 0.34375 L -2.3125 0.34375 Z M -2.3125 12.3125 "/></g></g></g><g fill="#d41e1e" fill-opacity="1"><g transform="translate(117.293698, 160.923988)"><g><path d="M -5.96875 -0.1875 C -4.195312 -0.1875 -2.847656 0.40625 -1.921875 1.59375 C -1.003906 2.789062 -0.546875 4.460938 -0.546875 6.609375 C -0.546875 8.753906 -1.035156 10.351562 -2.015625 11.40625 C -3.003906 12.457031 -4.351562 12.984375 -6.0625 12.984375 C -7.78125 12.984375 -9.128906 12.457031 -10.109375 11.40625 C -11.085938 10.363281 -11.578125 8.695312 -11.578125 6.40625 C -11.578125 4.125 -11.082031 2.453125 -10.09375 1.390625 C -9.113281 0.335938 -7.738281 -0.1875 -5.96875 -0.1875 Z M -4.296875 7.09375 L -4.296875 5.46875 C -4.296875 4.28125 -4.300781 3.441406 -4.3125 2.953125 C -4.332031 2.472656 -4.394531 1.96875 -4.5 1.4375 C -4.613281 0.914062 -4.789062 0.578125 -5.03125 0.421875 C -5.28125 0.273438 -5.566406 0.203125 -5.890625 0.203125 C -6.222656 0.203125 -6.472656 0.21875 -6.640625 0.25 C -6.804688 0.289062 -6.953125 0.367188 -7.078125 0.484375 C -7.203125 0.597656 -7.304688 0.710938 -7.390625 0.828125 C -7.484375 0.941406 -7.554688 1.117188 -7.609375 1.359375 C -7.660156 1.609375 -7.703125 1.835938 -7.734375 2.046875 C -7.773438 2.253906 -7.800781 2.554688 -7.8125 2.953125 C -7.84375 3.734375 -7.859375 4.519531 -7.859375 5.3125 L -7.859375 6.921875 C -7.859375 9.304688 -7.769531 10.847656 -7.59375 11.546875 C -7.414062 12.253906 -6.910156 12.609375 -6.078125 12.609375 C -5.253906 12.609375 -4.75 12.25 -4.5625 11.53125 C -4.382812 10.8125 -4.296875 9.332031 -4.296875 7.09375 Z M -4.296875 7.09375 "/></g></g></g><g clip-path="url(#id5)"><path fill="#f70400" d="M 86.695312 132.398438 C 89.113281 141.226562 95.261719 148.511719 103.484375 152.277344 C 95.261719 156.046875 89.113281 163.328125 86.695312 172.15625 C 84.277344 163.328125 78.128906 156.046875 69.90625 152.277344 C 78.128906 148.511719 84.277344 141.226562 86.695312 132.398438 " fill-opacity="1" fill-rule="nonzero"/></g><g clip-path="url(#id6)"><path fill="#f70400" d="M 87.398438 6.488281 C 89.761719 14.984375 95.777344 21.992188 103.816406 25.617188 C 95.777344 29.242188 89.761719 36.25 87.398438 44.746094 C 85.035156 36.25 79.019531 29.242188 70.976562 25.617188 C 79.019531 21.992188 85.035156 14.984375 87.398438 6.488281 " fill-opacity="1" fill-rule="nonzero"/></g><g clip-path="url(#id7)"><path fill="#f70400" d="M 42.707031 132.398438 C 45.125 141.226562 51.273438 148.511719 59.496094 152.277344 C 51.273438 156.046875 45.125 163.328125 42.707031 172.15625 C 40.292969 163.328125 34.140625 156.046875 25.917969 152.277344 C 34.140625 148.511719 40.292969 141.226562 42.707031 132.398438 " fill-opacity="1" fill-rule="nonzero"/></g><g clip-path="url(#id8)"><path fill="#f70400" d="M 42.332031 46.605469 C 44.695312 55.101562 50.710938 62.109375 58.753906 65.734375 C 50.710938 69.363281 44.695312 76.371094 42.332031 84.863281 C 39.96875 76.371094 33.953125 69.363281 25.914062 65.734375 C 33.953125 62.109375 39.96875 55.101562 42.332031 46.605469 " fill-opacity="1" fill-rule="nonzero"/></g><g clip-path="url(#id9)"><path fill="#f70400" d="M 42.332031 89.347656 C 44.695312 97.84375 50.710938 104.851562 58.753906 108.476562 C 50.710938 112.105469 44.695312 119.109375 42.332031 127.605469 C 39.96875 119.109375 33.953125 112.105469 25.914062 108.476562 C 33.953125 104.851562 39.96875 97.84375 42.332031 89.347656 " fill-opacity="1" fill-rule="nonzero"/></g><g clip-path="url(#id10)"><path fill="#f70400" d="M 87.398438 46.605469 C 89.761719 55.101562 95.777344 62.109375 103.816406 65.734375 C 95.777344 69.363281 89.761719 76.371094 87.398438 84.863281 C 85.035156 76.371094 79.019531 69.363281 70.976562 65.734375 C 79.019531 62.109375 85.035156 55.101562 87.398438 46.605469 " fill-opacity="1" fill-rule="nonzero"/></g><g clip-path="url(#id11)"><path fill="#f70400" d="M 86.859375 89.347656 C 89.222656 97.84375 95.238281 104.851562 103.277344 108.476562 C 95.238281 112.105469 89.222656 119.109375 86.859375 127.605469 C 84.496094 119.109375 78.480469 112.105469 70.441406 108.476562 C 78.480469 104.851562 84.496094 97.84375 86.859375 89.347656 " fill-opacity="1" fill-rule="nonzero"/></g><g clip-path="url(#id12)"><path fill="#f70400" d="M 63.648438 30.40625 C 65.636719 37.566406 70.691406 43.476562 77.453125 46.53125 C 70.691406 49.589844 65.636719 55.5 63.648438 62.660156 C 61.660156 55.5 56.605469 49.589844 49.84375 46.53125 C 56.605469 43.476562 61.660156 37.566406 63.648438 30.40625 " fill-opacity="1" fill-rule="nonzero"/></g><g clip-path="url(#id13)"><path fill="#f70400" d="M 63.648438 111.386719 C 65.636719 118.550781 70.691406 124.457031 77.453125 127.515625 C 70.691406 130.574219 65.636719 136.480469 63.648438 143.644531 C 61.660156 136.480469 56.605469 130.574219 49.84375 127.515625 C 56.605469 124.457031 61.660156 118.550781 63.648438 111.386719 " fill-opacity="1" fill-rule="nonzero"/></g></svg>