<svg xmlns="http://www.w3.org/2000/svg" xmlns:xlink="http://www.w3.org/1999/xlink" width="170" zoomAndPan="magnify" viewBox="0 0 127.5 178.499993" height="238" preserveAspectRatio="xMidYMid meet" version="1.0"><defs><g/><clipPath id="id1"><path d="M 0 0.0976562 L 127 0.0976562 L 127 177.902344 L 0 177.902344 Z M 0 0.0976562 " clip-rule="nonzero"/></clipPath><clipPath id="id2"><path d="M 4.488281 21.945312 L 20.910156 21.945312 L 20.910156 41.445312 L 4.488281 41.445312 Z M 4.488281 21.945312 " clip-rule="nonzero"/></clipPath><clipPath id="id3"><path d="M 106.488281 137.503906 L 122.910156 137.503906 L 122.910156 157.003906 L 106.488281 157.003906 Z M 106.488281 137.503906 " clip-rule="nonzero"/></clipPath><clipPath id="id4"><path d="M 46.058594 12.847656 L 81.136719 12.847656 L 81.136719 54.097656 L 46.058594 54.097656 Z M 46.058594 12.847656 " clip-rule="nonzero"/></clipPath><clipPath id="id5"><path d="M 46.058594 124.632812 L 81.136719 124.632812 L 81.136719 165.882812 L 46.058594 165.882812 Z M 46.058594 124.632812 " clip-rule="nonzero"/></clipPath></defs><g clip-path="url(#id1)"><path fill="#ffffff" d="M 0 0.0976562 L 127.5 0.0976562 L 127.5 186.097656 L 0 186.097656 Z M 0 0.0976562 " fill-opacity="1" fill-rule="nonzero"/><path fill="#ffffff" d="M 0 0.0976562 L 127.5 0.0976562 L 127.5 178.597656 L 0 178.597656 Z M 0 0.0976562 " fill-opacity="1" fill-rule="nonzero"/><path fill="#ffffff" d="M 0 0.0976562 L 127.5 0.0976562 L 127.5 178.597656 L 0 178.597656 Z M 0 0.0976562 " fill-opacity="1" fill-rule="nonzero"/><path fill="#ffffff" d="M 0 0.0976562 L 127.5 0.0976562 L 127.5 178.597656 L 0 178.597656 Z M 0 0.0976562 " fill-opacity="1" fill-rule="nonzero"/></g><g clip-path="url(#id2)"><path fill="#f70400" d="M 12.699219 21.945312 C 13.878906 26.277344 16.886719 29.847656 20.910156 31.699219 C 16.886719 33.546875 13.878906 37.117188 12.699219 41.449219 C 11.515625 37.117188 8.507812 33.546875 4.488281 31.699219 C 8.507812 29.847656 11.515625 26.277344 12.699219 21.945312 " fill-opacity="1" fill-rule="nonzero"/></g><g clip-path="url(#id3)"><path fill="#f70400" d="M 114.699219 137.503906 C 115.878906 141.835938 118.886719 145.410156 122.910156 147.257812 C 118.886719 149.105469 115.878906 152.679688 114.699219 157.007812 C 113.515625 152.679688 110.507812 149.105469 106.488281 147.257812 C 110.507812 145.410156 113.515625 141.835938 114.699219 137.503906 " fill-opacity="1" fill-rule="nonzero"/></g><g clip-path="url(#id4)"><path fill="#f70400" d="M 63.597656 12.847656 C 66.125 22.011719 72.546875 29.566406 81.136719 33.476562 C 72.546875 37.386719 66.125 44.945312 63.597656 54.105469 C 61.074219 44.945312 54.648438 37.386719 46.058594 33.476562 C 54.648438 29.566406 61.074219 22.011719 63.597656 12.847656 " fill-opacity="1" fill-rule="nonzero"/></g><g fill="#d41e1e" fill-opacity="1"><g transform="translate(7.70625, 17.772726)"><g><path d="M 0.640625 -10.1875 C 0.640625 -11.007812 0.992188 -11.679688 1.703125 -12.203125 C 2.410156 -12.722656 3.46875 -12.984375 4.875 -12.984375 C 6.289062 -12.984375 7.378906 -12.722656 8.140625 -12.203125 C 8.898438 -11.679688 9.28125 -10.894531 9.28125 -9.84375 C 9.28125 -9.5 9.25 -9.191406 9.1875 -8.921875 C 9.125 -8.648438 8.984375 -8.363281 8.765625 -8.0625 C 8.554688 -7.757812 8.351562 -7.492188 8.15625 -7.265625 C 7.957031 -7.035156 7.613281 -6.734375 7.125 -6.359375 C 6.394531 -5.773438 5.625 -5.191406 4.8125 -4.609375 C 4.007812 -4.035156 3.546875 -3.695312 3.421875 -3.59375 L 2.296875 -2.796875 L 6.6875 -2.796875 C 7.53125 -2.796875 8.125 -2.976562 8.46875 -3.34375 C 8.820312 -3.707031 9.070312 -4.28125 9.21875 -5.0625 L 9.53125 -5.0625 L 9.359375 0 L 0.765625 0 L 0.765625 -2.125 L 2.609375 -3.8125 C 3.867188 -4.957031 4.757812 -5.976562 5.28125 -6.875 C 5.800781 -7.769531 6.0625 -8.753906 6.0625 -9.828125 C 6.0625 -10.910156 5.945312 -11.648438 5.71875 -12.046875 C 5.488281 -12.441406 5.097656 -12.640625 4.546875 -12.640625 C 3.992188 -12.640625 3.609375 -12.5 3.390625 -12.21875 C 3.171875 -11.9375 3.0625 -11.664062 3.0625 -11.40625 C 3.0625 -11.15625 3.097656 -10.929688 3.171875 -10.734375 L 3.71875 -10.734375 C 3.820312 -10.484375 3.875 -10.175781 3.875 -9.8125 C 3.875 -9.457031 3.71875 -9.148438 3.40625 -8.890625 C 3.101562 -8.628906 2.703125 -8.5 2.203125 -8.5 C 1.710938 -8.5 1.328125 -8.660156 1.046875 -8.984375 C 0.773438 -9.304688 0.640625 -9.707031 0.640625 -10.1875 Z M 0.640625 -10.1875 "/></g></g></g><g fill="#d41e1e" fill-opacity="1"><g transform="translate(120.381978, 160.923988)"><g><path d="M -0.640625 10.1875 C -0.640625 11.007812 -0.992188 11.679688 -1.703125 12.203125 C -2.410156 12.722656 -3.46875 12.984375 -4.875 12.984375 C -6.289062 12.984375 -7.378906 12.722656 -8.140625 12.203125 C -8.898438 11.679688 -9.28125 10.894531 -9.28125 9.84375 C -9.28125 9.5 -9.25 9.191406 -9.1875 8.921875 C -9.125 8.648438 -8.984375 8.363281 -8.765625 8.0625 C -8.554688 7.757812 -8.351562 7.492188 -8.15625 7.265625 C -7.957031 7.035156 -7.613281 6.734375 -7.125 6.359375 C -6.394531 5.773438 -5.625 5.191406 -4.8125 4.609375 C -4.007812 4.035156 -3.546875 3.695312 -3.421875 3.59375 L -2.296875 2.796875 L -6.6875 2.796875 C -7.53125 2.796875 -8.125 2.976562 -8.46875 3.34375 C -8.820312 3.707031 -9.070312 4.28125 -9.21875 5.0625 L -9.53125 5.0625 L -9.359375 0 L -0.765625 0 L -0.765625 2.125 L -2.609375 3.8125 C -3.867188 4.957031 -4.757812 5.976562 -5.28125 6.875 C -5.800781 7.769531 -6.0625 8.753906 -6.0625 9.828125 C -6.0625 10.910156 -5.945312 11.648438 -5.71875 12.046875 C -5.488281 12.441406 -5.097656 12.640625 -4.546875 12.640625 C -3.992188 12.640625 -3.609375 12.5 -3.390625 12.21875 C -3.171875 11.9375 -3.0625 11.664062 -3.0625 11.40625 C -3.0625 11.15625 -3.097656 10.929688 -3.171875 10.734375 L -3.71875 10.734375 C -3.820312 10.484375 -3.875 10.175781 -3.875 9.8125 C -3.875 9.457031 -3.71875 9.148438 -3.40625 8.890625 C -3.101562 8.628906 -2.703125 8.5 -2.203125 8.5 C -1.710938 8.5 -1.328125 8.660156 -1.046875 8.984375 C -0.773438 9.304688 -0.640625 9.707031 -0.640625 10.1875 Z M -0.640625 10.1875 "/></g></g></g><g clip-path="url(#id5)"><path fill="#f70400" d="M 63.597656 124.628906 C 66.125 133.792969 72.546875 141.347656 81.136719 145.257812 C 72.546875 149.171875 66.125 156.726562 63.597656 165.886719 L 63.597656 165.890625 L 63.597656 165.886719 C 61.074219 156.726562 54.648438 149.171875 46.058594 145.257812 C 54.648438 141.347656 61.074219 133.792969 63.597656 124.628906 " fill-opacity="1" fill-rule="nonzero"/></g></svg>