<svg xmlns="http://www.w3.org/2000/svg" xmlns:xlink="http://www.w3.org/1999/xlink" width="170" zoomAndPan="magnify" viewBox="0 0 127.5 178.499993" height="238" preserveAspectRatio="xMidYMid meet" version="1.0"><defs><g/><clipPath id="id1"><path d="M 0 0.0976562 L 127 0.0976562 L 127 177.902344 L 0 177.902344 Z M 0 0.0976562 " clip-rule="nonzero"/></clipPath><clipPath id="id2"><path d="M 4.488281 21.945312 L 20.910156 21.945312 L 20.910156 41.445312 L 4.488281 41.445312 Z M 4.488281 21.945312 " clip-rule="nonzero"/></clipPath><clipPath id="id3"><path d="M 106.488281 137.503906 L 122.910156 137.503906 L 122.910156 157.003906 L 106.488281 157.003906 Z M 106.488281 137.503906 " clip-rule="nonzero"/></clipPath><clipPath id="id4"><path d="M 24.433594 6.488281 L 57.273438 6.488281 L 57.273438 44.738281 L 24.433594 44.738281 Z M 24.433594 6.488281 " clip-rule="nonzero"/></clipPath><clipPath id="id5"><path d="M 69.90625 132.402344 L 103.484375 132.402344 L 103.484375 172.152344 L 69.90625 172.152344 Z M 69.90625 132.402344 " clip-rule="nonzero"/></clipPath><clipPath id="id6"><path d="M 70.976562 6.488281 L 103.816406 6.488281 L 103.816406 44.738281 L 70.976562 44.738281 Z M 70.976562 6.488281 " clip-rule="nonzero"/></clipPath><clipPath id="id7"><path d="M 25.917969 132.402344 L 59.496094 132.402344 L 59.496094 172.152344 L 25.917969 172.152344 Z M 25.917969 132.402344 " clip-rule="nonzero"/></clipPath><clipPath id="id8"><path d="M 25.914062 46.609375 L 58.753906 46.609375 L 58.753906 84.859375 L 25.914062 84.859375 Z M 25.914062 46.609375 " clip-rule="nonzero"/></clipPath><clipPath id="id9"><path d="M 25.914062 89.347656 L 58.753906 89.347656 L 58.753906 127.601562 L 25.914062 127.601562 Z M 25.914062 89.347656 " clip-rule="nonzero"/></clipPath><clipPath id="id10"><path d="M 70.976562 46.609375 L 103.816406 46.609375 L 103.816406 84.859375 L 70.976562 84.859375 Z M 70.976562 46.609375 " clip-rule="nonzero"/></clipPath><clipPath id="id11"><path d="M 70.441406 89.347656 L 103.277344 89.347656 L 103.277344 127.601562 L 70.441406 127.601562 Z M 70.441406 89.347656 " clip-rule="nonzero"/></clipPath><clipPath id="id12"><path d="M 49.84375 68.648438 L 77.453125 68.648438 L 77.453125 100.898438 L 49.84375 100.898438 Z M 49.84375 68.648438 " clip-rule="nonzero"/></clipPath></defs><g clip-path="url(#id1)"><path fill="#ffffff" d="M 0 0.0976562 L 127.5 0.0976562 L 127.5 186.097656 L 0 186.097656 Z M 0 0.0976562 " fill-opacity="1" fill-rule="nonzero"/><path fill="#ffffff" d="M 0 0.0976562 L 127.5 0.0976562 L 127.5 178.597656 L 0 178.597656 Z M 0 0.0976562 " fill-opacity="1" fill-rule="nonzero"/><path fill="#ffffff" d="M 0 0.0976562 L 127.5 0.0976562 L 127.5 178.597656 L 0 178.597656 Z M 0 0.0976562 " fill-opacity="1" fill-rule="nonzero"/><path fill="#ffffff" d="M 0 0.0976562 L 127.5 0.0976562 L 127.5 178.597656 L 0 178.597656 Z M 0 0.0976562 " fill-opacity="1" fill-rule="nonzero"/></g><g clip-path="url(#id2)"><path fill="#f70400" d="M 12.699219 21.945312 C 13.878906 26.277344 16.886719 29.847656 20.910156 31.699219 C 16.886719 33.546875 13.878906 37.117188 12.699219 41.449219 C 11.515625 37.117188 8.507812 33.546875 4.488281 31.699219 C 8.507812 29.847656 11.515625 26.277344 12.699219 21.945312 " fill-opacity="1" fill-rule="nonzero"/></g><g clip-path="url(#id3)"><path fill="#f70400" d="M 114.699219 137.503906 C 115.878906 141.835938 118.886719 145.410156 122.910156 147.257812 C 118.886719 149.105469 115.878906 152.679688 114.699219 157.007812 C 113.515625 152.679688 110.507812 149.105469 106.488281 147.257812 C 110.507812 145.410156 113.515625 141.835938 114.699219 137.503906 " fill-opacity="1" fill-rule="nonzero"/></g><g clip-path="url(#id4)"><path fill="#f70400" d="M 40.851562 6.488281 C 43.21875 14.984375 49.230469 21.992188 57.273438 25.617188 C 49.230469 29.242188 43.21875 36.25 40.851562 44.746094 C 38.488281 36.25 32.476562 29.242188 24.433594 25.617188 C 32.476562 21.992188 38.488281 14.984375 40.851562 6.488281 " fill-opacity="1" fill-rule="nonzero"/></g><path fill="#d41e1e" d="M 7.121094 19.273438 L 18.359375 19.273438 L 18.359375 20.773438 L 7.121094 20.773438 Z M 7.121094 19.273438 " fill-opacity="1" fill-rule="nonzero"/><g fill="#d41e1e" fill-opacity="1"><g transform="translate(7.120312, 17.772726)"><g><path d="M 10.671875 -7.171875 C 10.671875 -4.816406 10.15625 -3 9.125 -1.71875 C 8.09375 -0.445312 6.664062 0.1875 4.84375 0.1875 C 3.5625 0.1875 2.554688 -0.0546875 1.828125 -0.546875 C 1.109375 -1.035156 0.75 -1.671875 0.75 -2.453125 C 0.75 -2.929688 0.894531 -3.347656 1.1875 -3.703125 C 1.488281 -4.066406 1.882812 -4.25 2.375 -4.25 C 2.875 -4.25 3.265625 -4.117188 3.546875 -3.859375 C 3.835938 -3.597656 3.984375 -3.285156 3.984375 -2.921875 C 3.984375 -2.566406 3.929688 -2.253906 3.828125 -1.984375 L 3.28125 -1.984375 C 3.195312 -1.804688 3.15625 -1.570312 3.15625 -1.28125 C 3.15625 -1 3.285156 -0.742188 3.546875 -0.515625 C 3.816406 -0.296875 4.207031 -0.1875 4.71875 -0.1875 C 5.53125 -0.1875 6.117188 -0.628906 6.484375 -1.515625 C 6.859375 -2.398438 7.050781 -3.945312 7.0625 -6.15625 C 6.4375 -5.164062 5.476562 -4.671875 4.1875 -4.671875 C 3.082031 -4.671875 2.175781 -5.023438 1.46875 -5.734375 C 0.769531 -6.441406 0.421875 -7.410156 0.421875 -8.640625 C 0.421875 -10.097656 0.90625 -11.1875 1.875 -11.90625 C 2.84375 -12.625 4.082031 -12.984375 5.59375 -12.984375 C 8.976562 -12.984375 10.671875 -11.046875 10.671875 -7.171875 Z M 5.234375 -5.28125 C 5.648438 -5.28125 6 -5.429688 6.28125 -5.734375 C 6.570312 -6.046875 6.769531 -6.410156 6.875 -6.828125 C 6.976562 -7.253906 7.03125 -7.804688 7.03125 -8.484375 C 7.03125 -9.160156 7.023438 -9.628906 7.015625 -9.890625 C 7.015625 -10.148438 7 -10.457031 6.96875 -10.8125 C 6.945312 -11.175781 6.90625 -11.441406 6.84375 -11.609375 C 6.789062 -11.773438 6.710938 -11.945312 6.609375 -12.125 C 6.429688 -12.445312 6.097656 -12.609375 5.609375 -12.609375 C 5.054688 -12.609375 4.648438 -12.390625 4.390625 -11.953125 C 4.179688 -11.597656 4.054688 -10.988281 4.015625 -10.125 C 4.003906 -9.8125 4 -9.394531 4 -8.875 C 4 -8.363281 4 -7.96875 4 -7.6875 C 4.007812 -7.40625 4.023438 -7.109375 4.046875 -6.796875 C 4.078125 -6.492188 4.117188 -6.257812 4.171875 -6.09375 C 4.222656 -5.9375 4.296875 -5.785156 4.390625 -5.640625 C 4.546875 -5.398438 4.828125 -5.28125 5.234375 -5.28125 Z M 5.234375 -5.28125 "/></g></g></g><path fill="#d41e1e" d="M 120.382812 159.425781 L 109.144531 159.425781 L 109.144531 157.925781 L 120.382812 157.925781 Z M 120.382812 159.425781 " fill-opacity="1" fill-rule="nonzero"/><g fill="#d41e1e" fill-opacity="1"><g transform="translate(120.381978, 160.923988)"><g><path d="M -10.671875 7.171875 C -10.671875 4.816406 -10.15625 3 -9.125 1.71875 C -8.09375 0.445312 -6.664062 -0.1875 -4.84375 -0.1875 C -3.5625 -0.1875 -2.554688 0.0546875 -1.828125 0.546875 C -1.109375 1.035156 -0.75 1.671875 -0.75 2.453125 C -0.75 2.929688 -0.894531 3.347656 -1.1875 3.703125 C -1.488281 4.066406 -1.882812 4.25 -2.375 4.25 C -2.875 4.25 -3.265625 4.117188 -3.546875 3.859375 C -3.835938 3.597656 -3.984375 3.285156 -3.984375 2.921875 C -3.984375 2.566406 -3.929688 2.253906 -3.828125 1.984375 L -3.28125 1.984375 C -3.195312 1.804688 -3.15625 1.570312 -3.15625 1.28125 C -3.15625 1 -3.285156 0.742188 -3.546875 0.515625 C -3.816406 0.296875 -4.207031 0.1875 -4.71875 0.1875 C -5.53125 0.1875 -6.117188 0.628906 -6.484375 1.515625 C -6.859375 2.398438 -7.050781 3.945312 -7.0625 6.15625 C -6.4375 5.164062 -5.476562 4.671875 -4.1875 4.671875 C -3.082031 4.671875 -2.175781 5.023438 -1.46875 5.734375 C -0.769531 6.441406 -0.421875 7.410156 -0.421875 8.640625 C -0.421875 10.097656 -0.90625 11.1875 -1.875 11.90625 C -2.84375 12.625 -4.082031 12.984375 -5.59375 12.984375 C -8.976562 12.984375 -10.671875 11.046875 -10.671875 7.171875 Z M -5.234375 5.28125 C -5.648438 5.28125 -6 5.429688 -6.28125 5.734375 C -6.570312 6.046875 -6.769531 6.410156 -6.875 6.828125 C -6.976562 7.253906 -7.03125 7.804688 -7.03125 8.484375 C -7.03125 9.160156 -7.023438 9.628906 -7.015625 9.890625 C -7.015625 10.148438 -7 10.457031 -6.96875 10.8125 C -6.945312 11.175781 -6.90625 11.441406 -6.84375 11.609375 C -6.789062 11.773438 -6.710938 11.945312 -6.609375 12.125 C -6.429688 12.445312 -6.097656 12.609375 -5.609375 12.609375 C -5.054688 12.609375 -4.648438 12.390625 -4.390625 11.953125 C -4.179688 11.597656 -4.054688 10.988281 -4.015625 10.125 C -4.003906 9.8125 -4 9.394531 -4 8.875 C -4 8.363281 -4 7.96875 -4 7.6875 C -4.007812 7.40625 -4.023438 7.109375 -4.046875 6.796875 C -4.078125 6.492188 -4.117188 6.257812 -4.171875 6.09375 C -4.222656 5.9375 -4.296875 5.785156 -4.390625 5.640625 C -4.546875 5.398438 -4.828125 5.28125 -5.234375 5.28125 Z M -5.234375 5.28125 "/></g></g></g><g clip-path="url(#id5)"><path fill="#f70400" d="M 86.695312 132.398438 C 89.113281 141.226562 95.261719 148.511719 103.484375 152.277344 C 95.261719 156.046875 89.113281 163.328125 86.695312 172.15625 C 84.277344 163.328125 78.128906 156.046875 69.90625 152.277344 C 78.128906 148.511719 84.277344 141.226562 86.695312 132.398438 " fill-opacity="1" fill-rule="nonzero"/></g><g clip-path="url(#id6)"><path fill="#f70400" d="M 87.398438 6.488281 C 89.761719 14.984375 95.777344 21.992188 103.816406 25.617188 C 95.777344 29.242188 89.761719 36.25 87.398438 44.746094 C 85.035156 36.25 79.019531 29.242188 70.976562 25.617188 C 79.019531 21.992188 85.035156 14.984375 87.398438 6.488281 " fill-opacity="1" fill-rule="nonzero"/></g><g clip-path="url(#id7)"><path fill="#f70400" d="M 42.707031 132.398438 C 45.125 141.226562 51.273438 148.511719 59.496094 152.277344 C 51.273438 156.046875 45.125 163.328125 42.707031 172.15625 C 40.292969 163.328125 34.140625 156.046875 25.917969 152.277344 C 34.140625 148.511719 40.292969 141.226562 42.707031 132.398438 " fill-opacity="1" fill-rule="nonzero"/></g><g clip-path="url(#id8)"><path fill="#f70400" d="M 42.332031 46.605469 C 44.695312 55.101562 50.710938 62.109375 58.753906 65.734375 C 50.710938 69.363281 44.695312 76.371094 42.332031 84.863281 C 39.96875 76.371094 33.953125 69.363281 25.914062 65.734375 C 33.953125 62.109375 39.96875 55.101562 42.332031 46.605469 " fill-opacity="1" fill-rule="nonzero"/></g><g clip-path="url(#id9)"><path fill="#f70400" d="M 42.332031 89.347656 C 44.695312 97.84375 50.710938 104.851562 58.753906 108.476562 C 50.710938 112.105469 44.695312 119.109375 42.332031 127.605469 C 39.96875 119.109375 33.953125 112.105469 25.914062 108.476562 C 33.953125 104.851562 39.96875 97.84375 42.332031 89.347656 " fill-opacity="1" fill-rule="nonzero"/></g><g clip-path="url(#id10)"><path fill="#f70400" d="M 87.398438 46.605469 C 89.761719 55.101562 95.777344 62.109375 103.816406 65.734375 C 95.777344 69.363281 89.761719 76.371094 87.398438 84.863281 C 85.035156 76.371094 79.019531 69.363281 70.976562 65.734375 C 79.019531 62.109375 85.035156 55.101562 87.398438 46.605469 " fill-opacity="1" fill-rule="nonzero"/></g><g clip-path="url(#id11)"><path fill="#f70400" d="M 86.859375 89.347656 C 89.222656 97.84375 95.238281 104.851562 103.277344 108.476562 C 95.238281 112.105469 89.222656 119.109375 86.859375 127.605469 C 84.496094 119.109375 78.480469 112.105469 70.441406 108.476562 C 78.480469 104.851562 84.496094 97.84375 86.859375 89.347656 " fill-opacity="1" fill-rule="nonzero"/></g><g clip-path="url(#id12)"><path fill="#f70400" d="M 63.648438 68.644531 C 65.636719 75.808594 70.691406 81.71875 77.453125 84.773438 C 70.691406 87.832031 65.636719 93.738281 63.648438 100.902344 C 61.660156 93.738281 56.605469 87.832031 49.84375 84.773438 C 56.605469 81.71875 61.660156 75.808594 63.648438 68.644531 " fill-opacity="1" fill-rule="nonzero"/></g></svg>