<svg xmlns="http://www.w3.org/2000/svg" xmlns:xlink="http://www.w3.org/1999/xlink" width="170" zoomAndPan="magnify" viewBox="0 0 127.5 178.499993" height="238" preserveAspectRatio="xMidYMid meet" version="1.0"><defs><g/><clipPath id="id1"><path d="M 0 0.0976562 L 127 0.0976562 L 127 177.902344 L 0 177.902344 Z M 0 0.0976562 " clip-rule="nonzero"/></clipPath><clipPath id="id2"><path d="M 4.488281 21.945312 L 20.910156 21.945312 L 20.910156 41.445312 L 4.488281 41.445312 Z M 4.488281 21.945312 " clip-rule="nonzero"/></clipPath><clipPath id="id3"><path d="M 106.488281 137.503906 L 122.910156 137.503906 L 122.910156 157.003906 L 106.488281 157.003906 Z M 106.488281 137.503906 " clip-rule="nonzero"/></clipPath><clipPath id="id4"><path d="M 24.4375 12.847656 L 59.519531 12.847656 L 59.519531 54.097656 L 24.4375 54.097656 Z M 24.4375 12.847656 " clip-rule="nonzero"/></clipPath><clipPath id="id5"><path d="M 67.480469 124.632812 L 102.558594 124.632812 L 102.558594 165.882812 L 67.480469 165.882812 Z M 67.480469 124.632812 " clip-rule="nonzero"/></clipPath><clipPath id="id6"><path d="M 70.984375 12.847656 L 106.0625 12.847656 L 106.0625 54.097656 L 70.984375 54.097656 Z M 70.984375 12.847656 " clip-rule="nonzero"/></clipPath><clipPath id="id7"><path d="M 25.929688 124.632812 L 61.007812 124.632812 L 61.007812 165.882812 L 25.929688 165.882812 Z M 25.929688 124.632812 " clip-rule="nonzero"/></clipPath><clipPath id="id8"><path d="M 27.386719 72.167969 L 57.234375 72.167969 L 57.234375 106.667969 L 27.386719 106.667969 Z M 27.386719 72.167969 " clip-rule="nonzero"/></clipPath><clipPath id="id9"><path d="M 70.425781 72.167969 L 100.273438 72.167969 L 100.273438 106.667969 L 70.425781 106.667969 Z M 70.425781 72.167969 " clip-rule="nonzero"/></clipPath><clipPath id="id10"><path d="M 49.003906 45.425781 L 78.855469 45.425781 L 78.855469 79.925781 L 49.003906 79.925781 Z M 49.003906 45.425781 " clip-rule="nonzero"/></clipPath><clipPath id="id11"><path d="M 49.003906 97.222656 L 78.855469 97.222656 L 78.855469 131.722656 L 49.003906 131.722656 Z M 49.003906 97.222656 " clip-rule="nonzero"/></clipPath></defs><g clip-path="url(#id1)"><path fill="#ffffff" d="M 0 0.0976562 L 127.5 0.0976562 L 127.5 186.097656 L 0 186.097656 Z M 0 0.0976562 " fill-opacity="1" fill-rule="nonzero"/><path fill="#ffffff" d="M 0 0.0976562 L 127.5 0.0976562 L 127.5 178.597656 L 0 178.597656 Z M 0 0.0976562 " fill-opacity="1" fill-rule="nonzero"/><path fill="#ffffff" d="M 0 0.0976562 L 127.5 0.0976562 L 127.5 178.597656 L 0 178.597656 Z M 0 0.0976562 " fill-opacity="1" fill-rule="nonzero"/><path fill="#ffffff" d="M 0 0.0976562 L 127.5 0.0976562 L 127.5 178.597656 L 0 178.597656 Z M 0 0.0976562 " fill-opacity="1" fill-rule="nonzero"/></g><g clip-path="url(#id2)"><path fill="#f70400" d="M 12.699219 21.945312 C 13.878906 26.277344 16.886719 29.847656 20.910156 31.699219 C 16.886719 33.546875 13.878906 37.117188 12.699219 41.449219 C 11.515625 37.117188 8.507812 33.546875 4.488281 31.699219 C 8.507812 29.847656 11.515625 26.277344 12.699219 21.945312 " fill-opacity="1" fill-rule="nonzero"/></g><g clip-path="url(#id3)"><path fill="#f70400" d="M 114.699219 137.503906 C 115.878906 141.835938 118.886719 145.410156 122.910156 147.257812 C 118.886719 149.105469 115.878906 152.679688 114.699219 157.007812 C 113.515625 152.679688 110.507812 149.105469 106.488281 147.257812 C 110.507812 145.410156 113.515625 141.835938 114.699219 137.503906 " fill-opacity="1" fill-rule="nonzero"/></g><g clip-path="url(#id4)"><path fill="#f70400" d="M 41.976562 12.847656 C 44.503906 22.011719 50.925781 29.566406 59.515625 33.476562 C 50.925781 37.386719 44.503906 44.945312 41.976562 54.105469 C 39.453125 44.945312 33.027344 37.386719 24.4375 33.476562 C 33.027344 29.566406 39.453125 22.011719 41.976562 12.847656 " fill-opacity="1" fill-rule="nonzero"/></g><g fill="#d41e1e" fill-opacity="1"><g transform="translate(7.167187, 17.772726)"><g><path d="M 4.546875 -6.71875 C 3.367188 -6.78125 2.445312 -7.078125 1.78125 -7.609375 C 1.125 -8.140625 0.796875 -8.820312 0.796875 -9.65625 C 0.796875 -10.6875 1.203125 -11.5 2.015625 -12.09375 C 2.835938 -12.6875 4.035156 -12.984375 5.609375 -12.984375 C 7.179688 -12.984375 8.367188 -12.703125 9.171875 -12.140625 C 9.972656 -11.585938 10.375 -10.835938 10.375 -9.890625 C 10.375 -8.941406 10.0625 -8.195312 9.4375 -7.65625 C 8.820312 -7.113281 7.929688 -6.800781 6.765625 -6.71875 L 6.765625 -6.671875 C 9.390625 -6.453125 10.703125 -5.335938 10.703125 -3.328125 C 10.703125 -2.160156 10.289062 -1.28125 9.46875 -0.6875 C 8.644531 -0.101562 7.363281 0.1875 5.625 0.1875 C 2.175781 0.1875 0.453125 -0.976562 0.453125 -3.3125 C 0.453125 -5.363281 1.816406 -6.484375 4.546875 -6.671875 Z M 7.21875 -3.328125 C 7.21875 -4.453125 7.109375 -5.257812 6.890625 -5.75 C 6.671875 -6.238281 6.242188 -6.484375 5.609375 -6.484375 C 4.984375 -6.484375 4.5625 -6.234375 4.34375 -5.734375 C 4.125 -5.242188 4.015625 -4.4375 4.015625 -3.3125 C 4.015625 -2.1875 4.117188 -1.382812 4.328125 -0.90625 C 4.546875 -0.4375 4.976562 -0.203125 5.625 -0.203125 C 6.269531 -0.203125 6.695312 -0.441406 6.90625 -0.921875 C 7.113281 -1.398438 7.21875 -2.203125 7.21875 -3.328125 Z M 5.625 -12.609375 C 5.09375 -12.609375 4.75 -12.390625 4.59375 -11.953125 C 4.4375 -11.523438 4.359375 -10.941406 4.359375 -10.203125 C 4.359375 -9.460938 4.363281 -8.96875 4.375 -8.71875 C 4.394531 -8.46875 4.425781 -8.207031 4.46875 -7.9375 C 4.507812 -7.675781 4.578125 -7.476562 4.671875 -7.34375 C 4.878906 -7.050781 5.21875 -6.90625 5.6875 -6.90625 C 6.09375 -6.90625 6.398438 -7.050781 6.609375 -7.34375 C 6.765625 -7.570312 6.847656 -7.914062 6.859375 -8.375 C 6.878906 -8.832031 6.890625 -9.4375 6.890625 -10.1875 C 6.890625 -10.9375 6.8125 -11.523438 6.65625 -11.953125 C 6.5 -12.390625 6.15625 -12.609375 5.625 -12.609375 Z M 5.625 -12.609375 "/></g></g></g><g fill="#d41e1e" fill-opacity="1"><g transform="translate(120.381978, 160.923988)"><g><path d="M -4.546875 6.71875 C -3.367188 6.78125 -2.445312 7.078125 -1.78125 7.609375 C -1.125 8.140625 -0.796875 8.820312 -0.796875 9.65625 C -0.796875 10.6875 -1.203125 11.5 -2.015625 12.09375 C -2.835938 12.6875 -4.035156 12.984375 -5.609375 12.984375 C -7.179688 12.984375 -8.367188 12.703125 -9.171875 12.140625 C -9.972656 11.585938 -10.375 10.835938 -10.375 9.890625 C -10.375 8.941406 -10.0625 8.195312 -9.4375 7.65625 C -8.820312 7.113281 -7.929688 6.800781 -6.765625 6.71875 L -6.765625 6.671875 C -9.390625 6.453125 -10.703125 5.335938 -10.703125 3.328125 C -10.703125 2.160156 -10.289062 1.28125 -9.46875 0.6875 C -8.644531 0.101562 -7.363281 -0.1875 -5.625 -0.1875 C -2.175781 -0.1875 -0.453125 0.976562 -0.453125 3.3125 C -0.453125 5.363281 -1.816406 6.484375 -4.546875 6.671875 Z M -7.21875 3.328125 C -7.21875 4.453125 -7.109375 5.257812 -6.890625 5.75 C -6.671875 6.238281 -6.242188 6.484375 -5.609375 6.484375 C -4.984375 6.484375 -4.5625 6.234375 -4.34375 5.734375 C -4.125 5.242188 -4.015625 4.4375 -4.015625 3.3125 C -4.015625 2.1875 -4.117188 1.382812 -4.328125 0.90625 C -4.546875 0.4375 -4.976562 0.203125 -5.625 0.203125 C -6.269531 0.203125 -6.695312 0.441406 -6.90625 0.921875 C -7.113281 1.398438 -7.21875 2.203125 -7.21875 3.328125 Z M -5.625 12.609375 C -5.09375 12.609375 -4.75 12.390625 -4.59375 11.953125 C -4.4375 11.523438 -4.359375 10.941406 -4.359375 10.203125 C -4.359375 9.460938 -4.363281 8.96875 -4.375 8.71875 C -4.394531 8.46875 -4.425781 8.207031 -4.46875 7.9375 C -4.507812 7.675781 -4.578125 7.476562 -4.671875 7.34375 C -4.878906 7.050781 -5.21875 6.90625 -5.6875 6.90625 C -6.09375 6.90625 -6.398438 7.050781 -6.609375 7.34375 C -6.765625 7.570312 -6.847656 7.914062 -6.859375 8.375 C -6.878906 8.832031 -6.890625 9.4375 -6.890625 10.1875 C -6.890625 10.9375 -6.8125 11.523438 -6.65625 11.953125 C -6.5 12.390625 -6.15625 12.609375 -5.625 12.609375 Z M -5.625 12.609375 "/></g></g></g><g clip-path="url(#id5)"><path fill="#f70400" d="M 85.019531 124.628906 C 87.542969 133.792969 93.96875 141.347656 102.558594 145.257812 C 93.96875 149.171875 87.542969 156.726562 85.019531 165.886719 L 85.019531 165.890625 L 85.019531 165.886719 C 82.492188 156.726562 76.070312 149.171875 67.480469 145.257812 C 76.070312 141.347656 82.492188 133.792969 85.019531 124.628906 " fill-opacity="1" fill-rule="nonzero"/></g><g clip-path="url(#id6)"><path fill="#f70400" d="M 88.523438 12.847656 C 91.046875 22.011719 97.472656 29.566406 106.0625 33.476562 C 97.472656 37.386719 91.046875 44.945312 88.523438 54.105469 C 85.996094 44.945312 79.574219 37.386719 70.984375 33.476562 C 79.574219 29.566406 85.996094 22.011719 88.523438 12.847656 " fill-opacity="1" fill-rule="nonzero"/></g><g clip-path="url(#id7)"><path fill="#f70400" d="M 43.46875 124.628906 C 45.992188 133.792969 52.417969 141.347656 61.007812 145.257812 C 52.417969 149.171875 45.992188 156.726562 43.46875 165.886719 L 43.46875 165.890625 L 43.46875 165.886719 C 40.941406 156.726562 34.519531 149.171875 25.929688 145.257812 C 34.519531 141.347656 40.941406 133.792969 43.46875 124.628906 " fill-opacity="1" fill-rule="nonzero"/></g><g clip-path="url(#id8)"><path fill="#f70400" d="M 42.308594 72.167969 C 44.457031 79.828125 49.925781 86.148438 57.234375 89.421875 C 49.925781 92.691406 44.457031 99.011719 42.308594 106.671875 C 40.160156 99.011719 34.695312 92.691406 27.386719 89.421875 C 34.695312 86.148438 40.160156 79.828125 42.308594 72.167969 " fill-opacity="1" fill-rule="nonzero"/></g><g clip-path="url(#id9)"><path fill="#f70400" d="M 85.351562 72.167969 C 87.5 79.828125 92.964844 86.148438 100.273438 89.421875 C 92.964844 92.691406 87.5 99.011719 85.351562 106.671875 C 83.203125 99.011719 77.734375 92.691406 70.425781 89.421875 C 77.734375 86.148438 83.203125 79.828125 85.351562 72.167969 " fill-opacity="1" fill-rule="nonzero"/></g><g clip-path="url(#id10)"><path fill="#f70400" d="M 63.929688 45.425781 C 66.078125 53.085938 71.542969 59.40625 78.851562 62.679688 C 71.542969 65.949219 66.078125 72.269531 63.929688 79.929688 C 61.78125 72.269531 56.3125 65.949219 49.003906 62.679688 C 56.3125 59.40625 61.78125 53.085938 63.929688 45.425781 " fill-opacity="1" fill-rule="nonzero"/></g><g clip-path="url(#id11)"><path fill="#f70400" d="M 63.929688 97.222656 C 66.078125 104.886719 71.542969 111.207031 78.851562 114.476562 C 71.542969 117.746094 66.078125 124.066406 63.929688 131.730469 C 61.78125 124.066406 56.3125 117.746094 49.003906 114.476562 C 56.3125 111.207031 61.78125 104.886719 63.929688 97.222656 " fill-opacity="1" fill-rule="nonzero"/></g></svg>