<svg xmlns="http://www.w3.org/2000/svg" xmlns:xlink="http://www.w3.org/1999/xlink" width="170" zoomAndPan="magnify" viewBox="0 0 127.5 178.499993" height="238" preserveAspectRatio="xMidYMid meet" version="1.0"><defs><g/><clipPath id="id1"><path d="M 0 0.0976562 L 127 0.0976562 L 127 177.902344 L 0 177.902344 Z M 0 0.0976562 " clip-rule="nonzero"/></clipPath><clipPath id="id2"><path d="M 4.488281 21.945312 L 20.910156 21.945312 L 20.910156 41.445312 L 4.488281 41.445312 Z M 4.488281 21.945312 " clip-rule="nonzero"/></clipPath><clipPath id="id3"><path d="M 106.488281 137.503906 L 122.910156 137.503906 L 122.910156 157.003906 L 106.488281 157.003906 Z M 106.488281 137.503906 " clip-rule="nonzero"/></clipPath><clipPath id="id4"><path d="M 24.4375 12.847656 L 59.519531 12.847656 L 59.519531 54.097656 L 24.4375 54.097656 Z M 24.4375 12.847656 " clip-rule="nonzero"/></clipPath><clipPath id="id5"><path d="M 67.480469 124.632812 L 102.558594 124.632812 L 102.558594 165.882812 L 67.480469 165.882812 Z M 67.480469 124.632812 " clip-rule="nonzero"/></clipPath><clipPath id="id6"><path d="M 70.984375 12.847656 L 106.0625 12.847656 L 106.0625 54.097656 L 70.984375 54.097656 Z M 70.984375 12.847656 " clip-rule="nonzero"/></clipPath><clipPath id="id7"><path d="M 25.929688 124.632812 L 61.007812 124.632812 L 61.007812 165.882812 L 25.929688 165.882812 Z M 25.929688 124.632812 " clip-rule="nonzero"/></clipPath><clipPath id="id8"><path d="M 27.386719 72.167969 L 57.234375 72.167969 L 57.234375 106.667969 L 27.386719 106.667969 Z M 27.386719 72.167969 " clip-rule="nonzero"/></clipPath><clipPath id="id9"><path d="M 70.425781 72.167969 L 100.273438 72.167969 L 100.273438 106.667969 L 70.425781 106.667969 Z M 70.425781 72.167969 " clip-rule="nonzero"/></clipPath></defs><g clip-path="url(#id1)"><path fill="#ffffff" d="M 0 0.0976562 L 127.5 0.0976562 L 127.5 186.097656 L 0 186.097656 Z M 0 0.0976562 " fill-opacity="1" fill-rule="nonzero"/><path fill="#ffffff" d="M 0 0.0976562 L 127.5 0.0976562 L 127.5 178.597656 L 0 178.597656 Z M 0 0.0976562 " fill-opacity="1" fill-rule="nonzero"/><path fill="#ffffff" d="M 0 0.0976562 L 127.5 0.0976562 L 127.5 178.597656 L 0 178.597656 Z M 0 0.0976562 " fill-opacity="1" fill-rule="nonzero"/><path fill="#ffffff" d="M 0 0.0976562 L 127.5 0.0976562 L 127.5 178.597656 L 0 178.597656 Z M 0 0.0976562 " fill-opacity="1" fill-rule="nonzero"/></g><g clip-path="url(#id2)"><path fill="#f70400" d="M 12.699219 21.945312 C 13.878906 26.277344 16.886719 29.847656 20.910156 31.699219 C 16.886719 33.546875 13.878906 37.117188 12.699219 41.449219 C 11.515625 37.117188 8.507812 33.546875 4.488281 31.699219 C 8.507812 29.847656 11.515625 26.277344 12.699219 21.945312 " fill-opacity="1" fill-rule="nonzero"/></g><g clip-path="url(#id3)"><path fill="#f70400" d="M 114.699219 137.503906 C 115.878906 141.835938 118.886719 145.410156 122.910156 147.257812 C 118.886719 149.105469 115.878906 152.679688 114.699219 157.007812 C 113.515625 152.679688 110.507812 149.105469 106.488281 147.257812 C 110.507812 145.410156 113.515625 141.835938 114.699219 137.503906 " fill-opacity="1" fill-rule="nonzero"/></g><g clip-path="url(#id4)"><path fill="#f70400" d="M 41.976562 12.847656 C 44.503906 22.011719 50.925781 29.566406 59.515625 33.476562 C 50.925781 37.386719 44.503906 44.945312 41.976562 54.105469 C 39.453125 44.945312 33.027344 37.386719 24.4375 33.476562 C 33.027344 29.566406 39.453125 22.011719 41.976562 12.847656 " fill-opacity="1" fill-rule="nonzero"/></g><path fill="#d41e1e" d="M 7.121094 19.273438 L 18.359375 19.273438 L 18.359375 20.773438 L 7.121094 20.773438 Z M 7.121094 19.273438 " fill-opacity="1" fill-rule="nonzero"/><g fill="#d41e1e" fill-opacity="1"><g transform="translate(7.120312, 17.772726)"><g><path d="M 0.625 -5.625 C 0.625 -7.976562 1.148438 -9.789062 2.203125 -11.0625 C 3.253906 -12.34375 4.703125 -12.984375 6.546875 -12.984375 C 7.796875 -12.984375 8.753906 -12.726562 9.421875 -12.21875 C 10.097656 -11.71875 10.4375 -11.0625 10.4375 -10.25 C 10.4375 -9.78125 10.285156 -9.378906 9.984375 -9.046875 C 9.679688 -8.710938 9.285156 -8.546875 8.796875 -8.546875 C 8.316406 -8.546875 7.929688 -8.675781 7.640625 -8.9375 C 7.347656 -9.195312 7.203125 -9.503906 7.203125 -9.859375 C 7.203125 -10.222656 7.25 -10.539062 7.34375 -10.8125 L 7.921875 -10.8125 C 7.992188 -11.007812 8.03125 -11.226562 8.03125 -11.46875 C 8.03125 -12.238281 7.597656 -12.625 6.734375 -12.625 C 5.867188 -12.625 5.234375 -12.175781 4.828125 -11.28125 C 4.429688 -10.382812 4.226562 -8.84375 4.21875 -6.65625 C 4.851562 -7.632812 5.769531 -8.125 6.96875 -8.125 C 8.175781 -8.125 9.128906 -7.796875 9.828125 -7.140625 C 10.523438 -6.492188 10.875 -5.519531 10.875 -4.21875 C 10.875 -2.914062 10.414062 -1.851562 9.5 -1.03125 C 8.582031 -0.21875 7.359375 0.1875 5.828125 0.1875 C 2.359375 0.1875 0.625 -1.75 0.625 -5.625 Z M 6.046875 -7.53125 C 5.628906 -7.53125 5.273438 -7.375 4.984375 -7.0625 C 4.703125 -6.75 4.507812 -6.378906 4.40625 -5.953125 C 4.300781 -5.535156 4.25 -4.988281 4.25 -4.3125 C 4.25 -3.644531 4.253906 -3.175781 4.265625 -2.90625 C 4.273438 -2.644531 4.289062 -2.332031 4.3125 -1.96875 C 4.34375 -1.613281 4.390625 -1.351562 4.453125 -1.1875 C 4.515625 -1.03125 4.601562 -0.859375 4.71875 -0.671875 C 4.90625 -0.359375 5.210938 -0.203125 5.640625 -0.203125 C 6.066406 -0.203125 6.382812 -0.28125 6.59375 -0.4375 C 6.8125 -0.601562 6.96875 -0.882812 7.0625 -1.28125 C 7.207031 -1.851562 7.28125 -2.5625 7.28125 -3.40625 C 7.28125 -4.257812 7.273438 -4.828125 7.265625 -5.109375 C 7.265625 -5.390625 7.253906 -5.6875 7.234375 -6 C 7.210938 -6.3125 7.171875 -6.546875 7.109375 -6.703125 C 7.054688 -6.859375 6.988281 -7.007812 6.90625 -7.15625 C 6.75 -7.40625 6.460938 -7.53125 6.046875 -7.53125 Z M 6.046875 -7.53125 "/></g></g></g><path fill="#d41e1e" d="M 120.382812 159.425781 L 109.144531 159.425781 L 109.144531 157.925781 L 120.382812 157.925781 Z M 120.382812 159.425781 " fill-opacity="1" fill-rule="nonzero"/><g fill="#d41e1e" fill-opacity="1"><g transform="translate(120.381978, 160.923988)"><g><path d="M -0.625 5.625 C -0.625 7.976562 -1.148438 9.789062 -2.203125 11.0625 C -3.253906 12.34375 -4.703125 12.984375 -6.546875 12.984375 C -7.796875 12.984375 -8.753906 12.726562 -9.421875 12.21875 C -10.097656 11.71875 -10.4375 11.0625 -10.4375 10.25 C -10.4375 9.78125 -10.285156 9.378906 -9.984375 9.046875 C -9.679688 8.710938 -9.285156 8.546875 -8.796875 8.546875 C -8.316406 8.546875 -7.929688 8.675781 -7.640625 8.9375 C -7.347656 9.195312 -7.203125 9.503906 -7.203125 9.859375 C -7.203125 10.222656 -7.25 10.539062 -7.34375 10.8125 L -7.921875 10.8125 C -7.992188 11.007812 -8.03125 11.226562 -8.03125 11.46875 C -8.03125 12.238281 -7.597656 12.625 -6.734375 12.625 C -5.867188 12.625 -5.234375 12.175781 -4.828125 11.28125 C -4.429688 10.382812 -4.226562 8.84375 -4.21875 6.65625 C -4.851562 7.632812 -5.769531 8.125 -6.96875 8.125 C -8.175781 8.125 -9.128906 7.796875 -9.828125 7.140625 C -10.523438 6.492188 -10.875 5.519531 -10.875 4.21875 C -10.875 2.914062 -10.414062 1.851562 -9.5 1.03125 C -8.582031 0.21875 -7.359375 -0.1875 -5.828125 -0.1875 C -2.359375 -0.1875 -0.625 1.75 -0.625 5.625 Z M -6.046875 7.53125 C -5.628906 7.53125 -5.273438 7.375 -4.984375 7.0625 C -4.703125 6.75 -4.507812 6.378906 -4.40625 5.953125 C -4.300781 5.535156 -4.25 4.988281 -4.25 4.3125 C -4.25 3.644531 -4.253906 3.175781 -4.265625 2.90625 C -4.273438 2.644531 -4.289062 2.332031 -4.3125 1.96875 C -4.34375 1.613281 -4.390625 1.351562 -4.453125 1.1875 C -4.515625 1.03125 -4.601562 0.859375 -4.71875 0.671875 C -4.90625 0.359375 -5.210938 0.203125 -5.640625 0.203125 C -6.066406 0.203125 -6.382812 0.28125 -6.59375 0.4375 C -6.8125 0.601562 -6.96875 0.882812 -7.0625 1.28125 C -7.207031 1.851562 -7.28125 2.5625 -7.28125 3.40625 C -7.28125 4.257812 -7.273438 4.828125 -7.265625 5.109375 C -7.265625 5.390625 -7.253906 5.6875 -7.234375 6 C -7.210938 6.3125 -7.171875 6.546875 -7.109375 6.703125 C -7.054688 6.859375 -6.988281 7.007812 -6.90625 7.15625 C -6.75 7.40625 -6.460938 7.53125 -6.046875 7.53125 Z M -6.046875 7.53125 "/></g></g></g><g clip-path="url(#id5)"><path fill="#f70400" d="M 85.019531 124.628906 C 87.542969 133.792969 93.96875 141.347656 102.558594 145.257812 C 93.96875 149.171875 87.542969 156.726562 85.019531 165.886719 L 85.019531 165.890625 L 85.019531 165.886719 C 82.492188 156.726562 76.070312 149.171875 67.480469 145.257812 C 76.070312 141.347656 82.492188 133.792969 85.019531 124.628906 " fill-opacity="1" fill-rule="nonzero"/></g><g clip-path="url(#id6)"><path fill="#f70400" d="M 88.523438 12.847656 C 91.046875 22.011719 97.472656 29.566406 106.0625 33.476562 C 97.472656 37.386719 91.046875 44.945312 88.523438 54.105469 C 85.996094 44.945312 79.574219 37.386719 70.984375 33.476562 C 79.574219 29.566406 85.996094 22.011719 88.523438 12.847656 " fill-opacity="1" fill-rule="nonzero"/></g><g clip-path="url(#id7)"><path fill="#f70400" d="M 43.46875 124.628906 C 45.992188 133.792969 52.417969 141.347656 61.007812 145.257812 C 52.417969 149.171875 45.992188 156.726562 43.46875 165.886719 L 43.46875 165.890625 L 43.46875 165.886719 C 40.941406 156.726562 34.519531 149.171875 25.929688 145.257812 C 34.519531 141.347656 40.941406 133.792969 43.46875 124.628906 " fill-opacity="1" fill-rule="nonzero"/></g><g clip-path="url(#id8)"><path fill="#f70400" d="M 42.308594 72.167969 C 44.457031 79.828125 49.925781 86.148438 57.234375 89.421875 C 49.925781 92.691406 44.457031 99.011719 42.308594 106.671875 C 40.160156 99.011719 34.695312 92.691406 27.386719 89.421875 C 34.695312 86.148438 40.160156 79.828125 42.308594 72.167969 " fill-opacity="1" fill-rule="nonzero"/></g><g clip-path="url(#id9)"><path fill="#f70400" d="M 85.351562 72.167969 C 87.5 79.828125 92.964844 86.148438 100.273438 89.421875 C 92.964844 92.691406 87.5 99.011719 85.351562 106.671875 C 83.203125 99.011719 77.734375 92.691406 70.425781 89.421875 C 77.734375 86.148438 83.203125 79.828125 85.351562 72.167969 " fill-opacity="1" fill-rule="nonzero"/></g></svg>