<svg xmlns="http://www.w3.org/2000/svg" xmlns:xlink="http://www.w3.org/1999/xlink" width="170" zoomAndPan="magnify" viewBox="0 0 127.5 178.499993" height="238" preserveAspectRatio="xMidYMid meet" version="1.0"><defs><g/><clipPath id="id1"><path d="M 0 0.0976562 L 127 0.0976562 L 127 177.902344 L 0 177.902344 Z M 0 0.0976562 " clip-rule="nonzero"/></clipPath><clipPath id="id2"><path d="M 4.488281 21.945312 L 20.910156 21.945312 L 20.910156 41.445312 L 4.488281 41.445312 Z M 4.488281 21.945312 " clip-rule="nonzero"/></clipPath><clipPath id="id3"><path d="M 106.488281 137.503906 L 122.910156 137.503906 L 122.910156 157.003906 L 106.488281 157.003906 Z M 106.488281 137.503906 " clip-rule="nonzero"/></clipPath><clipPath id="id4"><path d="M 46.058594 12.847656 L 81.136719 12.847656 L 81.136719 54.097656 L 46.058594 54.097656 Z M 46.058594 12.847656 " clip-rule="nonzero"/></clipPath><clipPath id="id5"><path d="M 46.058594 124.632812 L 81.136719 124.632812 L 81.136719 165.882812 L 46.058594 165.882812 Z M 46.058594 124.632812 " clip-rule="nonzero"/></clipPath><clipPath id="id6"><path d="M 46.058594 68.742188 L 81.136719 68.742188 L 81.136719 109.992188 L 46.058594 109.992188 Z M 46.058594 68.742188 " clip-rule="nonzero"/></clipPath></defs><g clip-path="url(#id1)"><path fill="#ffffff" d="M 0 0.0976562 L 127.5 0.0976562 L 127.5 186.097656 L 0 186.097656 Z M 0 0.0976562 " fill-opacity="1" fill-rule="nonzero"/><path fill="#ffffff" d="M 0 0.0976562 L 127.5 0.0976562 L 127.5 178.597656 L 0 178.597656 Z M 0 0.0976562 " fill-opacity="1" fill-rule="nonzero"/><path fill="#ffffff" d="M 0 0.0976562 L 127.5 0.0976562 L 127.5 178.597656 L 0 178.597656 Z M 0 0.0976562 " fill-opacity="1" fill-rule="nonzero"/><path fill="#ffffff" d="M 0 0.0976562 L 127.5 0.0976562 L 127.5 178.597656 L 0 178.597656 Z M 0 0.0976562 " fill-opacity="1" fill-rule="nonzero"/></g><g clip-path="url(#id2)"><path fill="#f70400" d="M 12.699219 21.945312 C 13.878906 26.277344 16.886719 29.847656 20.910156 31.699219 C 16.886719 33.546875 13.878906 37.117188 12.699219 41.449219 C 11.515625 37.117188 8.507812 33.546875 4.488281 31.699219 C 8.507812 29.847656 11.515625 26.277344 12.699219 21.945312 " fill-opacity="1" fill-rule="nonzero"/></g><g clip-path="url(#id3)"><path fill="#f70400" d="M 114.699219 137.503906 C 115.878906 141.835938 118.886719 145.410156 122.910156 147.257812 C 118.886719 149.105469 115.878906 152.679688 114.699219 157.007812 C 113.515625 152.679688 110.507812 149.105469 106.488281 147.257812 C 110.507812 145.410156 113.515625 141.835938 114.699219 137.503906 " fill-opacity="1" fill-rule="nonzero"/></g><g clip-path="url(#id4)"><path fill="#f70400" d="M 63.597656 12.847656 C 66.125 22.011719 72.546875 29.566406 81.136719 33.476562 C 72.546875 37.386719 66.125 44.945312 63.597656 54.105469 C 61.074219 44.945312 54.648438 37.386719 46.058594 33.476562 C 54.648438 29.566406 61.074219 22.011719 63.597656 12.847656 " fill-opacity="1" fill-rule="nonzero"/></g><g fill="#d41e1e" fill-opacity="1"><g transform="translate(7.514062, 17.772726)"><g><path d="M 0.765625 -10.1875 C 0.765625 -10.988281 1.128906 -11.65625 1.859375 -12.1875 C 2.585938 -12.71875 3.671875 -12.984375 5.109375 -12.984375 C 7.890625 -12.984375 9.28125 -12.015625 9.28125 -10.078125 C 9.28125 -9.285156 8.953125 -8.628906 8.296875 -8.109375 C 7.648438 -7.597656 6.71875 -7.238281 5.5 -7.03125 L 5.5 -7 C 7.007812 -6.882812 8.125 -6.53125 8.84375 -5.9375 C 9.5625 -5.34375 9.921875 -4.566406 9.921875 -3.609375 C 9.921875 -2.441406 9.445312 -1.515625 8.5 -0.828125 C 7.5625 -0.148438 6.25 0.1875 4.5625 0.1875 C 3.90625 0.1875 3.289062 0.113281 2.71875 -0.03125 C 2.15625 -0.175781 1.648438 -0.460938 1.203125 -0.890625 C 0.765625 -1.328125 0.546875 -1.84375 0.546875 -2.4375 C 0.546875 -3.039062 0.6875 -3.503906 0.96875 -3.828125 C 1.257812 -4.160156 1.65625 -4.328125 2.15625 -4.328125 C 2.65625 -4.328125 3.050781 -4.195312 3.34375 -3.9375 C 3.632812 -3.675781 3.78125 -3.363281 3.78125 -3 C 3.78125 -2.644531 3.734375 -2.335938 3.640625 -2.078125 L 3.0625 -2.078125 C 2.988281 -1.890625 2.953125 -1.691406 2.953125 -1.484375 C 2.953125 -0.617188 3.46875 -0.1875 4.5 -0.1875 C 5.21875 -0.1875 5.707031 -0.457031 5.96875 -1 C 6.226562 -1.550781 6.359375 -2.34375 6.359375 -3.375 C 6.359375 -4.414062 6.234375 -5.171875 5.984375 -5.640625 C 5.734375 -6.109375 5.363281 -6.460938 4.875 -6.703125 C 4.4375 -6.609375 3.90625 -6.53125 3.28125 -6.46875 L 3.234375 -6.875 C 4.304688 -6.976562 5.007812 -7.226562 5.34375 -7.625 C 5.675781 -8.03125 5.84375 -8.75 5.84375 -9.78125 C 5.84375 -10.8125 5.742188 -11.546875 5.546875 -11.984375 C 5.347656 -12.429688 5.007812 -12.65625 4.53125 -12.65625 C 4.050781 -12.65625 3.710938 -12.507812 3.515625 -12.21875 C 3.316406 -11.9375 3.21875 -11.664062 3.21875 -11.40625 C 3.21875 -11.15625 3.253906 -10.929688 3.328125 -10.734375 L 3.859375 -10.734375 C 3.953125 -10.484375 4 -10.175781 4 -9.8125 C 4 -9.457031 3.847656 -9.148438 3.546875 -8.890625 C 3.242188 -8.628906 2.84375 -8.5 2.34375 -8.5 C 1.84375 -8.5 1.453125 -8.660156 1.171875 -8.984375 C 0.898438 -9.304688 0.765625 -9.707031 0.765625 -10.1875 Z M 0.765625 -10.1875 "/></g></g></g><g fill="#d41e1e" fill-opacity="1"><g transform="translate(120.381978, 160.923988)"><g><path d="M -0.765625 10.1875 C -0.765625 10.988281 -1.128906 11.65625 -1.859375 12.1875 C -2.585938 12.71875 -3.671875 12.984375 -5.109375 12.984375 C -7.890625 12.984375 -9.28125 12.015625 -9.28125 10.078125 C -9.28125 9.285156 -8.953125 8.628906 -8.296875 8.109375 C -7.648438 7.597656 -6.71875 7.238281 -5.5 7.03125 L -5.5 7 C -7.007812 6.882812 -8.125 6.53125 -8.84375 5.9375 C -9.5625 5.34375 -9.921875 4.566406 -9.921875 3.609375 C -9.921875 2.441406 -9.445312 1.515625 -8.5 0.828125 C -7.5625 0.148438 -6.25 -0.1875 -4.5625 -0.1875 C -3.90625 -0.1875 -3.289062 -0.113281 -2.71875 0.03125 C -2.15625 0.175781 -1.648438 0.460938 -1.203125 0.890625 C -0.765625 1.328125 -0.546875 1.84375 -0.546875 2.4375 C -0.546875 3.039062 -0.6875 3.503906 -0.96875 3.828125 C -1.257812 4.160156 -1.65625 4.328125 -2.15625 4.328125 C -2.65625 4.328125 -3.050781 4.195312 -3.34375 3.9375 C -3.632812 3.675781 -3.78125 3.363281 -3.78125 3 C -3.78125 2.644531 -3.734375 2.335938 -3.640625 2.078125 L -3.0625 2.078125 C -2.988281 1.890625 -2.953125 1.691406 -2.953125 1.484375 C -2.953125 0.617188 -3.46875 0.1875 -4.5 0.1875 C -5.21875 0.1875 -5.707031 0.457031 -5.96875 1 C -6.226562 1.550781 -6.359375 2.34375 -6.359375 3.375 C -6.359375 4.414062 -6.234375 5.171875 -5.984375 5.640625 C -5.734375 6.109375 -5.363281 6.460938 -4.875 6.703125 C -4.4375 6.609375 -3.90625 6.53125 -3.28125 6.46875 L -3.234375 6.875 C -4.304688 6.976562 -5.007812 7.226562 -5.34375 7.625 C -5.675781 8.03125 -5.84375 8.75 -5.84375 9.78125 C -5.84375 10.8125 -5.742188 11.546875 -5.546875 11.984375 C -5.347656 12.429688 -5.007812 12.65625 -4.53125 12.65625 C -4.050781 12.65625 -3.710938 12.507812 -3.515625 12.21875 C -3.316406 11.9375 -3.21875 11.664062 -3.21875 11.40625 C -3.21875 11.15625 -3.253906 10.929688 -3.328125 10.734375 L -3.859375 10.734375 C -3.953125 10.484375 -4 10.175781 -4 9.8125 C -4 9.457031 -3.847656 9.148438 -3.546875 8.890625 C -3.242188 8.628906 -2.84375 8.5 -2.34375 8.5 C -1.84375 8.5 -1.453125 8.660156 -1.171875 8.984375 C -0.898438 9.304688 -0.765625 9.707031 -0.765625 10.1875 Z M -0.765625 10.1875 "/></g></g></g><g clip-path="url(#id5)"><path fill="#f70400" d="M 63.597656 124.628906 C 66.125 133.792969 72.546875 141.347656 81.136719 145.257812 C 72.546875 149.171875 66.125 156.726562 63.597656 165.886719 L 63.597656 165.890625 L 63.597656 165.886719 C 61.074219 156.726562 54.648438 149.171875 46.058594 145.257812 C 54.648438 141.347656 61.074219 133.792969 63.597656 124.628906 " fill-opacity="1" fill-rule="nonzero"/></g><g clip-path="url(#id6)"><path fill="#f70400" d="M 63.597656 68.738281 C 66.125 77.902344 72.546875 85.457031 81.136719 89.367188 C 72.546875 93.28125 66.125 100.835938 63.597656 109.996094 C 61.074219 100.835938 54.648438 93.28125 46.058594 89.367188 C 54.648438 85.457031 61.074219 77.902344 63.597656 68.738281 " fill-opacity="1" fill-rule="nonzero"/></g></svg>