<svg xmlns="http://www.w3.org/2000/svg" xmlns:xlink="http://www.w3.org/1999/xlink" width="40" zoomAndPan="magnify" viewBox="0 0 30 30.000001" height="40" preserveAspectRatio="xMidYMid meet" version="1.0"><defs><clipPath id="id1"><path d="M 0.484375 2.902344 L 29.515625 2.902344 L 29.515625 5.082031 L 0.484375 5.082031 Z M 0.484375 2.902344 " clip-rule="nonzero"/></clipPath><clipPath id="id2"><path d="M 0.484375 13.566406 L 29.515625 13.566406 L 29.515625 15.742188 L 0.484375 15.742188 Z M 0.484375 13.566406 " clip-rule="nonzero"/></clipPath><clipPath id="id3"><path d="M 0.484375 25.179688 L 29.515625 25.179688 L 29.515625 27.355469 L 0.484375 27.355469 Z M 0.484375 25.179688 " clip-rule="nonzero"/></clipPath></defs><g clip-path="url(#id1)"><path fill="#000000" d="M 28.257812 2.902344 L 1.742188 2.902344 C 1.21875 2.902344 0.796875 3.390625 0.796875 3.992188 C 0.796875 4.59375 1.21875 5.082031 1.742188 5.082031 L 28.257812 5.082031 C 28.78125 5.082031 29.203125 4.59375 29.203125 3.992188 C 29.203125 3.390625 28.78125 2.902344 28.257812 2.902344 Z M 28.257812 2.902344 " fill-opacity="1" fill-rule="nonzero"/></g><g clip-path="url(#id2)"><path fill="#000000" d="M 28.257812 13.566406 L 1.742188 13.566406 C 1.21875 13.566406 0.796875 14.054688 0.796875 14.65625 C 0.796875 15.257812 1.21875 15.742188 1.742188 15.742188 L 28.257812 15.742188 C 28.78125 15.742188 29.203125 15.257812 29.203125 14.65625 C 29.203125 14.054688 28.78125 13.566406 28.257812 13.566406 Z M 28.257812 13.566406 " fill-opacity="1" fill-rule="nonzero"/></g><g clip-path="url(#id3)"><path fill="#000000" d="M 28.257812 25.179688 L 1.742188 25.179688 C 1.21875 25.179688 0.796875 25.667969 0.796875 26.269531 C 0.796875 26.867188 1.21875 27.355469 1.742188 27.355469 L 28.257812 27.355469 C 28.78125 27.355469 29.203125 26.867188 29.203125 26.269531 C 29.203125 25.667969 28.78125 25.179688 28.257812 25.179688 Z M 28.257812 25.179688 " fill-opacity="1" fill-rule="nonzero"/></g></svg>